<?xml version="1.0" standalone="no"?>
<!DOCTYPE svg PUBLIC "-//W3C//DTD SVG 20010904//EN"
 "http://www.w3.org/TR/2001/REC-SVG-20010904/DTD/svg10.dtd">
<svg version="1.0" xmlns="http://www.w3.org/2000/svg"
 width="1408.000000pt" height="736.000000pt" viewBox="0 0 1408.000000 736.000000"
 preserveAspectRatio="xMidYMid meet">

<g transform="translate(0.000000,736.000000) scale(0.100000,-0.100000)"
fill="#000000" stroke="none">
<path d="M2590 6098 c-57 -9 -124 -28 -221 -60 -30 -10 -63 -18 -72 -18 -9 0
-17 -4 -17 -10 0 -5 -6 -10 -13 -10 -20 0 -114 -51 -202 -110 -95 -64 -271
-239 -337 -337 -27 -38 -48 -75 -48 -81 0 -7 -4 -12 -8 -12 -5 0 -16 -19 -26
-42 -10 -24 -30 -67 -43 -97 -13 -30 -27 -68 -30 -85 -3 -17 -10 -40 -16 -50
-10 -20 -20 -80 -36 -216 -10 -87 2 -310 22 -420 20 -109 98 -324 127 -350 3
-3 23 -32 45 -65 49 -74 65 -94 140 -169 69 -69 112 -106 123 -106 4 0 21 -14
39 -30 18 -17 35 -30 38 -30 4 0 21 -11 39 -25 18 -14 38 -25 44 -25 7 0 12
-3 12 -8 0 -4 9 -12 20 -17 106 -54 364 -181 395 -195 152 -70 165 -72 159
-21 -2 16 2 33 8 37 7 5 8 3 3 -6 -6 -9 -4 -11 5 -5 8 5 10 20 7 41 -4 20 -2
32 3 29 6 -3 7 1 4 9 -4 11 0 16 15 16 12 0 21 5 21 11 0 6 -7 8 -16 5 -10 -4
-13 -2 -7 7 4 6 8 18 9 25 2 11 0 11 -13 0 -14 -11 -16 -10 -9 15 4 17 2 27
-5 27 -6 0 -3 7 6 16 14 15 14 17 -2 29 -14 10 -15 16 -5 27 6 8 8 18 4 23 -4
4 3 5 16 2 28 -7 28 0 0 24 -11 11 -16 19 -10 19 7 0 12 10 12 23 0 14 3 18 8
10 5 -8 13 -9 22 -3 10 6 11 10 3 10 -14 0 -6 31 10 41 12 9 -1 31 -14 24 -5
-4 -9 -1 -9 4 0 6 5 11 11 11 6 0 9 7 5 15 -3 8 0 14 7 12 7 -1 12 7 12 18 0
11 4 26 8 32 6 9 3 11 -8 6 -15 -5 -15 -3 -4 15 7 12 16 17 19 12 11 -18 32
-14 36 8 3 15 -1 22 -13 22 -15 0 -15 1 -1 13 16 13 34 52 19 43 -5 -3 -15 2
-22 11 -8 9 -9 14 -3 10 7 -4 11 5 12 24 1 29 0 30 -17 15 -10 -9 -24 -16 -32
-16 -12 0 -11 2 1 10 13 8 13 10 -2 10 -9 0 -19 6 -22 13 -3 6 -3 2 0 -10 4
-17 2 -21 -9 -17 -8 3 -18 0 -23 -7 -4 -8 -3 -10 4 -5 7 4 12 2 12 -3 0 -15
-17 -14 -26 1 -4 6 1 17 11 25 11 7 14 13 8 13 -7 0 -15 -5 -18 -10 -5 -8 -11
-7 -21 1 -7 6 -12 15 -9 19 2 4 -7 12 -20 18 -14 7 -25 20 -25 31 0 11 -4 22
-9 25 -12 8 -20 66 -9 66 4 0 8 7 8 15 0 9 9 15 21 15 16 0 19 4 15 17 -6 14
-3 14 15 -3 12 -10 19 -13 15 -6 -4 7 -1 12 8 12 8 0 16 6 19 13 3 9 16 5 46
-12 28 -15 46 -20 52 -14 7 7 -2 15 -23 23 -18 8 -35 17 -38 20 -7 10 -91 59
-112 66 -10 4 -18 10 -18 15 0 5 -4 9 -9 9 -15 0 -97 78 -126 119 -65 94 -90
230 -59 327 21 71 41 101 115 177 31 31 52 57 46 57 -6 0 -6 5 -1 13 5 6 8 26
7 42 -2 17 -3 45 -3 63 0 22 -4 30 -12 26 -8 -5 -9 -2 -5 9 3 10 2 17 -3 17
-5 0 -7 7 -4 15 4 8 2 15 -4 15 -15 0 -33 -26 -24 -36 4 -4 -1 -2 -11 6 -18
13 -18 15 -1 27 10 7 22 13 27 13 6 0 2 10 -9 21 -12 14 -15 23 -8 26 7 2 11
12 9 21 -1 9 0 11 2 5 10 -29 21 -11 13 20 -9 29 -8 30 5 13 8 -11 17 -17 20
-14 8 7 -5 38 -16 38 -5 0 -9 15 -9 34 0 19 -5 36 -12 38 -13 5 -19 58 -7 73
4 6 1 27 -6 47 -8 24 -9 38 -2 41 6 2 11 20 11 41 1 29 4 36 18 33 10 -3 18 3
21 15 4 14 2 18 -9 14 -18 -7 -18 8 0 27 12 12 13 18 2 32 -7 10 -18 15 -24
11 -7 -4 -12 -2 -12 3 0 6 9 11 21 11 29 0 54 27 40 44 -14 17 5 36 36 36 13
0 23 5 23 10 0 12 -43 11 -120 -2z m20 -720 c0 -4 -4 -8 -9 -8 -6 0 -12 4 -15
8 -3 5 1 9 9 9 8 0 15 -4 15 -9z m84 -1129 c-3 -5 -11 -9 -19 -9 -8 0 -16 4
-19 9 -3 5 5 9 19 9 14 0 22 -4 19 -9z m33 -26 c3 -7 -4 -9 -16 -6 -12 3 -18
9 -15 15 7 11 26 6 31 -9z"/>
<path d="M2600 5711 c0 -10 19 -25 25 -20 1 2 -3 10 -11 17 -8 7 -14 8 -14 3z"/>
<path d="M2595 5500 c-4 -6 -5 -10 -3 -11 25 -6 38 -6 38 1 0 12 -29 20 -35
10z"/>
<path d="M2815 5313 l-40 -13 40 5 c22 3 58 5 79 5 47 0 45 6 -4 12 -19 2 -53
-2 -75 -9z"/>
<path d="M2890 4422 c0 -5 9 -12 21 -15 13 -3 19 -1 16 6 -5 15 -37 22 -37 9z"/>
<path d="M2940 4395 c0 -8 7 -15 15 -15 8 0 15 4 15 9 0 5 -7 11 -15 15 -9 3
-15 0 -15 -9z"/>
<path d="M2990 4370 c0 -5 10 -10 23 -10 18 0 19 2 7 10 -19 13 -30 13 -30 0z"/>
<path d="M2841 4264 c0 -11 3 -14 6 -6 3 7 2 16 -1 19 -3 4 -6 -2 -5 -13z"/>
<path d="M2810 4260 c0 -5 5 -10 10 -10 6 0 10 5 10 10 0 6 -4 10 -10 10 -5 0
-10 -4 -10 -10z"/>
<path d="M2786 3861 c-4 -7 -5 -15 -2 -18 9 -9 19 4 14 18 -4 11 -6 11 -12 0z"/>
<path d="M1490 2833 c0 -5 11 -21 25 -37 13 -16 27 -37 30 -47 4 -11 11 -19
16 -19 5 0 9 -6 9 -14 0 -8 3 -16 8 -18 4 -1 23 -25 42 -53 19 -27 42 -56 52
-63 10 -7 18 -18 18 -23 0 -9 8 -21 38 -54 6 -7 12 -16 12 -20 0 -12 75 -113
92 -124 14 -9 20 -6 32 17 9 15 15 23 16 18 0 -5 7 -3 15 4 12 10 13 15 4 20
-6 4 -8 13 -4 20 5 8 10 9 18 1 6 -6 17 -11 25 -11 12 0 12 3 1 17 -12 15 -12
16 1 8 13 -8 13 -7 1 8 -12 15 -11 17 3 17 9 0 25 14 34 30 10 18 23 28 31 25
8 -3 11 0 8 9 -3 8 1 13 11 13 33 0 42 3 42 13 0 5 -7 7 -15 4 -8 -4 -15 -1
-15 6 0 6 5 8 10 5 6 -3 10 -2 10 3 0 12 87 4 112 -9 17 -9 85 -13 76 -4 -2 3
-17 6 -31 7 -15 1 -29 8 -31 15 -3 7 -19 13 -35 13 -16 0 -33 5 -36 10 -3 6
-19 10 -35 10 -16 0 -31 4 -34 9 -4 5 -24 12 -46 16 -22 4 -42 11 -46 16 -3 5
-16 9 -28 9 -13 0 -29 7 -36 15 -7 8 -19 15 -26 15 -8 0 -22 4 -32 9 -49 25
-95 41 -117 41 -13 0 -27 5 -30 10 -3 6 -15 10 -27 10 -11 0 -32 6 -46 14 -74
39 -122 54 -122 39z m425 -173 c3 -5 -1 -10 -10 -10 -9 0 -13 5 -10 10 3 6 8
10 10 10 2 0 7 -4 10 -10z m68 -31 c1 2 12 1 25 -3 28 -9 30 -42 2 -42 -11 0
-20 5 -20 10 0 5 -7 1 -15 -10 -13 -18 -14 -18 -8 5 5 20 3 23 -10 18 -20 -7
-47 1 -47 14 0 5 3 8 8 7 4 -2 8 1 9 6 3 20 28 25 41 8 7 -9 14 -15 15 -13z
m-76 -44 c0 -8 -7 -15 -15 -15 -12 0 -12 3 -2 15 7 8 13 15 15 15 1 0 2 -7 2
-15z"/>
<path d="M2050 2540 c0 -5 5 -10 10 -10 6 0 10 5 10 10 0 6 -4 10 -10 10 -5 0
-10 -4 -10 -10z"/>
</g>
</svg>
