<?xml version="1.0" standalone="no"?>
<!DOCTYPE svg PUBLIC "-//W3C//DTD SVG 20010904//EN"
 "http://www.w3.org/TR/2001/REC-SVG-20010904/DTD/svg10.dtd">
<svg version="1.0" xmlns="http://www.w3.org/2000/svg"
 width="1344.000000pt" height="768.000000pt" viewBox="0 0 1344.000000 768.000000"
 preserveAspectRatio="xMidYMid meet">

<g transform="translate(0.000000,768.000000) scale(0.100000,-0.100000)"
fill="#000000" stroke="none">
<path d="M0 3840 l0 -3840 6720 0 6720 0 0 3840 0 3840 -6720 0 -6720 0 0
-3840z m13300 90 l0 -3710 -6590 0 -6590 0 0 3710 0 3710 6590 0 6590 0 0
-3710z"/>
<path d="M2691 5607 c-119 -13 -168 -22 -176 -33 -6 -8 -36 -19 -67 -23 -31
-4 -63 -15 -72 -23 -8 -9 -34 -19 -56 -23 -23 -4 -40 -12 -40 -20 0 -7 -15
-16 -34 -19 -20 -4 -41 -16 -50 -31 -9 -14 -23 -25 -31 -25 -8 0 -19 -9 -25
-20 -6 -11 -16 -20 -24 -20 -7 0 -22 -10 -34 -22 -11 -13 -39 -39 -61 -58 -23
-19 -41 -40 -41 -47 0 -7 -7 -13 -15 -13 -9 0 -20 -11 -25 -24 -5 -13 -15 -28
-23 -33 -7 -4 -19 -22 -26 -40 -7 -17 -19 -34 -27 -37 -8 -3 -14 -14 -14 -25
0 -11 -9 -26 -19 -33 -11 -8 -22 -31 -26 -52 -4 -21 -13 -40 -20 -42 -7 -3
-19 -35 -25 -72 -7 -37 -20 -75 -29 -86 -14 -16 -16 -55 -16 -303 0 -255 2
-286 17 -297 17 -12 23 -31 33 -99 3 -21 12 -45 20 -53 8 -8 17 -30 21 -49 3
-18 15 -41 25 -51 10 -9 19 -25 19 -35 0 -10 6 -22 14 -26 7 -4 20 -22 29 -38
8 -17 24 -39 36 -49 12 -11 21 -24 21 -30 0 -6 9 -17 20 -24 11 -7 20 -19 20
-27 0 -8 9 -15 19 -15 11 0 23 -9 26 -20 4 -11 22 -27 41 -35 19 -8 34 -19 34
-24 0 -6 6 -11 13 -11 7 0 29 -13 47 -30 18 -16 40 -30 47 -30 7 0 21 -9 30
-20 10 -11 25 -20 33 -20 9 0 31 -11 50 -25 19 -14 42 -25 51 -25 10 0 24 -9
31 -19 8 -11 30 -22 51 -26 20 -4 46 -16 58 -26 12 -10 30 -19 40 -19 10 0 30
-11 45 -25 15 -14 39 -25 54 -25 15 0 37 -9 50 -20 13 -11 37 -20 54 -20 17 0
45 -9 61 -20 17 -11 45 -20 63 -20 30 0 32 1 18 16 -20 19 -22 42 -3 26 10 -8
13 -5 15 16 1 15 8 32 15 37 7 6 11 20 9 33 -2 12 1 22 7 22 5 0 12 12 15 28
4 15 20 36 36 47 18 12 28 26 25 35 -2 8 0 22 5 30 5 8 10 12 10 8 0 -5 9 1
21 13 11 11 18 23 15 26 -3 3 -1 14 5 24 6 12 6 19 0 19 -5 0 -12 -6 -14 -12
-4 -10 -6 -10 -6 0 -1 7 6 15 14 18 8 4 12 10 9 15 -3 5 3 9 12 9 16 0 15 2
-2 21 -13 14 -14 20 -4 17 8 -2 15 2 15 7 1 6 9 27 18 47 18 39 41 62 31 31
-5 -17 -5 -17 6 0 6 10 9 25 6 33 -3 8 1 14 9 14 8 0 15 5 15 10 0 6 -5 10
-11 10 -6 0 -1 13 10 28 11 16 23 41 26 58 5 20 4 25 -3 15 -15 -20 -33 -3
-26 24 5 20 0 26 -30 39 -20 8 -36 19 -36 23 0 9 -48 33 -67 33 -8 0 -16 7
-19 15 -4 8 -14 15 -24 15 -30 0 -80 22 -80 35 0 14 -22 25 -49 25 -10 0 -30
11 -45 25 -15 14 -36 25 -46 25 -11 0 -24 9 -30 19 -5 11 -20 21 -32 23 -13 2
-27 13 -33 26 -5 12 -18 25 -28 28 -9 3 -24 19 -32 35 -9 16 -19 29 -24 29 -4
0 -14 19 -22 43 -7 23 -19 47 -26 52 -20 15 -19 206 0 220 9 6 18 28 22 48 4
21 15 42 25 47 10 6 22 19 25 30 3 11 12 20 19 20 7 0 23 11 36 24 12 14 37
28 54 31 17 4 38 15 46 26 17 22 52 27 168 28 l83 1 -25 23 c-20 19 -23 26
-13 36 9 10 8 11 -7 5 -14 -5 -17 -4 -12 4 4 7 0 19 -8 28 -18 18 -21 34 -5
34 5 0 7 -6 3 -12 -5 -10 -4 -10 6 -1 17 16 5 44 -15 37 -13 -5 -15 -2 -9 22
4 16 11 30 16 32 4 2 2 13 -6 24 -13 18 -12 23 5 41 21 23 24 37 8 37 -5 0 -8
-4 -4 -9 3 -5 1 -12 -4 -15 -12 -8 -22 20 -15 39 4 8 1 21 -5 29 -9 11 -8 18
4 30 9 9 12 16 6 16 -5 0 -9 13 -9 29 1 16 -6 37 -16 46 -20 21 -20 26 1 18
11 -4 14 -3 9 6 -16 26 -17 68 -1 74 8 4 15 11 15 17 0 6 -6 8 -12 4 -8 -5 -8
-2 1 10 12 14 12 17 1 14 -8 -2 -16 6 -18 16 -3 14 0 17 11 13 9 -3 18 1 21 9
3 8 -1 14 -10 14 -8 0 -13 4 -10 9 14 22 -93 26 -253 8z m462 -1784 c-3 -7 -6
-13 -8 -13 -2 0 -5 6 -8 13 -3 8 1 14 8 14 7 0 11 -6 8 -14z"/>
<path d="M5520 4373 c-14 -3 -27 -9 -30 -13 -3 -5 -34 -14 -70 -21 -36 -7 -74
-20 -85 -30 -11 -9 -32 -19 -47 -23 -15 -3 -44 -17 -64 -31 -20 -14 -43 -25
-50 -25 -8 0 -14 -5 -14 -10 0 -6 -11 -15 -25 -20 -14 -5 -25 -15 -25 -22 0
-7 -9 -19 -20 -26 -11 -7 -20 -19 -20 -27 0 -8 -9 -19 -20 -25 -11 -6 -20 -17
-20 -25 0 -8 -9 -19 -19 -25 -11 -5 -23 -24 -26 -42 -4 -18 -16 -44 -26 -58
-39 -52 -38 -411 1 -448 9 -9 23 -34 29 -54 7 -21 16 -38 21 -38 4 0 13 -13
19 -30 5 -16 17 -30 25 -30 8 0 19 -6 23 -14 10 -17 69 -61 102 -76 13 -6 35
-19 49 -30 13 -11 35 -20 47 -20 12 0 32 -9 44 -19 12 -10 38 -22 59 -26 20
-4 44 -13 53 -21 9 -8 53 -21 99 -28 45 -7 85 -18 89 -24 3 -6 35 -14 71 -17
36 -4 79 -15 95 -25 17 -10 50 -21 75 -25 25 -4 56 -16 69 -26 12 -10 38 -21
57 -25 19 -3 37 -10 40 -15 3 -5 21 -16 40 -24 26 -10 40 -26 55 -59 11 -25
24 -48 29 -51 15 -9 12 -121 -2 -137 -7 -7 -21 -30 -30 -50 -10 -21 -22 -38
-26 -38 -5 0 -26 -13 -47 -30 -21 -16 -45 -30 -53 -30 -8 0 -21 -8 -28 -17
-11 -16 -33 -18 -197 -18 -162 0 -187 2 -204 17 -11 10 -35 23 -54 29 -19 7
-42 19 -51 28 -72 68 -90 91 -100 126 -7 22 -18 44 -25 48 -7 4 -13 19 -13 33
0 14 -5 34 -10 44 -10 18 -21 19 -213 13 -111 -3 -212 -10 -224 -14 -19 -7
-22 -13 -16 -41 3 -18 10 -38 14 -44 5 -6 14 -46 20 -89 6 -44 17 -84 24 -89
7 -6 19 -30 25 -53 6 -24 15 -43 21 -43 5 0 15 -12 22 -27 16 -35 109 -129
136 -138 12 -3 21 -10 21 -15 0 -5 18 -14 39 -20 21 -5 41 -17 44 -25 3 -7 23
-17 44 -21 21 -4 46 -14 55 -24 9 -10 38 -21 65 -25 26 -3 59 -14 72 -22 17
-11 64 -18 155 -23 148 -8 426 4 436 19 3 6 37 18 75 26 39 9 74 23 78 31 4 8
17 14 29 14 12 0 36 11 54 25 18 14 40 25 49 25 9 0 19 9 22 20 3 11 12 20 21
20 19 0 112 97 112 116 0 8 7 17 15 20 8 3 19 23 25 45 6 21 18 45 26 54 19
19 57 225 50 270 -2 17 -11 73 -19 127 -11 71 -21 102 -36 117 -12 12 -21 28
-21 35 0 8 -11 27 -25 42 -14 15 -25 32 -25 38 0 6 -20 27 -45 46 -25 19 -59
45 -74 58 -16 12 -34 22 -41 22 -7 0 -24 9 -39 19 -15 11 -45 22 -66 26 -22 4
-48 14 -57 23 -10 8 -41 19 -69 23 -28 5 -60 16 -69 24 -11 10 -49 21 -91 26
-40 5 -79 15 -88 23 -9 8 -47 17 -86 21 -38 4 -77 13 -85 21 -9 7 -37 18 -64
24 -27 6 -60 20 -74 30 -13 11 -32 20 -41 20 -32 1 -81 58 -95 112 -32 124 43
254 156 272 22 4 50 13 61 21 29 21 190 21 210 1 8 -8 40 -19 72 -25 35 -7 66
-19 77 -31 10 -11 25 -20 33 -20 8 0 15 -7 15 -15 0 -9 7 -18 15 -21 19 -8 64
-101 72 -149 l6 -35 203 0 c199 0 204 1 215 22 15 28 3 176 -15 198 -8 8 -19
34 -25 58 -7 23 -16 42 -21 42 -5 0 -17 17 -27 37 -9 21 -25 45 -35 55 -10 10
-18 23 -18 28 0 6 -5 10 -11 10 -6 0 -23 12 -38 28 -48 47 -78 72 -89 72 -5 0
-20 9 -34 19 -13 11 -41 23 -62 27 -21 4 -46 14 -56 24 -10 10 -42 20 -81 24
-37 4 -72 15 -83 24 -15 15 -46 17 -205 19 -102 1 -197 -1 -211 -4z"/>
<path d="M8524 4361 c-23 -10 -76 -22 -118 -26 -59 -6 -79 -12 -86 -25 -6 -11
-27 -21 -51 -25 -22 -4 -43 -13 -46 -21 -3 -8 -23 -17 -44 -20 -24 -4 -44 -14
-50 -25 -5 -11 -15 -19 -22 -19 -7 -1 -28 -14 -47 -30 -19 -17 -38 -30 -43
-30 -9 0 -117 -109 -117 -118 0 -4 -11 -20 -25 -36 -14 -17 -28 -40 -31 -53
-4 -13 -12 -23 -19 -23 -8 0 -19 -17 -26 -37 -7 -21 -20 -44 -31 -51 -11 -8
-18 -25 -18 -45 0 -20 -8 -39 -20 -50 -11 -9 -20 -29 -20 -44 0 -37 -19 -103
-29 -103 -39 0 -36 -634 3 -663 8 -7 20 -41 25 -76 6 -35 17 -71 25 -80 8 -9
17 -33 21 -53 4 -20 16 -44 26 -54 10 -9 19 -25 19 -34 0 -9 9 -25 20 -35 11
-10 22 -27 26 -39 4 -11 15 -30 25 -41 10 -11 29 -31 42 -45 13 -14 26 -33 30
-42 3 -10 13 -18 21 -18 7 0 16 -9 19 -20 3 -11 13 -23 24 -27 10 -4 24 -15
31 -25 7 -10 19 -18 27 -18 8 0 19 -8 24 -19 6 -10 27 -22 46 -25 20 -4 38
-13 41 -21 3 -7 23 -16 45 -20 21 -4 43 -13 47 -21 4 -8 35 -19 67 -25 33 -6
70 -17 82 -24 57 -37 561 -36 604 1 8 8 44 18 78 22 40 6 67 15 72 24 5 9 24
19 44 22 19 4 39 15 45 26 6 11 17 20 25 20 8 0 26 11 41 25 15 14 33 25 40
25 7 0 16 9 19 20 3 11 11 20 16 20 14 0 79 64 79 78 0 6 9 13 19 17 10 3 22
17 25 31 4 13 15 33 25 43 10 10 21 29 24 43 4 13 15 34 26 46 10 13 22 44 26
69 4 26 15 57 25 70 15 19 19 54 25 256 4 129 4 249 0 266 l-7 31 -461 -2
-462 -3 -3 -150 c-2 -82 0 -165 3 -182 l6 -33 240 0 c277 0 266 4 231 -94 -12
-34 -22 -68 -22 -76 0 -8 -9 -21 -20 -28 -11 -7 -20 -17 -20 -23 0 -16 -53
-79 -67 -79 -7 0 -17 -9 -23 -20 -6 -11 -22 -23 -37 -26 -14 -4 -34 -15 -43
-24 -11 -11 -42 -19 -85 -24 -37 -4 -80 -13 -96 -21 -36 -19 -122 -19 -158 -1
-15 8 -52 18 -81 22 -30 4 -61 15 -71 25 -10 10 -34 21 -54 25 -19 3 -40 15
-46 25 -5 11 -16 19 -23 19 -16 0 -116 98 -116 114 0 6 -9 19 -20 29 -11 9
-20 27 -20 41 0 13 -8 34 -19 47 -10 13 -24 49 -30 79 -6 30 -17 58 -24 62 -9
5 -12 66 -12 232 0 196 2 226 17 242 9 11 20 43 24 71 3 29 13 58 20 64 8 6
19 30 25 52 6 23 20 47 30 55 10 7 19 17 19 22 0 12 56 70 68 70 6 0 13 8 17
18 3 11 23 25 45 32 21 7 41 19 44 25 2 7 24 16 48 20 24 4 51 15 62 24 27 23
260 24 297 0 13 -9 44 -20 67 -24 24 -4 46 -13 48 -20 3 -7 15 -16 27 -19 40
-10 167 -146 167 -177 0 -9 6 -19 14 -22 7 -3 17 -22 20 -42 4 -20 13 -39 21
-41 8 -3 70 -1 137 6 68 7 157 15 198 19 41 4 83 11 93 15 16 8 17 10 2 33 -9
13 -20 50 -25 81 -5 31 -16 60 -24 64 -8 4 -17 26 -21 47 -4 22 -13 42 -21 45
-8 3 -21 23 -30 46 -9 22 -20 40 -24 40 -4 0 -13 14 -19 30 -5 17 -15 30 -21
30 -6 0 -15 11 -20 25 -5 14 -16 25 -24 25 -9 0 -20 9 -26 20 -6 11 -17 20
-25 20 -8 0 -20 8 -27 18 -7 9 -26 26 -43 37 -16 10 -36 25 -43 32 -7 7 -22
13 -32 13 -11 0 -28 9 -39 21 -10 11 -39 25 -62 30 -24 6 -51 16 -59 24 -8 7
-44 16 -80 20 -36 4 -78 14 -95 23 -22 12 -67 17 -175 19 -127 3 -150 1 -186
-16z"/>
<path d="M6870 4343 c-5 -71 -7 -2142 -3 -2168 l6 -35 223 0 224 0 0 1099 c0
993 -2 1099 -16 1105 -23 9 -434 7 -434 -1z"/>
<path d="M10525 4330 c-1 -3 -6 -21 -10 -40 -4 -19 -14 -43 -23 -52 -8 -10
-19 -41 -23 -70 -5 -29 -15 -58 -23 -63 -7 -6 -17 -34 -21 -63 -4 -29 -13 -56
-21 -60 -8 -4 -17 -30 -20 -57 -3 -28 -14 -62 -25 -77 -10 -15 -22 -46 -25
-70 -4 -24 -15 -54 -24 -68 -9 -14 -20 -47 -24 -74 -3 -27 -13 -54 -21 -60 -8
-6 -19 -36 -25 -66 -6 -30 -16 -59 -24 -65 -7 -5 -16 -31 -20 -57 -5 -31 -14
-51 -25 -58 -13 -6 -20 -26 -24 -65 -3 -33 -14 -65 -26 -81 -13 -16 -21 -41
-21 -64 0 -23 -7 -43 -19 -54 -11 -10 -21 -37 -25 -66 -4 -33 -13 -53 -25 -59
-13 -8 -20 -25 -23 -64 -3 -35 -12 -64 -26 -82 -13 -16 -22 -42 -22 -61 0 -20
-8 -40 -19 -51 -11 -10 -24 -43 -30 -77 -6 -32 -17 -64 -25 -70 -7 -6 -16 -33
-20 -61 -3 -27 -12 -55 -20 -61 -8 -5 -20 -39 -26 -75 -6 -35 -18 -69 -27 -76
-10 -8 -16 -30 -17 -65 l-1 -53 227 -3 227 -2 7 35 c3 19 14 45 24 58 9 12 20
42 24 67 4 25 15 52 25 60 12 10 21 32 24 63 2 26 11 55 19 65 9 9 19 37 23
62 3 25 9 52 11 61 10 36 50 40 413 37 400 -3 373 3 384 -89 4 -29 13 -59 21
-68 8 -9 18 -41 22 -71 3 -30 13 -62 20 -70 7 -9 20 -45 28 -80 8 -35 22 -67
29 -72 8 -4 18 -19 21 -33 l6 -25 226 0 227 0 -5 49 c-3 27 -12 56 -20 65 -9
8 -19 37 -23 63 -4 26 -15 62 -26 79 -10 17 -19 44 -19 60 0 16 -9 44 -20 62
-11 17 -23 51 -26 75 -4 23 -13 47 -20 53 -8 6 -19 35 -24 64 -6 30 -17 61
-25 69 -7 9 -19 38 -24 63 -6 26 -20 62 -31 80 -11 18 -20 44 -20 57 0 13 -9
38 -19 55 -11 17 -22 52 -26 79 -4 26 -13 51 -21 55 -8 4 -18 31 -23 59 -6 28
-19 69 -31 90 -11 21 -20 49 -20 63 0 14 -9 39 -20 55 -11 17 -20 39 -20 50 0
12 -9 39 -21 60 -11 22 -23 60 -26 85 -3 25 -13 54 -23 65 -10 11 -21 43 -25
70 -4 28 -15 59 -25 70 -10 11 -21 41 -25 68 -4 26 -15 57 -25 70 -9 12 -20
44 -24 71 -4 27 -16 61 -26 75 -10 14 -21 46 -24 71 -4 24 -11 49 -16 56 -6 6
-16 29 -24 50 l-13 39 -247 0 c-136 0 -249 -2 -251 -5z m280 -597 c4 -21 13
-46 22 -55 8 -9 18 -46 23 -83 5 -37 15 -74 23 -83 8 -9 18 -43 22 -75 4 -32
14 -65 22 -72 17 -18 33 -69 33 -108 0 -15 9 -40 19 -55 10 -15 22 -49 25 -77
4 -28 13 -53 21 -58 23 -13 18 -36 -11 -47 -15 -6 -120 -9 -253 -8 l-226 3 -3
27 c-2 16 5 39 17 55 12 15 25 52 31 80 5 29 16 63 24 75 8 13 17 42 21 65 3
22 15 49 26 59 12 11 19 30 19 56 0 24 8 50 21 68 13 17 24 49 27 82 2 30 12
61 22 73 10 11 21 41 24 68 6 36 11 47 25 47 14 0 21 -10 26 -37z"/>
<path d="M1700 2672 c0 -6 11 -24 25 -40 14 -17 25 -33 25 -37 0 -4 12 -20 28
-36 59 -62 73 -82 79 -110 3 -16 11 -29 19 -29 7 0 15 -8 18 -17 4 -10 31 -45
61 -78 30 -33 55 -63 55 -67 0 -5 9 -8 20 -8 11 0 20 5 20 11 0 22 34 3 41
-24 7 -24 5 -28 -9 -22 -14 5 -14 4 -5 -6 14 -14 53 -23 53 -12 0 3 -7 14 -14
22 -11 12 -12 21 -5 31 9 13 10 12 5 -2 -3 -10 -1 -20 4 -23 6 -4 11 -1 11 4
2 14 6 30 9 34 1 1 3 10 5 20 2 11 6 22 10 25 8 8 45 -35 45 -52 0 -8 -2 -8
-8 0 -8 12 -42 15 -42 4 0 -4 15 -11 34 -17 28 -9 33 -8 32 6 0 9 -5 19 -11
23 -5 4 -6 10 -2 14 3 4 13 1 21 -5 9 -7 17 -8 20 -2 3 5 0 12 -6 14 -10 4
-10 6 0 6 7 1 10 6 6 13 -5 8 -2 9 9 5 9 -3 27 -3 39 2 17 6 22 17 24 52 1 24
-1 38 -3 32 -10 -29 -20 -10 -17 32 3 41 1 47 -22 55 -14 6 -38 10 -54 10 -19
0 -33 7 -40 20 -8 14 -21 20 -48 20 -45 0 -103 16 -112 30 -4 6 -24 13 -46 16
-70 10 -84 14 -84 29 0 9 -16 16 -45 21 -26 3 -52 13 -60 21 -18 18 -85 30
-85 15z m604 -318 c9 -24 0 -29 -18 -11 -8 8 -12 17 -9 21 11 10 21 7 27 -10z"/>
<path d="M2320 2435 c7 -8 17 -15 22 -15 6 0 5 7 -2 15 -7 8 -17 15 -22 15 -6
0 -5 -7 2 -15z"/>
<path d="M2360 2429 c0 -5 9 -10 20 -10 11 -1 25 -2 30 -3 6 -1 11 4 13 9 1 6
-13 11 -30 12 -18 1 -33 -3 -33 -8z"/>
<path d="M2155 2291 c-3 -5 -1 -12 5 -16 5 -3 10 1 10 9 0 18 -6 21 -15 7z"/>
<path d="M2078 2126 c-15 -18 -30 -45 -34 -61 -7 -30 -7 -30 17 -13 13 9 23
21 22 27 -2 6 4 8 12 5 10 -4 15 0 15 13 0 11 10 25 23 32 l22 12 -22 -5 c-24
-4 -32 9 -10 17 8 4 7 5 -3 5 -8 1 -27 -14 -42 -32z"/>
<path d="M2096 2025 c-3 -8 -1 -15 4 -15 6 0 10 7 10 15 0 8 -2 15 -4 15 -2 0
-6 -7 -10 -15z"/>
<path d="M2007 2001 c-15 -29 -15 -29 9 -19 17 8 21 15 14 23 -5 7 -7 15 -3
18 3 4 4 7 0 7 -3 0 -12 -13 -20 -29z"/>
<path d="M1942 1940 c-25 -23 -28 -31 -17 -40 9 -8 15 -8 20 0 3 5 14 10 25
10 24 0 34 28 16 45 -12 12 -18 10 -44 -15z"/>
<path d="M1860 1846 c0 -17 14 -29 23 -20 8 8 -3 34 -14 34 -5 0 -9 -6 -9 -14z"/>
</g>
</svg>
