<?xml version="1.0" standalone="no"?>
<!DOCTYPE svg PUBLIC "-//W3C//DTD SVG 20010904//EN"
 "http://www.w3.org/TR/2001/REC-SVG-20010904/DTD/svg10.dtd">
<svg version="1.0" xmlns="http://www.w3.org/2000/svg"
 width="1344.000000pt" height="768.000000pt" viewBox="0 0 1344.000000 768.000000"
 preserveAspectRatio="xMidYMid meet">

<g transform="translate(0.000000,768.000000) scale(0.100000,-0.100000)"
fill="#000000" stroke="none">
<path d="M2805 5599 c-462 -26 -847 -304 -1005 -724 -77 -205 -79 -526 -5
-751 69 -206 239 -421 413 -520 20 -12 66 -39 102 -61 70 -42 232 -122 293
-144 20 -7 37 -17 37 -21 0 -4 6 -8 13 -8 8 0 45 -15 83 -33 38 -18 85 -39
104 -47 19 -7 40 -17 47 -23 7 -5 22 -6 35 -3 13 3 17 3 10 0 -15 -7 -6 -24
12 -24 8 0 12 10 11 25 -4 32 5 65 17 65 5 0 6 -6 2 -12 -4 -8 -3 -10 2 -5 5
5 10 13 10 18 1 5 2 14 3 20 0 5 5 8 10 5 5 -4 7 3 4 14 -3 11 0 26 6 33 6 8
8 16 6 19 -9 9 15 59 25 53 5 -3 10 1 10 10 0 9 -5 13 -11 9 -19 -11 13 40 33
55 13 8 16 17 10 23 -14 14 -2 48 17 48 14 0 14 2 1 10 -8 5 -10 10 -4 10 6 0
11 13 12 28 0 16 12 50 26 77 28 51 30 59 19 52 -5 -3 -9 6 -9 19 -1 14 4 24
11 24 16 0 28 28 18 42 -3 6 -1 8 4 5 6 -4 18 4 27 18 19 29 20 39 4 29 -7 -4
-5 2 6 14 10 12 22 20 26 17 4 -2 16 2 26 10 15 11 16 15 4 16 -8 1 -18 1 -22
0 -5 0 -8 3 -8 8 0 4 -33 23 -72 41 -235 104 -439 220 -503 284 -118 119 -138
288 -49 418 33 47 125 110 191 131 34 11 89 17 160 18 91 1 102 3 71 11 -38
10 -50 31 -24 41 9 4 12 19 11 49 -2 23 2 51 7 62 7 13 6 21 -3 27 -11 6 -10
9 3 14 16 6 17 22 3 66 -4 10 -2 19 3 19 14 0 7 56 -9 77 -11 13 -11 15 0 9 9
-6 8 0 -4 17 -19 29 -16 84 5 97 8 6 12 10 8 11 -5 1 -12 3 -18 4 -5 1 -13 3
-17 4 -3 0 2 11 13 23 10 12 13 18 7 14 -16 -9 -16 -2 0 52 7 23 16 40 20 36
3 -4 9 1 13 10 3 9 10 14 14 11 5 -3 6 3 3 13 -4 15 4 21 39 29 42 10 41 11
-37 13 -44 1 -93 3 -110 4 -16 1 -89 -1 -160 -5z"/>
<path d="M5435 4394 c-11 -2 -45 -9 -75 -15 -67 -12 -123 -32 -210 -72 -53
-24 -137 -87 -180 -133 -108 -116 -150 -226 -150 -388 1 -175 34 -260 145
-372 104 -105 230 -162 560 -250 136 -37 246 -72 305 -97 128 -55 184 -160
149 -277 -60 -201 -505 -242 -685 -62 -43 43 -67 93 -84 175 l-12 58 -211 -5
-212 -4 -3 -41 c-8 -111 64 -307 148 -403 100 -114 269 -196 495 -240 89 -17
361 -16 435 1 297 69 470 204 546 426 38 108 40 272 7 380 -41 132 -131 239
-263 313 -60 33 -213 93 -300 116 -30 8 -89 24 -130 36 -41 12 -95 26 -119 31
-180 38 -311 111 -327 182 -28 123 23 209 157 264 63 26 242 25 321 -1 99 -32
171 -110 193 -210 l11 -51 217 -3 217 -2 0 24 c0 40 -29 168 -47 211 -115 268
-384 417 -745 414 -73 -1 -142 -3 -153 -5z"/>
<path d="M8255 4389 c-68 -10 -208 -51 -275 -82 -130 -59 -286 -191 -369 -310
-79 -115 -150 -293 -177 -444 -19 -103 -21 -344 -4 -430 29 -151 46 -211 87
-301 176 -388 538 -593 1009 -569 403 21 700 233 807 575 17 58 21 100 24 320
l5 252 -459 -2 -458 -3 0 -175 0 -175 244 -2 c134 -1 246 -4 249 -7 9 -10 -18
-112 -44 -164 -49 -98 -163 -186 -282 -217 -89 -24 -234 -21 -332 7 -127 35
-261 151 -322 278 -52 108 -78 240 -78 399 0 145 14 224 62 341 53 130 130
214 245 272 266 131 590 27 690 -222 l28 -71 210 7 c116 3 212 8 214 10 10 9
-22 140 -53 212 -115 274 -350 449 -666 497 -103 16 -259 18 -355 4z"/>
<path d="M6675 4368 c-3 -7 -4 -479 -3 -1048 l3 -1035 218 -3 217 -2 0 1050 0
1050 -215 0 c-163 0 -217 -3 -220 -12z"/>
<path d="M10341 4371 l-174 -6 -28 -80 c-16 -44 -45 -125 -64 -180 -19 -55
-50 -143 -69 -195 -18 -52 -61 -174 -95 -270 -34 -96 -66 -186 -72 -200 -6
-14 -21 -56 -34 -95 -22 -68 -48 -139 -65 -180 -5 -11 -20 -54 -34 -95 -14
-41 -44 -127 -67 -190 -22 -63 -60 -169 -84 -235 -24 -66 -62 -171 -84 -233
-23 -62 -41 -117 -41 -122 0 -6 90 -10 229 -10 l229 0 12 38 c6 20 15 46 20
57 9 22 28 80 86 257 36 112 40 118 69 123 16 3 178 4 360 3 l329 -3 22 -60
c13 -33 48 -140 79 -237 l57 -178 234 0 c129 0 234 2 234 5 0 2 -4 14 -10 27
-5 13 -42 113 -81 223 -39 110 -97 272 -129 360 -170 465 -258 713 -360 1005
-39 113 -93 266 -119 340 l-47 135 -65 1 c-35 0 -142 -2 -238 -5z m99 -583 c7
-29 17 -60 21 -68 9 -17 87 -266 130 -415 16 -55 34 -109 40 -120 5 -11 11
-33 12 -50 l2 -30 -234 -3 c-141 -1 -238 1 -244 7 -9 9 -4 31 23 96 8 19 73
220 170 523 46 146 56 153 80 60z"/>
<path d="M1721 2788 c7 -13 15 -25 18 -28 3 -3 20 -25 36 -50 16 -25 33 -47
36 -50 3 -3 18 -23 32 -45 29 -44 71 -104 165 -235 34 -47 62 -91 62 -98 0
-12 -21 -49 -47 -82 -47 -60 -178 -226 -183 -230 -3 -3 -28 -34 -55 -69 -28
-34 -71 -88 -97 -119 -43 -52 -47 -60 -41 -94 3 -25 2 -38 -5 -38 -6 0 -9 7
-6 15 3 8 3 19 -1 24 -6 11 -18 0 -73 -61 l-23 -25 48 3 c26 2 77 6 113 9 36
3 110 8 165 11 55 3 104 10 108 14 8 7 -100 5 -208 -5 -67 -6 -88 1 -79 27 5
17 3 20 -10 15 -12 -5 -16 0 -15 21 0 15 3 21 6 15 2 -7 11 -13 19 -13 9 0 12
-4 9 -10 -3 -5 1 -10 9 -10 9 0 16 -6 16 -12 0 -8 7 -5 15 6 14 18 15 19 15 2
0 -14 5 -17 23 -12 12 3 26 6 30 6 5 0 7 5 5 11 -5 16 60 79 82 79 11 0 22 6
27 13 7 11 9 15 12 35 0 4 15 13 31 19 17 6 30 16 30 23 0 6 -4 9 -9 6 -5 -3
-15 2 -22 12 -11 14 -11 15 1 5 11 -10 18 -9 34 5 12 10 16 12 11 3 -6 -11 -4
-13 9 -8 10 4 23 7 29 7 7 0 6 4 -3 10 -13 8 -13 10 2 10 12 0 15 6 10 22 -4
18 -2 20 16 16 12 -4 22 -2 22 4 0 5 5 6 10 3 6 -3 10 -1 10 4 0 6 6 11 14 11
8 0 18 10 21 21 6 17 9 19 16 8 6 -10 9 -10 9 -2 0 7 11 15 25 19 14 4 24 9
21 12 -3 2 6 14 20 25 22 17 27 18 35 6 6 -10 9 -8 9 9 0 13 4 20 10 17 6 -3
10 -1 10 4 0 6 3 10 8 10 22 -4 32 2 25 14 -11 18 -13 38 -2 31 5 -3 9 0 9 6
0 6 4 9 9 6 5 -4 12 7 16 24 7 34 19 38 34 13 8 -15 10 -12 7 15 -2 23 1 32
11 32 8 0 11 -5 7 -11 -4 -7 0 -10 10 -7 10 1 17 8 18 13 0 6 4 18 10 28 5 10
12 31 14 45 3 15 10 32 15 37 7 7 8 3 3 -10 -7 -20 -7 -20 15 0 15 13 20 26
16 42 -4 19 -2 22 17 19 14 -2 28 4 36 16 8 10 19 15 25 11 7 -4 6 0 -2 10
-19 24 1 45 37 40 26 -3 26 -3 4 7 -29 13 -19 32 11 21 12 -4 49 -8 82 -9 l60
-1 -75 18 c-132 32 -320 85 -355 100 -11 5 -87 30 -170 56 -82 26 -159 51
-170 55 -11 5 -65 23 -120 40 -55 18 -118 38 -140 46 -54 19 -58 18 -44 -8z
m117 -1053 c-3 -3 -9 2 -12 12 -6 14 -5 15 5 6 7 -7 10 -15 7 -18z m-53 -45
c-3 -5 -11 -10 -16 -10 -6 0 -7 5 -4 10 3 6 11 10 16 10 6 0 7 -4 4 -10z"/>
<path d="M2808 2473 c7 -3 16 -2 19 1 4 3 -2 6 -13 5 -11 0 -14 -3 -6 -6z"/>
<path d="M2240 2035 c-7 -9 -8 -15 -2 -15 5 0 12 7 16 15 3 8 4 15 2 15 -2 0
-9 -7 -16 -15z"/>
</g>
</svg>
