<?xml version="1.0" standalone="no"?>
<!DOCTYPE svg PUBLIC "-//W3C//DTD SVG 20010904//EN"
 "http://www.w3.org/TR/2001/REC-SVG-20010904/DTD/svg10.dtd">
<svg version="1.0" xmlns="http://www.w3.org/2000/svg"
 width="1408.000000pt" height="736.000000pt" viewBox="0 0 1408.000000 736.000000"
 preserveAspectRatio="xMidYMid meet">

<g transform="translate(0.000000,736.000000) scale(0.100000,-0.100000)"
fill="#000000" stroke="none">
<path d="M0 7340 c0 -20 7 -20 7040 -20 7033 0 7040 0 7040 20 0 20 -7 20
-7040 20 -7033 0 -7040 0 -7040 -20z"/>
<path d="M7744 5995 c-3 -14 -14 -29 -22 -34 -13 -7 -18 -32 -23 -107 -5 -73
-10 -100 -23 -109 -9 -7 -21 -36 -26 -66 -6 -30 -17 -59 -24 -65 -8 -5 -18
-23 -22 -40 -4 -16 -17 -38 -28 -50 -12 -11 -32 -35 -46 -52 -14 -18 -30 -32
-37 -32 -7 0 -17 -9 -23 -20 -6 -11 -19 -20 -30 -20 -11 0 -24 -9 -30 -19 -6
-12 -26 -22 -52 -26 -24 -4 -54 -14 -67 -22 -12 -8 -53 -19 -89 -24 -37 -5
-70 -16 -74 -23 -4 -8 -33 -17 -65 -20 -114 -13 -135 -18 -125 -28 6 -6 32
-14 59 -19 26 -5 53 -15 58 -22 6 -8 41 -19 80 -25 38 -6 71 -16 73 -21 2 -6
26 -13 53 -17 27 -4 63 -17 81 -30 17 -13 39 -24 48 -24 8 0 23 -9 33 -20 9
-11 31 -23 47 -26 16 -4 32 -15 35 -25 4 -11 11 -19 17 -19 16 0 78 -66 78
-83 0 -8 9 -22 19 -31 10 -10 24 -38 30 -63 7 -24 18 -55 26 -66 7 -12 17 -44
20 -72 4 -27 14 -58 23 -67 9 -11 17 -46 20 -93 3 -43 10 -79 17 -85 19 -16
24 -3 31 80 4 42 12 74 19 77 7 2 16 32 20 68 4 38 14 74 25 88 10 13 22 40
25 61 4 21 13 40 20 42 7 3 18 25 25 50 7 24 16 44 21 44 5 0 15 14 24 30 9
17 22 30 29 30 8 0 16 9 19 20 3 11 13 20 24 20 10 0 23 8 30 19 6 10 27 21
46 25 19 4 37 13 40 20 3 8 32 20 64 26 32 6 63 18 69 26 6 8 44 17 92 23 68
7 85 13 101 32 11 14 16 28 11 33 -5 5 -50 12 -101 17 -54 5 -99 14 -108 23
-9 7 -40 17 -69 21 -30 4 -56 13 -59 21 -3 7 -20 16 -38 20 -18 3 -42 14 -52
24 -11 10 -29 21 -41 24 -32 11 -90 76 -103 116 -7 19 -17 38 -24 42 -7 4 -16
23 -19 42 -4 18 -15 43 -25 55 -11 12 -21 45 -25 80 -4 33 -13 64 -21 71 -8 6
-16 40 -20 78 -10 107 -16 142 -26 142 -5 0 -11 -11 -15 -25z"/>
<path d="M2915 5633 c-34 -2 -67 -11 -77 -20 -10 -9 -50 -19 -95 -24 -49 -5
-82 -14 -89 -23 -6 -9 -30 -18 -54 -22 -23 -4 -50 -15 -59 -25 -8 -11 -22 -19
-31 -19 -8 0 -32 -11 -52 -25 -20 -14 -42 -25 -47 -25 -6 0 -16 -9 -23 -20 -7
-11 -18 -20 -25 -20 -7 0 -23 -10 -37 -22 -14 -13 -42 -36 -62 -53 -20 -16
-40 -34 -46 -40 -75 -82 -109 -124 -114 -143 -4 -12 -15 -27 -25 -33 -11 -5
-19 -20 -19 -34 0 -13 -8 -30 -19 -37 -11 -8 -21 -32 -25 -59 -4 -25 -15 -52
-25 -61 -11 -10 -22 -37 -26 -67 -4 -30 -13 -55 -22 -60 -38 -21 -38 -586 0
-629 8 -9 20 -47 25 -85 6 -40 19 -78 31 -93 12 -15 21 -37 21 -51 0 -13 6
-26 14 -29 7 -3 19 -22 26 -44 7 -22 21 -40 31 -43 11 -3 19 -13 19 -24 0 -10
9 -24 20 -31 11 -7 20 -17 20 -23 0 -14 64 -79 79 -79 6 0 11 -7 11 -15 0 -9
11 -20 25 -25 14 -5 25 -14 25 -20 0 -6 11 -15 25 -20 14 -5 25 -14 25 -20 0
-6 18 -17 39 -26 22 -8 42 -22 45 -30 3 -8 12 -14 20 -14 9 0 23 -8 33 -19 10
-10 35 -24 55 -30 21 -7 41 -18 45 -25 5 -6 27 -17 49 -24 23 -7 47 -19 54
-27 7 -8 20 -15 30 -15 9 0 29 -11 42 -24 14 -13 44 -26 66 -29 22 -4 42 -13
45 -21 3 -8 22 -18 41 -21 19 -4 40 -13 46 -21 7 -7 36 -20 65 -28 29 -9 55
-23 59 -31 3 -8 15 -15 26 -15 12 0 42 -11 68 -25 26 -14 55 -25 65 -25 10 0
20 -6 23 -14 3 -8 25 -19 50 -26 25 -7 44 -19 44 -27 0 -7 13 -16 30 -19 16
-4 32 -15 35 -25 4 -11 11 -19 17 -19 13 0 118 -105 118 -118 0 -5 9 -17 20
-27 11 -10 22 -37 26 -64 4 -25 13 -62 19 -82 11 -31 10 -43 -6 -90 -10 -30
-18 -62 -19 -71 0 -9 -9 -20 -20 -23 -11 -3 -20 -15 -20 -26 0 -10 -6 -19 -14
-19 -8 0 -21 -8 -28 -18 -7 -10 -29 -24 -48 -32 -19 -7 -41 -20 -48 -29 -11
-14 -44 -16 -235 -16 -208 0 -225 1 -267 22 -25 12 -73 24 -107 26 -36 3 -69
11 -77 20 -8 8 -40 17 -71 21 -31 3 -68 15 -83 25 -15 11 -47 22 -71 25 -24 4
-55 16 -69 26 -13 11 -37 20 -53 20 -16 0 -52 11 -81 24 -29 13 -70 27 -91 30
-21 4 -40 13 -43 20 -3 8 -29 17 -60 21 -32 4 -62 14 -72 25 -10 10 -40 21
-69 25 -29 4 -56 11 -59 16 -9 14 -24 0 -24 -23 0 -11 8 -22 20 -25 11 -3 20
-14 20 -24 0 -10 9 -23 20 -29 11 -6 20 -17 20 -25 0 -7 13 -29 30 -47 16 -18
30 -39 30 -48 0 -8 9 -21 20 -28 11 -7 20 -19 20 -27 0 -8 9 -19 19 -25 11 -5
22 -24 26 -41 4 -19 15 -33 26 -36 11 -3 19 -14 19 -25 0 -11 8 -22 19 -25 10
-2 24 -16 30 -29 6 -13 15 -24 21 -24 5 0 17 -14 25 -30 21 -40 11 -96 -21
-117 -13 -8 -24 -20 -24 -26 0 -5 -10 -20 -22 -33 -13 -13 -36 -39 -53 -59
-47 -57 -74 -88 -94 -110 -10 -11 -21 -28 -24 -37 -4 -10 -13 -18 -22 -18 -8
0 -15 -9 -15 -20 0 -10 -9 -24 -20 -30 -11 -6 -20 -16 -20 -23 0 -8 -13 -26
-30 -42 -16 -16 -30 -35 -30 -42 0 -7 -7 -13 -15 -13 -8 0 -20 -10 -26 -23 -7
-12 -20 -28 -31 -35 -10 -7 -18 -19 -18 -27 0 -7 -9 -17 -20 -20 -11 -3 -20
-15 -20 -25 0 -10 -3 -25 -6 -34 -5 -13 1 -16 26 -16 17 0 41 5 53 11 12 7
126 18 262 25 132 7 256 17 275 23 19 6 157 15 307 21 149 5 284 15 299 20 14
6 110 15 213 21 141 8 196 15 226 29 22 10 73 21 113 25 42 4 79 13 87 22 8 7
40 18 72 23 32 5 61 16 65 24 5 9 25 18 45 22 20 4 52 17 71 30 19 13 43 24
53 24 11 0 19 5 19 10 0 6 17 18 38 28 20 9 43 25 50 34 7 10 19 18 27 18 7 0
17 9 20 20 3 11 13 20 20 20 8 0 22 11 31 25 9 14 23 25 30 25 8 0 14 6 14 14
0 7 11 21 25 30 14 9 25 23 25 31 0 8 9 19 20 25 11 6 20 16 20 22 0 6 11 26
25 44 14 18 25 42 25 53 0 11 9 25 20 31 12 7 22 25 26 51 4 24 14 44 25 50
11 6 19 21 19 37 0 40 20 103 30 97 9 -6 15 28 27 170 16 183 3 413 -27 485
-10 25 -24 66 -30 93 -7 26 -16 47 -21 47 -5 0 -14 20 -20 45 -6 26 -20 50
-30 56 -11 5 -19 19 -19 30 0 12 -8 23 -20 26 -11 3 -20 13 -20 22 0 9 -13 29
-29 44 -17 15 -32 35 -36 45 -3 9 -26 33 -52 52 -25 19 -53 43 -62 53 -8 9
-21 17 -28 17 -7 0 -18 9 -25 20 -7 11 -18 20 -24 20 -6 0 -28 14 -49 30 -21
17 -44 30 -51 30 -7 0 -18 8 -23 19 -6 10 -25 21 -44 25 -18 3 -40 15 -50 26
-9 11 -25 20 -35 20 -11 0 -27 9 -37 20 -10 11 -28 20 -39 20 -12 0 -34 11
-49 24 -16 14 -42 28 -59 31 -16 4 -32 13 -35 20 -2 8 -19 17 -36 20 -18 4
-41 15 -52 25 -11 10 -36 21 -55 25 -19 4 -44 15 -55 25 -11 10 -34 21 -51 24
-18 4 -40 16 -50 27 -9 10 -28 19 -41 19 -13 0 -31 9 -40 20 -10 11 -25 20
-34 20 -9 0 -33 11 -53 25 -20 14 -43 25 -51 25 -8 0 -20 8 -27 18 -7 9 -26
24 -41 31 -15 8 -46 34 -68 58 -22 24 -43 43 -48 43 -4 0 -14 18 -21 40 -7 22
-19 40 -25 40 -13 0 -25 73 -25 156 0 57 17 115 37 127 7 4 13 14 13 21 0 7
11 22 25 34 14 12 25 26 25 32 0 5 9 10 20 10 10 0 24 9 30 19 5 11 24 22 42
26 18 4 41 15 52 24 27 24 297 24 347 -1 19 -9 51 -20 72 -23 20 -3 37 -9 37
-13 0 -9 59 -32 79 -32 7 0 25 -8 39 -18 15 -10 46 -24 68 -30 23 -7 45 -19
48 -27 3 -8 14 -15 25 -15 11 0 26 -7 35 -15 8 -9 31 -22 51 -30 19 -9 35 -20
35 -25 0 -5 17 -17 37 -25 21 -9 40 -21 44 -27 23 -36 133 -37 146 0 4 9 17
30 30 45 13 16 23 35 23 42 0 8 9 19 20 25 11 6 20 18 20 26 0 16 26 55 66 99
12 13 24 35 28 49 3 14 12 26 20 26 7 0 19 18 26 39 7 22 19 42 27 45 7 3 18
17 23 31 5 14 16 25 24 25 14 0 26 41 26 91 0 22 -6 32 -25 39 -14 5 -28 17
-31 25 -4 8 -12 15 -19 15 -8 0 -27 11 -43 25 -17 14 -35 25 -41 25 -6 0 -19
8 -29 18 -10 9 -31 24 -47 32 -17 8 -34 21 -38 27 -4 7 -14 13 -22 13 -7 0
-26 11 -42 24 -16 14 -41 28 -55 31 -15 4 -29 13 -32 20 -2 7 -20 16 -38 20
-18 4 -42 15 -53 25 -11 10 -38 21 -60 25 -22 4 -48 15 -57 25 -10 10 -39 20
-72 24 -31 4 -59 13 -63 21 -5 8 -43 17 -97 24 -52 6 -96 17 -106 26 -14 12
-57 16 -231 19 -118 2 -241 2 -274 -1z"/>
<path d="M5754 4371 c-59 -4 -107 -11 -116 -19 -9 -7 -45 -16 -80 -20 -43 -5
-74 -16 -93 -30 -15 -12 -36 -22 -46 -22 -11 0 -27 -9 -36 -20 -10 -11 -23
-20 -30 -20 -17 0 -101 -65 -127 -98 -12 -15 -29 -35 -38 -44 -10 -10 -18 -24
-18 -32 0 -8 -6 -16 -14 -19 -7 -3 -16 -21 -20 -41 -4 -19 -15 -41 -25 -48
-42 -30 -45 -400 -3 -439 11 -9 23 -35 27 -55 4 -21 15 -44 26 -52 10 -7 19
-22 19 -32 0 -10 9 -22 20 -25 11 -3 20 -13 20 -21 0 -8 11 -19 24 -24 13 -5
28 -15 33 -22 8 -13 48 -38 93 -59 14 -6 48 -21 75 -34 28 -12 67 -25 88 -28
20 -3 44 -12 52 -20 8 -8 43 -18 77 -22 35 -4 73 -13 85 -21 12 -8 57 -19 100
-25 43 -6 85 -17 93 -25 8 -7 44 -16 79 -20 41 -4 70 -13 82 -25 11 -11 25
-19 33 -19 7 0 29 -13 47 -30 19 -16 37 -30 41 -30 4 0 21 -27 38 -61 33 -67
39 -129 15 -149 -8 -7 -15 -21 -15 -31 0 -22 -57 -89 -76 -89 -7 0 -18 -9 -24
-20 -6 -11 -20 -20 -31 -20 -11 0 -22 -7 -25 -14 -10 -26 -103 -39 -248 -34
-109 3 -140 7 -150 19 -6 8 -32 21 -58 28 -28 8 -48 19 -48 28 0 7 -8 17 -17
20 -21 8 -83 69 -83 81 0 5 -9 19 -19 31 -10 12 -22 43 -26 69 -4 26 -12 50
-18 54 -15 9 -277 10 -369 1 l-68 -6 0 -38 c0 -21 6 -44 14 -52 8 -8 17 -36
21 -63 4 -27 18 -68 31 -91 13 -23 24 -48 24 -57 0 -8 11 -28 25 -44 14 -17
25 -36 25 -44 0 -7 9 -19 20 -26 11 -7 20 -18 20 -26 0 -7 9 -16 20 -19 11 -3
20 -12 20 -20 0 -8 14 -20 30 -26 17 -5 30 -14 30 -19 0 -5 18 -15 41 -22 23
-8 43 -20 46 -27 3 -7 21 -15 41 -19 21 -3 49 -14 63 -24 15 -11 61 -23 107
-30 45 -6 94 -17 109 -25 40 -21 362 -21 401 -1 21 11 153 36 188 36 2 0 4 6
4 14 0 10 16 17 46 22 25 3 48 13 51 20 3 8 24 23 47 34 77 39 96 51 96 66 0
8 11 19 25 24 14 5 25 14 25 20 0 6 11 26 25 44 14 18 25 40 25 48 0 8 9 23
20 33 10 9 22 37 26 62 3 24 14 51 23 60 13 14 16 41 16 156 0 100 -3 141 -12
144 -6 2 -17 30 -24 61 -7 31 -21 68 -31 81 -10 13 -18 30 -18 38 0 8 -22 37
-50 64 -27 27 -50 53 -50 59 0 5 -7 10 -15 10 -8 0 -19 9 -25 20 -6 11 -26 22
-45 26 -20 3 -40 14 -45 24 -5 9 -26 20 -46 23 -20 3 -44 13 -54 22 -10 9 -46
20 -81 25 -35 5 -68 16 -74 24 -7 9 -39 17 -86 22 -40 3 -87 13 -102 21 -16 8
-55 19 -88 24 -33 5 -74 18 -92 29 -17 11 -47 20 -64 20 -20 0 -41 8 -53 20
-11 11 -26 20 -32 20 -18 0 -78 58 -78 74 0 8 -7 19 -15 26 -10 8 -15 31 -15
70 0 42 4 59 15 64 8 3 15 12 15 21 0 29 28 70 57 85 15 8 31 20 35 26 4 7 25
15 45 19 21 4 46 14 57 23 24 23 218 22 244 -1 9 -8 31 -17 47 -21 17 -4 47
-18 67 -32 21 -13 42 -24 47 -24 5 0 16 -12 24 -27 8 -16 22 -41 31 -58 9 -16
16 -44 16 -60 0 -19 8 -38 23 -50 20 -18 36 -19 206 -17 101 2 192 7 203 13
26 14 25 79 -2 102 -13 11 -20 29 -20 51 0 52 -11 96 -25 96 -6 0 -17 18 -24
41 -7 22 -19 43 -27 46 -8 3 -14 13 -14 24 0 10 -9 23 -19 29 -11 5 -23 19
-26 30 -3 11 -13 20 -22 20 -8 0 -17 9 -20 20 -3 11 -16 23 -29 26 -13 3 -24
12 -24 19 0 7 -16 16 -36 19 -19 4 -38 14 -41 22 -3 8 -25 19 -49 25 -24 6
-53 19 -64 29 -13 11 -46 20 -90 24 -40 4 -73 13 -77 20 -10 16 -142 24 -279
17z"/>
<path d="M8655 4363 c-11 -3 -24 -9 -30 -13 -5 -5 -47 -11 -93 -15 -46 -4 -89
-14 -96 -21 -7 -7 -38 -20 -69 -29 -30 -9 -58 -22 -60 -29 -3 -8 -24 -17 -46
-21 -27 -4 -42 -13 -46 -26 -4 -10 -15 -19 -25 -19 -11 0 -24 -9 -30 -20 -6
-11 -16 -20 -23 -20 -15 0 -167 -154 -167 -169 0 -6 -9 -15 -20 -21 -11 -6
-20 -20 -20 -31 0 -12 -8 -23 -20 -26 -13 -3 -22 -17 -26 -39 -3 -19 -14 -39
-23 -44 -10 -5 -23 -32 -30 -65 -7 -31 -19 -59 -26 -61 -8 -3 -16 -32 -20 -75
-5 -48 -12 -72 -23 -78 -15 -8 -17 -39 -21 -232 -3 -217 6 -324 30 -340 5 -3
12 -30 16 -60 3 -30 11 -61 17 -69 19 -24 36 -69 36 -94 0 -13 9 -31 20 -41
11 -10 20 -29 20 -42 0 -12 8 -31 18 -41 9 -9 23 -30 29 -45 7 -15 17 -27 22
-27 5 0 14 -13 21 -30 7 -16 23 -36 36 -45 13 -8 24 -19 24 -24 0 -13 52 -66
73 -74 9 -3 17 -11 17 -16 0 -5 17 -16 39 -24 21 -9 41 -23 44 -31 4 -9 15
-16 25 -16 11 0 35 -11 55 -24 19 -13 49 -27 66 -31 17 -3 34 -13 39 -21 4 -8
40 -18 87 -25 44 -7 91 -19 105 -28 36 -24 439 -23 490 2 19 9 65 21 102 27
38 7 69 18 72 25 3 8 22 17 43 21 21 4 51 17 66 30 16 13 35 24 43 24 8 0 17
7 20 15 4 8 13 15 22 15 12 0 59 45 147 141 8 9 15 22 15 30 0 8 9 22 20 32
11 9 23 31 27 47 3 17 14 35 23 40 11 6 21 27 25 52 4 24 15 51 24 62 14 16
16 55 19 293 2 160 0 279 -6 285 -10 10 -871 12 -897 2 -13 -5 -15 -32 -15
-165 0 -158 0 -159 23 -160 12 -1 105 0 207 1 208 2 256 -3 271 -32 12 -23 2
-124 -15 -141 -7 -7 -18 -28 -26 -47 -8 -19 -28 -48 -45 -65 -35 -34 -116 -95
-127 -95 -5 0 -16 -8 -27 -19 -10 -10 -40 -21 -68 -25 -28 -3 -56 -13 -63 -21
-10 -12 -39 -15 -134 -15 -104 0 -125 3 -151 20 -16 11 -42 20 -57 20 -14 0
-40 11 -56 25 -17 14 -37 25 -46 25 -9 0 -21 9 -28 20 -7 11 -18 20 -24 20
-16 0 -74 51 -74 65 0 6 -9 16 -20 23 -11 7 -20 20 -20 30 0 10 -9 25 -20 34
-11 10 -22 30 -26 45 -4 15 -15 35 -24 44 -10 10 -20 41 -24 75 -4 32 -14 67
-24 77 -14 16 -17 45 -17 229 0 185 2 211 17 222 10 7 20 34 24 65 4 30 14 60
25 69 9 10 20 34 24 56 5 25 14 40 26 43 11 3 19 11 19 19 0 7 11 21 25 30 14
9 25 23 25 30 0 8 7 14 15 14 8 0 20 9 27 20 7 11 18 20 25 20 6 0 24 11 40
24 15 13 44 27 63 31 19 4 43 15 54 24 25 22 325 30 347 9 8 -8 36 -20 62 -27
26 -8 52 -22 58 -32 5 -11 19 -19 30 -19 12 0 23 -8 26 -20 3 -10 13 -22 23
-25 9 -3 22 -17 28 -30 6 -14 18 -25 27 -25 8 0 15 -9 15 -20 0 -11 6 -23 14
-26 16 -6 31 -41 41 -92 l7 -34 51 5 c29 3 77 10 107 16 30 5 98 10 151 10 62
1 101 6 113 14 17 13 17 15 -3 60 -12 25 -21 54 -21 64 0 33 -12 63 -25 63 -7
0 -16 17 -20 37 -4 21 -15 43 -25 50 -10 7 -21 24 -24 37 -3 14 -17 36 -31 50
-14 14 -25 30 -25 36 0 5 -7 10 -15 10 -8 0 -15 5 -15 11 0 13 -64 79 -76 79
-3 0 -22 14 -41 30 -18 17 -38 30 -43 30 -6 0 -10 6 -10 14 0 8 -15 17 -34 20
-18 4 -43 15 -55 25 -12 10 -40 22 -63 25 -24 4 -50 14 -59 22 -8 8 -51 19
-94 24 -43 5 -91 17 -108 25 -22 11 -60 15 -141 14 -61 -1 -120 -4 -131 -6z"/>
<path d="M6983 4333 l-23 -4 0 -1037 c0 -570 -3 -1046 -5 -1057 -12 -48 -1
-50 232 -50 l218 0 0 1075 0 1075 -200 1 c-110 1 -210 -1 -222 -3z"/>
<path d="M10582 4301 c-3 -9 -13 -27 -22 -41 -10 -14 -21 -45 -25 -70 -4 -25
-15 -52 -25 -61 -9 -10 -20 -38 -23 -63 -4 -25 -14 -58 -23 -71 -9 -14 -21
-46 -25 -72 -5 -26 -15 -54 -23 -62 -7 -9 -17 -37 -20 -64 -4 -26 -15 -55 -25
-65 -10 -9 -22 -38 -25 -64 -4 -26 -13 -51 -20 -55 -8 -5 -19 -33 -25 -65 -7
-31 -18 -59 -25 -61 -8 -3 -17 -28 -21 -56 -4 -30 -13 -55 -22 -60 -9 -5 -19
-32 -25 -67 -5 -32 -15 -62 -23 -66 -7 -5 -16 -32 -20 -60 -4 -29 -15 -62 -25
-73 -10 -11 -21 -39 -25 -62 -3 -23 -15 -52 -26 -64 -10 -12 -19 -32 -19 -44
0 -43 -13 -85 -25 -85 -8 0 -15 -21 -20 -55 -4 -33 -12 -58 -22 -63 -8 -5 -20
-33 -25 -63 -5 -29 -16 -58 -24 -63 -8 -6 -19 -38 -25 -71 -6 -33 -16 -65 -23
-70 -8 -6 -17 -29 -21 -52 -3 -23 -15 -53 -24 -65 -10 -13 -21 -44 -25 -70 -5
-32 -12 -48 -22 -48 -26 0 -15 -39 15 -55 24 -12 65 -14 213 -12 224 3 242 10
253 87 4 27 15 60 25 73 10 12 21 45 25 71 5 28 16 55 26 64 13 11 19 30 19
58 0 26 7 51 20 67 11 14 20 31 20 39 0 36 17 38 376 38 194 0 359 -3 368 -6
9 -3 16 -13 16 -20 0 -8 6 -17 14 -20 9 -3 19 -33 26 -75 7 -38 18 -76 26 -84
8 -8 19 -40 24 -71 5 -31 15 -62 21 -70 7 -8 17 -40 23 -72 l12 -57 229 0 230
0 -2 41 c-1 23 -13 69 -27 102 -14 34 -26 73 -26 86 0 14 -9 33 -19 43 -11 10
-22 39 -26 66 -4 26 -14 51 -21 55 -8 4 -19 35 -25 67 -7 33 -18 67 -25 75 -7
9 -19 40 -25 70 -6 30 -17 60 -25 67 -7 7 -16 34 -20 60 -4 26 -15 60 -24 77
-10 17 -21 49 -25 71 -3 22 -12 49 -19 60 -7 11 -19 45 -25 75 -6 30 -18 61
-25 70 -8 8 -17 38 -21 65 -4 28 -13 57 -21 66 -8 8 -18 39 -24 69 -5 29 -17
58 -25 64 -8 6 -19 33 -25 59 -6 27 -17 55 -24 63 -8 7 -17 36 -21 63 -4 28
-15 59 -25 71 -10 11 -21 45 -24 74 -4 30 -13 57 -20 59 -8 3 -19 35 -26 71
-7 36 -16 66 -20 66 -8 0 -30 69 -30 95 0 10 -7 23 -16 29 -8 7 -18 31 -21 55
-5 33 -11 45 -29 52 -13 4 -24 13 -24 18 0 5 -97 8 -226 8 -195 -1 -227 -3
-232 -16z m272 -553 c3 -13 6 -32 6 -43 0 -11 9 -37 20 -57 11 -20 24 -64 29
-98 6 -33 16 -67 25 -75 8 -8 17 -38 21 -67 4 -29 15 -69 25 -88 9 -19 20 -57
24 -84 3 -27 12 -54 20 -60 19 -14 37 -115 25 -137 -8 -15 -37 -18 -231 -21
-162 -3 -227 -1 -236 8 -18 15 -6 96 18 124 10 11 21 44 24 73 4 28 13 59 21
67 7 8 18 42 24 75 6 33 17 65 25 70 8 6 17 38 21 70 4 33 14 67 22 76 8 9 19
47 25 84 8 45 17 69 27 73 9 3 20 11 24 19 12 20 34 15 41 -9z"/>
<path d="M4048 232 l-4048 -2 0 -115 0 -115 7040 0 7040 0 0 115 0 115 -707 0
c-390 0 -1736 1 -2993 2 -1257 2 -4106 2 -6332 0z"/>
</g>
</svg>
