<?xml version="1.0" standalone="no"?>
<!DOCTYPE svg PUBLIC "-//W3C//DTD SVG 20010904//EN"
 "http://www.w3.org/TR/2001/REC-SVG-20010904/DTD/svg10.dtd">
<svg version="1.0" xmlns="http://www.w3.org/2000/svg"
 width="1472.000000pt" height="704.000000pt" viewBox="0 0 1472.000000 704.000000"
 preserveAspectRatio="xMidYMid meet">

<g transform="translate(0.000000,704.000000) scale(0.100000,-0.100000)"
fill="#000000" stroke="none">
<path d="M4 7033 c9 -10 14716 -10 14716 0 0 4 -3313 7 -7362 7 -4049 0 -7358
-3 -7354 -7z"/>
<path d="M4035 5413 c-33 -8 -85 -20 -115 -27 -30 -7 -68 -18 -83 -24 -16 -7
-34 -12 -41 -12 -21 0 -188 -89 -241 -129 -47 -36 -112 -92 -175 -151 -28 -26
-102 -124 -114 -150 -3 -8 -15 -28 -26 -45 -21 -32 -24 -39 -47 -95 -58 -143
-57 -138 -58 -415 0 -219 3 -266 16 -295 9 -19 29 -66 45 -105 39 -98 91 -168
193 -267 74 -71 216 -177 281 -211 8 -4 33 -18 55 -32 63 -38 327 -165 375
-180 13 -4 30 -14 38 -21 7 -8 22 -14 32 -14 10 0 22 -4 25 -10 3 -5 24 -10
46 -10 22 0 38 4 34 9 -3 5 2 17 11 25 8 9 11 16 6 16 -5 0 -9 6 -10 13 -1 6
-4 25 -8 41 -5 20 -3 27 4 22 7 -4 11 3 11 21 -2 61 4 93 18 93 7 0 13 9 13
21 0 11 5 17 10 14 13 -8 60 91 55 116 -2 11 1 19 7 19 6 0 8 3 4 8 -4 4 27
12 70 17 l79 10 6 38 c4 28 2 40 -7 44 -8 3 -11 9 -8 14 8 13 -10 11 -24 -3
-9 -9 -12 -9 -12 0 0 7 -3 11 -7 10 -16 -4 -51 13 -57 27 -3 8 -15 15 -27 15
-18 0 -20 2 -8 16 9 11 9 18 2 22 -6 4 -13 21 -14 37 -4 27 -1 30 23 28 25 -2
26 0 17 20 -7 14 -57 46 -140 87 -71 36 -140 71 -153 78 -39 20 -133 110 -165
157 -46 68 -64 228 -31 270 4 6 10 22 13 36 4 14 33 55 66 91 64 69 146 118
233 137 44 10 209 16 273 9 l30 -3 4 75 c8 159 12 144 -37 151 -48 6 -70 23
-75 57 -4 30 -23 42 -64 42 -29 0 -33 4 -39 35 -3 19 -4 44 -1 55 3 11 2 18
-2 17 -3 -1 -21 4 -39 12 -31 13 -32 14 -17 37 15 23 14 26 -11 49 -26 24 -37
29 -59 26 -5 -1 -2 5 8 12 9 8 17 18 17 23 0 4 -5 3 -12 -4 -15 -15 -31 -16
-26 0 2 6 17 13 34 15 93 11 60 31 -55 31 -47 0 -113 -6 -146 -15z m208 -2030
c-7 -2 -21 -2 -30 0 -10 3 -4 5 12 5 17 0 24 -2 18 -5z m-15 -36 c9 -7 12 -7
10 3 -2 7 4 15 12 17 13 4 13 3 0 -6 -13 -10 -13 -11 0 -11 13 0 13 -2 1 -9
-8 -5 -12 -18 -9 -28 6 -21 -26 -50 -36 -34 -3 5 -17 7 -30 6 -22 -3 -24 -1
-16 20 5 13 6 26 2 30 -4 4 5 5 21 1 16 -4 27 -2 27 4 0 9 -14 14 -33 11 -5
-1 -6 3 -2 8 6 11 31 5 53 -12z"/>
<path d="M3210 2661 c0 -14 55 -96 104 -156 23 -27 55 -70 71 -95 16 -25 35
-52 42 -60 53 -62 63 -81 66 -122 4 -55 -10 -120 -29 -134 -12 -10 -12 -13 1
-24 8 -7 15 -18 15 -26 0 -7 5 -16 10 -19 6 -4 9 -1 8 7 -2 7 2 12 7 11 6 -1
10 11 11 25 2 50 15 126 24 137 6 7 5 16 -3 24 -9 9 -9 14 2 20 11 7 11 9 0
13 -7 2 -9 9 -5 16 5 9 37 10 85 3 2 -1 -2 -7 -8 -15 -9 -11 -6 -18 16 -35 15
-12 20 -18 10 -15 -9 3 -25 0 -35 -7 -15 -13 -16 -12 -3 4 20 25 8 31 -20 9
l-23 -19 22 -7 c12 -4 30 -2 42 4 11 6 20 8 20 5 0 -3 10 1 22 9 13 9 26 12
32 7 7 -6 11 2 12 23 0 28 -3 32 -19 28 -14 -4 -16 -7 -5 -13 8 -5 9 -9 2 -9
-6 0 -17 7 -24 15 -9 10 -9 15 -1 15 6 0 12 -1 14 -2 1 -1 12 6 24 17 16 13
24 35 29 74 7 61 15 71 57 71 31 0 36 15 9 29 -25 13 -122 46 -207 70 -63 17
-110 34 -170 61 -77 34 -120 50 -136 50 -10 0 -21 5 -24 10 -8 13 -45 13 -45
1z"/>
<path d="M3426 2044 c-9 -8 -16 -22 -16 -30 0 -8 -6 -14 -14 -14 -17 0 -106
-103 -106 -123 0 -13 6 -13 33 -5 25 8 37 19 46 44 7 19 19 34 27 34 8 0 12 5
9 10 -3 6 0 13 9 16 8 3 12 12 9 20 -4 10 3 14 26 14 17 0 31 5 31 10 0 6 -4
10 -10 10 -5 0 -7 7 -4 15 8 20 -20 20 -40 -1z"/>
<path d="M3380 1920 c0 -5 5 -10 10 -10 6 0 10 5 10 10 0 6 -4 10 -10 10 -5 0
-10 -4 -10 -10z"/>
<path d="M3190 1768 c-24 -9 -90 -72 -90 -86 0 -4 -20 -27 -45 -50 -25 -23
-45 -47 -45 -54 0 -13 178 -2 196 12 6 6 13 7 17 4 3 -3 3 3 0 15 -8 32 4 56
21 41 11 -8 20 -9 35 0 25 13 26 23 4 41 -15 12 -16 12 -9 -5 7 -19 6 -19 -13
-1 -20 17 -20 19 -3 31 16 13 16 13 -3 15 -11 1 -24 1 -29 0 -5 -1 -4 4 2 12
18 21 -6 37 -38 25z m-18 -122 c15 2 31 -2 34 -8 5 -8 -3 -9 -24 -5 -19 4 -32
2 -32 -4 0 -6 -7 -6 -20 1 -25 13 -27 34 -2 22 9 -5 29 -7 44 -6z"/>
<path d="M3316 1662 c-3 -4 4 -9 15 -9 23 -2 25 3 4 10 -8 4 -16 3 -19 -1z"/>
<path d="M3238 1617 c3 -11 7 -14 11 -8 5 7 18 8 39 2 17 -5 34 -6 37 -2 2 5
17 6 32 4 26 -4 27 -3 8 8 -11 7 -45 13 -76 14 -50 1 -55 -1 -51 -18z"/>
<path d="M0 50 l0 -50 7360 0 7360 0 0 50 0 50 -7360 0 -7360 0 0 -50z"/>
</g>
</svg>
