<?xml version="1.0" standalone="no"?>
<!DOCTYPE svg PUBLIC "-//W3C//DTD SVG 20010904//EN"
 "http://www.w3.org/TR/2001/REC-SVG-20010904/DTD/svg10.dtd">
<svg version="1.0" xmlns="http://www.w3.org/2000/svg"
 width="1024.000000pt" height="1024.000000pt" viewBox="0 0 1024.000000 1024.000000"
 preserveAspectRatio="xMidYMid meet">

<g transform="translate(0.000000,1024.000000) scale(0.100000,-0.100000)"
fill="#000000" stroke="none">
<path d="M1594 7990 c-51 -20 -71 -101 -38 -149 19 -27 69 -50 94 -44 23 6 15
41 -17 71 -29 28 -27 52 5 68 39 19 47 31 32 49 -14 16 -43 19 -76 5z"/>
<path d="M2155 7903 c-73 -18 -96 -123 -40 -179 53 -53 155 -16 155 56 0 28
-2 30 -40 30 -33 0 -40 -3 -40 -20 0 -13 7 -20 20 -20 28 0 25 -18 -5 -32 -39
-17 -75 12 -75 60 0 21 5 43 12 50 15 15 64 16 73 2 10 -16 45 -12 45 5 0 27
-66 57 -105 48z"/>
<path d="M1843 7874 c-15 -23 -15 -29 -2 -52 8 -14 28 -30 44 -35 45 -15 58
-27 44 -43 -15 -18 -43 -18 -59 1 -18 21 -40 19 -40 -5 0 -41 94 -56 130 -20
39 39 20 81 -45 103 -52 18 -46 33 10 30 25 -2 45 1 45 6 0 22 -34 41 -70 41
-32 0 -43 -5 -57 -26z"/>
<path d="M2000 7823 c0 -98 7 -123 32 -123 17 0 19 7 16 98 -3 92 -4 97 -25
100 -22 3 -23 1 -23 -75z"/>
<path d="M2350 7896 c0 -2 -16 -47 -35 -100 l-35 -96 24 0 c15 0 26 7 29 20 4
16 14 20 45 20 31 0 41 -4 45 -20 3 -12 14 -20 27 -20 25 0 25 1 -22 123 -26
67 -33 77 -54 77 -13 0 -24 -2 -24 -4z m45 -93 c5 -20 3 -23 -19 -23 -24 0
-24 2 -14 31 11 32 21 29 33 -8z"/>
<path d="M5520 7836 c0 -60 1 -64 26 -70 35 -9 54 9 54 50 0 30 -4 35 -30 41
-21 4 -30 11 -30 24 0 11 -4 19 -10 19 -6 0 -10 -28 -10 -64z m60 -5 c13 -26
3 -51 -21 -51 -14 0 -19 7 -19 28 0 45 21 57 40 23z"/>
<path d="M6228 7889 c-30 -17 -22 -48 17 -65 19 -8 35 -19 35 -24 0 -18 -32
-24 -52 -11 -11 7 -22 10 -24 8 -9 -8 27 -37 46 -37 25 0 53 29 46 47 -3 8 -6
16 -6 18 0 2 -16 9 -35 15 -19 6 -35 16 -35 21 0 16 32 23 51 10 11 -6 19 -7
19 -1 0 5 -9 14 -19 20 -23 12 -22 12 -43 -1z"/>
<path d="M6575 7890 c3 -5 8 -10 11 -10 2 0 4 5 4 10 0 6 -5 10 -11 10 -5 0
-7 -4 -4 -10z"/>
<path d="M7249 7886 c-19 -9 -25 -21 -27 -53 -3 -36 1 -44 23 -59 21 -13 31
-15 50 -6 14 7 25 16 25 22 0 13 -6 13 -29 -2 -31 -19 -53 -3 -49 38 4 49 29
65 59 39 21 -19 21 -19 18 -1 -5 26 -41 37 -70 22z"/>
<path d="M4600 7831 c0 -33 5 -63 10 -66 6 -4 10 7 10 24 0 28 3 31 30 31 25
0 30 -4 30 -24 0 -14 5 -28 10 -31 6 -4 10 18 10 59 0 37 -4 66 -10 66 -5 0
-10 -11 -10 -25 0 -21 -5 -25 -30 -25 -25 0 -30 4 -30 25 0 14 -4 25 -10 25
-6 0 -10 -26 -10 -59z"/>
<path d="M5413 7830 c-12 -33 -17 -60 -12 -60 5 0 12 7 15 15 9 22 51 18 64
-6 7 -11 14 -18 17 -15 9 9 -38 126 -51 126 -6 0 -21 -27 -33 -60z m47 4 c0
-8 -7 -14 -15 -14 -17 0 -18 2 -9 24 7 18 24 12 24 -10z"/>
<path d="M7550 7878 c0 -10 -5 -18 -11 -18 -8 0 -8 -4 -1 -13 6 -6 12 -27 14
-46 5 -53 23 -48 22 7 0 45 -23 111 -24 70z"/>
<path d="M5829 7868 c-3 -40 4 -85 16 -97 11 -12 13 -7 8 26 -3 25 -1 43 6 47
8 5 7 11 -3 22 -18 17 -26 18 -27 2z"/>
<path d="M7798 7869 c-7 -20 7 -102 17 -106 8 -2 12 62 6 110 -1 11 -19 8 -23
-4z"/>
<path d="M4732 7848 c-17 -17 -15 -54 4 -72 22 -23 41 -20 60 9 32 49 -24 103
-64 63z m56 -42 c-4 -30 -42 -28 -46 3 -2 13 2 27 9 32 18 11 41 -10 37 -35z"/>
<path d="M4831 7806 c2 -51 2 -51 8 -11 4 27 12 41 24 43 13 3 17 -4 17 -32 0
-19 5 -38 10 -41 6 -4 10 10 10 34 0 34 3 41 20 41 16 0 20 -7 20 -35 0 -19 5
-35 10 -35 12 0 13 59 2 76 -4 7 -32 11 -64 11 l-58 -1 1 -50z"/>
<path d="M4991 7851 c-20 -13 -17 -62 5 -78 23 -17 39 -17 54 2 11 13 8 14
-19 9 -24 -5 -31 -3 -31 10 0 11 9 16 30 16 31 0 39 17 18 38 -14 14 -37 15
-57 3z m49 -21 c0 -5 -9 -10 -20 -10 -11 0 -20 5 -20 10 0 6 9 10 20 10 11 0
20 -4 20 -10z"/>
<path d="M5632 7848 c-22 -22 -14 -67 13 -80 31 -14 55 3 55 41 0 30 -16 51
-40 51 -9 0 -21 -5 -28 -12z m53 -18 c11 -18 -6 -50 -26 -50 -14 0 -19 7 -19
30 0 23 5 30 19 30 11 0 23 -5 26 -10z"/>
<path d="M5720 7828 c0 -45 14 -63 50 -63 30 -1 30 0 29 50 -1 49 -1 50 -9 12
-8 -44 -14 -51 -35 -44 -9 4 -15 19 -15 42 0 19 -4 35 -10 35 -5 0 -10 -15
-10 -32z"/>
<path d="M6320 7839 c-24 -43 11 -90 54 -73 25 10 19 23 -10 21 -15 -1 -29 4
-31 11 -3 8 7 12 31 12 39 0 41 2 26 31 -14 26 -56 25 -70 -2z m50 -9 c0 -5
-9 -10 -21 -10 -11 0 -17 5 -14 10 3 6 13 10 21 10 8 0 14 -4 14 -10z"/>
<path d="M6410 7814 c0 -24 5 -46 10 -49 6 -4 10 8 10 29 0 25 6 38 19 46 27
14 26 15 45 -35 10 -25 21 -43 26 -40 13 8 40 95 29 95 -5 0 -11 -6 -13 -12
-16 -53 -18 -54 -32 -21 -13 30 -18 33 -54 31 l-40 -1 0 -43z"/>
<path d="M6577 7853 c-11 -10 -8 -81 3 -88 6 -4 10 13 10 44 0 52 -1 56 -13
44z"/>
<path d="M6622 7848 c-17 -17 -15 -54 4 -72 17 -18 24 -19 48 -10 26 10 18 23
-11 21 -31 -2 -43 24 -22 49 9 11 15 12 26 3 15 -13 28 -6 18 10 -8 15 -48 14
-63 -1z"/>
<path d="M6722 7848 c-17 -17 -15 -54 4 -72 19 -20 38 -20 54 -2 10 13 7 15
-16 13 -15 -1 -29 4 -31 11 -3 8 6 12 26 12 19 0 31 5 31 13 0 18 -21 37 -40
37 -9 0 -21 -5 -28 -12z m48 -18 c0 -5 -9 -10 -20 -10 -11 0 -20 5 -20 10 0 6
9 10 20 10 11 0 20 -4 20 -10z"/>
<path d="M6817 7854 c-14 -15 -6 -35 18 -44 34 -13 33 -34 -2 -25 -23 5 -25 4
-14 -9 17 -20 35 -20 55 0 19 19 13 32 -21 45 -13 5 -21 13 -18 19 4 7 13 6
27 -1 16 -9 19 -8 16 3 -5 14 -49 23 -61 12z"/>
<path d="M7352 7848 c-19 -19 -15 -66 8 -78 34 -18 62 4 58 48 -3 31 -7 37
-28 40 -14 2 -31 -3 -38 -10z m48 -13 c16 -19 3 -57 -18 -53 -18 3 -27 30 -18
54 7 18 20 18 36 -1z"/>
<path d="M7440 7816 c0 -55 17 -62 22 -8 2 25 8 37 18 37 10 0 16 -12 18 -37
2 -21 8 -38 13 -38 6 0 9 19 7 43 -3 41 -4 42 -40 45 l-38 3 0 -45z"/>
<path d="M7612 7853 c-6 -2 -9 -9 -6 -14 4 -6 10 -6 18 0 7 6 17 6 26 1 15 -9
16 -9 -35 -25 -15 -4 -21 -44 -7 -46 67 -10 72 -8 72 30 0 52 -25 72 -68 54z
m48 -53 c0 -12 -28 -25 -36 -17 -9 9 6 27 22 27 8 0 14 -5 14 -10z"/>
<path d="M7700 7840 c-21 -38 11 -87 50 -75 11 3 20 13 20 22 0 13 -3 13 -15
3 -19 -16 -45 -6 -45 18 0 29 20 43 43 31 15 -9 18 -8 15 3 -8 23 -55 22 -68
-2z"/>
<path d="M1560 7712 c9 -18 7 -28 -11 -53 l-22 -31 34 7 c32 7 61 35 65 62 2
9 -6 11 -22 7 -18 -5 -29 -1 -40 12 -14 18 -14 18 -4 -4z"/>
<path d="M2572 6560 l-43 -19 17 -26 c9 -15 20 -23 23 -18 3 4 15 9 26 10 40
5 90 15 94 19 2 2 -2 15 -9 29 -16 31 -48 32 -108 5z"/>
<path d="M5520 6525 c0 -47 2 -54 14 -43 8 7 12 16 9 21 -4 7 11 11 35 8 18
-3 15 56 -4 63 -45 17 -54 8 -54 -49z"/>
<path d="M3775 6561 c-9 -15 -2 -71 10 -72 5 -1 18 0 29 1 15 1 18 -4 14 -30
-3 -17 -1 -33 4 -36 4 -3 8 29 8 70 l0 76 -29 0 c-17 0 -32 -4 -36 -9z"/>
<path d="M6641 6508 c0 -43 3 -56 8 -43 5 11 7 23 4 28 -2 4 5 18 15 32 14 17
22 21 25 13 2 -7 7 -10 11 -7 15 14 -7 39 -35 39 -29 0 -29 0 -28 -62z"/>
<path d="M2820 6492 c0 -7 -7 -12 -16 -12 -8 0 -12 -5 -9 -10 4 -6 1 -17 -5
-25 -10 -12 -9 -15 9 -15 12 0 19 4 16 10 -3 5 -1 19 5 31 7 11 9 23 6 27 -3
3 -6 0 -6 -6z"/>
<path d="M5282 6448 c-2 -24 -6 -28 -32 -28 l-31 0 3 -92 c2 -58 7 -91 13 -88
6 3 10 15 9 28 -1 12 4 22 11 22 6 0 17 11 23 25 11 24 10 25 -7 15 -12 -6
-22 -6 -25 -1 -5 7 7 17 34 26 3 1 12 4 20 8 8 3 26 8 40 10 18 3 14 5 -12 6
-37 1 -37 1 -41 49 -2 26 -4 35 -5 20z m-4 -56 c3 -10 -11 -11 -46 -3 -2 1 -1
5 2 10 8 12 39 7 44 -7z"/>
<path d="M2836 6451 c-4 -7 -5 -15 -2 -18 9 -9 19 4 14 18 -4 11 -6 11 -12 0z"/>
<path d="M3275 6453 c-40 -8 -63 -25 -58 -41 4 -9 2 -13 -4 -9 -7 5 -9 0 -6
-12 5 -19 33 -19 33 0 0 5 11 14 24 18 13 5 26 19 29 30 3 12 4 20 4 20 -1 -1
-11 -3 -22 -6z"/>
<path d="M7100 6448 c0 -6 -7 -20 -17 -30 -15 -17 -14 -18 18 -18 19 0 40 -5
47 -12 9 -9 12 -9 12 3 0 11 2 11 8 1 6 -8 19 -10 40 -6 28 6 30 8 20 28 -7
13 -13 16 -16 8 -2 -6 -8 -12 -13 -12 -4 0 -6 7 -3 15 4 10 -3 18 -21 25 -36
14 -75 13 -75 -2z"/>
<path d="M2937 6443 c-4 -3 -6 -18 -6 -32 1 -21 2 -22 6 -6 3 11 12 26 21 33
14 10 14 12 1 12 -9 0 -19 -3 -22 -7z"/>
<path d="M2980 6440 c0 -5 5 -10 11 -10 5 0 7 5 4 10 -3 6 -8 10 -11 10 -2 0
-4 -4 -4 -10z"/>
<path d="M3932 6368 c0 -46 3 -68 5 -50 4 28 6 31 24 21 14 -7 18 -16 14 -30
-4 -11 -2 -25 3 -32 6 -7 12 -23 15 -37 2 -14 5 28 6 93 l1 117 -35 0 -35 0 2
-82z"/>
<path d="M4451 6383 c1 -38 3 -61 6 -51 3 14 8 13 30 -8 l26 -24 13 37 c7 21
20 43 28 48 10 8 12 16 5 26 -8 12 -13 6 -10 -13 0 -4 -6 -5 -14 -2 -8 4 -15
17 -15 30 0 21 -5 24 -35 24 l-35 0 1 -67z"/>
<path d="M2456 6410 c-13 -69 -11 -137 4 -160 9 -13 13 -12 29 8 11 12 25 22
31 22 7 0 10 7 6 16 -3 9 -6 34 -6 55 0 22 -4 38 -8 35 -9 -5 -36 22 -44 45
-3 8 -8 -2 -12 -21z"/>
<path d="M4992 6420 c0 -14 2 -19 5 -12 2 6 2 18 0 25 -3 6 -5 1 -5 -13z"/>
<path d="M5848 6418 c3 -11 10 -17 18 -14 8 3 14 -1 14 -9 0 -8 7 -15 15 -15
8 0 12 -6 9 -14 -9 -23 12 -27 37 -8 21 17 20 50 -2 37 -5 -4 -6 2 -2 11 5 13
3 16 -9 11 -9 -3 -19 0 -22 8 -3 8 -18 13 -34 13 -24 -1 -28 -5 -24 -20z"/>
<path d="M3410 6423 c0 -6 -10 -13 -22 -15 -21 -3 -21 -4 -4 -20 10 -11 13
-18 6 -18 -8 0 -11 -11 -8 -30 3 -17 1 -33 -4 -36 -5 -3 -2 -17 8 -31 11 -18
13 -28 5 -32 -8 -5 -7 -15 2 -34 15 -33 37 -43 37 -17 0 11 5 20 10 20 23 0 9
46 -20 63 -31 19 -42 41 -15 31 9 -4 15 0 15 10 0 9 5 16 11 16 5 0 8 -4 4 -9
-3 -5 -1 -12 5 -16 20 -12 11 81 -10 106 -10 13 -19 19 -20 12z"/>
<path d="M4580 6415 c0 -8 7 -15 16 -15 14 0 14 3 4 15 -7 8 -14 15 -16 15 -2
0 -4 -7 -4 -15z"/>
<path d="M3551 6389 c-26 -43 -25 -195 2 -210 9 -6 17 -16 17 -23 0 -13 28
-30 67 -41 14 -4 42 3 75 19 53 26 68 26 68 0 0 -8 6 -14 13 -14 17 0 15 62
-2 68 -6 2 -11 10 -11 18 0 22 -16 17 -42 -13 -32 -39 -77 -37 -112 4 -14 17
-26 36 -26 42 0 6 -4 11 -9 11 -12 0 -8 19 12 79 14 39 14 46 0 67 -20 32 -30
30 -52 -7z"/>
<path d="M7630 6405 c0 -8 -4 -15 -10 -15 -5 0 -9 -3 -8 -7 1 -5 -2 -18 -6
-31 -7 -21 -9 -22 -20 -6 -12 15 -13 15 -19 0 -4 -9 -3 -16 1 -16 4 0 6 -18 4
-40 -2 -22 0 -40 4 -41 5 0 21 -2 37 -3 l27 -2 0 88 c0 48 -2 88 -5 88 -3 0
-5 -7 -5 -15z"/>
<path d="M6250 6400 c0 -5 7 -10 16 -10 8 0 12 5 9 10 -3 6 -10 10 -16 10 -5
0 -9 -4 -9 -10z"/>
<path d="M4095 6390 c-4 -6 -5 -14 -1 -17 3 -3 -1 -12 -9 -20 -20 -19 -20
-112 0 -139 8 -12 12 -23 10 -26 -7 -7 43 -52 60 -54 8 -1 11 4 8 12 -3 8 1
14 8 14 7 0 10 3 7 6 -4 3 -16 1 -27 -6 -17 -9 -21 -8 -21 5 0 8 4 15 10 15 6
0 7 18 4 44 -4 24 -2 52 5 64 7 14 8 23 1 27 -14 9 -12 72 3 78 9 4 9 6 0 6
-6 1 -15 -4 -18 -9 -5 -8 -11 -8 -20 0 -10 8 -15 8 -20 0z"/>
<path d="M6288 6386 c-10 -7 -15 -16 -11 -19 3 -4 -2 -7 -11 -7 -14 0 -17 -6
-14 -25 3 -14 2 -25 -2 -25 -4 0 -6 -10 -5 -22 1 -13 3 -35 4 -50 1 -19 7 -28
17 -28 13 0 14 -3 5 -14 -9 -11 -8 -15 5 -20 11 -4 18 1 22 16 6 20 7 19 13
-12 4 -20 7 13 8 80 1 126 -4 146 -31 126z m13 -95 c-7 -4 -16 -21 -21 -37 -8
-28 -8 -28 -7 8 1 21 6 38 10 38 4 0 2 10 -4 23 -11 22 -11 22 11 -2 16 -16
19 -25 11 -30z"/>
<path d="M6792 6360 c0 -19 2 -27 5 -17 2 9 2 25 0 35 -3 9 -5 1 -5 -18z"/>
<path d="M2755 6333 c11 -10 28 -32 37 -48 11 -19 26 -31 43 -33 25 -3 26 -2
23 45 l-3 48 -60 3 c-58 3 -59 3 -40 -15z"/>
<path d="M6827 6343 c-10 -10 -8 -53 2 -53 5 0 11 -10 14 -22 10 -36 -29 -91
-45 -65 -4 7 -8 -9 -8 -35 0 -48 0 -48 33 -47 26 0 29 2 12 9 -19 7 -19 8 -2
15 14 6 15 10 6 21 -9 11 -8 14 4 14 12 0 15 13 14 68 -2 47 -6 66 -14 65 -16
-4 -17 9 -1 25 7 7 8 12 2 12 -6 0 -14 -3 -17 -7z"/>
<path d="M2931 6233 l-1 -113 39 0 39 0 -2 43 c-1 23 -3 66 -4 95 -2 50 -3 52
-28 48 -19 -4 -27 0 -34 17 -6 15 -9 -15 -9 -90z"/>
<path d="M4681 6229 l2 -105 28 -2 c20 -2 28 3 33 20 8 33 7 195 -2 182 -4 -6
-16 -11 -27 -11 -11 0 -23 5 -28 11 -4 6 -7 -36 -6 -95z m49 -89 c0 -5 -7 -10
-15 -10 -8 0 -15 5 -15 10 0 6 7 10 15 10 8 0 15 -4 15 -10z"/>
<path d="M5285 6309 c-4 -6 -5 -12 -2 -15 2 -3 7 2 10 11 7 17 1 20 -8 4z"/>
<path d="M4161 6292 c-9 -16 -5 -18 32 -19 35 -1 38 0 17 7 -14 4 -19 8 -12 9
20 2 14 21 -8 21 -10 0 -24 -8 -29 -18z"/>
<path d="M5765 6300 c-11 -17 5 -30 37 -30 22 0 29 4 25 14 -4 9 1 17 11 19 9
3 -2 5 -25 6 -23 0 -45 -3 -48 -9z m45 -9 c0 -6 -9 -9 -19 -8 -11 0 -17 5 -15
9 7 11 34 10 34 -1z"/>
<path d="M6962 6298 c-17 -22 -20 -77 -5 -90 10 -8 11 -13 3 -18 -8 -5 -7 -9
3 -13 21 -8 37 6 41 39 2 16 5 34 6 39 1 6 2 20 1 33 -1 25 -32 31 -49 10z"/>
<path d="M7340 6300 c0 -5 5 -10 10 -10 6 0 10 5 10 10 0 6 -4 10 -10 10 -5 0
-10 -4 -10 -10z"/>
<path d="M5533 6283 c-9 -3 -13 -30 -13 -84 l0 -79 35 0 35 0 0 57 c0 51 -1
55 -14 38 -13 -18 -15 -17 -25 19 -5 22 -8 43 -5 48 6 9 5 9 -13 1z"/>
<path d="M6178 6283 c7 -3 16 -2 19 1 4 3 -2 6 -13 5 -11 0 -14 -3 -6 -6z"/>
<path d="M5700 6252 c0 -24 -4 -30 -15 -26 -11 5 -13 2 -9 -10 3 -9 10 -16 15
-16 5 0 9 -9 9 -19 0 -19 14 -22 38 -8 7 5 12 4 12 -2 0 -6 4 -11 9 -11 5 0 0
17 -10 37 -10 21 -19 42 -19 49 0 6 -7 17 -15 24 -13 11 -15 8 -15 -18z"/>
<path d="M6445 6240 c3 -5 8 -10 11 -10 2 0 4 5 4 10 0 6 -5 10 -11 10 -5 0
-7 -4 -4 -10z"/>
<path d="M6417 6233 c-12 -11 -8 -40 8 -53 12 -10 15 -10 15 0 0 7 6 10 14 7
17 -7 30 20 14 29 -6 4 -17 -1 -24 -10 -7 -10 -15 -13 -18 -7 -3 5 0 11 6 14
9 3 10 8 2 16 -6 6 -13 8 -17 4z"/>
<path d="M4306 6195 c-3 -8 -17 -17 -31 -21 -14 -3 -25 -10 -25 -15 0 -5 -8
-9 -17 -10 -12 -1 -10 -4 7 -9 21 -7 22 -8 5 -9 -18 -2 -19 -2 -2 -12 9 -5 23
-7 30 -2 6 4 19 8 27 10 17 2 60 49 60 65 0 6 -9 3 -19 -6 -19 -17 -19 -17
-14 3 6 24 -12 29 -21 6z"/>
<path d="M6235 6190 c-3 -5 -1 -10 4 -10 6 0 11 5 11 10 0 6 -2 10 -4 10 -3 0
-8 -4 -11 -10z"/>
<path d="M7380 6180 c0 -14 -4 -19 -12 -15 -7 4 -2 -3 11 -15 19 -16 35 -20
73 -19 27 2 53 9 59 16 9 10 7 13 -10 13 -11 0 -21 5 -21 11 0 6 -8 8 -20 4
-10 -3 -33 1 -50 10 -29 15 -30 15 -30 -5z"/>
<path d="M2583 6179 c-6 -6 -9 -17 -6 -24 3 -10 -2 -12 -19 -9 -22 5 -21 4 3
-10 60 -35 142 -24 146 20 2 18 -3 20 -57 18 -33 0 -57 3 -54 7 7 13 0 11 -13
-2z"/>
<path d="M6084 6169 c-3 -5 -10 -7 -15 -4 -13 9 -11 -19 3 -33 7 -7 30 -12 52
-12 21 0 36 3 33 7 -4 3 -1 13 6 21 10 13 9 15 -4 10 -9 -4 -28 0 -43 7 -15 8
-28 10 -32 4z m46 -29 c18 -12 2 -12 -25 0 -13 6 -15 9 -5 9 8 0 22 -4 30 -9z"/>
<path d="M4958 6154 c-38 -20 -35 -34 7 -34 31 0 35 3 35 25 0 29 -5 30 -42 9z"/>
<path d="M6199 6153 c-13 -15 -12 -15 11 -3 34 17 36 20 18 20 -9 0 -22 -7
-29 -17z"/>
<path d="M6662 6148 c-20 -20 -14 -28 19 -28 20 0 29 4 26 13 -2 6 -12 11 -22
9 -10 -2 -14 1 -10 7 8 15 2 14 -13 -1z"/>
<path d="M3215 6130 c3 -5 8 -10 11 -10 2 0 4 5 4 10 0 6 -5 10 -11 10 -5 0
-7 -4 -4 -10z"/>
<path d="M3820 6129 c0 -5 5 -7 10 -4 6 3 10 8 10 11 0 2 -4 4 -10 4 -5 0 -10
-5 -10 -11z"/>
<path d="M7349 6078 c-6 -22 -5 -39 3 -45 6 -3 8 -1 4 5 -3 6 -2 13 4 17 13 8
13 25 0 25 -5 0 -10 -1 -11 -2z"/>
<path d="M7562 6056 c-9 -11 -11 -16 -4 -12 6 4 12 2 12 -3 0 -6 -8 -11 -17
-11 -12 0 -14 -3 -6 -11 14 -14 45 2 66 35 16 23 15 24 -9 22 -14 0 -33 -10
-42 -20z"/>
<path d="M4030 5710 c0 -27 -2 -30 -20 -20 -15 8 -24 6 -40 -10 -33 -33 -19
-91 23 -89 22 0 22 0 1 9 -27 11 -37 36 -24 61 21 39 67 10 56 -35 -3 -14 -2
-28 4 -31 6 -4 10 21 10 69 0 42 -2 76 -5 76 -3 0 -5 -14 -5 -30z"/>
<path d="M4193 5665 c0 -44 2 -61 4 -37 2 23 2 59 0 80 -2 20 -4 1 -4 -43z"/>
<path d="M4570 5729 c0 -5 5 -7 10 -4 6 3 10 8 10 11 0 2 -4 4 -10 4 -5 0 -10
-5 -10 -11z"/>
<path d="M6570 5714 c0 -23 -3 -25 -24 -20 -31 8 -56 -16 -56 -53 0 -36 19
-52 59 -49 l31 2 0 73 c0 40 -2 73 -5 73 -3 0 -5 -12 -5 -26z m-6 -56 c13 -21
-2 -51 -28 -56 -18 -4 -36 32 -28 61 6 22 40 19 56 -5z"/>
<path d="M7020 5730 c0 -5 5 -10 10 -10 6 0 10 5 10 10 0 6 -4 10 -10 10 -5 0
-10 -4 -10 -10z"/>
<path d="M7463 5665 c0 -44 2 -61 4 -37 2 23 2 59 0 80 -2 20 -4 1 -4 -43z"/>
<path d="M2742 5663 l-2 -73 43 2 42 1 -37 4 -37 4 -4 67 -3 67 -2 -72z"/>
<path d="M4613 5705 c-6 -14 -7 -25 -2 -25 5 0 9 -20 9 -45 0 -36 3 -45 18
-44 10 0 12 3 5 6 -7 2 -13 22 -13 43 0 21 6 41 13 43 8 4 9 8 1 14 -6 4 -13
13 -15 20 -2 7 -9 1 -16 -12z"/>
<path d="M7550 5718 c0 -9 -6 -19 -12 -22 -10 -5 -10 -7 0 -12 7 -3 12 -24 12
-50 0 -39 2 -44 23 -43 16 1 18 2 5 6 -13 3 -18 15 -18 43 0 21 4 40 8 42 4 2
2 14 -5 28 -9 17 -13 20 -13 8z"/>
<path d="M5118 5703 c-2 -10 -1 -38 2 -63 4 -35 9 -46 25 -48 15 -2 16 -1 7 6
-8 6 -13 25 -12 48 3 58 1 74 -9 74 -5 0 -10 -8 -13 -17z"/>
<path d="M5935 5711 c3 -5 1 -12 -3 -15 -9 -5 -8 -28 4 -83 2 -13 12 -23 21
-23 15 0 14 2 -2 14 -16 12 -18 19 -9 47 11 38 8 69 -7 69 -6 0 -8 -4 -4 -9z"/>
<path d="M6102 5699 c-8 -12 -8 -20 -1 -25 6 -3 10 -18 9 -32 -3 -45 -1 -52
18 -51 10 0 12 3 5 6 -17 6 -17 80 -1 85 10 4 9 9 -3 20 -14 14 -17 14 -27 -3z"/>
<path d="M2856 5684 c-32 -32 -17 -94 23 -94 51 0 69 52 31 90 -24 24 -34 25
-54 4z m53 -26 c11 -29 -4 -58 -29 -58 -21 0 -37 38 -26 65 9 23 45 18 55 -7z"/>
<path d="M3041 5684 c-23 -17 -28 -63 -9 -82 13 -13 68 -17 68 -4 0 4 -12 8
-27 7 -18 0 -29 6 -31 18 -3 14 4 17 32 17 39 0 41 2 26 29 -14 27 -35 32 -59
15z m47 -21 c2 -8 -6 -13 -22 -13 -25 0 -33 10 -19 24 10 10 36 3 41 -11z"/>
<path d="M3160 5690 c-8 -5 -18 -6 -22 -4 -4 3 -7 -19 -7 -48 1 -29 3 -42 6
-28 9 60 14 70 33 70 17 0 20 -7 20 -45 0 -57 18 -59 22 -2 2 34 7 42 23 42
16 0 21 -9 26 -45 l7 -45 -2 50 -1 50 -36 1 c-20 1 -40 4 -46 7 -5 3 -15 2
-23 -3z"/>
<path d="M3402 5625 c1 -44 3 -68 5 -54 3 22 8 25 30 21 49 -9 73 63 31 92
-15 10 -26 12 -39 6 -12 -7 -19 -6 -22 3 -3 6 -5 -24 -5 -68z m68 35 c20 -38
-19 -77 -48 -48 -13 13 -16 50 -5 61 13 14 43 6 53 -13z"/>
<path d="M3526 5685 c-20 -21 -12 -38 25 -52 17 -7 28 -17 24 -22 -9 -15 -38
-14 -54 2 -11 10 -13 9 -9 -3 3 -9 17 -15 39 -15 46 0 51 28 10 50 -17 8 -31
20 -31 25 0 14 34 12 48 -2 9 -9 12 -9 12 0 0 10 -30 32 -44 32 -2 0 -11 -7
-20 -15z"/>
<path d="M3622 5647 l-2 -58 40 3 40 2 -2 50 c-1 43 -2 45 -5 14 -8 -76 -60
-77 -66 -1 -3 48 -3 48 -5 -10z"/>
<path d="M3827 5693 c-4 -3 -27 -6 -52 -6 l-45 0 2 -51 1 -51 6 45 c5 37 10
46 29 48 20 3 22 -1 22 -42 0 -25 4 -46 9 -46 5 0 8 12 5 26 -7 41 4 66 29 62
18 -2 23 -12 28 -48 l6 -45 1 47 c2 37 -2 49 -17 57 -10 6 -21 8 -24 4z"/>
<path d="M4092 5684 c-41 -28 -24 -94 24 -94 46 0 60 69 19 96 -18 12 -24 11
-43 -2z m48 -19 c15 -18 10 -45 -12 -59 -26 -16 -53 14 -44 48 7 29 36 35 56
11z"/>
<path d="M4246 5684 c-19 -18 -21 -65 -4 -82 7 -7 21 -12 33 -12 28 0 45 19
45 50 0 27 -27 60 -48 60 -6 0 -18 -7 -26 -16z m59 -24 c7 -23 -10 -60 -29
-60 -23 0 -39 28 -32 55 8 31 51 35 61 5z"/>
<path d="M4488 5693 c-30 -7 -22 -43 12 -56 37 -14 33 -33 -5 -30 -20 2 -25
-1 -18 -8 18 -18 58 -6 61 17 2 16 -4 24 -27 32 -41 14 -41 37 -1 29 17 -4 30
-5 30 -2 0 9 -36 21 -52 18z"/>
<path d="M4573 5645 c0 -33 2 -45 4 -27 2 18 2 45 0 60 -2 15 -4 0 -4 -33z"/>
<path d="M4744 5685 c-18 -14 -17 -14 14 -9 25 5 32 3 32 -10 0 -10 -9 -16
-25 -16 -26 0 -48 -29 -36 -48 4 -6 24 -11 44 -10 36 1 37 2 37 39 0 34 -20
69 -39 69 -4 0 -16 -7 -27 -15z m44 -62 c-4 -22 -48 -31 -48 -10 0 19 10 27
32 27 13 0 18 -6 16 -17z"/>
<path d="M4926 5691 c-3 -4 -26 -7 -51 -5 l-45 3 0 -49 c0 -61 18 -67 22 -7 2
34 7 42 23 42 16 0 21 -9 26 -45 l5 -45 5 45 c3 37 8 46 27 48 20 3 22 -1 22
-42 0 -25 5 -46 10 -46 16 0 12 63 -6 88 -16 23 -29 28 -38 13z"/>
<path d="M5312 5693 c-7 -3 -18 -16 -23 -30 -18 -47 29 -90 70 -64 10 7 4 9
-20 8 -33 -2 -34 -1 -34 33 0 34 1 35 35 33 33 -1 34 0 16 13 -21 15 -24 15
-44 7z"/>
<path d="M5405 5686 c-22 -16 -25 -74 -4 -87 20 -12 53 -11 67 3 20 20 14 65
-10 82 -27 19 -29 19 -53 2z m59 -28 c15 -25 -4 -53 -35 -53 -25 0 -37 30 -25
61 8 20 46 14 60 -8z"/>
<path d="M5628 5689 c-28 -16 -21 -37 18 -54 19 -8 33 -19 29 -25 -9 -14 -38
-13 -54 3 -11 10 -13 9 -9 -3 3 -10 17 -15 39 -15 27 0 35 4 37 21 2 16 -4 24
-27 32 -42 15 -41 36 2 28 30 -5 31 -5 13 9 -23 17 -25 18 -48 4z"/>
<path d="M5728 5689 c-21 -12 -24 -69 -6 -87 15 -15 55 -16 64 -1 4 8 -1 9
-15 4 -22 -7 -51 9 -51 26 0 5 18 9 40 9 44 0 47 5 24 38 -17 24 -30 27 -56
11z m52 -24 c0 -10 -10 -15 -30 -15 -29 0 -38 9 -23 23 13 13 53 7 53 -8z"/>
<path d="M5838 5689 c-21 -12 -24 -69 -6 -87 17 -17 43 -15 59 5 13 15 12 15
-7 3 -33 -20 -56 -6 -52 32 3 31 5 33 38 31 33 -1 34 0 16 13 -23 16 -25 17
-48 3z"/>
<path d="M6012 5684 c-24 -17 -30 -62 -10 -82 14 -14 54 -16 62 -3 3 5 -9 8
-26 7 -23 -1 -33 4 -36 17 -3 14 4 17 36 17 35 0 39 2 35 20 -8 31 -36 42 -61
24z m46 -21 c2 -9 -7 -13 -27 -13 -30 0 -39 9 -24 24 11 10 46 3 51 -11z"/>
<path d="M6164 5650 l1 -55 43 -1 c34 -2 42 1 38 13 -3 8 -7 31 -8 51 -1 36
-1 36 -7 -8 -5 -37 -10 -46 -28 -48 -23 -3 -27 5 -37 73 -2 17 -3 5 -2 -25z"/>
<path d="M6295 5691 c-3 -6 -11 -9 -16 -6 -5 4 -8 -16 -7 -47 1 -40 2 -45 5
-18 3 19 12 43 20 53 9 9 14 20 11 23 -3 3 -9 0 -13 -5z"/>
<path d="M6405 5687 c-16 -13 -15 -14 13 -9 43 6 44 -23 1 -32 -25 -5 -30 -10
-27 -28 2 -19 10 -23 39 -24 34 -2 35 -1 37 36 2 24 -3 44 -13 54 -20 19 -26
20 -50 3z m45 -62 c0 -9 -7 -18 -16 -22 -18 -7 -39 11 -30 26 11 17 46 13 46
-4z"/>
<path d="M6662 5625 c0 -44 3 -68 5 -54 3 22 8 25 29 21 13 -2 31 1 39 8 20
16 19 64 -1 84 -18 18 -23 19 -44 6 -9 -6 -17 -5 -22 3 -4 7 -7 -24 -6 -68z
m73 35 c7 -23 -10 -60 -29 -60 -23 0 -39 28 -32 55 8 31 51 35 61 5z"/>
<path d="M7187 5682 c-35 -39 -7 -99 39 -88 27 7 32 -5 9 -24 -8 -6 -23 -9
-36 -5 -14 5 -19 4 -15 -4 8 -12 36 -14 60 -5 12 5 16 21 16 71 0 37 -4 62 -9
58 -5 -3 -12 -1 -16 5 -10 15 -30 12 -48 -8z m61 -39 c-4 -38 -35 -54 -54 -29
-18 25 -18 41 2 60 23 23 56 3 52 -31z"/>
<path d="M7361 5681 c-25 -25 -27 -54 -5 -75 17 -17 59 -22 68 -7 3 5 -9 8
-26 7 -23 -1 -33 4 -36 17 -3 14 4 17 33 17 28 0 36 4 33 16 -2 9 -13 23 -25
31 -19 13 -24 12 -42 -6z m47 -18 c2 -8 -6 -13 -22 -13 -25 0 -33 10 -19 24
10 10 36 3 41 -11z"/>
<path d="M7503 5645 c0 -33 2 -45 4 -27 2 18 2 45 0 60 -2 15 -4 0 -4 -33z"/>
<path d="M2950 5638 c0 -27 5 -48 10 -48 6 0 10 18 10 40 0 26 5 42 17 49 14
7 12 9 -10 8 -25 -2 -27 -5 -27 -49z"/>
<path d="M3363 5640 c0 -30 2 -43 4 -27 2 15 2 39 0 55 -2 15 -4 2 -4 -28z"/>
<path d="M4340 5644 c0 -23 5 -46 10 -49 6 -4 10 10 10 34 0 27 5 43 17 49 13
8 11 10 -10 10 -25 0 -27 -4 -27 -44z"/>
<path d="M5008 5665 c-23 -51 25 -95 71 -66 10 7 4 9 -19 8 -25 -2 -35 3 -38
16 -3 14 4 17 32 17 37 0 47 15 24 38 -21 21 -57 14 -70 -13z m66 0 c4 -11 -2
-15 -24 -15 -29 0 -38 9 -23 23 12 12 41 7 47 -8z"/>
<path d="M5501 5635 c1 -47 2 -48 8 -15 9 47 18 60 42 60 16 0 19 -7 19 -47 0
-32 3 -44 10 -37 7 7 7 25 2 50 -7 37 -10 39 -45 39 l-37 1 1 -51z"/>
<path d="M6610 5640 c0 -27 5 -50 10 -50 6 0 10 23 10 50 0 28 -4 50 -10 50
-5 0 -10 -22 -10 -50z"/>
<path d="M6783 5640 c0 -30 2 -43 4 -27 2 15 2 39 0 55 -2 15 -4 2 -4 -28z"/>
<path d="M6820 5670 c0 -12 12 -26 30 -35 39 -20 39 -39 0 -33 -19 3 -27 1
-21 -5 14 -14 55 -4 59 15 2 11 -8 23 -27 33 -41 20 -41 39 -1 31 19 -3 29 -2
25 4 -3 6 -19 10 -36 10 -22 0 -29 -5 -29 -20z"/>
<path d="M6922 5678 c-16 -16 -15 -50 1 -72 16 -21 68 -19 75 4 4 12 2 13 -9
3 -34 -32 -79 8 -57 51 8 14 17 17 39 12 19 -3 28 -2 24 4 -9 14 -59 12 -73
-2z"/>
<path d="M7020 5640 c0 -27 5 -50 10 -50 6 0 10 23 10 50 0 28 -4 50 -10 50
-5 0 -10 -22 -10 -50z"/>
<path d="M7061 5636 c-2 -58 15 -55 21 4 2 27 8 36 25 38 19 3 22 -2 26 -40
l4 -43 -1 45 c-1 45 -1 45 -37 46 l-36 2 -2 -52z"/>
<path d="M7610 5600 c0 -5 5 -10 10 -10 6 0 10 5 10 10 0 6 -4 10 -10 10 -5 0
-10 -4 -10 -10z"/>
<path d="M5187 5593 c-4 -3 -7 -13 -7 -22 1 -13 3 -13 11 2 11 19 8 33 -4 20z"/>
<path d="M3340 3650 c-19 -19 -20 -33 -20 -348 0 -280 2 -331 16 -350 l15 -22
355 0 c341 0 355 1 374 20 19 19 20 33 20 350 0 317 -1 331 -20 350 -19 19
-33 20 -370 20 -337 0 -351 -1 -370 -20z"/>
<path d="M3421 2796 c-17 -21 -10 -87 12 -100 39 -25 74 44 47 94 -12 23 -42
26 -59 6z m47 -40 c4 -46 -10 -65 -33 -46 -27 22 -16 94 14 88 11 -2 17 -16
19 -42z"/>
<path d="M3527 2804 c-14 -14 -7 -26 8 -14 16 13 45 7 45 -10 0 -6 -10 -14
-22 -19 l-23 -8 23 -7 c12 -4 22 -14 22 -22 0 -21 -27 -29 -47 -13 -14 12 -16
12 -11 -1 2 -8 15 -16 27 -18 29 -4 54 16 45 37 -4 9 -7 30 -8 46 -1 24 -6 31
-26 33 -14 2 -29 0 -33 -4z"/>
<path d="M3621 2779 c-8 -24 -8 -38 2 -58 24 -51 77 -34 77 24 0 50 -9 65 -40
65 -22 0 -30 -6 -39 -31z m61 -4 c12 -27 -2 -75 -22 -75 -20 0 -34 48 -22 75
6 14 16 25 22 25 6 0 16 -11 22 -25z"/>
<path d="M3751 2768 c-37 -51 -38 -57 -6 -50 16 3 27 -1 31 -11 5 -14 8 -14
25 1 13 12 15 18 6 24 -6 4 -10 22 -9 43 4 46 -9 44 -47 -7z m29 -13 c0 -18
-5 -25 -20 -25 -20 0 -20 1 -4 25 9 14 18 25 20 25 2 0 4 -11 4 -25z"/>
<path d="M3840 2780 c0 -27 3 -30 30 -30 23 0 30 -5 30 -19 0 -26 -17 -36 -36
-20 -17 14 -33 4 -17 -12 6 -6 21 -9 34 -7 33 4 34 58 2 73 -31 13 -29 33 5
38 22 3 20 4 -10 6 -36 1 -38 -1 -38 -29z"/>
<path d="M3941 2750 l-2 -60 43 2 c37 1 38 2 11 5 -24 3 -33 9 -33 22 0 13 11
21 33 27 l32 8 -32 3 c-24 3 -33 9 -33 23 0 14 9 20 33 23 29 3 28 4 -9 5
l-41 2 -2 -60z"/>
<path d="M4304 2786 c-15 -61 16 -114 54 -90 21 13 28 79 11 100 -19 23 -58
18 -65 -10z m56 -5 c14 -26 13 -44 -4 -66 -12 -16 -16 -17 -30 -6 -19 16 -21
62 -4 79 17 17 26 15 38 -7z"/>
<path d="M4410 2785 c-6 -16 -7 -40 -2 -58 7 -27 13 -32 37 -32 36 0 55 39 39
83 -14 39 -60 44 -74 7z m55 -35 c0 -38 -3 -45 -20 -45 -15 0 -21 8 -23 33 -4
45 4 64 25 60 14 -3 18 -13 18 -48z"/>
<path d="M4560 2751 l0 -61 35 0 c38 0 53 17 40 48 -4 9 -8 28 -9 42 -1 21 -7
26 -33 28 l-33 3 0 -60z m55 29 c0 -8 -10 -16 -22 -18 -18 -3 -23 2 -23 18 0
16 5 21 23 18 12 -2 22 -10 22 -18z m-4 -41 c16 -8 18 -13 8 -25 -20 -24 -49
-17 -49 11 0 27 10 31 41 14z"/>
<path d="M4687 2769 c-34 -52 -34 -59 3 -59 17 0 30 -5 30 -11 0 -6 8 -3 17 7
13 13 14 19 5 22 -7 2 -12 21 -12 43 0 21 -4 39 -8 39 -5 0 -20 -18 -35 -41z
m33 -14 c0 -18 -5 -25 -20 -25 -17 0 -18 3 -8 25 6 14 15 25 20 25 4 0 8 -11
8 -25z"/>
<path d="M4770 2750 l0 -60 30 0 c33 0 70 30 70 58 0 34 -29 62 -66 62 l-34 0
0 -60z m68 38 c27 -27 3 -88 -34 -88 -10 0 -14 13 -14 50 0 41 3 50 18 50 10
0 23 -5 30 -12z"/>
<path d="M4895 2798 c-2 -7 -3 -33 -2 -58 2 -43 3 -45 35 -48 36 -4 53 19 34
48 -8 13 -8 20 0 28 8 8 8 15 -2 27 -15 18 -59 20 -65 3z m55 -18 c0 -21 -33
-29 -45 -10 -9 15 4 30 26 30 12 0 19 -7 19 -20z m0 -45 c15 -18 5 -35 -20
-35 -22 0 -34 15 -26 35 7 19 30 19 46 0z"/>
<path d="M5214 2797 c-3 -8 -4 -21 -3 -28 1 -8 -1 -22 -6 -32 -10 -24 12 -47
47 -47 31 0 45 19 33 48 -4 9 -8 28 -9 42 -1 20 -7 26 -29 28 -17 2 -29 -2
-33 -11z m54 -14 c5 -17 -26 -29 -40 -15 -6 6 -7 15 -3 22 9 14 37 9 43 -7z
m2 -64 c0 -15 -5 -20 -22 -17 -34 5 -37 38 -4 38 20 0 26 -5 26 -21z"/>
<path d="M5321 2791 c-26 -47 -3 -106 39 -99 32 4 46 47 28 85 -16 35 -52 42
-67 14z m54 -41 c0 -38 -3 -45 -20 -45 -15 0 -21 8 -23 33 -4 45 4 64 25 60
14 -3 18 -13 18 -48z"/>
<path d="M5431 2748 c1 -45 3 -54 8 -33 4 20 14 31 31 36 l25 7 -27 1 c-21 1
-28 6 -28 20 0 15 8 21 33 24 31 4 31 4 -5 5 l-38 2 1 -62z"/>
<path d="M5527 2753 c3 -57 13 -89 13 -40 0 20 5 27 20 27 11 0 20 5 20 10 0
6 -9 10 -20 10 -13 0 -20 7 -20 19 0 15 8 21 33 24 29 3 29 4 -8 5 l-40 2 2
-57z"/>
<path d="M5620 2750 l0 -60 33 0 c40 0 67 25 67 63 0 35 -25 57 -66 57 l-34 0
0 -60z m64 44 c24 -9 21 -71 -3 -84 -34 -18 -41 -12 -41 40 0 51 7 58 44 44z"/>
<path d="M5750 2750 l0 -61 38 3 37 3 0 55 0 55 -37 3 -38 3 0 -61z m60 30 c0
-13 -7 -20 -19 -20 -22 0 -35 15 -26 30 12 19 45 11 45 -10z m-1 -39 c19 -12
6 -41 -18 -41 -23 0 -35 15 -27 35 6 17 24 19 45 6z"/>
<path d="M6141 2748 c1 -35 4 -51 6 -35 3 21 10 27 28 27 13 0 27 5 30 10 4 6
-7 10 -24 10 -24 0 -31 4 -31 19 0 15 8 21 38 24 l37 4 -42 1 -43 2 1 -62z"/>
<path d="M6241 2748 c1 -35 4 -51 6 -35 3 21 10 27 28 27 34 0 41 18 8 22 -38
4 -36 31 2 39 29 6 29 7 -7 8 l-38 1 1 -62z"/>
<path d="M6339 2748 c3 -47 6 -55 10 -33 4 20 14 31 31 36 l25 7 -27 1 c-21 1
-28 6 -28 20 0 15 8 21 33 24 30 3 29 4 -8 5 l-40 2 4 -62z"/>
<path d="M6440 2748 c2 -35 6 -51 8 -37 2 17 12 29 30 36 l27 11 -27 1 c-21 1
-28 6 -28 20 0 15 8 21 33 24 30 3 29 4 -8 5 l-40 2 5 -62z"/>
<path d="M6531 2748 c1 -45 3 -55 8 -33 5 23 13 31 36 36 l30 7 -27 1 c-21 1
-28 6 -28 20 0 15 8 21 33 24 28 3 26 4 -10 5 l-43 2 1 -62z"/>
<path d="M6630 2750 c0 -33 4 -60 10 -60 6 0 10 11 10 25 0 18 5 25 19 25 11
0 23 5 26 10 4 6 -5 10 -19 10 -38 0 -36 37 2 43 22 3 20 4 -10 6 l-38 1 0
-60z"/>
</g>
</svg>
