<?xml version="1.0" standalone="no"?>
<!DOCTYPE svg PUBLIC "-//W3C//DTD SVG 20010904//EN"
 "http://www.w3.org/TR/2001/REC-SVG-20010904/DTD/svg10.dtd">
<svg version="1.0" xmlns="http://www.w3.org/2000/svg"
 width="1024.000000pt" height="1024.000000pt" viewBox="0 0 1024.000000 1024.000000"
 preserveAspectRatio="xMidYMid meet">

<g transform="translate(0.000000,1024.000000) scale(0.100000,-0.100000)"
fill="#000000" stroke="none">
<path d="M3240 7783 l0 -77 -28 27 c-90 86 -212 -49 -158 -176 7 -18 23 -41
35 -52 28 -25 92 -26 118 -2 24 21 33 22 33 2 0 -10 10 -15 30 -15 l30 0 0
185 0 185 -30 0 -30 0 0 -77z m-29 -92 c19 -15 24 -29 24 -64 0 -54 -25 -87
-66 -87 -59 0 -82 98 -34 145 29 30 45 31 76 6z"/>
<path d="M3830 7789 l0 -70 -26 20 c-38 30 -87 27 -126 -8 -29 -25 -32 -35
-36 -94 -4 -55 -1 -72 17 -101 37 -59 120 -69 159 -19 11 15 12 15 12 -5 0
-18 6 -22 35 -22 l35 0 0 185 0 185 -35 0 -35 0 0 -71z m-34 -87 c55 -36 39
-162 -21 -162 -39 0 -53 10 -65 46 -24 72 34 151 86 116z"/>
<path d="M4771 7818 c1 -24 3 -34 6 -23 10 47 15 50 28 15 l13 -35 1 43 c1 38
-1 42 -24 42 -23 0 -25 -4 -24 -42z"/>
<path d="M1620 7670 l0 -180 120 0 120 0 0 25 c0 25 -1 25 -85 25 l-85 0 0 56
0 55 73 -2 c75 -2 77 -1 77 31 0 18 -7 20 -75 20 l-75 0 0 45 0 44 83 3 c81 3
82 3 85 31 l3 27 -120 0 -121 0 0 -180z"/>
<path d="M4215 7840 c-11 -17 5 -32 21 -19 8 6 24 9 35 6 12 -3 18 -2 13 2
-15 14 -62 22 -69 11z"/>
<path d="M4175 7830 c-3 -5 -4 -10 -1 -10 2 0 12 -3 20 -6 12 -5 15 -2 10 10
-7 18 -20 21 -29 6z"/>
<path d="M4331 7796 c8 -10 14 -26 14 -35 0 -10 10 -17 28 -19 15 -2 27 1 27
7 0 6 -5 11 -11 11 -5 0 -7 5 -4 10 3 6 1 10 -4 10 -6 0 -11 -5 -11 -11 0 -5
-12 3 -26 18 -15 15 -20 20 -13 9z"/>
<path d="M1900 7750 c0 -5 16 -34 35 -64 19 -30 35 -59 35 -64 0 -5 -18 -37
-40 -70 l-40 -62 35 0 c31 0 38 6 63 45 l28 44 27 -44 c23 -40 31 -45 62 -45
l35 0 -35 55 c-20 30 -38 61 -41 69 -3 7 13 43 35 80 l41 66 -34 0 c-30 0 -37
-6 -60 -45 -15 -25 -29 -45 -31 -45 -2 0 -16 20 -31 45 -21 37 -31 45 -55 45
-16 0 -29 -4 -29 -10z"/>
<path d="M2178 7580 l-3 -180 33 0 32 0 0 65 c0 65 0 65 20 45 29 -29 67 -35
106 -17 49 24 67 66 62 145 -4 58 -8 68 -36 93 -39 35 -88 38 -126 8 l-26 -20
0 20 c0 17 -6 21 -30 21 l-29 0 -3 -180z m159 115 c24 -17 39 -71 28 -104 -17
-53 -81 -70 -109 -29 -23 32 -20 90 5 122 23 30 45 33 76 11z"/>
<path d="M2511 7734 c-17 -14 -31 -32 -31 -40 0 -19 54 -18 70 2 20 23 71 14
81 -14 10 -26 7 -27 -63 -37 -64 -8 -98 -37 -98 -81 0 -48 29 -74 84 -74 26 0
48 6 56 15 7 8 16 15 21 15 5 0 9 -7 9 -15 0 -10 10 -15 30 -15 l30 0 0 106
c0 103 -1 106 -29 135 -25 24 -38 29 -79 29 -40 0 -57 -6 -81 -26z m124 -146
c-7 -26 -41 -58 -59 -58 -7 0 -21 6 -31 14 -36 26 4 64 68 65 25 1 28 -2 22
-21z"/>
<path d="M2760 7625 l0 -135 30 0 30 0 0 88 c0 97 14 132 54 132 44 0 56 -28
56 -128 l0 -92 35 0 35 0 0 90 c0 98 -15 151 -48 169 -34 18 -84 13 -109 -11
l-23 -21 0 21 c0 18 -6 22 -30 22 l-30 0 0 -135z"/>
<path d="M3404 7741 c-17 -10 -36 -33 -44 -50 -17 -42 -8 -125 17 -159 45 -61
143 -66 195 -10 15 16 26 34 23 38 -8 13 -48 8 -68 -8 -27 -23 -77 -19 -99 8
-30 38 -18 45 80 48 91 3 92 3 92 28 0 40 -30 93 -61 109 -39 20 -98 19 -135
-4z m108 -43 c8 -7 18 -21 21 -30 6 -16 -1 -18 -59 -18 -64 0 -65 0 -53 23 21
39 60 49 91 25z"/>
<path d="M4944 7708 l-19 -23 23 19 c12 11 22 21 22 23 0 8 -8 2 -26 -19z"/>
<path d="M4105 7620 c3 -5 8 -10 11 -10 2 0 4 5 4 10 0 6 -5 10 -11 10 -5 0
-7 -4 -4 -10z"/>
<path d="M4500 7536 c0 -15 57 -42 67 -32 4 4 -3 9 -15 13 -12 3 -22 9 -22 13
0 4 -7 10 -15 14 -9 3 -15 0 -15 -8z"/>
<path d="M1847 6993 c-12 -11 -8 -23 8 -23 8 0 15 7 15 15 0 16 -12 20 -23 8z"/>
<path d="M3817 6993 c-4 -3 -7 -42 -7 -85 0 -63 3 -78 15 -78 12 0 15 16 15
85 0 78 -5 96 -23 78z"/>
<path d="M1620 6911 c0 -44 5 -83 10 -86 6 -4 10 7 10 24 0 27 3 31 28 31 39
0 65 21 65 55 0 36 -26 55 -75 55 l-38 0 0 -79z m76 45 c15 -12 17 -18 8 -33
-15 -24 -58 -24 -62 0 -9 44 18 59 54 33z"/>
<path d="M2511 6973 c-5 -10 -5 -26 0 -40 7 -18 5 -25 -6 -29 -9 -4 -15 -19
-15 -35 0 -37 37 -58 73 -42 15 7 27 7 39 -1 24 -15 37 3 14 20 -16 11 -17 16
-6 29 16 19 6 32 -13 16 -11 -9 -17 -8 -27 4 -10 12 -9 18 4 30 9 9 16 22 16
29 0 35 -61 50 -79 19z m54 -23 c0 -22 -29 -18 -33 3 -3 14 1 18 15 15 10 -2
18 -10 18 -18z m5 -90 c0 -16 -34 -20 -48 -6 -13 12 -13 18 -2 31 12 14 15 14
31 -1 11 -10 19 -20 19 -24z"/>
<path d="M2731 6923 c-13 -38 -26 -74 -29 -80 -2 -7 3 -13 11 -13 8 0 17 9 20
20 8 31 60 27 75 -6 7 -14 16 -22 22 -19 13 8 -42 159 -60 163 -10 2 -22 -18
-39 -65z m59 -25 c0 -5 -9 -8 -20 -8 -22 0 -23 3 -13 39 l6 23 13 -23 c7 -13
13 -27 14 -31z"/>
<path d="M3544 6982 c-6 -4 -16 -17 -23 -29 -33 -63 11 -141 72 -129 35 7 65
31 53 43 -4 4 -16 2 -26 -5 -25 -15 -53 -15 -68 0 -17 17 -15 74 4 92 20 20
53 21 60 1 6 -16 34 -21 34 -7 0 30 -76 55 -106 34z"/>
<path d="M3380 6966 c0 -8 -6 -17 -12 -20 -10 -5 -10 -7 0 -12 7 -3 12 -24 12
-48 0 -42 13 -66 37 -66 7 0 13 7 13 15 0 8 -4 15 -10 15 -15 0 -12 77 3 84
10 5 10 7 0 12 -7 3 -13 12 -13 20 0 8 -7 14 -15 14 -8 0 -15 -6 -15 -14z"/>
<path d="M1760 6883 c0 -35 4 -63 10 -63 6 0 10 21 10 46 0 37 4 47 20 51 31
8 24 30 -10 30 l-30 0 0 -64z"/>
<path d="M1844 6936 c-9 -25 1 -109 14 -114 9 -3 12 14 12 62 0 61 -13 87 -26
52z"/>
<path d="M1900 6885 c0 -75 17 -89 22 -17 3 40 6 47 26 50 20 3 22 0 22 -48 0
-67 24 -64 28 3 3 38 7 47 22 47 15 0 19 -9 22 -47 2 -27 8 -48 16 -51 10 -3
12 10 10 53 -3 67 -23 89 -58 67 -16 -9 -24 -10 -39 0 -15 9 -23 9 -35 -1 -11
-9 -16 -10 -16 -2 0 6 -4 11 -10 11 -6 0 -10 -28 -10 -65z"/>
<path d="M2110 6935 c-17 -21 -7 -29 19 -16 14 8 22 8 26 0 9 -13 7 -14 -30
-26 -22 -7 -30 -16 -30 -33 0 -32 29 -49 55 -32 12 7 20 8 20 2 0 -5 5 -10 10
-10 14 0 12 104 -2 118 -17 17 -53 15 -68 -3z m50 -69 c0 -8 -5 -18 -11 -22
-14 -8 -33 11 -25 25 10 16 36 13 36 -3z"/>
<path d="M2220 6882 c0 -46 3 -63 13 -60 6 3 13 25 15 51 3 39 6 47 23 47 10
0 19 6 19 14 0 10 -11 14 -35 13 l-35 -1 0 -64z"/>
<path d="M2302 6938 c45 -124 44 -119 25 -133 -24 -17 -21 -27 5 -23 17 2 28
17 45 58 32 82 39 114 22 108 -8 -3 -18 -21 -24 -40 -15 -53 -21 -54 -34 -3
-7 30 -17 45 -27 45 -9 0 -14 -6 -12 -12z"/>
<path d="M2864 6925 c-36 -54 14 -123 71 -97 37 17 30 32 -12 29 -34 -2 -38 1
-41 24 -4 35 20 54 48 39 26 -14 37 -6 20 15 -20 24 -67 19 -86 -10z"/>
<path d="M2997 6932 c-44 -48 2 -129 58 -104 37 17 31 34 -9 27 -29 -6 -35 -4
-41 14 -7 24 10 61 28 61 7 0 18 -5 25 -12 17 -17 28 -2 12 17 -17 20 -53 19
-73 -3z"/>
<path d="M3116 6928 c-40 -57 6 -122 69 -98 37 14 30 30 -11 27 -22 -1 -39 3
-41 11 -3 8 9 12 40 12 42 0 45 2 40 23 -12 48 -70 63 -97 25z m64 -13 c11
-13 8 -15 -19 -15 -30 0 -39 9 -24 23 11 11 30 8 43 -8z"/>
<path d="M3240 6883 c0 -35 4 -63 10 -63 6 0 10 18 10 39 0 46 24 78 46 61 7
-7 14 -30 16 -53 2 -23 7 -40 12 -37 12 6 7 91 -6 107 -5 7 -27 11 -49 10
l-39 -1 0 -63z"/>
<path d="M3690 6930 c-28 -28 -25 -64 6 -89 15 -12 33 -21 40 -21 23 0 54 38
54 65 0 30 -32 65 -60 65 -11 0 -29 -9 -40 -20z m60 -14 c6 -8 10 -25 8 -38
-2 -17 -10 -23 -28 -23 -18 0 -26 6 -28 23 -3 22 13 52 28 52 4 0 13 -7 20
-14z"/>
<path d="M3892 6943 c-23 -9 -34 -54 -22 -84 21 -49 93 -44 106 7 14 53 -35
98 -84 77z m48 -27 c6 -8 10 -25 8 -38 -2 -17 -10 -23 -28 -23 -18 0 -26 6
-28 23 -3 22 13 52 28 52 4 0 13 -7 20 -14z"/>
<path d="M4005 6942 c-3 -3 -5 -29 -5 -59 0 -40 4 -53 15 -53 11 0 15 11 15
40 0 29 5 42 20 50 11 6 20 14 20 19 0 8 -57 11 -65 3z"/>
<path d="M4103 6943 c-26 -10 -14 -50 17 -63 46 -19 50 -34 7 -27 -41 6 -49
-6 -16 -24 29 -15 69 3 69 31 0 15 -11 26 -36 36 -28 12 -34 18 -25 27 9 9 17
8 32 -1 25 -16 37 -8 19 13 -12 15 -42 18 -67 8z"/>
<path d="M3237 6512 c-15 -17 -17 -57 -17 -365 0 -345 0 -346 22 -367 22 -20
30 -21 370 -18 318 3 349 5 365 21 17 16 18 45 18 363 l0 346 -24 19 c-22 18
-43 19 -371 19 -323 0 -348 -1 -363 -18z"/>
<path d="M3444 5636 c-10 -8 -16 -18 -12 -22 4 -4 14 -1 23 6 16 13 45 7 45
-10 0 -6 -10 -14 -22 -19 l-23 -8 23 -7 c12 -4 22 -14 22 -22 0 -21 -29 -29
-51 -15 -21 13 -26 2 -7 -17 29 -29 90 9 70 44 -5 9 -7 25 -5 35 6 21 -13 49
-31 49 -7 0 -21 -6 -32 -14z"/>
<path d="M3556 5634 c-35 -35 -10 -130 33 -122 42 8 50 107 11 128 -24 13 -26
13 -44 -6z m50 -29 c9 -37 -3 -75 -25 -75 -20 0 -31 19 -31 54 0 46 45 63 56
21z"/>
<path d="M4316 5634 c-30 -30 -13 -124 23 -124 43 0 64 99 26 126 -24 18 -30
18 -49 -2z m50 -29 c9 -38 -3 -75 -26 -75 -23 0 -35 37 -26 75 4 16 13 25 26
25 13 0 22 -9 26 -25z"/>
<path d="M5136 5638 c-10 -6 -16 -19 -14 -31 1 -12 -1 -28 -5 -35 -22 -34 24
-73 63 -52 21 11 27 44 10 55 -8 5 -8 11 0 20 24 29 -19 63 -54 43z m42 -25
c5 -17 -26 -29 -40 -15 -6 6 -7 15 -3 22 9 14 37 9 43 -7z m0 -61 c3 -16 -2
-22 -17 -22 -24 0 -35 15 -27 36 9 23 40 13 44 -14z"/>
<path d="M3332 5628 c-30 -30 -5 -118 33 -118 19 0 45 39 45 68 0 53 -46 82
-78 50z m53 -48 c0 -35 -4 -45 -17 -48 -24 -5 -41 39 -28 74 7 16 16 24 28 22
13 -3 17 -13 17 -48z"/>
<path d="M3668 5597 l-27 -42 31 -5 c17 -3 34 -13 37 -22 5 -14 8 -13 18 7 6
14 7 25 2 25 -5 0 -9 18 -9 40 0 52 -18 52 -52 -3z m34 -12 c-2 -14 -11 -25
-18 -25 -17 0 -17 5 -2 30 17 27 26 25 20 -5z"/>
<path d="M3770 5607 c0 -29 3 -33 28 -32 20 0 27 -5 27 -20 0 -15 -7 -20 -27
-20 -31 1 -37 -9 -12 -19 24 -9 52 2 59 23 9 29 -5 52 -36 58 -39 8 -37 31 4
36 31 4 31 4 -5 5 -37 2 -38 1 -38 -31z"/>
<path d="M3872 5578 l3 -63 38 -3 c21 -2 37 1 37 7 0 6 -13 11 -30 11 -23 0
-30 4 -30 20 0 16 7 20 30 20 17 0 30 5 30 10 0 6 -13 10 -30 10 -23 0 -30 5
-30 19 0 15 8 21 33 24 27 3 26 4 -11 5 l-43 2 3 -62z"/>
<path d="M4202 5628 c-30 -30 -5 -118 32 -118 31 0 50 56 34 101 -11 31 -43
40 -66 17z m54 -22 c10 -41 1 -71 -23 -74 -16 -2 -23 3 -28 27 -12 55 37 101
51 47z"/>
<path d="M4458 5608 c-1 -32 2 -82 5 -84 1 -1 12 -5 24 -8 30 -9 70 28 53 50
-7 7 -10 21 -6 29 10 28 -5 45 -40 45 -31 0 -34 -3 -36 -32z m60 0 c3 -13 -3
-18 -22 -18 -20 0 -26 5 -26 21 0 15 5 20 22 17 13 -2 24 -11 26 -20z m-3 -41
c23 -17 12 -37 -21 -37 -17 0 -24 6 -24 18 0 33 16 40 45 19z"/>
<path d="M4585 5597 c-30 -52 -31 -57 -6 -50 10 2 26 -3 35 -13 15 -14 19 -15
27 -3 5 8 7 20 4 27 -3 8 -5 29 -5 48 0 48 -23 44 -55 -9z m32 -34 c-3 -3 -13
-3 -21 -1 -15 3 -15 6 1 28 l18 25 3 -23 c2 -13 1 -26 -1 -29z"/>
<path d="M4670 5606 c0 -18 3 -48 6 -66 6 -29 9 -31 37 -26 44 9 57 24 57 65
0 47 -14 61 -62 61 -36 0 -38 -1 -38 -34z m66 16 c37 -24 21 -92 -21 -92 -23
0 -25 4 -25 50 0 41 3 50 18 50 9 0 22 -4 28 -8z"/>
<path d="M4804 5625 c-4 -8 -3 -22 0 -31 4 -9 2 -22 -4 -29 -25 -30 33 -71 65
-45 16 13 17 87 2 108 -13 17 -56 15 -63 -3z m54 -18 c2 -11 -3 -17 -16 -17
-24 0 -32 8 -25 26 7 20 37 13 41 -9z m7 -57 c0 -18 -33 -26 -47 -12 -6 6 -7
15 -3 22 10 16 50 8 50 -10z"/>
<path d="M5232 5628 c-19 -19 -15 -82 6 -101 10 -10 23 -17 29 -17 20 0 43 38
43 71 0 40 -15 59 -45 59 -12 0 -26 -5 -33 -12z m53 -48 c0 -38 -3 -45 -20
-45 -15 0 -21 8 -23 33 -4 45 4 64 25 60 14 -3 18 -13 18 -48z"/>
<path d="M5342 5573 c0 -38 3 -53 5 -35 4 28 8 32 36 33 l32 1 -30 7 c-21 4
-31 13 -33 28 -3 18 3 22 30 26 l33 4 -37 1 -38 2 2 -67z"/>
<path d="M5442 5573 c0 -38 3 -53 5 -35 4 28 8 32 36 33 l32 1 -30 7 c-21 4
-30 12 -30 26 0 14 9 22 30 26 29 6 29 7 -7 8 l-38 1 2 -67z"/>
<path d="M5540 5574 l0 -67 36 6 c50 8 64 23 64 68 0 43 -18 59 -69 59 l-31 0
0 -66z m69 47 c8 -5 14 -24 14 -41 0 -33 -15 -50 -45 -50 -15 0 -18 9 -18 50
0 52 14 63 49 41z"/>
<path d="M5670 5576 l0 -66 29 0 c35 0 65 26 55 49 -3 9 -7 30 -8 46 -1 27 -5
30 -38 33 l-38 3 0 -65z m63 40 c7 -19 -1 -26 -30 -26 -22 0 -31 19 -16 33 11
12 41 7 46 -7z m5 -63 c-2 -11 -14 -19 -31 -21 -22 -3 -27 1 -27 17 0 17 6 21
31 21 24 0 30 -4 27 -17z"/>
<path d="M6094 5615 c28 -120 35 -126 56 -48 l13 48 15 -52 c8 -29 18 -53 22
-53 4 0 13 21 19 48 7 26 14 55 17 65 3 9 1 17 -4 17 -6 0 -13 -18 -17 -40 -4
-22 -10 -40 -15 -40 -5 0 -11 18 -15 40 -9 54 -28 50 -44 -7 l-14 -48 -11 42
c-13 48 -32 73 -22 28z"/>
<path d="M6262 5573 c0 -38 3 -53 5 -35 4 28 8 32 36 33 l32 1 -30 7 c-45 9
-41 44 5 52 l35 6 -42 2 -43 1 2 -67z"/>
<path d="M6363 5575 c0 -38 2 -53 4 -32 2 20 2 52 0 70 -2 17 -4 1 -4 -38z"/>
<path d="M6400 5575 c0 -37 4 -65 10 -65 6 0 10 14 10 30 0 27 3 30 33 31 l32
1 -30 7 c-21 4 -31 13 -33 28 -3 18 3 22 30 26 29 3 28 4 -9 5 l-43 2 0 -65z"/>
<path d="M6500 5581 c0 -33 5 -63 10 -66 6 -4 10 6 10 24 0 25 5 30 28 34 l27
4 -27 2 c-23 1 -28 6 -28 25 0 20 6 25 33 29 28 3 26 4 -10 5 l-43 2 0 -59z"/>
<path d="M6600 5575 c0 -37 4 -65 10 -65 6 0 10 14 10 30 0 26 4 30 26 30 14
0 23 4 19 10 -3 6 -15 10 -26 10 -12 0 -19 7 -19 19 0 15 8 21 33 24 28 3 26
4 -10 5 l-43 2 0 -65z"/>
<path d="M1644 5010 c-50 -20 -39 -64 22 -91 47 -20 54 -32 27 -48 -13 -7 -26
-5 -45 7 -35 21 -50 6 -19 -19 28 -23 59 -24 89 -3 41 29 23 68 -42 89 -17 5
-31 17 -31 25 0 19 41 25 61 9 19 -16 32 -2 13 15 -20 20 -50 26 -75 16z"/>
<path d="M3434 5007 c-10 -27 1 -160 14 -165 9 -3 12 19 12 87 0 56 -4 91 -10
91 -6 0 -13 -6 -16 -13z"/>
<path d="M3576 4997 c-32 -32 -35 -93 -7 -128 32 -39 121 -26 121 18 0 13 -3
13 -25 -1 -29 -19 -56 -21 -73 -4 -16 16 -16 80 0 96 17 17 53 15 68 -3 13
-16 30 -20 30 -7 0 19 -27 42 -57 48 -26 5 -37 1 -57 -19z"/>
<path d="M3850 4935 c0 -69 3 -85 15 -85 12 0 15 16 15 85 0 69 -3 85 -15 85
-12 0 -15 -16 -15 -85z"/>
<path d="M2504 4996 c-3 -9 -3 -27 0 -40 4 -15 0 -28 -9 -36 -43 -35 7 -96 59
-72 13 6 35 8 47 5 19 -5 22 -3 12 7 -7 7 -9 25 -6 41 6 31 -10 40 -21 12 -6
-14 -8 -14 -20 3 -12 16 -12 20 1 29 8 6 13 22 11 36 -2 19 -10 25 -36 27 -22
2 -34 -2 -38 -12z m54 -23 c-2 -10 -10 -18 -18 -18 -8 0 -16 8 -18 18 -2 12 3
17 18 17 15 0 20 -5 18 -17z m2 -93 c0 -15 -29 -18 -46 -5 -16 11 -16 15 -5
29 13 15 15 15 32 0 11 -10 19 -20 19 -24z"/>
<path d="M2700 4930 c0 -63 3 -80 15 -80 10 0 15 15 17 57 l3 57 38 -57 c53
-81 67 -76 67 23 0 63 -3 80 -14 80 -11 0 -16 -15 -18 -52 l-3 -52 -35 52
c-19 29 -43 52 -52 52 -16 0 -18 -10 -18 -80z"/>
<path d="M2011 4978 c-10 -16 -10 -23 -2 -26 6 -2 11 -25 11 -52 0 -35 4 -50
17 -54 24 -10 43 13 21 25 -24 13 -25 79 -3 79 14 0 13 3 -2 25 -22 30 -25 30
-42 3z"/>
<path d="M3136 4978 c-3 -13 -1 -27 4 -32 6 -6 10 -29 10 -52 0 -30 5 -44 17
-48 24 -10 43 13 21 25 -12 7 -18 22 -18 44 0 27 4 35 18 35 16 1 16 1 0 14
-10 7 -18 18 -18 25 0 20 -28 11 -34 -11z"/>
<path d="M1760 4955 c0 -8 9 -38 19 -65 l19 -51 -21 -19 -21 -20 21 0 c11 0
25 6 30 13 13 16 53 125 53 143 0 29 -20 13 -31 -26 -7 -22 -15 -40 -19 -40
-4 0 -12 18 -19 40 -12 39 -31 55 -31 25z"/>
<path d="M1896 4954 c-9 -8 -16 -19 -16 -23 0 -13 23 -29 53 -36 15 -4 27 -11
27 -15 0 -14 -24 -17 -48 -7 -29 13 -42 -1 -18 -19 38 -27 86 -12 86 29 0 11
-13 23 -36 33 -28 12 -34 18 -25 27 9 9 17 8 32 -1 25 -16 37 -8 19 13 -16 20
-54 19 -74 -1z"/>
<path d="M2102 4958 c-7 -7 -12 -29 -12 -50 0 -48 36 -77 75 -60 36 17 31 32
-9 25 -25 -4 -35 -1 -39 11 -5 13 1 16 38 16 49 0 56 10 29 48 -17 24 -62 30
-82 10z m66 -25 c2 -8 -6 -13 -22 -13 -25 0 -33 10 -19 24 10 10 36 3 41 -11z"/>
<path d="M2220 4909 c0 -46 3 -59 15 -59 11 0 15 12 15 44 0 28 5 46 14 49 22
9 36 -14 36 -60 0 -24 5 -43 10 -43 6 0 10 20 10 45 0 34 5 47 20 55 24 13 28
6 32 -55 4 -51 22 -48 26 4 5 69 -5 78 -97 78 l-81 1 0 -59z"/>
<path d="M2886 4951 c-26 -29 -18 -82 15 -100 24 -13 29 -13 55 4 30 19 19 33
-13 17 -22 -12 -43 -5 -43 14 0 10 12 14 40 14 33 0 40 3 40 19 0 47 -62 67
-94 32z m62 -18 c2 -8 -6 -13 -22 -13 -25 0 -33 10 -19 24 10 10 36 3 41 -11z"/>
<path d="M3000 4927 c0 -60 19 -82 69 -83 l41 0 0 63 c0 49 -3 63 -15 63 -11
0 -15 -12 -15 -51 0 -47 -2 -50 -22 -47 -20 3 -23 10 -26 51 -2 33 -7 47 -18
47 -10 0 -14 -12 -14 -43z"/>
<path d="M3220 4903 c0 -47 3 -64 13 -61 6 3 13 25 15 50 2 36 7 47 23 51 32
8 21 25 -16 25 l-35 0 0 -65z"/>
<path d="M3317 4963 c-15 -15 -5 -23 24 -21 45 4 46 -17 2 -28 -28 -7 -39 -15
-41 -31 -4 -29 39 -53 62 -34 10 8 16 9 21 1 22 -35 36 61 15 101 -11 19 -68
28 -83 12z m61 -75 c-5 -15 -48 -24 -48 -10 0 14 12 22 33 22 10 0 17 -5 15
-12z"/>
<path d="M3727 4952 c-38 -42 -11 -105 43 -105 54 0 78 53 44 101 -19 27 -64
29 -87 4z m63 -16 c6 -8 10 -25 8 -38 -2 -17 -10 -23 -28 -23 -18 0 -26 6 -28
23 -3 22 13 52 28 52 4 0 13 -7 20 -14z"/>
<path d="M3916 4948 c-9 -12 -16 -31 -16 -41 0 -22 43 -67 65 -67 24 0 55 38
55 68 0 57 -73 85 -104 40z m69 -38 c0 -31 -3 -35 -25 -35 -29 0 -40 36 -19
61 21 26 44 12 44 -26z"/>
<path d="M4040 4909 c0 -46 3 -59 15 -59 11 0 15 11 15 40 0 29 5 42 20 50 30
16 24 28 -15 28 l-35 0 0 -59z"/>
<path d="M4142 4961 c-25 -16 -10 -54 26 -63 17 -5 32 -13 32 -17 0 -15 -23
-19 -43 -9 -32 16 -43 2 -13 -17 26 -17 31 -17 55 -4 37 21 34 52 -6 64 -44
12 -45 39 -2 30 24 -5 30 -4 27 6 -5 16 -57 23 -76 10z"/>
<path d="M3408 4552 c-68 -6 -68 -6 -68 -372 0 -179 3 -335 6 -348 4 -15 12
-21 21 -18 8 3 12 2 9 -3 -3 -5 1 -12 10 -15 9 -3 168 -6 355 -6 326 0 340 1
359 20 19 19 20 33 20 360 l0 341 -25 24 -24 25 -301 0 c-270 0 -333 -5 -287
-23 6 -3 -4 -5 -23 -6 -26 0 -30 2 -16 8 27 10 9 17 -36 13z m697 -572 c3 -5
1 -10 -4 -10 -6 0 -11 5 -11 10 0 6 2 10 4 10 3 0 8 -4 11 -10z m5 -55 c0 -8
-4 -15 -10 -15 -5 0 -7 7 -4 15 4 8 8 15 10 15 2 0 4 -7 4 -15z"/>
<path d="M6052 4537 c-22 -23 -22 -28 -22 -359 0 -324 1 -336 21 -362 l20 -26
353 0 c329 0 354 1 369 18 15 17 17 57 17 370 l0 351 -22 15 c-19 14 -71 16
-368 16 l-347 0 -21 -23z"/>
<path d="M3492 3613 l1 -58 6 45 6 45 29 -42 c16 -24 33 -43 37 -43 5 0 8 26
7 58 -1 39 -2 46 -5 22 -6 -52 -16 -54 -43 -10 -14 22 -28 40 -32 40 -5 0 -7
-26 -6 -57z"/>
<path d="M3963 3615 c0 -33 2 -45 4 -27 2 18 2 45 0 60 -2 15 -4 0 -4 -33z"/>
<path d="M4813 3654 c-7 -18 20 -44 44 -44 18 0 16 -29 -2 -36 -8 -4 -22 -1
-30 6 -10 8 -15 9 -15 1 0 -17 48 -25 65 -11 22 19 19 29 -20 51 -38 23 -37
44 1 36 13 -2 21 0 18 4 -9 15 -54 10 -61 -7z"/>
<path d="M6270 3615 l0 -55 38 1 c30 2 32 3 10 6 -35 5 -39 40 -5 46 l22 4
-22 2 c-13 0 -23 6 -23 11 0 6 -1 13 -2 18 -1 4 11 10 28 13 28 6 27 7 -8 8
l-38 1 0 -55z"/>
<path d="M3778 3649 c-2 -6 -2 -28 0 -50 3 -28 9 -39 21 -38 10 0 11 2 4 6
-15 5 -18 60 -4 65 5 2 3 8 -4 15 -9 8 -15 9 -17 2z"/>
<path d="M3604 3626 c-14 -36 23 -83 46 -60 8 8 4 10 -11 10 -12 -1 -24 5 -26
12 -3 8 6 12 26 12 33 0 39 8 19 28 -16 16 -47 15 -54 -2z m46 -6 c0 -5 -9
-10 -21 -10 -11 0 -17 5 -14 10 3 6 13 10 21 10 8 0 14 -4 14 -10z"/>
<path d="M3693 3605 c2 -36 5 -40 30 -41 25 -1 27 1 26 40 l-2 41 -6 -35 c-4
-22 -12 -35 -21 -35 -9 0 -18 13 -22 35 l-6 35 1 -40z"/>
<path d="M3820 3606 c0 -19 5 -38 10 -41 6 -4 10 8 10 29 0 19 6 37 13 39 6 3
2 6 -10 6 -20 1 -23 -4 -23 -33z"/>
<path d="M3886 3631 c-4 -5 3 -7 14 -4 11 3 20 1 20 -5 0 -5 -9 -12 -21 -15
-22 -6 -24 -38 -1 -43 7 -1 8 0 2 3 -15 7 -12 33 4 33 7 0 17 -10 21 -22 6
-20 8 -21 12 -5 8 32 -6 67 -27 67 -10 0 -21 -4 -24 -9z"/>
<path d="M4900 3611 c0 -33 17 -51 48 -48 19 1 22 7 21 42 -1 41 -3 40 -13 -7
-9 -42 -36 -36 -36 7 0 19 -4 35 -10 35 -5 0 -10 -13 -10 -29z"/>
<path d="M4994 3626 c-16 -43 21 -85 49 -57 9 9 5 11 -13 9 -21 -3 -26 2 -28
26 -3 26 -1 28 22 24 14 -3 23 -1 20 3 -8 14 -44 10 -50 -5z"/>
<path d="M5070 3620 c-15 -28 4 -62 32 -58 12 2 24 10 26 18 5 13 3 13 -11 2
-21 -18 -37 -7 -37 25 0 22 4 25 25 21 13 -3 22 -1 19 3 -10 16 -43 9 -54 -11z"/>
<path d="M5151 3621 c-6 -11 -8 -26 -5 -35 8 -20 43 -31 57 -17 9 9 5 11 -12
9 -13 -2 -26 3 -28 10 -3 7 5 12 22 12 20 0 26 4 23 18 -5 25 -44 28 -57 3z
m49 -1 c0 -5 -9 -10 -20 -10 -11 0 -20 5 -20 10 0 6 9 10 20 10 11 0 20 -4 20
-10z"/>
<path d="M5230 3625 c0 -9 11 -20 25 -27 28 -13 23 -32 -8 -24 -15 4 -17 2 -8
-7 8 -8 17 -8 27 -2 22 14 20 28 -5 40 -27 12 -28 29 -1 22 11 -3 20 -1 20 4
0 5 -11 9 -25 9 -16 0 -25 -6 -25 -15z"/>
<path d="M5310 3621 c0 -10 9 -21 20 -24 32 -8 25 -30 -7 -23 -23 5 -25 4 -10
-5 10 -6 25 -8 33 -5 21 8 17 37 -6 43 -11 3 -20 10 -20 15 0 6 9 8 20 5 11
-3 18 -1 14 4 -10 17 -44 10 -44 -10z"/>
<path d="M6361 3598 c2 -34 3 -37 6 -13 2 17 12 36 21 43 14 11 13 12 -6 12
-19 0 -22 -5 -21 -42z"/>
<path d="M6422 3598 l1 -43 4 37 c3 24 10 38 21 41 12 3 11 5 -5 6 -21 1 -23
-3 -21 -41z"/>
<path d="M6477 3633 c-4 -3 -7 -19 -7 -34 0 -34 34 -49 57 -26 23 23 9 67 -21
67 -12 0 -26 -3 -29 -7z m48 -13 c10 -16 -5 -50 -21 -50 -17 0 -28 24 -20 45
6 17 32 20 41 5z"/>
<path d="M6561 3598 c2 -34 3 -37 6 -13 2 17 12 36 21 43 14 11 13 12 -6 12
-19 0 -22 -5 -21 -42z"/>
<path d="M3302 3085 c1 -47 2 -52 7 -25 4 22 12 35 21 35 9 0 18 -13 22 -35
l6 -35 -1 40 c-2 33 -6 40 -22 40 -11 0 -23 9 -27 20 -3 11 -6 -7 -6 -40z"/>
<path d="M3480 3084 l0 -55 33 3 c30 3 32 5 32 43 1 48 -10 65 -41 65 -22 0
-24 -4 -24 -56z m48 23 c2 -12 -3 -17 -17 -17 -15 0 -21 6 -21 21 0 25 33 22
38 -4z m7 -47 c0 -8 -10 -16 -22 -18 -18 -3 -23 2 -23 18 0 16 5 21 23 18 12
-2 22 -10 22 -18z"/>
<path d="M3733 3085 c0 -33 1 -52 4 -42 2 9 7 17 10 17 4 0 16 -8 27 -17 20
-18 20 -18 4 8 -15 24 -15 27 0 43 11 11 12 16 4 16 -7 0 -15 -7 -18 -15 -10
-25 -23 -17 -27 18 -2 17 -4 5 -4 -28z"/>
<path d="M4260 3121 c0 -14 -5 -18 -18 -14 -25 6 -46 -21 -38 -52 5 -20 13
-25 36 -25 30 0 30 1 30 55 0 30 -2 55 -5 55 -3 0 -5 -9 -5 -19z m-5 -51 c0
-29 -32 -41 -41 -16 -9 24 4 48 23 44 12 -2 18 -12 18 -28z"/>
<path d="M4552 3088 l-2 -58 33 1 c29 2 30 2 5 6 -25 4 -27 9 -31 56 l-3 52
-2 -57z"/>
<path d="M4753 3085 c0 -33 2 -45 4 -27 7 58 51 52 54 -8 1 -18 3 -20 6 -7 9
35 -6 67 -31 67 -15 0 -26 7 -29 18 -3 9 -4 -10 -4 -43z"/>
<path d="M4930 3084 l0 -55 33 3 c31 3 32 5 34 48 2 47 -7 60 -44 60 -21 0
-23 -5 -23 -56z m55 26 c0 -8 -10 -16 -22 -18 -22 -3 -32 16 -16 32 12 11 38
2 38 -14z m5 -50 c0 -15 -7 -20 -25 -20 -18 0 -25 5 -25 20 0 15 7 20 25 20
18 0 25 -5 25 -20z"/>
<path d="M5184 3118 c3 -13 6 -39 7 -58 1 -31 2 -32 8 -10 l7 25 15 -22 c7
-13 18 -23 23 -23 5 0 1 9 -10 21 -16 17 -16 23 -5 42 14 22 14 22 -8 3 -21
-19 -21 -19 -21 12 0 18 -5 32 -11 32 -7 0 -9 -9 -5 -22z"/>
<path d="M5710 3122 c0 -13 -7 -18 -22 -18 -20 1 -23 -4 -23 -34 0 -31 3 -35
28 -38 23 -3 27 0 27 21 0 14 3 39 6 56 4 20 3 31 -5 31 -6 0 -11 -8 -11 -18z
m-2 -55 c2 -19 -1 -27 -13 -27 -19 0 -30 24 -21 46 9 23 31 11 34 -19z"/>
<path d="M6020 3085 c0 -54 1 -55 29 -55 33 0 57 23 45 42 -5 7 -7 21 -5 32 3
22 -15 36 -46 36 -21 0 -23 -5 -23 -55z m55 25 c0 -8 -10 -16 -22 -18 -22 -3
-32 16 -16 32 12 11 38 2 38 -14z m5 -50 c0 -15 -7 -20 -25 -20 -18 0 -25 5
-25 20 0 15 7 20 25 20 18 0 25 -5 25 -20z"/>
<path d="M6307 3120 c-3 -12 -11 -18 -19 -15 -20 8 -40 -19 -36 -47 2 -18 10
-24 36 -26 l32 -3 0 55 c0 59 -4 70 -13 36z m-8 -38 c12 -23 -2 -47 -23 -39
-24 10 -20 57 5 57 5 0 13 -8 18 -18z"/>
<path d="M6496 3084 c-10 -31 -16 -58 -14 -60 3 -2 12 21 22 52 10 31 16 58
14 60 -3 2 -12 -21 -22 -52z"/>
<path d="M6550 3085 c0 -52 2 -55 24 -55 31 0 56 25 56 55 0 30 -25 55 -56 55
-22 0 -24 -3 -24 -55z m54 29 c9 -8 16 -20 16 -25 0 -23 -22 -49 -40 -49 -17
0 -20 7 -20 45 0 49 15 59 44 29z"/>
<path d="M6821 3123 c-1 -16 -6 -20 -20 -16 -13 3 -23 -2 -30 -16 -17 -30 2
-61 37 -61 26 0 27 2 24 43 -4 54 -9 78 -11 50z m-3 -56 c3 -22 -1 -27 -17
-27 -15 0 -21 6 -21 23 0 46 33 49 38 4z"/>
<path d="M3102 3083 l-2 -53 33 1 c29 2 29 2 5 6 -24 4 -27 9 -31 51 l-3 47
-2 -52z"/>
<path d="M3388 3118 c-3 -7 -3 -30 0 -50 3 -27 9 -38 21 -38 12 0 13 2 3 9 -7
4 -12 23 -10 44 2 37 -6 58 -14 35z"/>
<path d="M4844 3099 c3 -17 6 -40 6 -50 0 -11 3 -19 8 -19 6 0 7 44 3 93 -1 4
-6 7 -12 7 -8 0 -9 -11 -5 -31z"/>
<path d="M3183 3070 c0 -25 2 -35 4 -22 2 12 2 32 0 45 -2 12 -4 2 -4 -23z"/>
<path d="M3223 3103 c-18 -7 -16 -60 2 -67 8 -3 22 -3 30 0 11 5 13 2 9 -11
-5 -12 -14 -15 -31 -10 -16 4 -22 2 -18 -5 8 -14 38 -13 53 2 14 14 16 88 3
88 -5 0 -15 2 -23 4 -7 3 -19 2 -25 -1z m37 -19 c11 -12 11 -18 -2 -31 -19
-18 -38 -10 -38 16 0 33 20 40 40 15z"/>
<path d="M3576 3101 c-4 -5 2 -7 12 -4 15 4 19 -1 20 -26 0 -22 -4 -31 -15
-31 -9 0 -13 6 -9 15 3 8 1 15 -4 15 -6 0 -10 -9 -10 -20 0 -16 7 -20 30 -20
25 0 30 4 30 24 0 13 -3 31 -6 40 -7 17 -39 22 -48 7z"/>
<path d="M3661 3096 c-27 -33 11 -88 40 -59 6 6 1 9 -13 9 -14 -1 -24 6 -26
18 -6 28 14 42 34 25 15 -12 17 -12 12 1 -7 21 -32 24 -47 6z"/>
<path d="M3812 3098 c-27 -27 0 -77 34 -64 10 4 14 2 11 -6 -2 -7 -14 -13 -26
-12 -13 0 -18 -3 -12 -9 5 -5 17 -7 27 -5 15 2 20 14 22 53 3 47 1 51 -21 53
-13 1 -29 -4 -35 -10z m46 -22 c6 -29 -15 -43 -35 -24 -14 14 -14 20 -3 33 16
19 34 15 38 -9z"/>
<path d="M3908 3103 c-14 -3 -18 -14 -17 -41 1 -28 3 -31 6 -12 3 14 12 33 20
43 9 9 14 16 12 16 -2 -1 -12 -3 -21 -6z"/>
<path d="M3950 3090 c-15 -28 4 -62 33 -58 16 2 23 11 25 32 5 44 -38 64 -58
26z m45 -21 c0 -15 -7 -25 -17 -27 -13 -3 -18 3 -18 21 0 13 3 27 7 31 13 12
28 -1 28 -25z"/>
<path d="M4033 3075 c2 -35 5 -40 28 -43 24 -3 27 1 31 32 2 20 0 36 -4 36 -4
0 -8 -14 -8 -31 0 -44 -33 -36 -42 11 l-6 35 1 -40z"/>
<path d="M4121 3066 l2 -41 6 35 c4 22 12 35 21 35 9 0 18 -13 22 -35 l6 -35
-1 40 c-2 36 -5 40 -29 41 -26 1 -28 -1 -27 -40z"/>
<path d="M4633 3070 c0 -25 2 -35 4 -22 2 12 2 32 0 45 -2 12 -4 2 -4 -23z"/>
<path d="M4672 3098 c-27 -27 0 -77 34 -64 10 4 14 2 11 -6 -2 -7 -17 -12 -32
-11 -20 2 -25 -1 -18 -8 6 -6 21 -9 34 -7 21 3 24 9 27 53 3 47 1 51 -21 53
-13 1 -29 -4 -35 -10z m43 -28 c0 -15 -6 -26 -16 -28 -19 -3 -31 21 -22 43 9
25 38 13 38 -15z"/>
<path d="M5036 3101 c-3 -5 3 -7 14 -4 29 8 25 -12 -6 -26 -32 -14 -26 -36 10
-37 25 -1 27 2 24 35 -3 35 -28 55 -42 32z m34 -41 c0 -13 -28 -25 -38 -16 -3
4 0 11 8 16 20 13 30 12 30 0z"/>
<path d="M5112 3098 c-25 -25 -6 -68 30 -68 10 0 18 4 18 9 0 5 -8 7 -19 4
-21 -5 -34 18 -24 43 3 9 13 14 24 11 11 -3 17 -1 13 4 -7 13 -28 11 -42 -3z"/>
<path d="M5272 3098 c-27 -27 0 -77 34 -64 10 4 14 2 11 -6 -2 -7 -14 -13 -26
-12 -11 0 -21 -3 -21 -8 0 -5 12 -8 28 -6 25 3 27 7 30 53 3 47 1 51 -21 53
-13 1 -29 -4 -35 -10z m43 -28 c0 -28 -29 -40 -38 -15 -9 22 3 46 22 43 10 -2
16 -13 16 -28z"/>
<path d="M5363 3103 c-8 -3 -12 -20 -12 -41 1 -28 3 -31 6 -12 3 14 12 33 20
43 16 17 10 20 -14 10z"/>
<path d="M5410 3095 c-20 -24 -4 -65 25 -65 18 0 26 7 31 25 7 27 -9 55 -31
55 -7 0 -18 -7 -25 -15z m45 -25 c0 -29 -32 -41 -41 -16 -9 24 4 48 23 44 12
-2 18 -12 18 -28z"/>
<path d="M5493 3075 c2 -36 5 -40 30 -43 26 -3 27 -2 26 40 -2 43 -2 43 -8 8
-4 -22 -12 -35 -21 -35 -9 0 -18 13 -22 35 l-6 35 1 -40z"/>
<path d="M5613 3099 c10 -6 17 -23 18 -42 1 -18 3 -24 6 -14 8 30 -6 67 -25
67 -16 -1 -16 -1 1 -11z"/>
<path d="M6122 3098 c-25 -25 -6 -68 30 -68 22 0 35 45 18 65 -15 18 -32 19
-48 3z m43 -28 c0 -16 -6 -26 -18 -28 -19 -4 -32 20 -23 44 9 25 41 13 41 -16z"/>
<path d="M6201 3065 c2 -33 3 -35 6 -10 2 17 11 35 20 42 13 10 13 12 -6 10
-18 -1 -21 -7 -20 -42z"/>
<path d="M6344 3096 c-16 -41 20 -86 47 -59 6 6 1 9 -12 9 -12 -1 -24 5 -26
12 -3 8 6 12 27 12 28 0 30 2 20 20 -12 23 -48 27 -56 6z m41 -6 c3 -5 -3 -10
-15 -10 -12 0 -18 5 -15 10 3 6 10 10 15 10 5 0 12 -4 15 -10z"/>
<path d="M6420 3070 c0 -22 5 -40 10 -40 6 0 10 13 10 28 0 15 5 33 12 40 9 9
7 12 -10 12 -19 0 -22 -5 -22 -40z"/>
<path d="M6653 3070 c0 -25 2 -35 4 -22 2 12 2 32 0 45 -2 12 -4 2 -4 -23z"/>
<path d="M6680 3107 c0 -13 29 -77 35 -77 8 0 37 71 32 76 -2 3 -10 -10 -17
-27 l-13 -31 -18 33 c-10 19 -18 30 -19 26z"/>
<path d="M6858 3085 c-8 -19 -8 -28 2 -40 14 -16 46 -20 54 -6 3 4 -6 6 -20 3
-23 -4 -25 -2 -21 24 2 17 10 29 18 29 8 0 13 -8 11 -20 -3 -16 -1 -17 9 -8
10 10 10 15 -1 28 -18 22 -39 18 -52 -10z"/>
<path d="M6941 3065 c2 -33 3 -35 6 -10 3 16 11 34 20 40 12 9 11 11 -6 11
-18 0 -21 -6 -20 -41z"/>
<path d="M5570 3065 c0 -19 5 -35 10 -35 6 0 10 16 10 35 0 19 -4 35 -10 35
-5 0 -10 -16 -10 -35z"/>
</g>
</svg>
