<?xml version="1.0" standalone="no"?>
<!DOCTYPE svg PUBLIC "-//W3C//DTD SVG 20010904//EN"
 "http://www.w3.org/TR/2001/REC-SVG-20010904/DTD/svg10.dtd">
<svg version="1.0" xmlns="http://www.w3.org/2000/svg"
 width="1024.000000pt" height="1024.000000pt" viewBox="0 0 1024.000000 1024.000000"
 preserveAspectRatio="xMidYMid meet">

<g transform="translate(0.000000,1024.000000) scale(0.100000,-0.100000)"
fill="#000000" stroke="none">
<path d="M4071 9126 c-22 -26 -9 -69 22 -80 36 -13 61 2 65 38 4 35 -14 56
-48 56 -15 0 -33 -6 -39 -14z"/>
<path d="M4926 9124 c-21 -21 -20 -47 2 -67 23 -21 56 -22 76 -1 32 32 8 84
-39 84 -13 0 -31 -7 -39 -16z"/>
<path d="M940 8865 l0 -265 170 0 170 0 0 45 0 45 -120 0 -120 0 0 220 0 220
-50 0 -50 0 0 -265z"/>
<path d="M2914 8918 c41 -117 82 -235 93 -263 l19 -50 54 -3 55 -3 34 98 c18
54 60 172 92 262 33 90 59 166 59 168 0 1 -24 3 -54 3 l-55 0 -56 -177 c-31
-98 -60 -189 -64 -203 l-8 -25 -11 25 c-6 14 -36 105 -67 203 l-56 177 -54 0
-55 0 74 -212z"/>
<path d="M4680 9035 c0 -41 -2 -45 -25 -45 -22 0 -25 -4 -25 -40 0 -36 3 -40
25 -40 l25 0 0 -124 c0 -117 1 -127 24 -153 21 -24 31 -27 82 -28 l59 0 3 37
c3 35 2 37 -30 40 l-33 3 -3 113 -3 112 36 0 c34 0 35 1 35 40 0 39 -1 40 -35
40 -35 0 -35 0 -35 45 l0 45 -50 0 -50 0 0 -45z"/>
<path d="M1475 8991 c-72 -18 -118 -66 -134 -141 -31 -142 49 -250 184 -250
118 0 185 72 185 197 0 105 -44 166 -135 192 -44 12 -56 12 -100 2z m109 -101
c24 -24 34 -117 16 -160 -13 -31 -54 -60 -85 -60 -9 0 -30 13 -46 29 -25 26
-29 37 -29 88 0 32 6 69 13 83 26 51 90 60 131 20z"/>
<path d="M2365 8991 c-118 -30 -180 -169 -126 -286 34 -74 85 -105 175 -105
74 0 133 33 164 91 33 62 29 168 -10 226 -39 60 -129 92 -203 74z m84 -86 c16
-8 34 -28 40 -46 24 -70 6 -151 -40 -174 -40 -21 -57 -19 -89 13 -53 53 -49
158 7 201 31 25 45 26 82 6z"/>
<path d="M4363 8989 c-54 -10 -87 -32 -106 -72 -20 -40 -15 -47 33 -47 28 0
46 7 64 25 29 29 62 32 94 9 35 -24 26 -57 -18 -66 -19 -4 -61 -12 -92 -18
-44 -9 -63 -19 -83 -41 -45 -54 -26 -144 35 -169 44 -18 125 -8 155 20 l23 22
4 -24 c3 -20 9 -23 51 -26 l47 -3 0 146 c0 113 -4 155 -16 180 -25 53 -105 80
-191 64z m107 -239 c0 -42 -39 -80 -83 -80 -38 0 -57 15 -57 46 0 28 15 40 70
52 69 15 70 15 70 -18z"/>
<path d="M5222 8988 c-151 -34 -183 -287 -46 -365 47 -27 149 -31 193 -8 131
67 133 293 2 359 -38 20 -100 26 -149 14z m92 -79 c32 -15 50 -59 49 -121 -1
-80 -50 -130 -110 -111 -75 24 -86 189 -14 228 32 18 43 18 75 4z"/>
<path d="M6081 8990 c-44 -10 -83 -40 -100 -75 -11 -22 -11 -35 -2 -67 15 -48
53 -73 134 -89 32 -7 68 -20 80 -29 21 -18 22 -18 3 -39 -28 -31 -98 -29 -123
3 -17 21 -25 23 -66 19 -26 -3 -47 -7 -47 -10 0 -2 7 -17 15 -33 22 -43 82
-70 155 -70 106 0 170 45 170 121 0 59 -30 85 -125 109 -90 23 -116 41 -99 68
17 27 89 28 111 3 24 -28 103 -30 103 -3 0 25 -27 60 -58 76 -36 19 -109 27
-151 16z"/>
<path d="M1850 8968 c-73 -50 -100 -183 -55 -273 44 -88 151 -114 220 -54 l35
31 0 -45 c0 -65 -28 -97 -86 -97 -31 0 -50 6 -64 20 -26 26 -110 29 -110 4 0
-56 69 -94 170 -94 85 0 141 24 167 73 15 28 18 61 18 242 l0 210 -47 3 c-48
3 -48 3 -48 -28 l0 -32 -35 31 c-46 40 -114 43 -165 9z m170 -83 c30 -32 39
-109 17 -152 -39 -74 -136 -63 -157 18 -14 51 -6 98 21 133 28 36 86 36 119 1z"/>
<path d="M3423 8970 c-41 -24 -71 -79 -51 -91 25 -16 75 -10 89 11 21 31 82
37 108 11 11 -11 21 -28 21 -36 0 -19 -39 -35 -83 -35 -52 0 -108 -20 -133
-47 -26 -28 -33 -97 -14 -134 28 -52 133 -65 194 -24 l36 24 0 -24 c0 -23 3
-25 52 -25 l51 0 -7 157 c-4 86 -12 165 -17 175 -6 11 -25 28 -42 38 -45 28
-159 28 -204 0z m164 -227 c-8 -46 -38 -73 -82 -73 -87 0 -84 81 3 95 20 4 42
8 47 10 32 11 38 5 32 -32z"/>
<path d="M3770 8796 l0 -196 50 0 50 0 0 128 c0 125 1 129 26 153 18 17 36 23
65 23 l39 -1 0 43 0 44 -41 0 c-32 0 -47 -6 -68 -29 l-27 -28 1 26 c0 24 -4
26 -47 29 l-48 3 0 -195z"/>
<path d="M4060 8795 l0 -195 50 0 50 0 0 195 0 195 -50 0 -50 0 0 -195z"/>
<path d="M4920 8795 l0 -195 45 0 45 0 0 195 0 195 -45 0 -45 0 0 -195z"/>
<path d="M5542 8798 l3 -193 48 -3 47 -3 0 121 c0 158 15 190 89 190 55 0 66
-27 69 -176 l4 -134 45 0 44 0 -3 166 -3 166 -33 29 c-27 24 -41 29 -87 29
-47 0 -59 -4 -90 -31 l-35 -31 0 31 c0 31 -1 31 -50 31 l-50 0 2 -192z"/>
<path d="M8306 6600 c-27 -92 -43 -109 -126 -134 l-45 -14 30 -7 c65 -17 106
-45 126 -88 10 -23 19 -51 19 -62 1 -11 9 4 19 33 23 66 44 89 95 104 49 14
69 28 38 28 -12 0 -40 7 -62 16 -44 18 -65 47 -78 111 -8 36 -9 37 -16 13z"/>
<path d="M1283 6530 c-58 -12 -95 -33 -133 -76 -44 -50 -60 -93 -60 -156 0
-121 41 -178 176 -245 52 -25 96 -45 98 -42 18 22 76 114 81 130 8 25 14 20
-64 59 -77 38 -111 71 -111 105 0 38 42 75 84 75 42 0 45 3 52 77 4 32 12 61
18 65 7 5 3 8 -9 8 -11 0 -36 2 -55 4 -19 3 -54 1 -77 -4z"/>
<path d="M7222 6525 c-101 -31 -162 -120 -162 -234 1 -124 50 -184 210 -259
115 -53 150 -83 150 -128 0 -75 -86 -84 -257 -26 -62 21 -113 36 -113 35 0 -2
18 -28 40 -58 22 -30 40 -57 40 -61 0 -4 -25 -38 -56 -76 -31 -38 -54 -71 -52
-72 3 -3 148 8 294 23 194 20 284 101 284 256 0 120 -43 173 -206 254 -122 60
-154 87 -154 130 0 36 40 71 80 71 37 0 99 -23 149 -54 l40 -26 41 61 c23 33
40 66 37 72 -8 20 -116 80 -170 94 -64 16 -139 16 -195 -2z"/>
<path d="M4242 6504 c-149 -74 -174 -287 -45 -393 34 -28 92 -60 149 -81 18
-7 21 -6 17 11 -4 12 0 19 9 19 8 0 21 18 28 41 8 23 19 43 26 46 34 13 21 33
-41 64 -74 36 -83 44 -91 85 -7 37 27 84 60 84 33 0 37 9 20 41 -8 16 -10 29
-5 29 5 0 4 12 -4 26 -7 15 -11 33 -8 40 9 24 -58 17 -115 -12z"/>
<path d="M1855 6250 c-51 -25 -75 -65 -75 -125 0 -67 32 -96 143 -130 117 -35
141 -61 97 -105 -30 -30 -103 -28 -135 5 -14 13 -25 29 -25 35 0 5 -22 10 -51
10 -55 0 -54 2 -29 -65 19 -49 93 -85 177 -85 95 0 166 47 173 115 11 95 -22
133 -142 164 -92 25 -125 50 -108 82 27 50 110 49 138 -2 15 -25 23 -29 60
-29 37 0 42 3 42 23 0 97 -158 160 -265 107z"/>
<path d="M2208 6263 c-17 -4 -18 -24 -18 -239 l0 -235 48 3 47 3 3 238 2 237
-32 -1 c-18 -1 -41 -3 -50 -6z"/>
<path d="M2506 6256 c-60 -22 -88 -48 -118 -106 -22 -40 -28 -66 -28 -112 0
-157 83 -247 228 -248 72 0 116 16 154 56 36 39 48 74 48 140 l0 54 -100 0
-100 0 0 -39 0 -39 51 2 c63 1 70 -11 32 -54 -36 -40 -86 -49 -138 -24 -93 44
-101 220 -13 274 58 35 132 19 156 -35 11 -24 17 -26 60 -23 41 3 47 6 44 23
-6 38 -52 95 -93 116 -54 27 -133 34 -183 15z"/>
<path d="M7835 6259 c-62 -19 -95 -64 -95 -132 0 -67 32 -98 131 -127 94 -27
116 -38 122 -61 3 -10 -4 -30 -15 -44 -28 -35 -98 -36 -133 0 -14 13 -25 29
-25 35 0 5 -22 10 -51 10 -48 0 -50 -1 -44 -22 27 -88 78 -122 185 -123 113 0
165 36 177 123 11 79 -38 128 -158 157 -80 20 -108 43 -91 79 22 49 123 41
143 -11 7 -19 15 -23 55 -23 45 0 46 1 40 28 -22 91 -136 143 -241 111z"/>
<path d="M8475 6261 c-46 -12 -68 -26 -108 -70 -44 -49 -61 -107 -54 -189 3
-46 13 -76 33 -110 86 -140 329 -133 383 11 6 16 11 53 11 83 l0 54 -100 0
-100 0 0 -35 0 -35 55 0 c46 0 55 -3 55 -18 0 -48 -71 -90 -134 -78 -83 16
-132 136 -92 229 22 53 51 72 111 72 43 0 59 -5 79 -24 14 -14 26 -31 26 -39
0 -11 8 -13 31 -8 17 3 40 6 50 6 18 0 18 2 4 37 -9 21 -23 46 -33 56 -42 47
-150 75 -217 58z"/>
<path d="M2957 6218 c-8 -24 -45 -126 -81 -228 -36 -102 -66 -188 -66 -192 0
-5 22 -8 49 -8 l50 0 17 55 18 56 80 -3 81 -3 19 -52 19 -53 48 0 c27 0 49 2
49 4 0 3 -57 167 -147 424 l-15 42 -53 0 -53 0 -15 -42z m97 -162 l24 -76 -55
0 c-40 0 -53 3 -50 13 3 6 16 42 28 79 13 37 24 66 26 64 2 -2 14 -38 27 -80z"/>
<path d="M8140 6030 l0 -230 50 0 50 0 0 230 0 230 -50 0 -50 0 0 -230z"/>
<path d="M8915 6243 c-16 -42 -157 -429 -158 -437 -1 -5 20 -10 47 -10 l49 -1
17 50 17 50 83 0 83 0 16 -50 16 -50 45 4 c25 1 46 4 48 6 4 3 -118 360 -144
423 -12 30 -16 32 -62 32 -38 0 -52 -4 -57 -17z m105 -255 c0 -5 -22 -8 -50
-8 -27 0 -50 4 -50 8 0 9 34 112 46 142 4 9 16 -15 30 -60 13 -41 24 -78 24
-82z"/>
<path d="M1106 5882 c9 -15 27 -41 39 -58 l23 -30 -35 -45 c-19 -24 -44 -57
-56 -73 l-20 -29 45 5 c27 3 55 14 69 27 12 11 28 21 35 21 47 0 137 97 116
126 -4 5 -58 26 -120 46 l-113 37 17 -27z"/>
<path d="M4150 5856 c26 -34 40 -62 36 -71 -3 -10 -2 -13 5 -10 5 4 9 14 8 23
-3 35 1 44 17 38 12 -4 15 -2 10 9 -3 8 0 15 7 15 7 1 -10 10 -38 21 -90 35
-90 35 -45 -25z"/>
<path d="M4256 5777 c3 -10 9 -15 12 -12 3 3 0 11 -7 18 -10 9 -11 8 -5 -6z"/>
<path d="M4154 5738 l-19 -23 23 19 c21 18 27 26 19 26 -2 0 -12 -10 -23 -22z"/>
<path d="M4123 5698 c-10 -17 -13 -38 -5 -38 13 0 32 39 22 45 -5 3 -12 0 -17
-7z"/>
<path d="M1364 5269 c-10 -17 13 -36 27 -22 12 12 4 33 -11 33 -5 0 -12 -5
-16 -11z"/>
<path d="M2110 5238 c-11 -24 -20 -59 -20 -78 0 -41 34 -120 51 -120 7 0 8 7
4 18 -30 69 -29 127 0 205 15 37 -17 15 -35 -25z"/>
<path d="M2746 5273 c-12 -12 -6 -33 9 -33 8 0 15 6 15 14 0 17 -14 28 -24 19z"/>
<path d="M2199 5241 c-37 -38 -39 -88 -5 -127 46 -54 136 -26 136 42 0 21 -5
24 -35 24 -25 0 -35 -4 -35 -16 0 -10 6 -14 15 -11 21 9 28 -9 9 -27 -22 -22
-50 -20 -68 6 -44 62 21 141 75 92 28 -26 44 -6 18 22 -31 33 -73 31 -110 -5z"/>
<path d="M2680 5233 c0 -29 -3 -34 -12 -25 -19 19 -55 14 -72 -10 -20 -28 -20
-58 -1 -86 13 -18 25 -21 65 -21 l50 2 0 88 c0 72 -3 89 -15 89 -11 0 -15 -11
-15 -37z m-4 -68 c12 -46 -35 -75 -56 -35 -16 30 -3 60 25 60 18 0 26 -7 31
-25z"/>
<path d="M3184 5254 c25 -65 28 -105 12 -153 -20 -63 -20 -68 3 -47 24 22 43
97 35 134 -10 40 -33 82 -45 82 -6 0 -8 -7 -5 -16z"/>
<path d="M4592 5254 c-16 -11 -22 -24 -20 -42 2 -21 12 -30 48 -43 48 -18 63
-43 32 -53 -22 -7 -52 2 -52 15 0 5 -9 9 -20 9 -25 0 -25 -12 -1 -34 23 -21
85 -24 107 -5 29 24 13 62 -36 86 -25 11 -45 27 -45 34 0 19 33 23 61 8 33
-17 44 -1 15 22 -28 23 -59 24 -89 3z"/>
<path d="M4880 5180 c0 -73 3 -90 15 -90 12 0 15 17 15 90 0 73 -3 90 -15 90
-12 0 -15 -17 -15 -90z"/>
<path d="M4942 5258 c6 -18 28 -21 28 -4 0 9 -7 16 -16 16 -9 0 -14 -5 -12
-12z"/>
<path d="M5100 5240 c0 -28 -2 -29 -30 -23 -40 8 -70 -19 -70 -62 0 -38 19
-66 45 -66 11 1 35 1 53 1 l32 1 0 90 c0 72 -3 89 -15 89 -10 0 -15 -10 -15
-30z m-7 -69 c6 -23 -10 -61 -26 -61 -34 0 -49 47 -22 74 18 18 41 12 48 -13z"/>
<path d="M5245 5245 c-28 -28 -34 -97 -11 -128 21 -27 70 -41 98 -26 36 19 51
49 24 49 -7 0 -19 -7 -26 -15 -29 -35 -80 -2 -80 53 0 52 51 82 80 47 13 -16
40 -21 40 -7 -1 23 -45 52 -80 52 -11 0 -32 -11 -45 -25z"/>
<path d="M5550 5180 c0 -73 3 -90 15 -90 12 0 15 17 15 90 0 73 -3 90 -15 90
-12 0 -15 -17 -15 -90z"/>
<path d="M7383 5262 c-7 -4 -13 -41 -15 -90 -3 -73 -1 -82 15 -82 14 0 17 9
18 53 l0 52 24 -53 c14 -30 30 -52 36 -50 7 2 22 29 33 59 l21 54 3 -57 c2
-43 7 -58 17 -58 12 0 15 17 15 85 0 79 -1 85 -21 85 -14 0 -24 -11 -35 -37
-38 -97 -33 -95 -60 -28 -28 68 -35 77 -51 67z"/>
<path d="M8270 5180 c0 -65 3 -90 13 -90 8 0 13 17 13 46 2 50 14 70 38 61 12
-5 16 -20 16 -57 0 -38 4 -50 15 -50 11 0 15 13 15 54 0 61 -16 82 -55 72 -23
-6 -25 -3 -25 24 0 20 -5 30 -15 30 -12 0 -15 -17 -15 -90z"/>
<path d="M1110 5175 c0 -69 3 -85 15 -85 10 0 15 10 15 30 0 27 3 30 31 30 48
0 69 16 69 53 0 46 -16 57 -77 57 l-53 0 0 -85z m84 59 c23 -9 20 -41 -5 -54
-28 -16 -49 -6 -49 23 0 36 17 45 54 31z"/>
<path d="M3100 5236 c0 -8 -6 -17 -12 -20 -10 -5 -10 -7 0 -12 6 -3 12 -23 12
-44 0 -54 8 -70 36 -70 27 0 32 15 9 24 -21 8 -20 72 1 84 15 8 15 11 -5 31
-24 24 -41 27 -41 7z"/>
<path d="M1270 5154 c0 -50 3 -64 15 -64 11 0 15 12 15 45 0 39 3 47 25 55 38
14 30 29 -15 28 l-40 0 0 -64z"/>
<path d="M1370 5155 c0 -51 3 -65 15 -65 12 0 15 14 15 65 0 51 -3 65 -15 65
-12 0 -15 -14 -15 -65z"/>
<path d="M1430 5153 c0 -48 3 -63 14 -63 11 0 16 14 18 48 3 40 6 47 26 50 20
3 22 0 22 -47 0 -38 4 -51 14 -51 11 0 16 14 18 48 3 40 6 47 26 50 20 3 22 0
22 -47 0 -39 4 -51 15 -51 11 0 15 13 15 54 0 66 -17 85 -61 69 -16 -6 -31 -8
-34 -3 -3 4 -25 8 -50 8 l-45 -1 0 -64z"/>
<path d="M1660 5205 c-17 -21 -4 -32 20 -17 26 16 40 15 40 -2 0 -8 -13 -17
-29 -21 -37 -8 -54 -28 -46 -54 5 -17 14 -20 61 -19 l54 2 0 43 c0 62 -14 83
-54 83 -19 0 -39 -7 -46 -15z m64 -64 c9 -14 -22 -34 -41 -26 -17 6 -17 7 1
21 23 16 33 18 40 5z"/>
<path d="M1790 5153 c0 -49 3 -63 15 -63 11 0 15 12 15 45 0 39 3 47 25 55 38
14 30 29 -15 27 l-40 -1 0 -63z"/>
<path d="M1886 5198 c3 -13 13 -38 20 -57 18 -43 18 -70 -1 -77 -21 -8 -19
-24 4 -24 25 0 36 16 66 94 29 77 30 86 11 86 -7 0 -19 -20 -26 -46 -14 -50
-22 -48 -40 9 -6 21 -18 37 -26 37 -11 0 -13 -6 -8 -22z"/>
<path d="M2360 5153 c0 -49 3 -63 15 -63 11 0 15 12 15 45 0 39 3 47 25 55 38
14 30 29 -15 27 l-40 -1 0 -63z"/>
<path d="M2461 5206 c-16 -19 5 -32 24 -16 16 13 45 7 45 -9 0 -5 -16 -12 -35
-15 -40 -8 -58 -32 -44 -58 7 -13 21 -17 59 -17 l50 2 0 44 c0 62 -14 83 -54
83 -19 0 -39 -6 -45 -14z m65 -85 c-10 -16 -46 -13 -46 3 0 16 30 27 44 15 4
-4 5 -12 2 -18z"/>
<path d="M2740 5155 c0 -51 3 -65 15 -65 12 0 15 14 15 65 0 51 -3 65 -15 65
-12 0 -15 -14 -15 -65z"/>
<path d="M2817 5202 c-21 -23 -22 -76 -1 -96 20 -20 78 -21 94 -1 11 14 8 15
-31 13 -35 -2 -44 0 -47 15 -3 14 4 17 42 17 38 0 46 3 46 18 0 46 -72 69
-103 34z m63 -17 c11 -13 8 -15 -20 -15 -28 0 -31 2 -20 15 7 8 16 15 20 15 4
0 13 -7 20 -15z"/>
<path d="M2944 5196 c3 -12 6 -40 6 -63 0 -32 4 -43 15 -43 11 0 15 12 15 49
0 35 4 51 16 55 26 10 34 -3 34 -55 0 -37 4 -49 15 -49 19 0 21 102 3 118 -7
6 -35 10 -61 10 -44 -1 -48 -3 -43 -22z"/>
<path d="M4740 5200 c-41 -41 -13 -110 45 -110 41 0 65 22 65 58 0 65 -66 96
-110 52z m72 -24 c12 -29 5 -54 -18 -63 -36 -14 -54 57 -20 79 18 13 26 9 38
-16z"/>
<path d="M4940 5155 c0 -51 3 -65 15 -65 12 0 15 14 15 65 0 51 -3 65 -15 65
-12 0 -15 -14 -15 -65z"/>
<path d="M5424 5212 c-35 -23 -39 -87 -8 -113 18 -15 71 -14 90 2 20 17 18 82
-4 102 -19 18 -59 22 -78 9z m54 -24 c28 -28 2 -88 -33 -74 -27 10 -14 86 15
86 3 0 11 -5 18 -12z"/>
<path d="M5627 5202 c-20 -22 -22 -71 -3 -97 20 -27 74 -24 98 5 23 28 18 77
-9 98 -24 18 -67 15 -86 -6z m62 -11 c16 -11 18 -58 2 -74 -28 -28 -67 37 -41
69 14 16 20 17 39 5z"/>
<path d="M5760 5154 c0 -50 3 -64 15 -64 10 0 15 10 15 34 0 47 9 66 31 66 10
0 19 6 19 14 0 9 -13 13 -40 13 l-40 0 0 -63z"/>
<path d="M7598 5203 c-24 -28 -27 -47 -12 -81 11 -28 18 -32 52 -32 46 0 63
16 64 59 2 60 -68 95 -104 54z m61 -17 c7 -8 11 -27 9 -43 -2 -22 -8 -28 -28
-28 -20 0 -26 6 -28 28 -3 27 12 57 28 57 4 0 13 -6 19 -14z"/>
<path d="M7730 5153 c0 -49 3 -63 15 -63 11 0 15 12 15 45 0 33 5 47 18 54 27
15 42 -5 42 -56 0 -32 4 -43 15 -43 11 0 15 12 15 46 0 70 -11 83 -70 82 l-50
-1 0 -64z"/>
<path d="M7890 5200 c-41 -41 -13 -110 45 -110 42 0 65 22 65 64 0 60 -68 88
-110 46z m70 -14 c26 -32 -13 -97 -41 -69 -16 16 -14 63 2 74 19 12 25 11 39
-5z"/>
<path d="M8030 5153 c0 -49 3 -63 15 -63 11 0 15 12 15 46 0 37 4 47 20 51 34
9 23 31 -15 30 l-35 -1 0 -63z"/>
<path d="M8137 5202 c-20 -22 -22 -83 -5 -100 20 -20 86 -15 98 8 12 23 0 27
-29 8 -28 -17 -51 -3 -51 30 0 42 24 60 50 37 26 -23 47 -10 24 16 -22 24 -66
24 -87 1z"/>
<path d="M8427 5202 c-21 -23 -22 -76 -1 -96 20 -21 78 -21 95 0 20 24 16 84
-6 100 -26 20 -69 17 -88 -4z m57 -8 c21 -8 22 -72 1 -80 -35 -14 -61 46 -33
74 14 14 12 14 32 6z"/>
<path d="M8560 5154 c0 -49 3 -64 14 -64 11 0 16 14 18 48 3 40 6 47 26 50 20
3 22 0 22 -47 0 -38 4 -51 14 -51 11 0 16 14 18 48 3 40 6 47 26 50 20 3 22 0
22 -47 0 -39 4 -51 15 -51 19 0 21 100 3 118 -15 15 -55 16 -63 2 -4 -7 -11
-8 -18 -2 -7 5 -31 10 -54 9 l-43 0 0 -63z"/>
<path d="M8803 5212 c-23 -15 -34 -62 -20 -90 11 -23 18 -27 57 -27 34 0 46 4
48 17 3 15 -1 15 -27 5 -23 -8 -33 -8 -45 2 -24 20 -10 31 40 31 48 0 55 11
28 48 -15 22 -57 29 -81 14z m55 -30 c2 -7 -7 -12 -22 -12 -27 0 -35 15 -13
23 17 7 30 3 35 -11z"/>
<path d="M3974 3566 l-34 -34 -1 -903 c-1 -1126 -1 -1107 16 -1131 39 -56 -38
-53 1175 -56 824 -2 1122 1 1143 9 15 7 37 23 47 37 20 24 20 46 20 1023 0
624 -4 1007 -10 1023 -5 14 -24 35 -42 46 -32 20 -51 20 -1156 20 l-1124 0
-34 -34z m986 -650 c18 -23 8 -61 -17 -64 -29 -4 -56 34 -42 60 12 22 42 24
59 4z m730 -246 c16 -16 17 -20 5 -20 -8 0 -15 -5 -15 -10 0 -6 -7 -6 -19 2
-15 9 -17 15 -8 30 14 22 13 22 37 -2z m-232 -23 c2 -11 -3 -17 -17 -17 -19 0
-34 14 -37 36 -3 19 51 0 54 -19z m132 -47 c8 -5 11 -12 7 -16 -3 -4 -13 -1
-21 5 -15 13 -36 7 -36 -9 0 -5 12 -15 28 -22 19 -9 27 -21 27 -38 0 -21 -5
-26 -31 -28 -20 -2 -36 3 -45 14 -13 16 -12 17 6 10 47 -19 55 -19 55 2 0 13
-9 22 -25 26 -31 8 -42 31 -25 51 14 17 38 19 60 5z m186 -5 c18 -15 17 -16
-14 -10 -41 8 -62 -8 -62 -46 0 -32 32 -48 56 -29 12 11 12 14 -3 26 -16 12
-16 13 9 14 24 0 26 -3 19 -27 -6 -23 -14 -29 -41 -31 -39 -4 -60 16 -60 57 0
52 55 78 96 46z m109 -46 c9 -28 14 -53 10 -57 -4 -4 -10 -1 -12 6 -6 15 -45
16 -61 0 -24 -24 -23 2 2 57 14 31 30 54 35 51 5 -4 17 -29 26 -57z m-240 0
c-4 -70 -15 -75 -15 -6 0 32 4 57 9 57 5 0 8 -23 6 -51z m-193 14 c26 -23 23
-69 -4 -87 -30 -18 -137 -31 -120 -14 7 7 12 19 12 28 0 11 10 15 37 15 50 0
52 20 4 45 -23 11 -41 23 -41 26 0 3 4 3 9 -1 5 -3 13 0 17 6 9 15 62 4 86
-18z"/>
<path d="M4914 2905 c-9 -23 3 -45 26 -45 22 0 23 3 14 38 -7 25 -32 30 -40 7z"/>
<path d="M5847 2563 c-12 -12 -7 -33 8 -33 17 0 19 9 7 28 -5 7 -11 9 -15 5z"/>
<path d="M7564 3245 c-7 -52 0 -67 20 -40 12 16 16 17 30 6 13 -11 16 -11 16
0 0 19 -38 79 -49 79 -5 0 -13 -20 -17 -45z m36 -6 c0 -5 -4 -9 -10 -9 -5 0
-10 7 -10 16 0 8 5 12 10 9 6 -3 10 -10 10 -16z"/>
<path d="M7480 3260 c-11 -11 -20 -27 -20 -35 0 -8 9 -24 20 -35 22 -22 52
-15 64 16 9 23 8 24 -15 24 -15 0 -19 -4 -15 -16 4 -11 1 -14 -12 -12 -9 2
-17 12 -17 23 0 15 7 20 28 20 32 -1 35 10 7 25 -15 8 -24 6 -40 -10z"/>
<path d="M7425 3223 c11 -58 24 -75 25 -31 0 43 -8 68 -22 68 -6 0 -8 -14 -3
-37z"/>
<path d="M7363 3243 c-23 -9 -15 -42 12 -49 31 -8 32 -21 3 -27 -20 -3 -21 -4
-5 -11 25 -12 47 0 47 24 0 13 -10 24 -26 30 -14 6 -23 14 -19 20 3 5 13 6 22
3 11 -4 14 -3 9 5 -7 12 -22 14 -43 5z"/>
<path d="M8161 3133 c-1 -12 -9 -28 -19 -35 -18 -12 -17 -14 13 -28 31 -15 32
-15 57 12 l26 28 -23 0 c-12 0 -30 10 -38 23 l-16 22 0 -22z"/>
<path d="M8464 3069 c-3 -6 -12 -53 -18 -105 -12 -94 -12 -95 8 -92 13 2 22
12 24 25 4 29 60 43 77 19 12 -16 60 -23 53 -8 -1 4 -25 44 -53 90 -48 78 -73
99 -91 71z m56 -96 c0 -7 -8 -13 -18 -13 -15 0 -18 6 -14 32 4 29 6 30 18 13
8 -10 14 -25 14 -32z"/>
<path d="M7735 3031 c-55 -23 -79 -95 -47 -146 14 -23 35 -36 93 -55 59 -20
75 -29 77 -47 4 -28 -28 -38 -99 -31 l-50 5 21 -22 c21 -22 21 -24 4 -49 -9
-15 -15 -29 -12 -31 5 -6 125 30 156 47 29 15 52 58 52 96 0 48 -32 78 -105
97 -75 21 -95 43 -65 70 18 16 39 16 82 0 9 -4 19 4 26 20 16 34 17 31 -19 44
-37 13 -85 13 -114 2z"/>
<path d="M8265 3028 c-33 -19 -44 -41 -45 -84 0 -58 42 -104 95 -104 52 0 73
15 86 60 15 50 6 61 -44 53 -42 -6 -52 -33 -12 -33 30 0 32 -11 5 -35 -47 -42
-110 28 -82 90 12 27 58 35 79 14 7 -7 17 -8 28 -1 16 9 16 11 -4 31 -23 23
-73 28 -106 9z"/>
<path d="M8141 3001 c-11 -7 -9 -25 7 -96 23 -96 25 -100 46 -92 13 5 13 13 0
69 -9 35 -18 75 -21 91 -7 32 -14 39 -32 28z"/>
<path d="M7987 2962 c-39 -43 -12 -92 50 -92 37 0 57 -14 50 -34 -7 -17 -52
-22 -61 -7 -3 5 -16 7 -28 3 -21 -5 -21 -6 6 -29 58 -49 138 -8 124 64 -3 16
-14 21 -87 41 -13 4 -26 13 -29 19 -6 19 28 28 50 14 11 -7 25 -8 34 -3 14 8
14 11 -1 25 -23 23 -87 22 -108 -1z"/>
<path d="M1864 2686 c-58 -58 -40 -137 39 -175 63 -31 82 -28 84 12 2 27 -4
36 -38 60 -22 15 -39 33 -36 40 3 9 53 42 64 42 1 0 4 12 8 28 7 27 6 27 -40
27 -40 0 -52 -5 -81 -34z"/>
<path d="M2167 2582 c-38 -42 -13 -91 56 -108 33 -8 47 -32 26 -45 -17 -10
-47 -2 -71 18 -17 15 -38 10 -38 -8 0 -5 9 -18 20 -29 26 -26 100 -28 122 -2
41 47 27 84 -41 107 -51 17 -65 37 -35 49 9 4 27 0 40 -9 29 -19 54 -19 54 -1
0 42 -102 62 -133 28z"/>
<path d="M2330 2496 c0 -105 0 -106 24 -106 24 0 24 0 23 103 -2 98 -3 102
-24 105 -23 3 -23 2 -23 -102z"/>
<path d="M2439 2571 c-24 -24 -29 -38 -29 -76 0 -38 5 -52 29 -76 58 -58 161
-26 161 51 0 29 -1 30 -46 30 -38 0 -45 -3 -42 -17 2 -10 9 -19 16 -19 6 -1
17 -2 23 -3 24 -2 -14 -31 -42 -31 -52 0 -75 72 -37 117 14 17 50 16 74 -2 20
-15 54 -20 54 -7 -1 13 -24 38 -47 50 -39 21 -82 14 -114 -17z"/>
<path d="M2672 2563 c-19 -48 -62 -165 -62 -169 0 -13 40 -1 51 16 8 11 29 23
46 26 29 6 34 3 43 -20 6 -16 17 -26 30 -26 11 0 20 3 20 8 0 4 -15 48 -33 97
-29 78 -37 90 -59 93 -20 2 -28 -3 -36 -25z m52 -70 c6 -20 4 -23 -17 -23 -24
0 -25 1 -14 35 11 36 17 34 31 -12z"/>
<path d="M8725 2431 c-6 -11 13 -26 22 -17 4 3 0 6 -8 6 -11 0 -11 2 1 10 9 6
10 10 3 10 -6 0 -14 -4 -18 -9z"/>
<path d="M1852 2409 c15 -24 15 -27 -9 -57 l-24 -32 24 0 c52 0 87 12 87 31 0
10 9 24 20 32 18 13 17 14 -28 25 -26 6 -56 14 -67 18 -19 8 -19 7 -3 -17z"/>
<path d="M8693 2423 c-15 -5 -18 -43 -3 -43 5 0 7 7 4 15 -4 8 -1 15 5 15 6 0
11 -5 11 -12 0 -6 3 -9 6 -5 10 9 -10 34 -23 30z"/>
<path d="M8658 2393 c5 -21 7 -23 10 -9 2 10 0 22 -6 28 -6 6 -7 0 -4 -19z"/>
<path d="M8602 2384 c7 -15 14 -21 16 -15 5 16 -5 41 -17 41 -7 0 -6 -10 1
-26z"/>
<path d="M8630 2390 c0 -11 4 -20 9 -20 5 0 7 9 4 20 -3 11 -7 20 -9 20 -2 0
-4 -9 -4 -20z"/>
<path d="M8570 2388 c0 -7 5 -20 10 -28 8 -12 10 -11 10 7 0 12 -4 25 -10 28
-5 3 -10 0 -10 -7z"/>
<path d="M8460 2360 c0 -16 3 -30 8 -30 4 0 7 14 7 30 0 17 -3 30 -7 30 -5 0
-8 -13 -8 -30z"/>
<path d="M8540 2379 c0 -5 5 -7 10 -4 6 3 10 8 10 11 0 2 -4 4 -10 4 -5 0 -10
-5 -10 -11z"/>
<path d="M8490 2366 c0 -8 5 -18 10 -21 6 -3 10 1 10 9 0 8 -4 18 -10 21 -5 3
-10 -1 -10 -9z"/>
<path d="M8520 2366 c0 -8 4 -17 9 -20 5 -4 7 3 4 14 -6 23 -13 26 -13 6z"/>
<path d="M8407 2356 c-4 -9 -2 -16 3 -16 5 0 11 -8 13 -17 4 -15 5 -15 6 2 0
11 -3 26 -8 33 -7 11 -9 11 -14 -2z"/>
<path d="M8358 2330 c2 -16 6 -30 8 -30 2 0 4 14 4 30 0 17 -4 30 -8 30 -5 0
-7 -13 -4 -30z"/>
<path d="M8380 2336 c0 -8 4 -17 9 -20 5 -4 7 3 4 14 -6 23 -13 26 -13 6z"/>
<path d="M8241 2335 c0 -18 28 -61 29 -44 0 8 -7 24 -15 35 -8 10 -14 15 -14
9z"/>
<path d="M8322 2318 c3 -24 20 -28 27 -7 2 7 -1 9 -9 4 -10 -6 -12 -4 -7 8 3
10 2 17 -4 17 -6 0 -9 -10 -7 -22z"/>
<path d="M8200 2320 c0 -5 8 -14 18 -19 15 -9 15 -12 2 -21 -13 -8 -13 -10 3
-10 23 0 22 22 -3 43 -11 9 -20 13 -20 7z"/>
<path d="M8270 2322 c0 -10 22 -32 32 -32 4 0 8 9 8 20 0 13 -7 20 -20 20 -11
0 -20 -4 -20 -8z"/>
<path d="M8027 2297 c-69 -19 -78 -24 -73 -42 17 -72 18 -97 5 -93 -8 2 -18
14 -24 26 -6 13 -16 20 -25 17 -8 -2 -22 0 -30 5 -12 7 -11 13 10 35 14 14 18
24 10 21 -8 -3 -114 -26 -235 -51 -121 -26 -223 -50 -227 -53 -4 -4 15 -97 41
-207 27 -110 63 -263 81 -340 17 -77 34 -148 37 -159 5 -17 14 -18 96 -14 58
3 92 9 95 16 2 7 8 12 13 12 6 0 7 -6 3 -12 -4 -8 -2 -8 7 1 11 11 12 14 1 18
-10 4 -7 9 8 20 15 11 20 23 17 49 -3 32 -17 61 -17 36 0 -17 -29 -15 -48 4
-15 15 -14 16 6 10 14 -5 27 -2 38 8 20 21 25 17 53 -38 20 -42 26 -46 58 -46
36 0 55 -15 73 -56 8 -21 14 -22 169 -21 89 1 161 3 161 4 0 15 -54 220 -60
226 -4 5 -16 10 -26 11 -25 3 -39 35 -57 121 -13 63 -12 70 2 73 9 2 20 7 24
12 5 4 -12 100 -37 212 -25 112 -46 207 -46 211 0 10 -16 8 -103 -16z m3 -116
c0 -11 -26 -22 -34 -14 -12 12 -5 23 14 23 11 0 20 -4 20 -9z m-220 -51 c12
-17 16 -30 10 -30 -7 0 -9 -8 -5 -19 3 -11 0 -23 -6 -27 -7 -4 -9 -3 -5 4 9
16 -28 34 -42 20 -5 -5 -16 -7 -22 -3 -9 6 -7 11 6 19 19 10 24 12 44 15 6 0
10 6 10 12 0 7 -12 9 -35 5 -26 -5 -35 -3 -35 7 0 39 52 37 80 -3z m60 -100
c0 -20 -26 -45 -33 -33 -3 4 -2 23 0 41 4 26 8 30 19 21 8 -6 14 -19 14 -29z
m-83 4 c-3 -3 -12 -4 -19 -1 -8 3 -5 6 6 6 11 1 17 -2 13 -5z m337 -70 c9 -24
-3 -36 -20 -19 -9 8 -12 19 -9 25 9 15 22 12 29 -6z m-194 -75 c0 -10 -31 -12
-54 -3 -9 3 -14 9 -11 13 6 10 65 1 65 -10z m53 -32 c-12 -7 -21 -16 -20 -22
1 -5 -7 -11 -18 -13 -11 -2 -26 -9 -32 -14 -20 -16 -16 8 5 28 16 17 16 17 0
11 -10 -3 -20 -2 -23 3 -6 10 23 17 75 18 33 1 34 0 13 -11z m-288 -86 c3 -38
2 -41 -16 -36 -11 4 -19 2 -19 -4 0 -6 -4 -11 -9 -11 -12 0 -19 33 -14 64 4
20 9 24 18 16 9 -8 14 -6 19 6 9 24 16 13 21 -35z"/>
<path d="M8873 2257 c-199 -47 -211 -52 -202 -70 6 -10 8 -21 5 -24 -8 -9 -37
18 -30 28 7 13 6 12 -135 -20 -69 -16 -155 -35 -191 -42 -36 -6 -68 -15 -72
-18 -4 -4 2 -44 15 -89 12 -46 25 -81 27 -79 3 3 24 7 47 10 l42 4 -14 -28
c-8 -15 -15 -50 -15 -76 0 -26 -5 -55 -10 -63 -8 -12 -10 -12 -10 -1 0 8 -3
12 -6 9 -3 -3 -2 -23 2 -43 5 -26 9 -33 15 -23 6 8 7 2 4 -17 -3 -16 7 -84 23
-150 l28 -120 79 -3 c78 -3 105 7 87 33 -15 20 -33 85 -27 95 9 14 22 12 52
-7 14 -10 32 -18 39 -19 20 -3 6 19 -25 41 -25 16 -28 22 -19 40 6 11 12 22
14 24 1 2 20 -14 41 -34 21 -21 52 -44 70 -51 38 -16 62 -52 43 -64 -16 -10
-55 24 -45 39 9 15 -1 14 -42 -5 -31 -15 -34 -20 -31 -53 3 -33 6 -36 33 -35
71 1 171 22 593 119 12 3 22 11 22 18 0 9 -113 492 -162 690 -5 20 -14 36 -21
36 -7 -1 -107 -24 -224 -52z m-186 -126 c31 -42 20 -66 -29 -59 -25 3 -45 45
-35 73 8 19 45 12 64 -14z m353 -23 c0 17 27 15 27 -3 0 -8 -6 -15 -14 -15 -7
0 -17 -8 -20 -17 -4 -10 -11 -21 -17 -25 -8 -6 -6 -11 3 -17 12 -8 12 -12 2
-25 -16 -20 -21 -66 -10 -89 8 -15 6 -17 -18 -15 -52 3 -83 -2 -80 -14 3 -15
-45 -16 -51 0 -2 6 9 16 25 22 15 5 37 15 48 21 14 9 20 9 23 0 2 -6 12 -11
23 -11 18 0 18 1 -2 21 -16 16 -18 23 -9 34 15 18 4 36 -17 28 -11 -4 -14 -2
-11 8 3 8 -2 19 -11 26 -13 9 -14 16 -5 30 16 25 42 28 66 6 21 -18 21 -18 15
13 -7 38 1 50 19 26 8 -10 13 -12 14 -4z m-404 -73 c-1 -8 -8 -21 -14 -27 -9
-9 -12 -6 -12 15 0 17 5 27 14 27 8 0 13 -7 12 -15z m411 -7 c-3 -8 -6 -5 -6
6 -1 11 2 17 5 13 3 -3 4 -12 1 -19z m-367 -7 c0 -17 -31 -41 -53 -41 -18 0
-16 3 13 25 38 28 40 29 40 16z m-6 -107 c23 -9 20 -30 -4 -30 -13 0 -20 7
-20 18 0 20 1 21 24 12z m345 -40 c2 -2 1 -10 -2 -18 -8 -19 -45 -9 -58 16
-10 19 -8 19 23 13 18 -4 35 -9 37 -11z m91 -144 c0 -5 -7 -10 -15 -10 -8 0
-15 5 -15 10 0 6 7 10 15 10 8 0 15 -4 15 -10z m-336 -96 c18 -17 20 -42 7
-62 -6 -10 -14 -6 -34 19 -36 47 -13 84 27 43z"/>
<path d="M7880 1481 c0 -5 7 -15 17 -22 15 -13 15 -12 4 9 -12 23 -21 28 -21
13z"/>
</g>
</svg>
