<svg xmlns="http://www.w3.org/2000/svg" xmlns:xlink="http://www.w3.org/1999/xlink" contentStyleType="text/css" data-diagram-type="DESCRIPTION" height="479px" preserveAspectRatio="none" style="width:1089px;height:479px;background:#FFFFFF;" version="1.1" viewBox="0 0 1089 479" width="1089px" zoomAndPan="magnify"><defs/><g><!--entity User--><g class="entity" data-entity="User" data-source-line="10" data-uid="ent0002" id="entity_User"><ellipse cx="820.4305" cy="151.49" fill="#34495E" rx="8" ry="8" style="stroke:#2C3E50;stroke-width:0.5;"/><path d="M820.4305,159.49 L820.4305,186.49 M807.4305,167.49 L833.4305,167.49 M820.4305,186.49 L807.4305,201.49 M820.4305,186.49 L833.4305,201.49" fill="none" style="stroke:#2C3E50;stroke-width:0.5;"/><text fill="#000000" font-family="sans-serif" font-size="14" lengthAdjust="spacing" textLength="166.9609" x="736.95" y="216.5252">Emprendedor / Operario</text></g><!--entity Admin--><g class="entity" data-entity="Admin" data-source-line="11" data-uid="ent0003" id="entity_Admin"><ellipse cx="196.4275" cy="14" fill="#34495E" rx="8" ry="8" style="stroke:#2C3E50;stroke-width:0.5;"/><path d="M196.4275,22 L196.4275,49 M183.4275,30 L209.4275,30 M196.4275,49 L183.4275,64 M196.4275,49 L209.4275,64" fill="none" style="stroke:#2C3E50;stroke-width:0.5;"/><text fill="#000000" font-family="sans-serif" font-size="14" lengthAdjust="spacing" textLength="179.375" x="106.74" y="79.0352">Administrador del Sistema</text></g><!--entity UC1--><g class="entity" data-entity="UC1" data-source-line="13" data-uid="ent0004" id="entity_UC1"><ellipse cx="448.4287" cy="447.9166" fill="#34495E" rx="98.7987" ry="26.0066" style="stroke:#2C3E50;stroke-width:0.5;"/><text fill="#FFFFFF" font-family="sans-serif" font-size="14" lengthAdjust="spacing" textLength="137.3135" x="379.772" y="444.8599">Gestionar Inventario</text><text fill="#FFFFFF" font-family="sans-serif" font-size="14" lengthAdjust="spacing" textLength="129.7188" x="383.5694" y="461.3482">(Productos y Stock)</text></g><!--entity UC2--><g class="entity" data-entity="UC2" data-source-line="14" data-uid="ent0005" id="entity_UC2"><ellipse cx="658.4288" cy="320.6978" fill="#34495E" rx="109.0888" ry="24.2178" style="stroke:#2C3E50;stroke-width:0.5;"/><text fill="#FFFFFF" font-family="sans-serif" font-size="14" lengthAdjust="spacing" textLength="169.832" x="573.5128" y="320.9674">Interactuar con Asistente</text><text fill="#FFFFFF" font-family="sans-serif" font-size="14" lengthAdjust="spacing" textLength="63.0957" x="626.881" y="337.4557">(Chatbot)</text></g><!--entity UC3--><g class="entity" data-entity="UC3" data-source-line="15" data-uid="ent0006" id="entity_UC3"><ellipse cx="820.431" cy="43.7462" fill="#34495E" rx="99.881" ry="22.3762" style="stroke:#2C3E50;stroke-width:0.5;"/><text fill="#FFFFFF" font-family="sans-serif" font-size="14" lengthAdjust="spacing" textLength="175.3486" x="732.7567" y="48.4903">Recibir Alertas Predictivas</text></g><!--entity UC4--><g class="entity" data-entity="UC4" data-source-line="16" data-uid="ent0007" id="entity_UC4"><ellipse cx="762.4305" cy="447.9161" fill="#34495E" rx="111.9305" ry="24.7861" style="stroke:#2C3E50;stroke-width:0.5;"/><text fill="#FFFFFF" font-family="sans-serif" font-size="14" lengthAdjust="spacing" textLength="201.6602" x="661.6004" y="452.6602">Generar Reportes Inteligentes</text></g><!--entity UC5--><g class="entity" data-entity="UC5" data-source-line="17" data-uid="ent0008" id="entity_UC5"><ellipse cx="978.4349" cy="320.697" fill="#34495E" rx="105.0849" ry="23.417" style="stroke:#2C3E50;stroke-width:0.5;"/><text fill="#FFFFFF" font-family="sans-serif" font-size="14" lengthAdjust="spacing" textLength="186.7852" x="885.0423" y="325.4411">Gestionar Bodegas/Tiendas</text></g><!--entity UC6--><g class="entity" data-entity="UC6" data-source-line="18" data-uid="ent0009" id="entity_UC6"><ellipse cx="121.4292" cy="181.2358" fill="#34495E" rx="115.4292" ry="25.4858" style="stroke:#2C3E50;stroke-width:0.5;"/><text fill="#FFFFFF" font-family="sans-serif" font-size="14" lengthAdjust="spacing" textLength="209.2002" x="16.8291" y="185.98">Configurar Ajustes del Sistema</text></g><!--entity UC7--><g class="entity" data-entity="UC7" data-source-line="19" data-uid="ent0010" id="entity_UC7"><ellipse cx="377.4344" cy="181.2429" fill="#34495E" rx="106.0144" ry="23.6029" style="stroke:#2C3E50;stroke-width:0.5;"/><text fill="#FFFFFF" font-family="sans-serif" font-size="14" lengthAdjust="spacing" textLength="188.8154" x="283.0267" y="185.987">Manejar Errores del Sistema</text></g><!--link User to UC2--><g class="link" data-entity-1="User" data-entity-2="UC2" data-source-line="21" data-uid="lnk11" id="link_User_UC2"><path d="M776.16,219.8 C747.12,244.44 714.6656,271.9888 689.9556,292.9488" fill="none" id="User-to-UC2" style="stroke:#7F8C8D;stroke-width:1;"/><polygon fill="#7F8C8D" points="685.38,296.83,694.8309,294.0586,689.193,293.5957,689.6559,287.9578,685.38,296.83" style="stroke:#7F8C8D;stroke-width:1;"/></g><!--link User to UC5--><g class="link" data-entity-1="User" data-entity-2="UC5" data-source-line="22" data-uid="lnk12" id="link_User_UC5"><path d="M863.6,219.8 C892.29,244.76 924.4526,272.7427 948.5426,293.6927" fill="none" id="User-to-UC5" style="stroke:#7F8C8D;stroke-width:1;"/><polygon fill="#7F8C8D" points="953.07,297.63,948.9037,288.7058,949.2971,294.3489,943.654,294.7423,953.07,297.63" style="stroke:#7F8C8D;stroke-width:1;"/></g><!--link User to UC4--><g class="link" data-entity-1="User" data-entity-2="UC4" data-source-line="23" data-uid="lnk13" id="link_User_UC4"><path d="M812.47,219.74 C805.44,252.72 794.88,302.03 785.43,344.92 C779.53,371.69 773.921,396.5195 769.221,417.1795" fill="none" id="User-to-UC4" style="stroke:#7F8C8D;stroke-width:1;"/><polygon fill="#7F8C8D" points="767.89,423.03,773.7868,415.1415,768.9991,418.1546,765.9861,413.3669,767.89,423.03" style="stroke:#7F8C8D;stroke-width:1;"/></g><!--link UC3 to User--><g class="link" data-entity-1="UC3" data-entity-2="User" data-source-line="24" data-uid="lnk14" id="link_UC3_User"><path d="M820.43,66.52 C820.43,87.01 820.43,112.14 820.43,136.65" fill="none" id="UC3-to-User" style="stroke:#7F8C8D;stroke-width:1;"/><polygon fill="#7F8C8D" points="820.43,142.65,824.43,133.65,820.43,137.65,816.43,133.65,820.43,142.65" style="stroke:#7F8C8D;stroke-width:1;"/></g><!--link Admin to UC6--><g class="link" data-entity-1="Admin" data-entity-2="UC6" data-source-line="26" data-uid="lnk15" id="link_Admin_UC6"><path d="M175.54,82.49 C162.62,105.82 149.3153,129.8603 138.0253,150.2603" fill="none" id="Admin-to-UC6" style="stroke:#7F8C8D;stroke-width:1;"/><polygon fill="#7F8C8D" points="135.12,155.51,142.9778,149.5724,137.5411,151.1353,135.9782,145.6986,135.12,155.51" style="stroke:#7F8C8D;stroke-width:1;"/></g><!--link Admin to UC7--><g class="link" data-entity-1="Admin" data-entity-2="UC7" data-source-line="27" data-uid="lnk16" id="link_Admin_UC7"><path d="M246.85,82.49 C279.38,106.84 315.7668,134.0742 343.0968,154.5342" fill="none" id="Admin-to-UC7" style="stroke:#7F8C8D;stroke-width:1;"/><polygon fill="#7F8C8D" points="347.9,158.13,343.0924,149.5342,343.8974,155.1335,338.2981,155.9384,347.9,158.13" style="stroke:#7F8C8D;stroke-width:1;"/></g><!--link UC2 to UC1--><g class="link" data-entity-1="UC2" data-entity-2="UC1" data-source-line="29" data-uid="lnk17" id="link_UC2_UC1"><path d="M621.37,343.8 C583.69,366.27 530.7032,397.8569 492.4032,420.6969" fill="none" id="UC2-to-UC1" style="stroke:#7F8C8D;stroke-width:1;stroke-dasharray:7,7;"/><polygon fill="#7F8C8D" points="487.25,423.77,497.0286,422.5958,491.5444,421.2091,492.9311,415.7248,487.25,423.77" style="stroke:#7F8C8D;stroke-width:1;"/><text fill="#2C3E50" font-family="sans-serif" font-size="13" lengthAdjust="spacing" textLength="44.3447" x="567" y="388.4884">incluye</text></g><!--link UC2 to UC4--><g class="link" data-entity-1="UC2" data-entity-2="UC4" data-source-line="30" data-uid="lnk18" id="link_UC2_UC4"><path d="M677.75,344.96 C696.31,367.31 720.3872,396.2938 739.0272,418.7438" fill="none" id="UC2-to-UC4" style="stroke:#7F8C8D;stroke-width:1;stroke-dasharray:7,7;"/><polygon fill="#7F8C8D" points="742.86,423.36,740.1883,413.8804,739.666,419.5131,734.0333,418.9909,742.86,423.36" style="stroke:#7F8C8D;stroke-width:1;"/><text fill="#2C3E50" font-family="sans-serif" font-size="13" lengthAdjust="spacing" textLength="44.3447" x="717.66" y="388.4884">incluye</text></g><!--link UC7 to UC1--><g class="link" data-entity-1="UC7" data-entity-2="UC1" data-source-line="31" data-uid="lnk19" id="link_UC7_UC1"><path d="M364.2,204.89 C347.22,237.1 322.24,297.47 342.43,344.92 C356.43,377.82 381.9831,401.6898 406.6431,419.7898" fill="none" id="UC7-to-UC1" style="stroke:#7F8C8D;stroke-width:1;stroke-dasharray:7,7;"/><polygon fill="#7F8C8D" points="411.48,423.34,406.5914,414.79,407.4492,420.3815,401.8578,421.2393,411.48,423.34" style="stroke:#7F8C8D;stroke-width:1;"/><text fill="#2C3E50" font-family="sans-serif" font-size="13" lengthAdjust="spacing" textLength="187.5796" x="343.43" y="325.7684">extiende &#171;manejo de errores&#187;</text></g><!--link UC7 to UC2--><g class="link" data-entity-1="UC7" data-entity-2="UC2" data-source-line="32" data-uid="lnk20" id="link_UC7_UC2"><path d="M412.82,203.79 C442.8,221.63 487.2,247.11 527.43,266.48 C552.09,278.36 574.535,287.7873 598.325,297.1273" fill="none" id="UC7-to-UC2" style="stroke:#7F8C8D;stroke-width:1;stroke-dasharray:7,7;"/><polygon fill="#7F8C8D" points="603.91,299.32,596.9943,292.3077,599.2558,297.4928,594.0707,299.7543,603.91,299.32" style="stroke:#7F8C8D;stroke-width:1;"/><text fill="#2C3E50" font-family="sans-serif" font-size="13" lengthAdjust="spacing" textLength="187.5796" x="528.43" y="263.0484">extiende &#171;manejo de errores&#187;</text></g><!--SRC=[XP71JW8n48Rl-nGJlEW1L5X4ZI713HeFHg9oyrBQOQtiTiYqg_BsjiiY5OdsrEbyC__y7RlGPYbOb30JSf4pLKPbL133mRm-YVqcX7J4rxjOBqql-lWB8rR83TALFUoVx28tP5m3dDGd0YgBKbZyNsm3_YdNG97WRs_CzD4a1_DpUQvsar5r8r2xWDQuN38QXSe7n_2mH1QigGN2mjGYRx2HAhNHrh48eC82ddo4fQZ9EfiapQJGkaNhD1d1S6VUqRZGyiKSJfXKvVjPMC6J8xauMkjafzlIE-Fy2D9LlbYIWP4DElxHrsUlmit8RQgwswf7b7gc6KO5ilF92QFIqkbtOHku5qzdWajun2MnGmj1iz1vKDdWwJuprwGm5_RuMViV- -xStw8PcRdEgz1yz5RPq7ltgwRPsPQ_5mRVF3psA-Azy219mXgWtHxMZgEW7mTfuYskxs5hIRsH9dVs8meTiovqEY4uXKlGHXRL2gFNzCVh86BnqmNl25TNPPYT_CY0w-c7mmZk_Wj_0G00]--></g></svg>