<svg xmlns="http://www.w3.org/2000/svg" xmlns:xlink="http://www.w3.org/1999/xlink" contentStyleType="text/css" data-diagram-type="DESCRIPTION" height="785px" preserveAspectRatio="none" style="width:963px;height:785px;background:#FFFFFF;" version="1.1" viewBox="0 0 963 785" width="963px" zoomAndPan="magnify"><defs/><g><!--entity IUI--><g class="entity" data-entity="IUI" data-source-line="13" data-uid="ent0002" id="entity_IUI"><ellipse cx="326.49" cy="158.97" fill="#3498DB" rx="8" ry="8" style="stroke:#2980B9;stroke-width:0.5;"/><text fill="#FFFFFF" font-family="sans-serif" font-size="14" lengthAdjust="spacing" textLength="108.0557" x="272.4622" y="189.5052">IInterfazUsuario</text></g><!--entity ICS--><g class="entity" data-entity="ICS" data-source-line="14" data-uid="ent0003" id="entity_ICS"><ellipse cx="161.49" cy="385.95" fill="#3498DB" rx="8" ry="8" style="stroke:#2980B9;stroke-width:0.5;"/><text fill="#FFFFFF" font-family="sans-serif" font-size="14" lengthAdjust="spacing" textLength="110.2021" x="106.3889" y="416.4852">IServicioChatbot</text></g><!--entity IBL--><g class="entity" data-entity="IBL" data-source-line="15" data-uid="ent0004" id="entity_IBL"><ellipse cx="531.49" cy="508.93" fill="#3498DB" rx="8" ry="8" style="stroke:#2980B9;stroke-width:0.5;"/><text fill="#FFFFFF" font-family="sans-serif" font-size="14" lengthAdjust="spacing" textLength="103.0654" x="479.9573" y="539.4652">ILogicaNegocio</text></g><!--entity IAIS--><g class="entity" data-entity="IAIS" data-source-line="16" data-uid="ent0005" id="entity_IAIS"><ellipse cx="222.49" cy="631.9" fill="#3498DB" rx="8" ry="8" style="stroke:#2980B9;stroke-width:0.5;"/><text fill="#FFFFFF" font-family="sans-serif" font-size="14" lengthAdjust="spacing" textLength="69.9043" x="187.5379" y="662.4352">IServicioIA</text></g><!--entity IDA--><g class="entity" data-entity="IDA" data-source-line="17" data-uid="ent0006" id="entity_IDA"><ellipse cx="685.49" cy="631.9" fill="#3498DB" rx="8" ry="8" style="stroke:#2980B9;stroke-width:0.5;"/><text fill="#FFFFFF" font-family="sans-serif" font-size="14" lengthAdjust="spacing" textLength="90.7607" x="640.1096" y="662.4352">IAccesoDatos</text></g><!--entity UI--><g class="entity" data-entity="UI" data-source-line="19" data-uid="ent0007" id="entity_UI"><rect fill="#34495E" height="62.9766" rx="2.5" ry="2.5" style="stroke:#2C3E50;stroke-width:0.5;" width="169.4932" x="298.75" y="7"/><rect fill="#34495E" height="10" style="stroke:#2C3E50;stroke-width:0.5;" width="15" x="448.2432" y="12"/><rect fill="#34495E" height="2" style="stroke:#2C3E50;stroke-width:0.5;" width="4" x="446.2432" y="14"/><rect fill="#34495E" height="2" style="stroke:#2C3E50;stroke-width:0.5;" width="4" x="446.2432" y="18"/><text fill="#FFFFFF" font-family="sans-serif" font-size="14" lengthAdjust="spacing" textLength="129.4932" x="313.75" y="40.5352">Interfaz de Usuario</text><text fill="#FFFFFF" font-family="sans-serif" font-size="14" lengthAdjust="spacing" textLength="71.9277" x="313.75" y="57.0234">Web/M&#243;vil</text></g><!--entity CM--><g class="entity" data-entity="CM" data-source-line="20" data-uid="ent0008" id="entity_CM"><rect fill="#34495E" height="46.4883" rx="2.5" ry="2.5" style="stroke:#2C3E50;stroke-width:0.5;" width="170.2656" x="222.36" y="247.97"/><rect fill="#34495E" height="10" style="stroke:#2C3E50;stroke-width:0.5;" width="15" x="372.6256" y="252.97"/><rect fill="#34495E" height="2" style="stroke:#2C3E50;stroke-width:0.5;" width="4" x="370.6256" y="254.97"/><rect fill="#34495E" height="2" style="stroke:#2C3E50;stroke-width:0.5;" width="4" x="370.6256" y="258.97"/><text fill="#FFFFFF" font-family="sans-serif" font-size="14" lengthAdjust="spacing" textLength="130.2656" x="237.36" y="281.5052">M&#243;dulo de Chatbot</text></g><!--entity BL--><g class="entity" data-entity="BL" data-source-line="21" data-uid="ent0009" id="entity_BL"><rect fill="#34495E" height="62.9766" rx="2.5" ry="2.5" style="stroke:#2C3E50;stroke-width:0.5;" width="292.2461" x="330.37" y="354.46"/><rect fill="#34495E" height="10" style="stroke:#2C3E50;stroke-width:0.5;" width="15" x="602.6161" y="359.46"/><rect fill="#34495E" height="2" style="stroke:#2C3E50;stroke-width:0.5;" width="4" x="600.6161" y="361.46"/><rect fill="#34495E" height="2" style="stroke:#2C3E50;stroke-width:0.5;" width="4" x="600.6161" y="365.46"/><text fill="#FFFFFF" font-family="sans-serif" font-size="14" lengthAdjust="spacing" textLength="124.5029" x="345.37" y="387.9952">L&#243;gica de Negocio</text><text fill="#FFFFFF" font-family="sans-serif" font-size="14" lengthAdjust="spacing" textLength="252.2461" x="345.37" y="404.4834">GestorInventario, GeneradorReportes</text></g><!--entity AIS--><g class="entity" data-entity="AIS" data-source-line="22" data-uid="ent0010" id="entity_AIS"><rect fill="#34495E" height="62.9766" rx="2.5" ry="2.5" style="stroke:#2C3E50;stroke-width:0.5;" width="430.9883" x="7" y="477.44"/><rect fill="#34495E" height="10" style="stroke:#2C3E50;stroke-width:0.5;" width="15" x="417.9883" y="482.44"/><rect fill="#34495E" height="2" style="stroke:#2C3E50;stroke-width:0.5;" width="4" x="415.9883" y="484.44"/><rect fill="#34495E" height="2" style="stroke:#2C3E50;stroke-width:0.5;" width="4" x="415.9883" y="488.44"/><text fill="#FFFFFF" font-family="sans-serif" font-size="14" lengthAdjust="spacing" textLength="98.4785" x="22" y="510.9752">Servicios de IA</text><text fill="#FFFFFF" font-family="sans-serif" font-size="14" lengthAdjust="spacing" textLength="390.9883" x="22" y="527.4634">IAChatbot (LLMs Externos), ServicioPrediccion (ML Propio)</text></g><!--entity DA--><g class="entity" data-entity="DA" data-source-line="23" data-uid="ent0011" id="entity_DA"><rect fill="#34495E" height="62.9766" rx="2.5" ry="2.5" style="stroke:#2C3E50;stroke-width:0.5;" width="332.1475" x="625.42" y="477.44"/><rect fill="#34495E" height="10" style="stroke:#2C3E50;stroke-width:0.5;" width="15" x="937.5675" y="482.44"/><rect fill="#34495E" height="2" style="stroke:#2C3E50;stroke-width:0.5;" width="4" x="935.5675" y="484.44"/><rect fill="#34495E" height="2" style="stroke:#2C3E50;stroke-width:0.5;" width="4" x="935.5675" y="488.44"/><text fill="#FFFFFF" font-family="sans-serif" font-size="14" lengthAdjust="spacing" textLength="103.3184" x="640.42" y="510.9752">Acceso a Datos</text><text fill="#FFFFFF" font-family="sans-serif" font-size="14" lengthAdjust="spacing" textLength="292.1475" x="640.42" y="527.4634">RepositorioProducto, RepositorioInventario</text></g><!--entity AIM--><g class="entity" data-entity="AIM" data-source-line="24" data-uid="ent0012" id="entity_AIM"><rect fill="#34495E" height="62.9766" rx="2.5" ry="2.5" style="stroke:#2C3E50;stroke-width:0.5;" width="283.8379" x="306.58" y="600.42"/><rect fill="#34495E" height="10" style="stroke:#2C3E50;stroke-width:0.5;" width="15" x="570.4179" y="605.42"/><rect fill="#34495E" height="2" style="stroke:#2C3E50;stroke-width:0.5;" width="4" x="568.4179" y="607.42"/><rect fill="#34495E" height="2" style="stroke:#2C3E50;stroke-width:0.5;" width="4" x="568.4179" y="611.42"/><text fill="#FFFFFF" font-family="sans-serif" font-size="14" lengthAdjust="spacing" textLength="123.0811" x="321.58" y="633.9552">Modelos de IA/ML</text><text fill="#FFFFFF" font-family="sans-serif" font-size="14" lengthAdjust="spacing" textLength="243.8379" x="321.58" y="650.4434">PredictorStock, AnalizadorDemanda</text></g><!--entity DB--><g class="entity" data-entity="DB" data-source-line="25" data-uid="ent0013" id="entity_DB"><path d="M521.16,733.39 C521.16,723.39 619.4906,723.39 619.4906,723.39 C619.4906,723.39 717.8211,723.39 717.8211,733.39 L717.8211,758.8783 C717.8211,768.8783 619.4906,768.8783 619.4906,768.8783 C619.4906,768.8783 521.16,768.8783 521.16,758.8783 L521.16,733.39" fill="#E74C3C" style="stroke:#C0392B;stroke-width:0.5;"/><path d="M521.16,733.39 C521.16,743.39 619.4906,743.39 619.4906,743.39 C619.4906,743.39 717.8211,743.39 717.8211,733.39" fill="none" style="stroke:#C0392B;stroke-width:0.5;"/><text fill="#FFFFFF" font-family="sans-serif" font-size="14" lengthAdjust="spacing" textLength="176.6611" x="531.16" y="760.9252">Base de Datos PostgreSQL</text></g><!--link UI to IUI--><g class="link" data-entity-1="UI" data-entity-2="IUI" data-source-line="27" data-uid="lnk14" id="link_UI_IUI"><path d="M368.67,70.31 C355.74,97.19 340.48,128.8926 332.83,144.8026" fill="none" id="UI-to-IUI" style="stroke:#7F8C8D;stroke-width:1;stroke-dasharray:7,7;"/><polygon fill="#7F8C8D" points="330.23,150.21,337.735,143.8323,332.3967,145.7038,330.5251,140.3656,330.23,150.21" style="stroke:#7F8C8D;stroke-width:1;"/></g><!--link CM to ICS--><g class="link" data-entity-1="CM" data-entity-2="ICS" data-source-line="28" data-uid="lnk15" id="link_CM_ICS"><path d="M278.3,294.76 C244.68,320.72 196.139,358.203 175.159,374.403" fill="none" id="CM-to-ICS" style="stroke:#7F8C8D;stroke-width:1;stroke-dasharray:7,7;"/><polygon fill="#7F8C8D" points="170.41,378.07,179.9782,375.7355,174.3675,375.0142,175.0888,369.4035,170.41,378.07" style="stroke:#7F8C8D;stroke-width:1;"/></g><!--link BL to IBL--><g class="link" data-entity-1="BL" data-entity-2="IBL" data-source-line="29" data-uid="lnk16" id="link_BL_IBL"><path d="M490.52,417.79 C503.12,445.51 518.2562,478.8083 525.5962,494.9483" fill="none" id="BL-to-IBL" style="stroke:#7F8C8D;stroke-width:1;stroke-dasharray:7,7;"/><polygon fill="#7F8C8D" points="528.08,500.41,527.9954,490.5615,526.0101,495.8586,520.7131,493.8733,528.08,500.41" style="stroke:#7F8C8D;stroke-width:1;"/></g><!--link AIS to IAIS--><g class="link" data-entity-1="AIS" data-entity-2="IAIS" data-source-line="30" data-uid="lnk17" id="link_AIS_IAIS"><path d="M222.49,540.77 C222.49,568.49 222.49,601.25 222.49,617.39" fill="none" id="AIS-to-IAIS" style="stroke:#7F8C8D;stroke-width:1;stroke-dasharray:7,7;"/><polygon fill="#7F8C8D" points="222.49,623.39,226.49,614.39,222.49,618.39,218.49,614.39,222.49,623.39" style="stroke:#7F8C8D;stroke-width:1;"/></g><!--link DA to IDA--><g class="link" data-entity-1="DA" data-entity-2="IDA" data-source-line="31" data-uid="lnk18" id="link_DA_IDA"><path d="M764.47,540.77 C740.18,568.49 710.1738,602.737 696.0338,618.877" fill="none" id="DA-to-IDA" style="stroke:#7F8C8D;stroke-width:1;stroke-dasharray:7,7;"/><polygon fill="#7F8C8D" points="692.08,623.39,701.0194,619.2563,695.3748,619.6291,695.002,613.9846,692.08,623.39" style="stroke:#7F8C8D;stroke-width:1;"/></g><!--link IUI to CM--><g class="link" data-entity-1="IUI" data-entity-2="CM" data-source-line="33" data-uid="lnk19" id="link_IUI_CM"><path d="M325.13,167.9 C322.29,184.39 316.6685,216.9971 312.3985,241.7871" fill="none" id="IUI-to-CM" style="stroke:#7F8C8D;stroke-width:1;"/><polygon fill="#7F8C8D" points="311.38,247.7,316.8497,239.5096,312.2287,242.7726,308.9658,238.1516,311.38,247.7" style="stroke:#7F8C8D;stroke-width:1;"/></g><!--link UI to BL--><g class="link" data-entity-1="UI" data-entity-2="BL" data-source-line="34" data-uid="lnk20" id="link_UI_BL"><path d="M391.83,70.45 C409.53,136.2 449.1199,283.2764 466.7199,348.6364" fill="none" id="UI-to-BL" style="stroke:#7F8C8D;stroke-width:1;"/><polygon fill="#7F8C8D" points="468.28,354.43,469.8023,344.6995,466.9799,349.602,462.0774,346.7796,468.28,354.43" style="stroke:#7F8C8D;stroke-width:1;"/></g><!--link CM to BL--><g class="link" data-entity-1="CM" data-entity-2="BL" data-source-line="35" data-uid="lnk21" id="link_CM_BL"><path d="M341.29,294.76 C366.81,311.79 397.1485,332.0206 425.2885,350.7906" fill="none" id="CM-to-BL" style="stroke:#7F8C8D;stroke-width:1;"/><polygon fill="#7F8C8D" points="430.28,354.12,425.0124,345.7982,426.1204,351.3455,420.5732,352.4535,430.28,354.12" style="stroke:#7F8C8D;stroke-width:1;"/></g><!--link CM to AIS--><g class="link" data-entity-1="CM" data-entity-2="AIS" data-source-line="36" data-uid="lnk22" id="link_CM_AIS"><path d="M299.34,294.82 C284.01,337.34 252.8954,423.6158 235.5754,471.6458" fill="none" id="CM-to-AIS" style="stroke:#7F8C8D;stroke-width:1;"/><polygon fill="#7F8C8D" points="233.54,477.29,240.3559,470.1806,235.2361,472.5865,232.8302,467.4668,233.54,477.29" style="stroke:#7F8C8D;stroke-width:1;"/></g><!--link BL to DA--><g class="link" data-entity-1="BL" data-entity-2="DA" data-source-line="37" data-uid="lnk23" id="link_BL_DA"><path d="M556.8,417.79 C604.1,435.96 658.1391,456.7082 705.4591,474.8882" fill="none" id="BL-to-DA" style="stroke:#7F8C8D;stroke-width:1;"/><polygon fill="#7F8C8D" points="711.06,477.04,704.0932,470.0784,706.3926,475.2468,701.2242,477.5462,711.06,477.04" style="stroke:#7F8C8D;stroke-width:1;"/></g><!--link BL to AIS--><g class="link" data-entity-1="BL" data-entity-2="AIS" data-source-line="38" data-uid="lnk24" id="link_BL_AIS"><path d="M411.74,417.79 C373.53,435.99 330.7369,456.3699 292.5469,474.5599" fill="none" id="BL-to-AIS" style="stroke:#7F8C8D;stroke-width:1;"/><polygon fill="#7F8C8D" points="287.13,477.14,296.9755,476.8811,291.6441,474.9899,293.5353,469.6586,287.13,477.14" style="stroke:#7F8C8D;stroke-width:1;"/></g><!--link AIS to AIM--><g class="link" data-entity-1="AIS" data-entity-2="AIM" data-source-line="39" data-uid="lnk25" id="link_AIS_AIM"><path d="M280.11,540.77 C314.11,558.97 351.7099,579.099 385.6999,597.289" fill="none" id="AIS-to-AIM" style="stroke:#7F8C8D;stroke-width:1;"/><polygon fill="#7F8C8D" points="390.99,600.12,384.9422,592.3467,386.5816,597.7608,381.1675,599.4002,390.99,600.12" style="stroke:#7F8C8D;stroke-width:1;"/></g><!--link DA to DB--><g class="link" data-entity-1="DA" data-entity-2="DB" data-source-line="40" data-uid="lnk26" id="link_DA_DB"><path d="M791.41,540.79 C789.84,574.03 782.92,627.03 756.49,663.39 C737.03,690.16 711.2996,707.1546 683.6196,720.4346" fill="none" id="DA-to-DB" style="stroke:#7F8C8D;stroke-width:1;"/><polygon fill="#7F8C8D" points="678.21,723.03,688.0547,722.7434,682.718,720.8672,684.5942,715.5305,678.21,723.03" style="stroke:#7F8C8D;stroke-width:1;"/></g><!--link AIM to DB--><g class="link" data-entity-1="AIM" data-entity-2="DB" data-source-line="41" data-uid="lnk27" id="link_AIM_DB"><path d="M495.67,663.87 C524.24,682.62 554.9944,702.797 580.7344,719.697" fill="none" id="AIM-to-DB" style="stroke:#7F8C8D;stroke-width:1;"/><polygon fill="#7F8C8D" points="585.75,722.99,580.422,714.7067,581.5704,720.2458,576.0313,721.3941,585.75,722.99" style="stroke:#7F8C8D;stroke-width:1;"/></g><!--SRC=[VLBHRjem57tFLrZifPLeYmfLuQLI0biLAPdO4Df3iWV7lZ2Bu8jimwR-LZ-XFrOxTZhIPUK1dVYUUywvljOx8GzKqJsfADjj5HubdsEDYdpQDBz8lp4OxWyeGPhaFNKycSpke9UAYeCAj5isXhjH7-qBIlC_Mo4Dg0rbq6Cxc_AgbzgndKr7rQoFzf4jfuPMLF_h2lSJDcPzp7DJDXhFRgiUraUUL2dy7OhtcocRylV5i-vmcs_3a46QUloqraUg10u8rIHTfntE2jH9C87pNzHKQ3ndlkfmCjmAHh_25bchacIzAcdiot7QLOWP0uqBQb1xmYAEegBDHpYGaB6KFw2woL-UJwB-wPWsRc4_-R56Hmincz8yZuhivTbbSwMGhvIFe0sgL9xiItAQG_884XJbgBx30PK1tVJR6Oesk7OAQLpAD0uMv2BBSaq-_x4P9UhB8McvImLSC0iakSWpibHu47ZPIBgv2pyieQIPjvJEL0iRoRKYFp9Z8vqT_atQQDYhANBaKBUXRlAibDxKybS6sMv8OabhyUHcMi2UIaw3VnwrBuiC4lTl9PeSP8dQR1MilcND2XP95ArJSdtzqBo9UUwXNNsIUMZlnyxZiHji4NliTcTRoDNLWzj1G9PjDRh8TLar1srJGExGwNgSEzc6aDZJFC1N]--></g></svg>