<svg xmlns="http://www.w3.org/2000/svg" xmlns:xlink="http://www.w3.org/1999/xlink" contentStyleType="text/css" data-diagram-type="DESCRIPTION" height="491px" preserveAspectRatio="none" style="width:1629px;height:491px;background:#FFFFFF;" version="1.1" viewBox="0 0 1629 491" width="1629px" zoomAndPan="magnify"><title>Mockups de UI/UX - SIGA</title><defs/><g><g class="title" data-source-line="11"><text fill="#000000" font-family="sans-serif" font-size="14" font-weight="bold" lengthAdjust="spacing" textLength="185.124" x="714.9947" y="23.5352">Mockups de UI/UX - SIGA</text></g><!--entity MD--><g class="entity" data-entity="MD" data-source-line="13" data-uid="ent0002" id="entity_MD"><rect fill="#34495E" height="46.4883" rx="2.5" ry="2.5" style="stroke:#2C3E50;stroke-width:0.5;" width="176.165" x="537.87" y="113.1383"/><rect fill="#34495E" height="10" style="stroke:#2C3E50;stroke-width:0.5;" width="15" x="694.035" y="118.1383"/><rect fill="#34495E" height="2" style="stroke:#2C3E50;stroke-width:0.5;" width="4" x="692.035" y="120.1383"/><rect fill="#34495E" height="2" style="stroke:#2C3E50;stroke-width:0.5;" width="4" x="692.035" y="124.1383"/><text fill="#FFFFFF" font-family="sans-serif" font-size="14" lengthAdjust="spacing" textLength="136.165" x="552.87" y="146.6734">Dashboard Principal</text></g><g class="entity" data-entity="GMN3" data-source-line="15" data-uid="ent0004" id="entity_GMN3"><path d="M748.58,43.4883 L748.58,132.3883 L714.28,136.3883 L748.58,140.3883 L748.58,229.2832 A0,0 0 0 0 748.58,229.2832 L1043.3114,229.2832 A0,0 0 0 0 1043.3114,229.2832 L1043.3114,53.4883 L1033.3114,43.4883 L748.58,43.4883 A0,0 0 0 0 748.58,43.4883" fill="#ECF0F1" style="stroke:#BDC3C7;stroke-width:0.5;"/><path d="M1033.3114,43.4883 L1033.3114,53.4883 L1043.3114,53.4883 L1033.3114,43.4883" fill="#ECF0F1" style="stroke:#BDC3C7;stroke-width:0.5;"/><text fill="#2C3E50" font-family="sans-serif" font-size="13" lengthAdjust="spacing" textLength="126.439" x="754.58" y="61.0566">Dashboard Principal</text><text fill="#2C3E50" font-family="sans-serif" font-size="13" lengthAdjust="spacing" textLength="267.7314" x="754.58" y="86.3672">Encabezado: Logo, Usuario, Notificaciones</text><line style="stroke:#BDC3C7;stroke-width:1;" x1="749.58" x2="890.9457" y1="68.7988" y2="68.7988"/><line style="stroke:#BDC3C7;stroke-width:1;" x1="749.58" x2="890.9457" y1="70.7988" y2="70.7988"/><line style="stroke:#BDC3C7;stroke-width:1;" x1="890.9457" x2="900.9457" y1="68.2988" y2="68.2988"/><line style="stroke:#BDC3C7;stroke-width:1;" x1="890.9457" x2="900.9457" y1="70.2988" y2="70.2988"/><line style="stroke:#BDC3C7;stroke-width:1;" x1="900.9457" x2="1042.3114" y1="68.7988" y2="68.7988"/><line style="stroke:#BDC3C7;stroke-width:1;" x1="900.9457" x2="1042.3114" y1="70.7988" y2="70.7988"/><line style="stroke:#BDC3C7;stroke-width:1;" x1="749.58" x2="1042.3114" y1="93.1094" y2="93.1094"/><text fill="#2C3E50" font-family="sans-serif" font-size="13" lengthAdjust="spacing" textLength="161.9287" x="754.58" y="109.6777">Tarjeta Resumen Mensual</text><text fill="#2C3E50" font-family="sans-serif" font-size="13" lengthAdjust="spacing" textLength="115.7749" x="754.58" y="124.9883">- Ventas: $15,000</text><text fill="#2C3E50" font-family="sans-serif" font-size="13" lengthAdjust="spacing" textLength="128.9971" x="754.58" y="140.2988">- Productos bajos: 3</text><line style="stroke:#BDC3C7;stroke-width:1;" x1="749.58" x2="1042.3114" y1="147.041" y2="147.041"/><text fill="#2C3E50" font-family="sans-serif" font-size="13" lengthAdjust="spacing" textLength="92.0283" x="754.58" y="163.6094">Tarjeta Alertas</text><text fill="#2C3E50" font-family="sans-serif" font-size="13" lengthAdjust="spacing" textLength="149.3921" x="754.58" y="178.9199">- Producto X bajo stock</text><text fill="#2C3E50" font-family="sans-serif" font-size="13" lengthAdjust="spacing" textLength="121.1323" x="754.58" y="194.2305">- Pedido pendiente</text><line style="stroke:#BDC3C7;stroke-width:1;" x1="749.58" x2="1042.3114" y1="200.9727" y2="200.9727"/><text fill="#2C3E50" font-family="sans-serif" font-size="13" lengthAdjust="spacing" textLength="264.9893" x="754.58" y="217.541">Navegaci&#243;n: Inventario, Pedidos, Reportes</text></g><!--entity CI--><g class="entity" data-entity="CI" data-source-line="30" data-uid="ent0006" id="entity_CI"><rect fill="#34495E" height="46.4883" rx="2.5" ry="2.5" style="stroke:#2C3E50;stroke-width:0.5;" width="175.8984" x="7" y="371.9383"/><rect fill="#34495E" height="10" style="stroke:#2C3E50;stroke-width:0.5;" width="15" x="162.8984" y="376.9383"/><rect fill="#34495E" height="2" style="stroke:#2C3E50;stroke-width:0.5;" width="4" x="160.8984" y="378.9383"/><rect fill="#34495E" height="2" style="stroke:#2C3E50;stroke-width:0.5;" width="4" x="160.8984" y="382.9383"/><text fill="#FFFFFF" font-family="sans-serif" font-size="14" lengthAdjust="spacing" textLength="135.8984" x="22" y="405.4734">Interfaz del Chatbot</text></g><g class="entity" data-entity="GMN7" data-source-line="32" data-uid="ent0008" id="entity_GMN7"><path d="M218.07,306.2883 L218.07,391.1783 L183.3,395.1783 L218.07,399.1783 L218.07,484.0832 A0,0 0 0 0 218.07,484.0832 L497.8322,484.0832 A0,0 0 0 0 497.8322,484.0832 L497.8322,316.2883 L487.8322,306.2883 L218.07,306.2883 A0,0 0 0 0 218.07,306.2883" fill="#ECF0F1" style="stroke:#BDC3C7;stroke-width:0.5;"/><path d="M487.8322,306.2883 L487.8322,316.2883 L497.8322,316.2883 L487.8322,306.2883" fill="#ECF0F1" style="stroke:#BDC3C7;stroke-width:0.5;"/><text fill="#2C3E50" font-family="sans-serif" font-size="13" lengthAdjust="spacing" textLength="126.1914" x="224.07" y="323.8566">Interfaz del Chatbot</text><text fill="#2C3E50" font-family="sans-serif" font-size="13" lengthAdjust="spacing" textLength="166.7593" x="224.07" y="349.1672">Encabezado: Chatbot SIGA</text><line style="stroke:#BDC3C7;stroke-width:1;" x1="219.07" x2="352.9511" y1="331.5988" y2="331.5988"/><line style="stroke:#BDC3C7;stroke-width:1;" x1="219.07" x2="352.9511" y1="333.5988" y2="333.5988"/><line style="stroke:#BDC3C7;stroke-width:1;" x1="352.9511" x2="362.9511" y1="331.0988" y2="331.0988"/><line style="stroke:#BDC3C7;stroke-width:1;" x1="352.9511" x2="362.9511" y1="333.0988" y2="333.0988"/><line style="stroke:#BDC3C7;stroke-width:1;" x1="362.9511" x2="496.8322" y1="331.5988" y2="331.5988"/><line style="stroke:#BDC3C7;stroke-width:1;" x1="362.9511" x2="496.8322" y1="333.5988" y2="333.5988"/><line style="stroke:#BDC3C7;stroke-width:1;" x1="219.07" x2="496.8322" y1="355.9094" y2="355.9094"/><text fill="#2C3E50" font-family="sans-serif" font-size="13" lengthAdjust="spacing" textLength="62.2515" x="224.07" y="372.4777">Mensajes:</text><text fill="#2C3E50" font-family="sans-serif" font-size="13" lengthAdjust="spacing" textLength="154.6553" x="224.07" y="387.7883">&#129302; Hola, &#191;qu&#233; necesitas?</text><text fill="#2C3E50" font-family="sans-serif" font-size="13" lengthAdjust="spacing" textLength="209.7021" x="224.07" y="403.0988">&#128100; Actualizar stock de manzanas</text><text fill="#2C3E50" font-family="sans-serif" font-size="13" lengthAdjust="spacing" textLength="144.48" x="224.07" y="418.4094">&#129302; &#191;Cu&#225;ntas unidades?</text><text fill="#2C3E50" font-family="sans-serif" font-size="13" lengthAdjust="spacing" textLength="98.9736" x="224.07" y="433.7199">&#128100; 50 unidades</text><text fill="#2C3E50" font-family="sans-serif" font-size="13" lengthAdjust="spacing" textLength="174.498" x="224.07" y="449.0305">&#129302; &#161;Actualizado! Stock: 150</text><line style="stroke:#BDC3C7;stroke-width:1;" x1="219.07" x2="496.8322" y1="455.7727" y2="455.7727"/><text fill="#2C3E50" font-family="sans-serif" font-size="13" lengthAdjust="spacing" textLength="258.7622" x="224.07" y="472.341">Entrada: [Mensaje...] [Enviar] [Comandos]</text></g><!--entity IS--><g class="entity" data-entity="IS" data-source-line="46" data-uid="ent0010" id="entity_IS"><rect fill="#34495E" height="46.4883" rx="2.5" ry="2.5" style="stroke:#2C3E50;stroke-width:0.5;" width="186.2207" x="532.84" y="371.9383"/><rect fill="#34495E" height="10" style="stroke:#2C3E50;stroke-width:0.5;" width="15" x="699.0607" y="376.9383"/><rect fill="#34495E" height="2" style="stroke:#2C3E50;stroke-width:0.5;" width="4" x="697.0607" y="378.9383"/><rect fill="#34495E" height="2" style="stroke:#2C3E50;stroke-width:0.5;" width="4" x="697.0607" y="382.9383"/><text fill="#FFFFFF" font-family="sans-serif" font-size="14" lengthAdjust="spacing" textLength="146.2207" x="547.84" y="405.4734">Pantalla de Inventario</text></g><g class="entity" data-entity="GMN11" data-source-line="48" data-uid="ent0012" id="entity_GMN11"><path d="M753.75,321.5983 L753.75,391.1783 L719.45,395.1783 L753.75,399.1783 L753.75,468.7721 A0,0 0 0 0 753.75,468.7721 L1010.1465,468.7721 A0,0 0 0 0 1010.1465,468.7721 L1010.1465,331.5983 L1000.1465,321.5983 L753.75,321.5983 A0,0 0 0 0 753.75,321.5983" fill="#ECF0F1" style="stroke:#BDC3C7;stroke-width:0.5;"/><path d="M1000.1465,321.5983 L1000.1465,331.5983 L1010.1465,331.5983 L1000.1465,321.5983" fill="#ECF0F1" style="stroke:#BDC3C7;stroke-width:0.5;"/><text fill="#2C3E50" font-family="sans-serif" font-size="13" lengthAdjust="spacing" textLength="135.7764" x="759.75" y="339.1666">Pantalla de Inventario</text><text fill="#2C3E50" font-family="sans-serif" font-size="13" lengthAdjust="spacing" textLength="53.7837" x="759.75" y="364.4772">Buscar: [</text><text fill="#2C3E50" font-family="sans-serif" font-size="13" lengthAdjust="spacing" text-decoration="underline" textLength="6.5" x="813.5337" y="364.4772">_</text><text fill="#2C3E50" font-family="sans-serif" font-size="13" lengthAdjust="spacing" textLength="59.7959" x="820.0337" y="364.4772">____] [&#128269;]</text><line style="stroke:#BDC3C7;stroke-width:1;" x1="754.75" x2="876.9482" y1="346.9088" y2="346.9088"/><line style="stroke:#BDC3C7;stroke-width:1;" x1="754.75" x2="876.9482" y1="348.9088" y2="348.9088"/><line style="stroke:#BDC3C7;stroke-width:1;" x1="876.9482" x2="886.9482" y1="346.4088" y2="346.4088"/><line style="stroke:#BDC3C7;stroke-width:1;" x1="876.9482" x2="886.9482" y1="348.4088" y2="348.4088"/><line style="stroke:#BDC3C7;stroke-width:1;" x1="886.9482" x2="1009.1465" y1="346.9088" y2="346.9088"/><line style="stroke:#BDC3C7;stroke-width:1;" x1="886.9482" x2="1009.1465" y1="348.9088" y2="348.9088"/><line style="stroke:#BDC3C7;stroke-width:1;" x1="754.75" x2="1009.1465" y1="371.2194" y2="371.2194"/><text fill="#2C3E50" font-family="sans-serif" font-size="13" lengthAdjust="spacing" textLength="223.4438" x="759.75" y="387.7877">Tabla: Producto | Cantidad | Estado</text><text fill="#2C3E50" font-family="sans-serif" font-size="13" lengthAdjust="spacing" textLength="143.9966" x="759.75" y="403.0983">- Manzanas | 150 | OK</text><text fill="#2C3E50" font-family="sans-serif" font-size="13" lengthAdjust="spacing" textLength="129.4541" x="759.75" y="418.4088">- Pl&#225;tanos | 5 | BAJO</text><text fill="#2C3E50" font-family="sans-serif" font-size="13" lengthAdjust="spacing" textLength="136.1572" x="759.75" y="433.7194">- Naranjas | 200 | OK</text><line style="stroke:#BDC3C7;stroke-width:1;" x1="754.75" x2="1009.1465" y1="440.4616" y2="440.4616"/><text fill="#2C3E50" font-family="sans-serif" font-size="13" lengthAdjust="spacing" textLength="235.3965" x="759.75" y="457.0299">Acciones: [Agregar] [Editar] [Eliminar]</text></g><!--entity RS--><g class="entity" data-entity="RS" data-source-line="60" data-uid="ent0014" id="entity_RS"><rect fill="#34495E" height="46.4883" rx="2.5" ry="2.5" style="stroke:#2C3E50;stroke-width:0.5;" width="178.3867" x="1044.76" y="371.9383"/><rect fill="#34495E" height="10" style="stroke:#2C3E50;stroke-width:0.5;" width="15" x="1203.1467" y="376.9383"/><rect fill="#34495E" height="2" style="stroke:#2C3E50;stroke-width:0.5;" width="4" x="1201.1467" y="378.9383"/><rect fill="#34495E" height="2" style="stroke:#2C3E50;stroke-width:0.5;" width="4" x="1201.1467" y="382.9383"/><text fill="#FFFFFF" font-family="sans-serif" font-size="14" lengthAdjust="spacing" textLength="138.3867" x="1059.76" y="405.4734">Pantalla de Reportes</text></g><g class="entity" data-entity="GMN15" data-source-line="62" data-uid="ent0016" id="entity_GMN15"><path d="M1257.78,317.5983 L1257.78,391.1783 L1223.6,395.1783 L1257.78,399.1783 L1257.78,472.7721 A0,0 0 0 0 1257.78,472.7721 L1622.1135,472.7721 A0,0 0 0 0 1622.1135,472.7721 L1622.1135,327.5983 L1612.1135,317.5983 L1257.78,317.5983 A0,0 0 0 0 1257.78,317.5983" fill="#ECF0F1" style="stroke:#BDC3C7;stroke-width:0.5;"/><path d="M1612.1135,317.5983 L1612.1135,327.5983 L1622.1135,327.5983 L1612.1135,317.5983" fill="#ECF0F1" style="stroke:#BDC3C7;stroke-width:0.5;"/><text fill="#2C3E50" font-family="sans-serif" font-size="13" lengthAdjust="spacing" textLength="128.502" x="1263.78" y="335.1666">Pantalla de Reportes</text><text fill="#2C3E50" font-family="sans-serif" font-size="13" lengthAdjust="spacing" textLength="337.3335" x="1263.78" y="360.4772">Filtros: Tipo [Ventas] [Inventario], Per&#237;odo [Mes] [A&#241;o]</text><line style="stroke:#BDC3C7;stroke-width:1;" x1="1258.78" x2="1434.9467" y1="342.9088" y2="342.9088"/><line style="stroke:#BDC3C7;stroke-width:1;" x1="1258.78" x2="1434.9467" y1="344.9088" y2="344.9088"/><line style="stroke:#BDC3C7;stroke-width:1;" x1="1434.9467" x2="1444.9467" y1="342.4088" y2="342.4088"/><line style="stroke:#BDC3C7;stroke-width:1;" x1="1434.9467" x2="1444.9467" y1="344.4088" y2="344.4088"/><line style="stroke:#BDC3C7;stroke-width:1;" x1="1444.9467" x2="1621.1135" y1="342.9088" y2="342.9088"/><line style="stroke:#BDC3C7;stroke-width:1;" x1="1444.9467" x2="1621.1135" y1="344.9088" y2="344.9088"/><line style="stroke:#BDC3C7;stroke-width:1;" x1="1258.78" x2="1621.1135" y1="367.2194" y2="367.2194"/><text fill="#2C3E50" font-family="sans-serif" font-size="13" lengthAdjust="spacing" textLength="252.9604" x="1263.78" y="383.7877">Marcador de Gr&#225;fico: [Gr&#225;fico de barras]</text><line style="stroke:#BDC3C7;stroke-width:1;" x1="1258.78" x2="1621.1135" y1="390.5299" y2="390.5299"/><text fill="#2C3E50" font-family="sans-serif" font-size="13" lengthAdjust="spacing" textLength="61.7183" x="1263.78" y="407.0983">Resumen:</text><text fill="#2C3E50" font-family="sans-serif" font-size="13" lengthAdjust="spacing" textLength="159.561" x="1263.78" y="422.4088">- Total vendido: $15,000</text><text fill="#2C3E50" font-family="sans-serif" font-size="13" lengthAdjust="spacing" textLength="186.0181" x="1263.78" y="437.7194">- Productos m&#225;s vendidos: ...</text><line style="stroke:#BDC3C7;stroke-width:1;" x1="1258.78" x2="1621.1135" y1="444.4616" y2="444.4616"/><text fill="#2C3E50" font-family="sans-serif" font-size="13" lengthAdjust="spacing" textLength="221.4443" x="1263.78" y="461.0299">Acciones: [Exportar PDF] [Imprimir]</text></g><!--link MD to CI--><g class="link" data-entity-1="MD" data-entity-2="CI" data-source-line="75" data-uid="lnk18" id="link_MD_CI"><path d="M548.52,160.0283 C460.67,187.5383 314.83,238.7483 200.95,306.2883 C169.69,324.8183 142.5536,348.2101 122.1036,367.5101" fill="none" id="MD-to-CI" style="stroke:#7F8C8D;stroke-width:1;"/><polygon fill="#7F8C8D" points="117.74,371.6283,127.0308,368.3601,121.3763,368.1965,121.5399,362.542,117.74,371.6283" style="stroke:#7F8C8D;stroke-width:1;"/><text fill="#2C3E50" font-family="sans-serif" font-size="13" lengthAdjust="spacing" textLength="116.8984" x="290.32" y="272.8566">Navegar a Chatbot</text></g><!--link MD to IS--><g class="link" data-entity-1="MD" data-entity-2="IS" data-source-line="76" data-uid="lnk19" id="link_MD_IS"><path d="M625.95,159.7283 C625.95,208.2883 625.95,317.0283 625.95,365.7083" fill="none" id="MD-to-IS" style="stroke:#7F8C8D;stroke-width:1;"/><polygon fill="#7F8C8D" points="625.95,371.7083,629.95,362.7083,625.95,366.7083,621.95,362.7083,625.95,371.7083" style="stroke:#7F8C8D;stroke-width:1;"/><text fill="#2C3E50" font-family="sans-serif" font-size="13" lengthAdjust="spacing" textLength="129.7207" x="626.95" y="272.8566">Navegar a Inventario</text></g><!--link MD to RS--><g class="link" data-entity-1="MD" data-entity-2="RS" data-source-line="77" data-uid="lnk20" id="link_MD_RS"><path d="M645.83,160.0083 C665.45,180.9683 697.33,211.5083 730.95,229.2883 C851.5,293.0183 906.56,244.1583 1027.95,306.2883 C1060.94,323.1683 1088.5931,347.5899 1108.6231,367.5799" fill="none" id="MD-to-RS" style="stroke:#7F8C8D;stroke-width:1;"/><polygon fill="#7F8C8D" points="1112.87,371.8183,1109.3253,362.6294,1109.3309,368.2863,1103.6741,368.2919,1112.87,371.8183" style="stroke:#7F8C8D;stroke-width:1;"/><text fill="#2C3E50" font-family="sans-serif" font-size="13" lengthAdjust="spacing" textLength="122.4463" x="939.69" y="272.8566">Navegar a Reportes</text></g><!--SRC=[XPJHRX9158RlzocErSjIQP6qagYXG2igBO7MD27476O7EdIPmPbPDCHNyCB4UDkGzCOBBumFqAJxGdq4pomBXMMDcxIPdFbdvfzl_eEv4dAC6aVGGtOrq2gKVaK5IiFZVlnvPgbWQZHMaajxc9OMdZrxNkIPKgLzhXFP7YlmOZvBTgIa_TUnKbc-SI9d_Nn_DwrQFQpdimBRJobMpjamWrghJydaVl-07VZfoStLdXKsuD1Gx2eS6_0vdDUVdbz03jhruxBdBIy8MrKqbps5seUc5fA9CGPRW0OQLSyv0oq6bnPKtnKojDwBpS-hIOOzFaLVbU2T6gXjE3SXQa634sL5Np1aWiutNYxddQ4USelGuYOSSGaDBaaSU3buJmRHbE39Rd4xdyzJfQcL7pAh3CLYg6YgiBf3EU2Q5gpeu28MWh54mjMvBtm5OovzGPjpj_e49tn0Vg8_iWHrEN67nbRdOhDDpiPAMt9Bo-BdMWDOftrq7wT4EO3A9TgUiZ71IZr5a0fPuYo4wmmJuVpnoB93X4DkIjxzzSqFUAq2t8QxsuzXz1CaPzm8ml2A9h_TG9bPeYccgESKN1X6AASeYLIy_Ews4aOpXnf2ANpq-M9jCR-i9DBPSZjVFOAssx04kvGuSbMJLgEF9UWa_dPsThhGgSc9G4s3Yg9p2MWtcsCJoK8Ge3Fuy0mnoNexHP8AsV9CbaJpC3GCDLdxiFZ8qFtrzw_TUO1w0VbUfkOBL6XtTt4Qreobor9u6Wargj6DwV_fMnUf89fPbCgLY_HtM7vpIkKJQayvZCLx-OKuvvNPFFZaf3pGb3i7fkRJUyM3G8o4fE7_2Iqo6VDffVcqrlai0vp9vaW4LhjcEXDZ1Prvrv6R1wfTrmmw-gMeT-XntMGv-grYTWtKZFXeTywnZcRKt9JOpcBeoZtwbQ8TdJffyX8HEbFa3oQk5Lt6ivfy5CtCGa7-A4yfXhNFxc8KxMRro3aUZJKHNEFNg48kzv9w3qemRtKDk6ozPBRUNfjToLCYQAqB5a3_0W00]--></g></svg>