<svg xmlns="http://www.w3.org/2000/svg" xmlns:xlink="http://www.w3.org/1999/xlink" contentStyleType="text/css" data-diagram-type="DESCRIPTION" height="952px" preserveAspectRatio="none" style="width:870px;height:952px;background:#FFFFFF;" version="1.1" viewBox="0 0 870 952" width="870px" zoomAndPan="magnify"><defs/><g><!--entity Usuario--><g class="entity" data-entity="Usuario" data-source-line="13" data-uid="ent0002" id="entity_Usuario"><ellipse cx="484.2059" cy="14" fill="#34495E" rx="8" ry="8" style="stroke:#2C3E50;stroke-width:0.5;"/><path d="M484.2059,22 L484.2059,49 M471.2059,30 L497.2059,30 M484.2059,49 L471.2059,64 M484.2059,49 L497.2059,64" fill="none" style="stroke:#2C3E50;stroke-width:0.5;"/><text fill="#000000" font-family="sans-serif" font-size="14" lengthAdjust="spacing" textLength="51.6318" x="458.39" y="79.0352">Usuario</text></g><!--entity WF--><g class="entity" data-entity="WF" data-source-line="14" data-uid="ent0003" id="entity_WF"><polygon fill="#34495E" points="270.19,151.99,280.19,141.99,480.2203,141.99,480.2203,211.4548,470.2203,221.4548,270.19,221.4548,270.19,151.99" style="stroke:#2C3E50;stroke-width:0.5;"/><line style="stroke:#2C3E50;stroke-width:0.5;" x1="470.2203" x2="480.2203" y1="151.99" y2="141.99"/><line style="stroke:#2C3E50;stroke-width:0.5;" x1="270.19" x2="470.2203" y1="151.99" y2="151.99"/><line style="stroke:#2C3E50;stroke-width:0.5;" x1="470.2203" x2="470.2203" y1="151.99" y2="221.4548"/><text fill="#FFFFFF" font-family="sans-serif" font-size="14" lengthAdjust="spacing" textLength="94.0762" x="285.19" y="175.5252">Frontend Web</text><text fill="#FFFFFF" font-family="sans-serif" font-size="14" lengthAdjust="spacing" textLength="101.2471" x="285.19" y="192.0134">Svelte + Bulma</text><text fill="#FFFFFF" font-family="sans-serif" font-size="14" lengthAdjust="spacing" textLength="170.0303" x="285.19" y="208.5017">Alojado en Vercel/Netlify</text></g><!--entity MF--><g class="entity" data-entity="MF" data-source-line="15" data-uid="ent0004" id="entity_MF"><polygon fill="#34495E" points="515.28,151.99,525.28,141.99,671.1423,141.99,671.1423,211.4548,661.1423,221.4548,515.28,221.4548,515.28,151.99" style="stroke:#2C3E50;stroke-width:0.5;"/><line style="stroke:#2C3E50;stroke-width:0.5;" x1="661.1423" x2="671.1423" y1="151.99" y2="141.99"/><line style="stroke:#2C3E50;stroke-width:0.5;" x1="515.28" x2="661.1423" y1="151.99" y2="151.99"/><line style="stroke:#2C3E50;stroke-width:0.5;" x1="661.1423" x2="661.1423" y1="151.99" y2="221.4548"/><text fill="#FFFFFF" font-family="sans-serif" font-size="14" lengthAdjust="spacing" textLength="101.4863" x="530.28" y="175.5252">Frontend M&#243;vil</text><text fill="#FFFFFF" font-family="sans-serif" font-size="14" lengthAdjust="spacing" textLength="86.502" x="530.28" y="192.0134">Svelte Native</text><text fill="#FFFFFF" font-family="sans-serif" font-size="14" lengthAdjust="spacing" textLength="115.8623" x="530.28" y="208.5017">App iOS/Android</text></g><!--entity AG--><g class="entity" data-entity="AG" data-source-line="16" data-uid="ent0005" id="entity_AG"><polygon fill="#34495E" points="395.57,291.46,405.57,281.46,572.8493,281.46,572.8493,334.4366,562.8493,344.4366,395.57,344.4366,395.57,291.46" style="stroke:#2C3E50;stroke-width:0.5;"/><line style="stroke:#2C3E50;stroke-width:0.5;" x1="562.8493" x2="572.8493" y1="291.46" y2="281.46"/><line style="stroke:#2C3E50;stroke-width:0.5;" x1="395.57" x2="562.8493" y1="291.46" y2="291.46"/><line style="stroke:#2C3E50;stroke-width:0.5;" x1="562.8493" x2="562.8493" y1="291.46" y2="344.4366"/><text fill="#FFFFFF" font-family="sans-serif" font-size="14" lengthAdjust="spacing" textLength="137.2793" x="410.57" y="314.9952">Puerta de Enlace API</text><text fill="#FFFFFF" font-family="sans-serif" font-size="14" lengthAdjust="spacing" textLength="76.4395" x="410.57" y="331.4834">Nginx/Ktor</text></g><!--entity BS--><g class="entity" data-entity="BS" data-source-line="17" data-uid="ent0006" id="entity_BS"><polygon fill="#34495E" points="397.91,414.43,407.91,404.43,570.4998,404.43,570.4998,490.3831,560.4998,500.3831,397.91,500.3831,397.91,414.43" style="stroke:#2C3E50;stroke-width:0.5;"/><line style="stroke:#2C3E50;stroke-width:0.5;" x1="560.4998" x2="570.4998" y1="414.43" y2="404.43"/><line style="stroke:#2C3E50;stroke-width:0.5;" x1="397.91" x2="560.4998" y1="414.43" y2="414.43"/><line style="stroke:#2C3E50;stroke-width:0.5;" x1="560.4998" x2="560.4998" y1="414.43" y2="500.3831"/><text fill="#FFFFFF" font-family="sans-serif" font-size="14" lengthAdjust="spacing" textLength="120.1826" x="412.91" y="437.9652">Servicios Backend</text><text fill="#FFFFFF" font-family="sans-serif" font-size="14" lengthAdjust="spacing" textLength="75.8037" x="412.91" y="454.4534">Kotlin/Ktor</text><text fill="#FFFFFF" font-family="sans-serif" font-size="14" lengthAdjust="spacing" textLength="132.5898" x="412.91" y="470.9417">APIs REST/GraphQL</text><text fill="#FFFFFF" font-family="sans-serif" font-size="14" lengthAdjust="spacing" textLength="132.0361" x="412.91" y="487.43">Contenedor Docker</text></g><!--entity Auth--><g class="entity" data-entity="Auth" data-source-line="18" data-uid="ent0007" id="entity_Auth"><polygon fill="#34495E" points="16,586.88,26,576.88,226.4131,576.88,226.4131,629.8566,216.4131,639.8566,16,639.8566,16,586.88" style="stroke:#2C3E50;stroke-width:0.5;"/><line style="stroke:#2C3E50;stroke-width:0.5;" x1="216.4131" x2="226.4131" y1="586.88" y2="576.88"/><line style="stroke:#2C3E50;stroke-width:0.5;" x1="16" x2="216.4131" y1="586.88" y2="586.88"/><line style="stroke:#2C3E50;stroke-width:0.5;" x1="216.4131" x2="216.4131" y1="586.88" y2="639.8566"/><text fill="#FFFFFF" font-family="sans-serif" font-size="14" lengthAdjust="spacing" textLength="170.4131" x="31" y="610.4152">Servicio de Autenticaci&#243;n</text><text fill="#FFFFFF" font-family="sans-serif" font-size="14" lengthAdjust="spacing" textLength="75.6738" x="31" y="626.9034">JWT/OAuth</text></g><!--entity BL--><g class="entity" data-entity="BL" data-source-line="19" data-uid="ent0008" id="entity_BL"><polygon fill="#34495E" points="261.76,586.88,271.76,576.88,446.6545,576.88,446.6545,629.8566,436.6545,639.8566,261.76,639.8566,261.76,586.88" style="stroke:#2C3E50;stroke-width:0.5;"/><line style="stroke:#2C3E50;stroke-width:0.5;" x1="436.6545" x2="446.6545" y1="586.88" y2="576.88"/><line style="stroke:#2C3E50;stroke-width:0.5;" x1="261.76" x2="436.6545" y1="586.88" y2="586.88"/><line style="stroke:#2C3E50;stroke-width:0.5;" x1="436.6545" x2="436.6545" y1="586.88" y2="639.8566"/><text fill="#FFFFFF" font-family="sans-serif" font-size="14" lengthAdjust="spacing" textLength="124.5029" x="276.76" y="610.4152">L&#243;gica de Negocio</text><text fill="#FFFFFF" font-family="sans-serif" font-size="14" lengthAdjust="spacing" textLength="144.8945" x="276.76" y="626.9034">Gesti&#243;n de Inventario</text></g><!--entity DAL--><g class="entity" data-entity="DAL" data-source-line="20" data-uid="ent0009" id="entity_DAL"><polygon fill="#34495E" points="252.83,734.58,262.83,724.58,455.58,724.58,455.58,777.5566,445.58,787.5566,252.83,787.5566,252.83,734.58" style="stroke:#2C3E50;stroke-width:0.5;"/><line style="stroke:#2C3E50;stroke-width:0.5;" x1="445.58" x2="455.58" y1="734.58" y2="724.58"/><line style="stroke:#2C3E50;stroke-width:0.5;" x1="252.83" x2="445.58" y1="734.58" y2="734.58"/><line style="stroke:#2C3E50;stroke-width:0.5;" x1="445.58" x2="445.58" y1="734.58" y2="787.5566"/><text fill="#FFFFFF" font-family="sans-serif" font-size="14" lengthAdjust="spacing" textLength="162.75" x="267.83" y="758.1152">Capa de Acceso a Datos</text><text fill="#FFFFFF" font-family="sans-serif" font-size="14" lengthAdjust="spacing" textLength="106.0527" x="267.83" y="774.6034">JDBC/Hibernate</text></g><!--entity DB--><g class="entity" data-entity="DB" data-source-line="21" data-uid="ent0010" id="entity_DB"><path d="M278.19,866.31 C278.19,856.31 354.2081,856.31 354.2081,856.31 C354.2081,856.31 430.2261,856.31 430.2261,866.31 L430.2261,924.7748 C430.2261,934.7748 354.2081,934.7748 354.2081,934.7748 C354.2081,934.7748 278.19,934.7748 278.19,924.7748 L278.19,866.31" fill="#E74C3C" style="stroke:#C0392B;stroke-width:0.5;"/><path d="M278.19,866.31 C278.19,876.31 354.2081,876.31 354.2081,876.31 C354.2081,876.31 430.2261,876.31 430.2261,866.31" fill="none" style="stroke:#C0392B;stroke-width:0.5;"/><text fill="#FFFFFF" font-family="sans-serif" font-size="14" lengthAdjust="spacing" textLength="95.3818" x="288.19" y="893.8452">Base de Datos</text><text fill="#FFFFFF" font-family="sans-serif" font-size="14" lengthAdjust="spacing" textLength="76.8496" x="288.19" y="910.3334">PostgreSQL</text><text fill="#FFFFFF" font-family="sans-serif" font-size="14" lengthAdjust="spacing" textLength="132.0361" x="288.19" y="926.8217">Contenedor Docker</text></g><!--entity AI--><g class="entity" data-entity="AI" data-source-line="22" data-uid="ent0011" id="entity_AI"><polygon fill="#34495E" points="481.9,570.39,491.9,560.39,746.5152,560.39,746.5152,646.3431,736.5152,656.3431,481.9,656.3431,481.9,570.39" style="stroke:#2C3E50;stroke-width:0.5;"/><line style="stroke:#2C3E50;stroke-width:0.5;" x1="736.5152" x2="746.5152" y1="570.39" y2="560.39"/><line style="stroke:#2C3E50;stroke-width:0.5;" x1="481.9" x2="736.5152" y1="570.39" y2="570.39"/><line style="stroke:#2C3E50;stroke-width:0.5;" x1="736.5152" x2="736.5152" y1="570.39" y2="656.3431"/><text fill="#FFFFFF" font-family="sans-serif" font-size="14" lengthAdjust="spacing" textLength="67.7305" x="496.9" y="593.9252">APIs de IA</text><text fill="#FFFFFF" font-family="sans-serif" font-size="14" lengthAdjust="spacing" textLength="224.6152" x="496.9" y="610.4134">LLMs Externos (ChatGPT/Gemini)</text><text fill="#FFFFFF" font-family="sans-serif" font-size="14" lengthAdjust="spacing" textLength="141.6816" x="496.9" y="626.9017">Python Flask/FastAPI</text><text fill="#FFFFFF" font-family="sans-serif" font-size="14" lengthAdjust="spacing" textLength="132.0361" x="496.9" y="643.39">Contenedor Docker</text></g><!--entity ML--><g class="entity" data-entity="ML" data-source-line="23" data-uid="ent0012" id="entity_ML"><polygon fill="#34495E" points="516.1,726.34,526.1,716.34,734.3061,716.34,734.3061,785.8048,724.3061,795.8048,516.1,795.8048,516.1,726.34" style="stroke:#2C3E50;stroke-width:0.5;"/><line style="stroke:#2C3E50;stroke-width:0.5;" x1="724.3061" x2="734.3061" y1="726.34" y2="716.34"/><line style="stroke:#2C3E50;stroke-width:0.5;" x1="516.1" x2="724.3061" y1="726.34" y2="726.34"/><line style="stroke:#2C3E50;stroke-width:0.5;" x1="724.3061" x2="724.3061" y1="726.34" y2="795.8048"/><text fill="#FFFFFF" font-family="sans-serif" font-size="14" lengthAdjust="spacing" textLength="102.0469" x="531.1" y="749.8752">Modelos de ML</text><text fill="#FFFFFF" font-family="sans-serif" font-size="14" lengthAdjust="spacing" textLength="139.1797" x="531.1" y="766.3634">TensorFlow/PyTorch</text><text fill="#FFFFFF" font-family="sans-serif" font-size="14" lengthAdjust="spacing" textLength="178.2061" x="531.1" y="782.8517">Entrenamiento por Cliente</text></g><!--entity AIML--><g class="entity" data-entity="AIML" data-source-line="24" data-uid="ent0013" id="entity_AIML"><polygon fill="#34495E" points="581.19,865.81,591.19,855.81,853.2291,855.81,853.2291,925.2748,843.2291,935.2748,581.19,935.2748,581.19,865.81" style="stroke:#2C3E50;stroke-width:0.5;"/><line style="stroke:#2C3E50;stroke-width:0.5;" x1="843.2291" x2="853.2291" y1="865.81" y2="855.81"/><line style="stroke:#2C3E50;stroke-width:0.5;" x1="581.19" x2="843.2291" y1="865.81" y2="865.81"/><line style="stroke:#2C3E50;stroke-width:0.5;" x1="843.2291" x2="843.2291" y1="865.81" y2="935.2748"/><text fill="#FFFFFF" font-family="sans-serif" font-size="14" lengthAdjust="spacing" textLength="118.5898" x="596.19" y="889.3452">Sistema de IA/ML</text><text fill="#FFFFFF" font-family="sans-serif" font-size="14" lengthAdjust="spacing" textLength="153.4053" x="596.19" y="905.8334">Predicciones y An&#225;lisis</text><text fill="#FFFFFF" font-family="sans-serif" font-size="14" lengthAdjust="spacing" textLength="232.0391" x="596.19" y="922.3217">Procesamiento Batch/Tiempo Real</text></g><!--link Usuario to WF--><g class="link" data-entity-1="Usuario" data-entity-2="WF" data-source-line="26" data-uid="lnk14" id="link_Usuario_WF"><path d="M458.1,77.32 C442.6,96.65 426.6129,116.5886 410.2829,136.9586" fill="none" id="Usuario-to-WF" style="stroke:#7F8C8D;stroke-width:1;"/><polygon fill="#7F8C8D" points="406.53,141.64,415.2803,137.1199,409.6574,137.7388,409.0385,132.1159,406.53,141.64" style="stroke:#7F8C8D;stroke-width:1;"/></g><!--link Usuario to MF--><g class="link" data-entity-1="Usuario" data-entity-2="MF" data-source-line="27" data-uid="lnk15" id="link_Usuario_MF"><path d="M510.31,77.32 C525.81,96.65 541.7971,116.5886 558.1271,136.9586" fill="none" id="Usuario-to-MF" style="stroke:#7F8C8D;stroke-width:1;"/><polygon fill="#7F8C8D" points="561.88,141.64,559.3715,132.1159,558.7526,137.7388,553.1297,137.1199,561.88,141.64" style="stroke:#7F8C8D;stroke-width:1;"/></g><!--link WF to AG--><g class="link" data-entity-1="WF" data-entity-2="AG" data-source-line="28" data-uid="lnk16" id="link_WF_AG"><path d="M408.21,221.85 C424.25,240.86 439.3813,258.8038 454.3713,276.5738" fill="none" id="WF-to-AG" style="stroke:#7F8C8D;stroke-width:1;"/><polygon fill="#7F8C8D" points="458.24,281.16,455.4944,271.7016,455.0161,277.3382,449.3795,276.8599,458.24,281.16" style="stroke:#7F8C8D;stroke-width:1;"/></g><!--link MF to AG--><g class="link" data-entity-1="MF" data-entity-2="AG" data-source-line="29" data-uid="lnk17" id="link_MF_AG"><path d="M560.21,221.85 C544.17,240.86 529.0387,258.8038 514.0487,276.5738" fill="none" id="MF-to-AG" style="stroke:#7F8C8D;stroke-width:1;"/><polygon fill="#7F8C8D" points="510.18,281.16,519.0405,276.8599,513.4039,277.3382,512.9256,271.7016,510.18,281.16" style="stroke:#7F8C8D;stroke-width:1;"/></g><!--link AG to BS--><g class="link" data-entity-1="AG" data-entity-2="BS" data-source-line="30" data-uid="lnk18" id="link_AG_BS"><path d="M484.21,344.8 C484.21,362.29 484.21,378.55 484.21,398.19" fill="none" id="AG-to-BS" style="stroke:#7F8C8D;stroke-width:1;"/><polygon fill="#7F8C8D" points="484.21,404.19,488.21,395.19,484.21,399.19,480.21,395.19,484.21,404.19" style="stroke:#7F8C8D;stroke-width:1;"/></g><!--link BS to Auth--><g class="link" data-entity-1="BS" data-entity-2="Auth" data-source-line="31" data-uid="lnk19" id="link_BS_Auth"><path d="M397.72,490.09 C335.65,516.42 258.454,549.1578 199.704,574.0678" fill="none" id="BS-to-Auth" style="stroke:#7F8C8D;stroke-width:1;"/><polygon fill="#7F8C8D" points="194.18,576.41,204.0274,576.5794,198.7833,574.4582,200.9045,569.2141,194.18,576.41" style="stroke:#7F8C8D;stroke-width:1;"/></g><!--link BS to BL--><g class="link" data-entity-1="BS" data-entity-2="BL" data-source-line="32" data-uid="lnk20" id="link_BS_BL"><path d="M444.14,500.86 C423.25,525.6 402.1803,550.5452 383.8703,572.2352" fill="none" id="BS-to-BL" style="stroke:#7F8C8D;stroke-width:1;"/><polygon fill="#7F8C8D" points="380,576.82,388.8621,572.523,383.2253,572.9993,382.749,567.3626,380,576.82" style="stroke:#7F8C8D;stroke-width:1;"/></g><!--link BL to DAL--><g class="link" data-entity-1="BL" data-entity-2="DAL" data-source-line="33" data-uid="lnk21" id="link_BL_DAL"><path d="M354.21,640.26 C354.21,664.99 354.21,693.5 354.21,718.22" fill="none" id="BL-to-DAL" style="stroke:#7F8C8D;stroke-width:1;"/><polygon fill="#7F8C8D" points="354.21,724.22,358.21,715.22,354.21,719.22,350.21,715.22,354.21,724.22" style="stroke:#7F8C8D;stroke-width:1;"/></g><!--link DAL to DB--><g class="link" data-entity-1="DAL" data-entity-2="DB" data-source-line="34" data-uid="lnk22" id="link_DAL_DB"><path d="M343.04,787.92 C340.72,808.03 339.9567,828.4411 341.7667,849.9411" fill="none" id="DAL-to-DB" style="stroke:#7F8C8D;stroke-width:1;"/><polygon fill="#7F8C8D" points="342.27,855.92,345.5009,846.6162,341.8506,850.9376,337.5291,847.2873,342.27,855.92" style="stroke:#7F8C8D;stroke-width:1;"/></g><!--link DB to DAL--><g class="link" data-entity-1="DB" data-entity-2="DAL" data-source-line="38" data-uid="lnk26" id="link_DB_DAL"><path d="M366.14,855.92 C367.95,834.42 368.3906,813.9901 366.0606,793.8801" fill="none" id="DB-to-DAL" style="stroke:#7F8C8D;stroke-width:1;"/><polygon fill="#7F8C8D" points="365.37,787.92,362.4324,797.3206,365.9455,792.8868,370.3793,796.3998,365.37,787.92" style="stroke:#7F8C8D;stroke-width:1;"/></g><!--link BS to AI--><g class="link" data-entity-1="BS" data-entity-2="AI" data-source-line="35" data-uid="lnk23" id="link_BS_AI"><path d="M524.27,500.86 C540.16,519.68 554.5297,536.6852 570.3997,555.4852" fill="none" id="BS-to-AI" style="stroke:#7F8C8D;stroke-width:1;"/><polygon fill="#7F8C8D" points="574.27,560.07,571.5211,550.6125,571.0448,556.2493,565.408,555.7729,574.27,560.07" style="stroke:#7F8C8D;stroke-width:1;"/></g><!--link AI to ML--><g class="link" data-entity-1="AI" data-entity-2="ML" data-source-line="36" data-uid="lnk24" id="link_AI_ML"><path d="M617.78,656.67 C619.23,675.95 620.4491,691.977 621.8291,710.287" fill="none" id="AI-to-ML" style="stroke:#7F8C8D;stroke-width:1;"/><polygon fill="#7F8C8D" points="622.28,716.27,625.5923,706.9948,621.9042,711.2841,617.6149,707.5961,622.28,716.27" style="stroke:#7F8C8D;stroke-width:1;"/></g><!--link ML to AIML--><g class="link" data-entity-1="ML" data-entity-2="AIML" data-source-line="37" data-uid="lnk25" id="link_ML_AIML"><path d="M651.32,796.1 C663.75,814.67 675.2431,831.8435 687.6831,850.4335" fill="none" id="ML-to-AIML" style="stroke:#7F8C8D;stroke-width:1;"/><polygon fill="#7F8C8D" points="691.02,855.42,689.3391,845.7156,688.2393,851.2646,682.6904,850.1648,691.02,855.42" style="stroke:#7F8C8D;stroke-width:1;"/></g><!--link AIML to BS--><g class="link" data-entity-1="AIML" data-entity-2="BS" data-source-line="39" data-uid="lnk27" id="link_AIML_BS"><path d="M738.61,855.54 C772.04,788.79 826.66,651.1 764.21,560.39 C721.05,497.7 641.74,472.6968 576.59,461.9468" fill="none" id="AIML-to-BS" style="stroke:#7F8C8D;stroke-width:1;"/><polygon fill="#7F8C8D" points="570.67,460.97,578.8987,466.3819,575.6033,461.784,580.2011,458.4886,570.67,460.97" style="stroke:#7F8C8D;stroke-width:1;"/></g><!--SRC=[XLFTJjim5BxlKrZiPjE4WYW8k9cKz6yTISb8jzxandKEhKTwNDbkeO_3C_08VR4TEsvL5SOY9Jfnlf_ZpoVcKUAIQxvWKouUPrgjiEgeMcdswS5VBRD7S66LJevXxOkBcqju0rEw0XqWvw8DbsV7aBv26m1d_Ze0eAhW_quUzQ6HGnpulDbInIsVSlFM2wukH5kyXppq4sVjc_FfEwYFFBdMwYbyl7gu5jVLySS3TjYH3upzCYkkfMgvNR6JlYOOOCKcC2snM4DjWNrboQfUy1BZMltXbMA0x3Te0NKq0blBXyq9uuPD-iSYsVPrBUkzpeXRkGQIMIwPl2kY62kjPEN9sOwShq1RpgZiOSq5i3WVbZYQINoERgbXZuu70Ls0NaiXbM4kRV8iyLPHI-YnP9KF3Rll5UDeeFbo_ZCjiUERWuhstbN4QHIJuaZHTH2l26cbu49kNx747vDnT4UBywO9AW8ftRxE2EOu8vWfefSu06CTpIqESKr2BkV6B0sy3bzwKYm46CKuwtAh31braqxqNKv18xVWETquRUqcWPqaxad4WC-LiJCDnR_trqs2fK_4jHINcAQPORrdIpQKuEVEdDj1Jb71GgByGh8RErV8-ZKtZr6V6-lFuds3U1WCCdhModjarCuOqD1_MQkdAD-CbHRp4djeDI1VI0f5iIK9TMfNDplDTkaKqbXOyARRo8db6YefA5u4mpOinkrBBOrq2MX54Uua4sx5F1fBM2mLkmTUXnP9kXK6dfsUVdCZU_XAGpZf-ue6BDjNyS1ND299qQovamyrdMMI-igT4DrDdUonmrOyRDJJLfQ6DQgxoPxbteF5Nm00]--></g></svg>