<svg xmlns="http://www.w3.org/2000/svg" xmlns:xlink="http://www.w3.org/1999/xlink" contentStyleType="text/css" data-diagram-type="DESCRIPTION" height="318px" preserveAspectRatio="none" style="width:1936px;height:318px;background:#FFFFFF;" version="1.1" viewBox="0 0 1936 318" width="1936px" zoomAndPan="magnify"><defs/><g><!--entity Entrepreneur--><g class="entity" data-entity="Entrepreneur" data-source-line="10" data-uid="ent0002" id="entity_Entrepreneur"><ellipse cx="889.1656" cy="14" fill="#34495E" rx="8" ry="8" style="stroke:#2C3E50;stroke-width:0.5;"/><path d="M889.1656,22 L889.1656,49 M876.1656,30 L902.1656,30 M889.1656,49 L876.1656,64 M889.1656,49 L902.1656,64" fill="none" style="stroke:#2C3E50;stroke-width:0.5;"/><text fill="#000000" font-family="sans-serif" font-size="14" lengthAdjust="spacing" textLength="150.4111" x="813.96" y="79.0352">Emprendedor/Usuario</text></g><!--entity Chatbot--><g class="entity" data-entity="Chatbot" data-source-line="11" data-uid="ent0003" id="entity_Chatbot"><ellipse cx="555.1662" cy="14" fill="#34495E" rx="8" ry="8" style="stroke:#2C3E50;stroke-width:0.5;"/><path d="M555.1662,22 L555.1662,49 M542.1662,30 L568.1662,30 M555.1662,49 L542.1662,64 M555.1662,49 L568.1662,64" fill="none" style="stroke:#2C3E50;stroke-width:0.5;"/><text fill="#000000" font-family="sans-serif" font-size="14" lengthAdjust="spacing" textLength="72.1123" x="519.11" y="79.0352">Chatbot IA</text></g><!--entity IA--><g class="entity" data-entity="IA" data-source-line="12" data-uid="ent0004" id="entity_IA"><ellipse cx="365.1644" cy="14" fill="#34495E" rx="8" ry="8" style="stroke:#2C3E50;stroke-width:0.5;"/><path d="M365.1644,22 L365.1644,49 M352.1644,30 L378.1644,30 M365.1644,49 L352.1644,64 M365.1644,49 L378.1644,64" fill="none" style="stroke:#2C3E50;stroke-width:0.5;"/><text fill="#000000" font-family="sans-serif" font-size="14" lengthAdjust="spacing" textLength="97.5488" x="316.39" y="79.0352">Sistema IA/ML</text></g><!--entity Supplier--><g class="entity" data-entity="Supplier" data-source-line="13" data-uid="ent0005" id="entity_Supplier"><ellipse cx="1363.1688" cy="14" fill="#34495E" rx="8" ry="8" style="stroke:#2C3E50;stroke-width:0.5;"/><path d="M1363.1688,22 L1363.1688,49 M1350.1688,30 L1376.1688,30 M1363.1688,49 L1350.1688,64 M1363.1688,49 L1376.1688,64" fill="none" style="stroke:#2C3E50;stroke-width:0.5;"/><text fill="#000000" font-family="sans-serif" font-size="14" lengthAdjust="spacing" textLength="140.9775" x="1292.68" y="79.0352">Proveedor/Mayorista</text></g><!--entity WM--><g class="entity" data-entity="WM" data-source-line="14" data-uid="ent0006" id="entity_WM"><ellipse cx="1743.1726" cy="14" fill="#34495E" rx="8" ry="8" style="stroke:#2C3E50;stroke-width:0.5;"/><path d="M1743.1726,22 L1743.1726,49 M1730.1726,30 L1756.1726,30 M1743.1726,49 L1730.1726,64 M1743.1726,49 L1756.1726,64" fill="none" style="stroke:#2C3E50;stroke-width:0.5;"/><text fill="#000000" font-family="sans-serif" font-size="14" lengthAdjust="spacing" textLength="128.3652" x="1678.99" y="79.0352">Gerente de Bodega</text></g><!--entity UC1--><g class="entity" data-entity="UC1" data-source-line="16" data-uid="ent0007" id="entity_UC1"><ellipse cx="872.1726" cy="293.0845" fill="#34495E" rx="71.4226" ry="16.6845" style="stroke:#2C3E50;stroke-width:0.5;"/><text fill="#FFFFFF" font-family="sans-serif" font-size="14" lengthAdjust="spacing" textLength="109.2246" x="817.5603" y="297.8287">Actualizar Stock</text></g><!--entity UC2--><g class="entity" data-entity="UC2" data-source-line="17" data-uid="ent0008" id="entity_UC2"><ellipse cx="1062.167" cy="293.0754" fill="#34495E" rx="83.277" ry="19.0554" style="stroke:#2C3E50;stroke-width:0.5;"/><text fill="#FFFFFF" font-family="sans-serif" font-size="14" lengthAdjust="spacing" textLength="137.7715" x="993.2812" y="297.8195">Consultar Inventario</text></g><!--entity UC3--><g class="entity" data-entity="UC3" data-source-line="18" data-uid="ent0009" id="entity_UC3"><ellipse cx="225.1693" cy="170.0139" fill="#34495E" rx="100.1193" ry="22.4239" style="stroke:#2C3E50;stroke-width:0.5;"/><text fill="#FFFFFF" font-family="sans-serif" font-size="14" lengthAdjust="spacing" textLength="175.875" x="137.2318" y="174.758">Generar Lista de Compras</text></g><!--entity UC4--><g class="entity" data-entity="UC4" data-source-line="19" data-uid="ent0010" id="entity_UC4"><ellipse cx="760.1714" cy="170.0143" fill="#34495E" rx="75.5214" ry="17.5043" style="stroke:#2C3E50;stroke-width:0.5;"/><text fill="#FFFFFF" font-family="sans-serif" font-size="14" lengthAdjust="spacing" textLength="119.335" x="700.5039" y="174.7584">Obtener Reportes</text></g><!--entity UC5--><g class="entity" data-entity="UC5" data-source-line="20" data-uid="ent0011" id="entity_UC5"><ellipse cx="469.1687" cy="170.0137" fill="#34495E" rx="108.8187" ry="24.1637" style="stroke:#2C3E50;stroke-width:0.5;"/><text fill="#FFFFFF" font-family="sans-serif" font-size="14" lengthAdjust="spacing" textLength="194.9199" x="371.7087" y="174.7579">Predecir Desabastecimientos</text></g><!--entity UC6--><g class="entity" data-entity="UC6" data-source-line="21" data-uid="ent0012" id="entity_UC6"><ellipse cx="1363.1742" cy="170.0088" fill="#34495E" rx="106.5942" ry="23.7188" style="stroke:#2C3E50;stroke-width:0.5;"/><text fill="#FFFFFF" font-family="sans-serif" font-size="14" lengthAdjust="spacing" textLength="190.0801" x="1268.1341" y="174.753">Interactuar con Proveedores</text></g><!--entity UC7--><g class="entity" data-entity="UC7" data-source-line="22" data-uid="ent0013" id="entity_UC7"><ellipse cx="1046.1745" cy="170.0109" fill="#34495E" rx="103.7545" ry="23.1509" style="stroke:#2C3E50;stroke-width:0.5;"/><text fill="#FFFFFF" font-family="sans-serif" font-size="14" lengthAdjust="spacing" textLength="183.873" x="954.238" y="174.755">Iniciar Sesi&#243;n en el Sistema</text></g><!--entity UC8--><g class="entity" data-entity="UC8" data-source-line="23" data-uid="ent0014" id="entity_UC8"><ellipse cx="1628.172" cy="170.0104" fill="#34495E" rx="123.102" ry="27.0204" style="stroke:#2C3E50;stroke-width:0.5;"/><text fill="#FFFFFF" font-family="sans-serif" font-size="14" lengthAdjust="spacing" textLength="225.6133" x="1515.3653" y="174.7545">Gestionar Ubicaciones de Bodega</text></g><!--entity UC9--><g class="entity" data-entity="UC9" data-source-line="24" data-uid="ent0015" id="entity_UC9"><ellipse cx="1858.1707" cy="170.0081" fill="#34495E" rx="71.8407" ry="16.7681" style="stroke:#2C3E50;stroke-width:0.5;"/><text fill="#FFFFFF" font-family="sans-serif" font-size="14" lengthAdjust="spacing" textLength="110.2705" x="1803.0355" y="174.7523">Respaldar Datos</text></g><!--link Entrepreneur to UC1--><g class="link" data-entity-1="Entrepreneur" data-entity-2="UC1" data-source-line="26" data-uid="lnk16" id="link_Entrepreneur_UC1"><path d="M886.59,82.31 C882.81,137.31 876.3309,231.4441 873.6709,270.1941" fill="none" id="Entrepreneur-to-UC1" style="stroke:#7F8C8D;stroke-width:1;"/><polygon fill="#7F8C8D" points="873.26,276.18,877.867,267.4751,873.6024,271.1917,869.8857,266.9272,873.26,276.18" style="stroke:#7F8C8D;stroke-width:1;"/></g><!--link Entrepreneur to UC2--><g class="link" data-entity-1="Entrepreneur" data-entity-2="UC2" data-source-line="27" data-uid="lnk17" id="link_Entrepreneur_UC2"><path d="M964.72,48.45 C1030.29,56.15 1121.65,78.63 1167.17,142.99 C1200.9,190.68 1136.4527,243.7274 1095.0427,271.5074" fill="none" id="Entrepreneur-to-UC2" style="stroke:#7F8C8D;stroke-width:1;"/><polygon fill="#7F8C8D" points="1090.06,274.85,1099.7624,273.1578,1094.2122,272.0645,1095.3056,266.5143,1090.06,274.85" style="stroke:#7F8C8D;stroke-width:1;"/></g><!--link Entrepreneur to UC3--><g class="link" data-entity-1="Entrepreneur" data-entity-2="UC3" data-source-line="28" data-uid="lnk18" id="link_Entrepreneur_UC3"><path d="M813.48,57.4 C707.9,75.28 510.56,109.49 343.17,142.99 C327.23,146.18 315.9808,148.535 299.8808,152.065" fill="none" id="Entrepreneur-to-UC3" style="stroke:#7F8C8D;stroke-width:1;"/><polygon fill="#7F8C8D" points="294.02,153.35,303.6678,155.3297,298.904,152.2792,301.9545,147.5153,294.02,153.35" style="stroke:#7F8C8D;stroke-width:1;"/></g><!--link Entrepreneur to UC4--><g class="link" data-entity-1="Entrepreneur" data-entity-2="UC4" data-source-line="29" data-uid="lnk19" id="link_Entrepreneur_UC4"><path d="M850.11,82.36 C825.79,105.8 800.0414,130.5976 781.5614,148.3976" fill="none" id="Entrepreneur-to-UC4" style="stroke:#7F8C8D;stroke-width:1;"/><polygon fill="#7F8C8D" points="777.24,152.56,786.497,149.1974,780.8412,149.0913,780.9472,143.4355,777.24,152.56" style="stroke:#7F8C8D;stroke-width:1;"/></g><!--link Entrepreneur to UC5--><g class="link" data-entity-1="Entrepreneur" data-entity-2="UC5" data-source-line="30" data-uid="lnk20" id="link_Entrepreneur_UC5"><path d="M813.6,67.1 C733.53,90.79 614.2536,126.0882 538.8936,148.3782" fill="none" id="Entrepreneur-to-UC5" style="stroke:#7F8C8D;stroke-width:1;"/><polygon fill="#7F8C8D" points="533.14,150.08,542.9049,151.363,537.9347,148.6618,540.6359,143.6916,533.14,150.08" style="stroke:#7F8C8D;stroke-width:1;"/></g><!--link Entrepreneur to UC6--><g class="link" data-entity-1="Entrepreneur" data-entity-2="UC6" data-source-line="31" data-uid="lnk21" id="link_Entrepreneur_UC6"><path d="M964.55,55.07 C1034.19,65.67 1140.03,84.53 1229.17,111.99 C1260.34,121.59 1288.6722,133.4758 1314.5222,145.4058" fill="none" id="Entrepreneur-to-UC6" style="stroke:#7F8C8D;stroke-width:1;"/><polygon fill="#7F8C8D" points="1319.97,147.92,1313.4744,140.5168,1315.4302,145.8248,1310.1221,147.7806,1319.97,147.92" style="stroke:#7F8C8D;stroke-width:1;"/></g><!--link Entrepreneur to UC7--><g class="link" data-entity-1="Entrepreneur" data-entity-2="UC7" data-source-line="32" data-uid="lnk22" id="link_Entrepreneur_UC7"><path d="M936.7,82.36 C963.59,103.65 991.5658,125.7857 1014.1758,143.6857" fill="none" id="Entrepreneur-to-UC7" style="stroke:#7F8C8D;stroke-width:1;"/><polygon fill="#7F8C8D" points="1018.88,147.41,1014.3065,138.6874,1014.9598,144.3064,1009.3408,144.9597,1018.88,147.41" style="stroke:#7F8C8D;stroke-width:1;"/></g><!--link WM to UC8--><g class="link" data-entity-1="WM" data-entity-2="UC8" data-source-line="33" data-uid="lnk23" id="link_WM_UC8"><path d="M1708.35,82.36 C1690.11,102.08 1672.3056,121.3167 1656.0156,138.9167" fill="none" id="WM-to-UC8" style="stroke:#7F8C8D;stroke-width:1;"/><polygon fill="#7F8C8D" points="1651.94,143.32,1660.989,139.432,1655.3363,139.6505,1655.1178,133.9979,1651.94,143.32" style="stroke:#7F8C8D;stroke-width:1;"/></g><!--link WM to UC9--><g class="link" data-entity-1="WM" data-entity-2="UC9" data-source-line="34" data-uid="lnk24" id="link_WM_UC9"><path d="M1777.98,82.36 C1799.93,106.08 1823.0557,131.0655 1839.4657,148.8055" fill="none" id="WM-to-UC9" style="stroke:#7F8C8D;stroke-width:1;"/><polygon fill="#7F8C8D" points="1843.54,153.21,1840.3649,143.887,1840.1447,149.5396,1834.4922,149.3194,1843.54,153.21" style="stroke:#7F8C8D;stroke-width:1;"/></g><!--link Chatbot to UC1--><g class="link" data-entity-1="Chatbot" data-entity-2="UC1" data-source-line="36" data-uid="lnk25" id="link_Chatbot_UC1"><path d="M518.82,56.77 C494.25,64.62 460.98,74.73 431.17,81.99 C282.7,118.15 6,82.51 107.17,197.03 C152.94,248.84 617.1987,278.6172 796.8887,288.2972" fill="none" id="Chatbot-to-UC1" style="stroke:#7F8C8D;stroke-width:1;"/><polygon fill="#7F8C8D" points="802.88,288.62,794.1082,284.1417,797.8872,288.351,793.6779,292.1301,802.88,288.62" style="stroke:#7F8C8D;stroke-width:1;"/></g><!--link Chatbot to UC2--><g class="link" data-entity-1="Chatbot" data-entity-2="UC2" data-source-line="37" data-uid="lnk26" id="link_Chatbot_UC2"><path d="M573.03,82.33 C591.64,117.38 624.11,168.43 667.17,197.03 C694.96,215.5 891.6517,257.4077 995.4017,278.6277" fill="none" id="Chatbot-to-UC2" style="stroke:#7F8C8D;stroke-width:1;"/><polygon fill="#7F8C8D" points="1001.28,279.83,993.2641,274.1077,996.3814,278.8281,991.661,281.9454,1001.28,279.83" style="stroke:#7F8C8D;stroke-width:1;"/></g><!--link Chatbot to UC3--><g class="link" data-entity-1="Chatbot" data-entity-2="UC3" data-source-line="38" data-uid="lnk27" id="link_Chatbot_UC3"><path d="M518.91,58.4 C459.72,80.69 347.855,122.8053 280.785,148.0653" fill="none" id="Chatbot-to-UC3" style="stroke:#7F8C8D;stroke-width:1;"/><polygon fill="#7F8C8D" points="275.17,150.18,285.0023,150.7512,279.8491,148.4177,282.1827,143.2646,275.17,150.18" style="stroke:#7F8C8D;stroke-width:1;"/></g><!--link Chatbot to UC4--><g class="link" data-entity-1="Chatbot" data-entity-2="UC4" data-source-line="39" data-uid="lnk28" id="link_Chatbot_UC4"><path d="M591.35,66.67 C632.27,91.48 692.7695,128.1491 728.9695,150.0991" fill="none" id="Chatbot-to-UC4" style="stroke:#7F8C8D;stroke-width:1;"/><polygon fill="#7F8C8D" points="734.1,153.21,728.4782,145.1233,729.8246,150.6176,724.3303,151.964,734.1,153.21" style="stroke:#7F8C8D;stroke-width:1;"/></g><!--link IA to UC3--><g class="link" data-entity-1="IA" data-entity-2="UC3" data-source-line="41" data-uid="lnk29" id="link_IA_UC3"><path d="M322.78,82.36 C298.64,103.8 273.7675,125.8773 253.5875,143.7873" fill="none" id="IA-to-UC3" style="stroke:#7F8C8D;stroke-width:1;"/><polygon fill="#7F8C8D" points="249.1,147.77,258.4864,144.7876,252.8396,144.4511,253.1761,138.8042,249.1,147.77" style="stroke:#7F8C8D;stroke-width:1;"/></g><!--link IA to UC5--><g class="link" data-entity-1="IA" data-entity-2="UC5" data-source-line="42" data-uid="lnk30" id="link_IA_UC5"><path d="M396.65,82.36 C413.99,103.08 431.0982,123.5296 446.0182,141.3496" fill="none" id="IA-to-UC5" style="stroke:#7F8C8D;stroke-width:1;"/><polygon fill="#7F8C8D" points="449.87,145.95,447.1593,136.4815,446.6602,142.1163,441.0254,141.6172,449.87,145.95" style="stroke:#7F8C8D;stroke-width:1;"/></g><!--link Supplier to UC6--><g class="link" data-entity-1="Supplier" data-entity-2="UC6" data-source-line="44" data-uid="lnk31" id="link_Supplier_UC6"><path d="M1363.17,82.36 C1363.17,103.08 1363.17,122.13 1363.17,139.95" fill="none" id="Supplier-to-UC6" style="stroke:#7F8C8D;stroke-width:1;"/><polygon fill="#7F8C8D" points="1363.17,145.95,1367.17,136.95,1363.17,140.95,1359.17,136.95,1363.17,145.95" style="stroke:#7F8C8D;stroke-width:1;"/></g><!--link UC7 to UC1--><g class="link" data-entity-1="UC7" data-entity-2="UC1" data-source-line="46" data-uid="lnk32" id="link_UC7_UC1"><path d="M1015.46,192.38 C980.63,216.61 929.6351,252.1031 898.9651,273.4431" fill="none" id="UC7-to-UC1" style="stroke:#7F8C8D;stroke-width:1;stroke-dasharray:7,7;"/><polygon fill="#7F8C8D" points="894.04,276.87,903.7122,275.0131,898.1443,274.0143,899.1431,268.4463,894.04,276.87" style="stroke:#7F8C8D;stroke-width:1;"/><text fill="#2C3E50" font-family="sans-serif" font-size="13" lengthAdjust="spacing" textLength="44.3447" x="965.38" y="240.5984">incluye</text></g><!--link UC7 to UC2--><g class="link" data-entity-1="UC7" data-entity-2="UC2" data-source-line="47" data-uid="lnk33" id="link_UC7_UC2"><path d="M1049.14,193.5 C1052.19,216.61 1056.1043,246.2217 1058.9443,267.7217" fill="none" id="UC7-to-UC2" style="stroke:#7F8C8D;stroke-width:1;stroke-dasharray:7,7;"/><polygon fill="#7F8C8D" points="1059.73,273.67,1062.517,264.2237,1059.0752,268.7131,1054.5858,265.2713,1059.73,273.67" style="stroke:#7F8C8D;stroke-width:1;"/><text fill="#2C3E50" font-family="sans-serif" font-size="13" lengthAdjust="spacing" textLength="52.3618" x="1056.6" y="240.5984">includes</text></g><!--SRC=[XPBRJjmm48Rl_HJMzff3Ss2NNY0jWQ98h8fOHLmxza2jpThHsA6YhzL7w8lLSUqa3L6nSZ67R_pFJ6mEKhKCsP7MZ1zUK7TA5BhHI3yz-qFCG31kDLxFiJJBBdDuXsaKW059U0hv-HpvgfKDmBa_4w0pm9c1ZyKY-5-v04q4ty-6g7-4vFfvmpTYdfnK1m4_1LtT7bi49K1eFAjCnr3g5MM6tYgBqAUWmyWMtvcjjQNbrYF1ZTczD1QEp6NFTlSUABSnzu3w5Rp6ZhrfT2JpnBvhsqR2e707Jj425K2ljO2NlzJJZf2m1RhQSjknHlvaIFTMyuCdgkBpI1HQcQwn3YZLgxjkcAagaf6wSwEXO-xxPdh1GhjLC1F8T2I_rRPdwIEq6Yr48Xk91mG1N2Az0SDgvlR0vL4wQHtXV8HBDo2oVWgaN2iwx6Qu-M8AIoxxKS78txyK1VSrDAmwuElfKCPAhLn1LKlEkBF1pBPP5Pknu15ConhX2cxOsEqb8TF_JqzEhloA5uB9KZ1T2cPBmNmfUB4KN9EdNJ0te-awZQyoDlcldypyTEPdX9JR8JUOEI7nRGvD4TS4FJtrAlGBbOettHjCeacC2Z1_0000]--></g></svg>