<svg xmlns="http://www.w3.org/2000/svg" xmlns:xlink="http://www.w3.org/1999/xlink" contentStyleType="text/css" data-diagram-type="CLASS" height="592px" preserveAspectRatio="none" style="width:969px;height:592px;background:#FFFFFF;" version="1.1" viewBox="0 0 969 592" width="969px" zoomAndPan="magnify"><defs/><g><!--class Usuario--><g class="entity" data-entity="Usuario" data-source-line="9" data-uid="ent0002" id="entity_Usuario"><rect fill="#34495E" height="130.4414" rx="2.5" ry="2.5" style="stroke:#2C3E50;stroke-width:0.5;" width="165.9316" x="281.21" y="7"/><ellipse cx="334.1099" cy="23" fill="#ADD1B2" rx="11" ry="11" style="stroke:#181818;stroke-width:1;"/><path d="M336.583,29.1431 Q336.002,29.4419 335.3628,29.5913 Q334.7237,29.7407 334.0181,29.7407 Q331.5113,29.7407 330.1914,28.0889 Q328.8716,26.437 328.8716,23.3159 Q328.8716,20.1865 330.1914,18.5347 Q331.5113,16.8828 334.0181,16.8828 Q334.7237,16.8828 335.3711,17.0322 Q336.0186,17.1816 336.583,17.4805 L336.583,20.2031 Q335.9522,19.6221 335.3587,19.3523 Q334.7652,19.0825 334.1343,19.0825 Q332.7896,19.0825 332.1048,20.1492 Q331.42,21.2158 331.42,23.3159 Q331.42,25.4077 332.1048,26.4744 Q332.7896,27.541 334.1343,27.541 Q334.7652,27.541 335.3587,27.2712 Q335.9522,27.0015 336.583,26.4204 Z " fill="#000000"/><text fill="#ECF0F1" font-family="sans-serif" font-size="14" lengthAdjust="spacing" textLength="51.6318" x="354.6099" y="28.291">Usuario</text><line style="stroke:#2C3E50;stroke-width:0.5;" x1="282.21" x2="446.1416" y1="39" y2="39"/><ellipse cx="292.21" cy="52.7441" fill="none" rx="3" ry="3" style="stroke:#038048;stroke-width:1;"/><text fill="#ECF0F1" font-family="sans-serif" font-size="14" lengthAdjust="spacing" textLength="39.6895" x="301.21" y="56.5352">id: int</text><ellipse cx="292.21" cy="69.2324" fill="none" rx="3" ry="3" style="stroke:#038048;stroke-width:1;"/><text fill="#ECF0F1" font-family="sans-serif" font-size="14" lengthAdjust="spacing" textLength="101.124" x="301.21" y="73.0234">nombre: string</text><ellipse cx="292.21" cy="85.7207" fill="none" rx="3" ry="3" style="stroke:#038048;stroke-width:1;"/><text fill="#ECF0F1" font-family="sans-serif" font-size="14" lengthAdjust="spacing" textLength="85.1211" x="301.21" y="89.5117">email: string</text><line style="stroke:#2C3E50;stroke-width:0.5;" x1="282.21" x2="446.1416" y1="96.4648" y2="96.4648"/><ellipse cx="292.21" cy="110.209" fill="#84BE84" rx="3" ry="3" style="stroke:#038048;stroke-width:1;"/><text fill="#ECF0F1" font-family="sans-serif" font-size="14" lengthAdjust="spacing" textLength="139.9316" x="301.21" y="114">consultarInventario()</text><ellipse cx="292.21" cy="126.6973" fill="#84BE84" rx="3" ry="3" style="stroke:#038048;stroke-width:1;"/><text fill="#ECF0F1" font-family="sans-serif" font-size="14" lengthAdjust="spacing" textLength="114.1396" x="301.21" y="130.4883">generarReporte()</text></g><!--class Producto--><g class="entity" data-entity="Producto" data-source-line="17" data-uid="ent0003" id="entity_Producto"><rect fill="#34495E" height="130.4414" rx="2.5" ry="2.5" style="stroke:#2C3E50;stroke-width:0.5;" width="152.4375" x="234.96" y="454.86"/><ellipse cx="276.8989" cy="470.86" fill="#ADD1B2" rx="11" ry="11" style="stroke:#181818;stroke-width:1;"/><path d="M279.3721,477.0031 Q278.791,477.3019 278.1518,477.4513 Q277.5127,477.6007 276.8071,477.6007 Q274.3003,477.6007 272.9805,475.9489 Q271.6606,474.297 271.6606,471.1759 Q271.6606,468.0465 272.9805,466.3947 Q274.3003,464.7428 276.8071,464.7428 Q277.5127,464.7428 278.1601,464.8922 Q278.8076,465.0416 279.3721,465.3405 L279.3721,468.0631 Q278.7412,467.4821 278.1477,467.2123 Q277.5542,466.9425 276.9233,466.9425 Q275.5786,466.9425 274.8938,468.0092 Q274.209,469.0758 274.209,471.1759 Q274.209,473.2677 274.8938,474.3344 Q275.5786,475.401 276.9233,475.401 Q277.5542,475.401 278.1477,475.1312 Q278.7412,474.8615 279.3721,474.2804 Z " fill="#000000"/><text fill="#ECF0F1" font-family="sans-serif" font-size="14" lengthAdjust="spacing" textLength="60.5732" x="296.8853" y="476.151">Producto</text><line style="stroke:#2C3E50;stroke-width:0.5;" x1="235.96" x2="386.3975" y1="486.86" y2="486.86"/><ellipse cx="245.96" cy="500.6041" fill="none" rx="3" ry="3" style="stroke:#038048;stroke-width:1;"/><text fill="#ECF0F1" font-family="sans-serif" font-size="14" lengthAdjust="spacing" textLength="39.6895" x="254.96" y="504.3952">id: int</text><ellipse cx="245.96" cy="517.0924" fill="none" rx="3" ry="3" style="stroke:#038048;stroke-width:1;"/><text fill="#ECF0F1" font-family="sans-serif" font-size="14" lengthAdjust="spacing" textLength="101.124" x="254.96" y="520.8834">nombre: string</text><ellipse cx="245.96" cy="533.5807" fill="none" rx="3" ry="3" style="stroke:#038048;stroke-width:1;"/><text fill="#ECF0F1" font-family="sans-serif" font-size="14" lengthAdjust="spacing" textLength="126.4375" x="254.96" y="537.3717">descripcion: string</text><ellipse cx="245.96" cy="550.069" fill="none" rx="3" ry="3" style="stroke:#038048;stroke-width:1;"/><text fill="#ECF0F1" font-family="sans-serif" font-size="14" lengthAdjust="spacing" textLength="81.7783" x="254.96" y="553.86">precio: float</text><ellipse cx="245.96" cy="566.5573" fill="none" rx="3" ry="3" style="stroke:#038048;stroke-width:1;"/><text fill="#ECF0F1" font-family="sans-serif" font-size="14" lengthAdjust="spacing" textLength="111.2002" x="254.96" y="570.3483">categoria: string</text><line style="stroke:#2C3E50;stroke-width:0.5;" x1="235.96" x2="386.3975" y1="577.3014" y2="577.3014"/></g><!--class Inventario--><g class="entity" data-entity="Inventario" data-source-line="25" data-uid="ent0004" id="entity_Inventario"><rect fill="#34495E" height="163.418" rx="2.5" ry="2.5" style="stroke:#2C3E50;stroke-width:0.5;" width="223.0322" x="252.66" y="214.44"/><ellipse cx="326.0267" cy="230.44" fill="#ADD1B2" rx="11" ry="11" style="stroke:#181818;stroke-width:1;"/><path d="M328.4998,236.5831 Q327.9188,236.8819 327.2796,237.0313 Q326.6405,237.1807 325.9349,237.1807 Q323.4281,237.1807 322.1082,235.5289 Q320.7884,233.877 320.7884,230.7559 Q320.7884,227.6265 322.1082,225.9747 Q323.4281,224.3228 325.9349,224.3228 Q326.6405,224.3228 327.2879,224.4722 Q327.9354,224.6216 328.4998,224.9205 L328.4998,227.6431 Q327.869,227.0621 327.2755,226.7923 Q326.682,226.5225 326.0511,226.5225 Q324.7064,226.5225 324.0216,227.5892 Q323.3368,228.6558 323.3368,230.7559 Q323.3368,232.8477 324.0216,233.9144 Q324.7064,234.981 326.0511,234.981 Q326.682,234.981 327.2755,234.7112 Q327.869,234.4415 328.4998,233.8604 Z " fill="#000000"/><text fill="#ECF0F1" font-family="sans-serif" font-size="14" lengthAdjust="spacing" textLength="67.7988" x="346.5267" y="235.731">Inventario</text><line style="stroke:#2C3E50;stroke-width:0.5;" x1="253.66" x2="474.6922" y1="246.44" y2="246.44"/><ellipse cx="263.66" cy="260.1841" fill="none" rx="3" ry="3" style="stroke:#038048;stroke-width:1;"/><text fill="#ECF0F1" font-family="sans-serif" font-size="14" lengthAdjust="spacing" textLength="39.6895" x="272.66" y="263.9752">id: int</text><ellipse cx="263.66" cy="276.6724" fill="none" rx="3" ry="3" style="stroke:#038048;stroke-width:1;"/><text fill="#ECF0F1" font-family="sans-serif" font-size="14" lengthAdjust="spacing" textLength="101.3223" x="272.66" y="280.4634">productoId: int</text><ellipse cx="263.66" cy="293.1607" fill="none" rx="3" ry="3" style="stroke:#038048;stroke-width:1;"/><text fill="#ECF0F1" font-family="sans-serif" font-size="14" lengthAdjust="spacing" textLength="127.5928" x="272.66" y="296.9517">cantidadActual: int</text><ellipse cx="263.66" cy="309.649" fill="none" rx="3" ry="3" style="stroke:#038048;stroke-width:1;"/><text fill="#ECF0F1" font-family="sans-serif" font-size="14" lengthAdjust="spacing" textLength="134.7021" x="272.66" y="313.44">cantidadMinima: int</text><ellipse cx="263.66" cy="326.1373" fill="none" rx="3" ry="3" style="stroke:#038048;stroke-width:1;"/><text fill="#ECF0F1" font-family="sans-serif" font-size="14" lengthAdjust="spacing" textLength="113.3809" x="272.66" y="329.9283">ubicacion: string</text><line style="stroke:#2C3E50;stroke-width:0.5;" x1="253.66" x2="474.6922" y1="336.8814" y2="336.8814"/><ellipse cx="263.66" cy="350.6255" fill="#84BE84" rx="3" ry="3" style="stroke:#038048;stroke-width:1;"/><text fill="#ECF0F1" font-family="sans-serif" font-size="14" lengthAdjust="spacing" textLength="197.0322" x="272.66" y="354.4166">actualizarStock(cantidad: int)</text><ellipse cx="263.66" cy="367.1138" fill="#84BE84" rx="3" ry="3" style="stroke:#038048;stroke-width:1;"/><text fill="#ECF0F1" font-family="sans-serif" font-size="14" lengthAdjust="spacing" textLength="192.2813" x="272.66" y="370.9048">verificarDesabastecimiento()</text></g><!--class Pedido--><g class="entity" data-entity="Pedido" data-source-line="35" data-uid="ent0005" id="entity_Pedido"><rect fill="#34495E" height="163.418" rx="2.5" ry="2.5" style="stroke:#2C3E50;stroke-width:0.5;" width="210.3584" x="7" y="214.44"/><ellipse cx="85.0254" cy="230.44" fill="#ADD1B2" rx="11" ry="11" style="stroke:#181818;stroke-width:1;"/><path d="M87.4985,236.5831 Q86.9175,236.8819 86.2783,237.0313 Q85.6392,237.1807 84.9336,237.1807 Q82.4268,237.1807 81.1069,235.5289 Q79.7871,233.877 79.7871,230.7559 Q79.7871,227.6265 81.1069,225.9747 Q82.4268,224.3228 84.9336,224.3228 Q85.6392,224.3228 86.2866,224.4722 Q86.9341,224.6216 87.4985,224.9205 L87.4985,227.6431 Q86.8677,227.0621 86.2742,226.7923 Q85.6807,226.5225 85.0498,226.5225 Q83.7051,226.5225 83.0203,227.5892 Q82.3354,228.6558 82.3354,230.7559 Q82.3354,232.8477 83.0203,233.9144 Q83.7051,234.981 85.0498,234.981 Q85.6807,234.981 86.2742,234.7112 Q86.8677,234.4415 87.4985,233.8604 Z " fill="#000000"/><text fill="#ECF0F1" font-family="sans-serif" font-size="14" lengthAdjust="spacing" textLength="45.8076" x="105.5254" y="235.731">Pedido</text><line style="stroke:#2C3E50;stroke-width:0.5;" x1="8" x2="216.3584" y1="246.44" y2="246.44"/><ellipse cx="18" cy="260.1841" fill="none" rx="3" ry="3" style="stroke:#038048;stroke-width:1;"/><text fill="#ECF0F1" font-family="sans-serif" font-size="14" lengthAdjust="spacing" textLength="39.6895" x="27" y="263.9752">id: int</text><ellipse cx="18" cy="276.6724" fill="none" rx="3" ry="3" style="stroke:#038048;stroke-width:1;"/><text fill="#ECF0F1" font-family="sans-serif" font-size="14" lengthAdjust="spacing" textLength="90.2959" x="27" y="280.4634">usuarioId: int</text><ellipse cx="18" cy="293.1607" fill="none" rx="3" ry="3" style="stroke:#038048;stroke-width:1;"/><text fill="#ECF0F1" font-family="sans-serif" font-size="14" lengthAdjust="spacing" textLength="108.8008" x="27" y="296.9517">proveedorId: int</text><ellipse cx="18" cy="309.649" fill="none" rx="3" ry="3" style="stroke:#038048;stroke-width:1;"/><text fill="#ECF0F1" font-family="sans-serif" font-size="14" lengthAdjust="spacing" textLength="184.3584" x="27" y="313.44">productos: List&lt;Producto&gt;</text><ellipse cx="18" cy="326.1373" fill="none" rx="3" ry="3" style="stroke:#038048;stroke-width:1;"/><text fill="#ECF0F1" font-family="sans-serif" font-size="14" lengthAdjust="spacing" textLength="76.6514" x="27" y="329.9283">fecha: Date</text><ellipse cx="18" cy="342.6255" fill="none" rx="3" ry="3" style="stroke:#038048;stroke-width:1;"/><text fill="#ECF0F1" font-family="sans-serif" font-size="14" lengthAdjust="spacing" textLength="93.7412" x="27" y="346.4166">estado: string</text><line style="stroke:#2C3E50;stroke-width:0.5;" x1="8" x2="216.3584" y1="353.3697" y2="353.3697"/><ellipse cx="18" cy="367.1138" fill="#84BE84" rx="3" ry="3" style="stroke:#038048;stroke-width:1;"/><text fill="#ECF0F1" font-family="sans-serif" font-size="14" lengthAdjust="spacing" textLength="153.6924" x="27" y="370.9048">generarListaCompras()</text></g><!--class Proveedor--><g class="entity" data-entity="Proveedor" data-source-line="45" data-uid="ent0006" id="entity_Proveedor"><rect fill="#34495E" height="113.9531" rx="2.5" ry="2.5" style="stroke:#2C3E50;stroke-width:0.5;" width="139.6201" x="42.37" y="463.1"/><ellipse cx="75.1758" cy="479.1" fill="#ADD1B2" rx="11" ry="11" style="stroke:#181818;stroke-width:1;"/><path d="M77.6489,485.2431 Q77.0679,485.5419 76.4287,485.6913 Q75.7895,485.8407 75.084,485.8407 Q72.5771,485.8407 71.2573,484.1889 Q69.9375,482.537 69.9375,479.4159 Q69.9375,476.2865 71.2573,474.6347 Q72.5771,472.9828 75.084,472.9828 Q75.7895,472.9828 76.437,473.1322 Q77.0845,473.2816 77.6489,473.5805 L77.6489,476.3031 Q77.018,475.7221 76.4245,475.4523 Q75.831,475.1825 75.2002,475.1825 Q73.8554,475.1825 73.1706,476.2492 Q72.4858,477.3158 72.4858,479.4159 Q72.4858,481.5077 73.1706,482.5744 Q73.8554,483.641 75.2002,483.641 Q75.831,483.641 76.4245,483.3712 Q77.018,483.1015 77.6489,482.5204 Z " fill="#000000"/><text fill="#ECF0F1" font-family="sans-serif" font-size="14" lengthAdjust="spacing" textLength="68.0518" x="93.1326" y="484.391">Proveedor</text><line style="stroke:#2C3E50;stroke-width:0.5;" x1="43.37" x2="180.9901" y1="495.1" y2="495.1"/><ellipse cx="53.37" cy="508.8441" fill="none" rx="3" ry="3" style="stroke:#038048;stroke-width:1;"/><text fill="#ECF0F1" font-family="sans-serif" font-size="14" lengthAdjust="spacing" textLength="39.6895" x="62.37" y="512.6352">id: int</text><ellipse cx="53.37" cy="525.3324" fill="none" rx="3" ry="3" style="stroke:#038048;stroke-width:1;"/><text fill="#ECF0F1" font-family="sans-serif" font-size="14" lengthAdjust="spacing" textLength="101.124" x="62.37" y="529.1234">nombre: string</text><ellipse cx="53.37" cy="541.8207" fill="none" rx="3" ry="3" style="stroke:#038048;stroke-width:1;"/><text fill="#ECF0F1" font-family="sans-serif" font-size="14" lengthAdjust="spacing" textLength="106.8594" x="62.37" y="545.6117">contacto: string</text><line style="stroke:#2C3E50;stroke-width:0.5;" x1="43.37" x2="180.9901" y1="552.5648" y2="552.5648"/><ellipse cx="53.37" cy="566.309" fill="#84BE84" rx="3" ry="3" style="stroke:#038048;stroke-width:1;"/><text fill="#ECF0F1" font-family="sans-serif" font-size="14" lengthAdjust="spacing" textLength="113.6201" x="62.37" y="570.1">procesarPedido()</text></g><!--class Reporte--><g class="entity" data-entity="Reporte" data-source-line="52" data-uid="ent0007" id="entity_Reporte"><rect fill="#34495E" height="130.4414" rx="2.5" ry="2.5" style="stroke:#2C3E50;stroke-width:0.5;" width="116.2959" x="565.03" y="454.86"/><ellipse cx="594.1905" cy="470.86" fill="#ADD1B2" rx="11" ry="11" style="stroke:#181818;stroke-width:1;"/><path d="M596.6636,477.0031 Q596.0826,477.3019 595.4434,477.4513 Q594.8043,477.6007 594.0987,477.6007 Q591.5919,477.6007 590.272,475.9489 Q588.9522,474.297 588.9522,471.1759 Q588.9522,468.0465 590.272,466.3947 Q591.5919,464.7428 594.0987,464.7428 Q594.8043,464.7428 595.4517,464.8922 Q596.0992,465.0416 596.6636,465.3405 L596.6636,468.0631 Q596.0328,467.4821 595.4393,467.2123 Q594.8458,466.9425 594.2149,466.9425 Q592.8702,466.9425 592.1854,468.0092 Q591.5006,469.0758 591.5006,471.1759 Q591.5006,473.2677 592.1854,474.3344 Q592.8702,475.401 594.2149,475.401 Q594.8458,475.401 595.4393,475.1312 Q596.0328,474.8615 596.6636,474.2804 Z " fill="#000000"/><text fill="#ECF0F1" font-family="sans-serif" font-size="14" lengthAdjust="spacing" textLength="52.8281" x="611.3373" y="476.151">Reporte</text><line style="stroke:#2C3E50;stroke-width:0.5;" x1="566.03" x2="680.3259" y1="486.86" y2="486.86"/><ellipse cx="576.03" cy="500.6041" fill="none" rx="3" ry="3" style="stroke:#038048;stroke-width:1;"/><text fill="#ECF0F1" font-family="sans-serif" font-size="14" lengthAdjust="spacing" textLength="39.6895" x="585.03" y="504.3952">id: int</text><ellipse cx="576.03" cy="517.0924" fill="none" rx="3" ry="3" style="stroke:#038048;stroke-width:1;"/><text fill="#ECF0F1" font-family="sans-serif" font-size="14" lengthAdjust="spacing" textLength="90.2959" x="585.03" y="520.8834">usuarioId: int</text><ellipse cx="576.03" cy="533.5807" fill="none" rx="3" ry="3" style="stroke:#038048;stroke-width:1;"/><text fill="#ECF0F1" font-family="sans-serif" font-size="14" lengthAdjust="spacing" textLength="75.1201" x="585.03" y="537.3717">tipo: string</text><ellipse cx="576.03" cy="550.069" fill="none" rx="3" ry="3" style="stroke:#038048;stroke-width:1;"/><text fill="#ECF0F1" font-family="sans-serif" font-size="14" lengthAdjust="spacing" textLength="79.4883" x="585.03" y="553.86">datos: JSON</text><line style="stroke:#2C3E50;stroke-width:0.5;" x1="566.03" x2="680.3259" y1="560.8131" y2="560.8131"/><ellipse cx="576.03" cy="574.5573" fill="#84BE84" rx="3" ry="3" style="stroke:#038048;stroke-width:1;"/><text fill="#ECF0F1" font-family="sans-serif" font-size="14" lengthAdjust="spacing" textLength="61.3115" x="585.03" y="578.3483">generar()</text></g><!--class Chatbot--><g class="entity" data-entity="Chatbot" data-source-line="60" data-uid="ent0008" id="entity_Chatbot"><rect fill="#34495E" height="97.4648" rx="2.5" ry="2.5" style="stroke:#2C3E50;stroke-width:0.5;" width="302.623" x="515.87" y="23.49"/><ellipse cx="635.9364" cy="39.49" fill="#ADD1B2" rx="11" ry="11" style="stroke:#181818;stroke-width:1;"/><path d="M638.4096,45.6331 Q637.8285,45.9319 637.1893,46.0813 Q636.5502,46.2307 635.8446,46.2307 Q633.3378,46.2307 632.0179,44.5789 Q630.6981,42.927 630.6981,39.8059 Q630.6981,36.6765 632.0179,35.0247 Q633.3378,33.3728 635.8446,33.3728 Q636.5502,33.3728 637.1976,33.5222 Q637.8451,33.6716 638.4096,33.9705 L638.4096,36.6931 Q637.7787,36.1121 637.1852,35.8423 Q636.5917,35.5725 635.9608,35.5725 Q634.6161,35.5725 633.9313,36.6392 Q633.2465,37.7058 633.2465,39.8059 Q633.2465,41.8977 633.9313,42.9644 Q634.6161,44.031 635.9608,44.031 Q636.5917,44.031 637.1852,43.7612 Q637.7787,43.4915 638.4096,42.9104 Z " fill="#000000"/><text fill="#ECF0F1" font-family="sans-serif" font-size="14" lengthAdjust="spacing" textLength="53.9902" x="656.4364" y="44.781">Chatbot</text><line style="stroke:#2C3E50;stroke-width:0.5;" x1="516.87" x2="817.493" y1="55.49" y2="55.49"/><line style="stroke:#2C3E50;stroke-width:0.5;" x1="516.87" x2="817.493" y1="63.49" y2="63.49"/><ellipse cx="526.87" cy="77.2341" fill="#84BE84" rx="3" ry="3" style="stroke:#038048;stroke-width:1;"/><text fill="#ECF0F1" font-family="sans-serif" font-size="14" lengthAdjust="spacing" textLength="276.623" x="535.87" y="81.0252">procesarMensaje(mensaje: string): string</text><ellipse cx="526.87" cy="93.7224" fill="#84BE84" rx="3" ry="3" style="stroke:#038048;stroke-width:1;"/><text fill="#ECF0F1" font-family="sans-serif" font-size="14" lengthAdjust="spacing" textLength="143.042" x="535.87" y="97.5134">actualizarInventario()</text><ellipse cx="526.87" cy="110.2107" fill="#84BE84" rx="3" ry="3" style="stroke:#038048;stroke-width:1;"/><text fill="#ECF0F1" font-family="sans-serif" font-size="14" lengthAdjust="spacing" textLength="108.8623" x="535.87" y="114.0017">consultarStock()</text></g><!--class ModeloIA--><g class="entity" data-entity="ModeloIA" data-source-line="66" data-uid="ent0009" id="entity_ModeloIA"><rect fill="#34495E" height="80.9766" rx="2.5" ry="2.5" style="stroke:#2C3E50;stroke-width:0.5;" width="335.1074" x="627.63" y="255.66"/><ellipse cx="759.1295" cy="271.66" fill="#ADD1B2" rx="11" ry="11" style="stroke:#181818;stroke-width:1;"/><path d="M761.6027,277.8031 Q761.0216,278.1019 760.3824,278.2513 Q759.7433,278.4007 759.0377,278.4007 Q756.5309,278.4007 755.2111,276.7489 Q753.8912,275.097 753.8912,271.9759 Q753.8912,268.8465 755.2111,267.1947 Q756.5309,265.5428 759.0377,265.5428 Q759.7433,265.5428 760.3907,265.6922 Q761.0382,265.8416 761.6027,266.1405 L761.6027,268.8631 Q760.9718,268.2821 760.3783,268.0123 Q759.7848,267.7425 759.1539,267.7425 Q757.8092,267.7425 757.1244,268.8092 Q756.4396,269.8758 756.4396,271.9759 Q756.4396,274.0677 757.1244,275.1344 Q757.8092,276.201 759.1539,276.201 Q759.7848,276.201 760.3783,275.9312 Q760.9718,275.6615 761.6027,275.0804 Z " fill="#000000"/><text fill="#ECF0F1" font-family="sans-serif" font-size="14" lengthAdjust="spacing" textLength="63.6084" x="779.6295" y="276.951">ModeloIA</text><line style="stroke:#2C3E50;stroke-width:0.5;" x1="628.63" x2="961.7374" y1="287.66" y2="287.66"/><line style="stroke:#2C3E50;stroke-width:0.5;" x1="628.63" x2="961.7374" y1="295.66" y2="295.66"/><ellipse cx="638.63" cy="309.4041" fill="#84BE84" rx="3" ry="3" style="stroke:#038048;stroke-width:1;"/><text fill="#ECF0F1" font-family="sans-serif" font-size="14" lengthAdjust="spacing" textLength="309.1074" x="647.63" y="313.1952">predecirDesabastecimiento(): List&lt;Producto&gt;</text><ellipse cx="638.63" cy="325.8924" fill="#84BE84" rx="3" ry="3" style="stroke:#038048;stroke-width:1;"/><text fill="#ECF0F1" font-family="sans-serif" font-size="14" lengthAdjust="spacing" textLength="201.25" x="647.63" y="329.6834">analizarTendencias(): Reporte</text></g><!--link Usuario to Inventario--><g class="link" data-entity-1="Usuario" data-entity-2="Inventario" data-source-line="71" data-uid="lnk10" id="link_Usuario_Inventario"><path codeLine="71" d="M364.18,137.71 C364.18,161.64 364.18,183.09 364.18,208.3" fill="none" id="Usuario-to-Inventario" style="stroke:#7F8C8D;stroke-width:1;"/><polygon fill="#7F8C8D" points="364.18,214.3,368.18,205.3,364.18,209.3,360.18,205.3,364.18,214.3" style="stroke:#7F8C8D;stroke-width:1;"/><text fill="#2C3E50" font-family="sans-serif" font-size="13" lengthAdjust="spacing" textLength="53.8281" x="365.18" y="181.0084">gestiona</text></g><!--link Usuario to Pedido--><g class="link" data-entity-1="Usuario" data-entity-2="Pedido" data-source-line="72" data-uid="lnk11" id="link_Usuario_Pedido"><path codeLine="72" d="M290.95,137.71 C263.78,161.64 237.1131,185.1249 208.4831,210.3349" fill="none" id="Usuario-to-Pedido" style="stroke:#7F8C8D;stroke-width:1;"/><polygon fill="#7F8C8D" points="203.98,214.3,213.378,211.3543,207.7326,210.9957,208.0912,205.3502,203.98,214.3" style="stroke:#7F8C8D;stroke-width:1;"/><text fill="#2C3E50" font-family="sans-serif" font-size="13" lengthAdjust="spacing" textLength="26.3999" x="254.27" y="181.0084">crea</text></g><!--link Usuario to Reporte--><g class="link" data-entity-1="Usuario" data-entity-2="Reporte" data-source-line="73" data-uid="lnk12" id="link_Usuario_Reporte"><path codeLine="73" d="M431.48,137.63 C453.01,160.52 475.75,187.35 493.18,214.44 C500.1,225.2 557.937,362.7438 593.947,448.9338" fill="none" id="Usuario-to-Reporte" style="stroke:#7F8C8D;stroke-width:1;"/><polygon fill="#7F8C8D" points="596.26,454.47,596.4813,444.6236,594.3325,449.8565,589.0996,447.7077,596.26,454.47" style="stroke:#7F8C8D;stroke-width:1;"/><text fill="#2C3E50" font-family="sans-serif" font-size="13" lengthAdjust="spacing" textLength="44.5859" x="564.99" y="301.2184">solicita</text></g><!--link Inventario to Producto--><g class="link" data-entity-1="Inventario" data-entity-2="Producto" data-source-line="74" data-uid="lnk13" id="link_Inventario_Producto"><path codeLine="74" d="M344.82,378.21 C338.82,403.35 333.6847,424.8643 327.9847,448.7143" fill="none" id="Inventario-to-Producto" style="stroke:#7F8C8D;stroke-width:1;"/><polygon fill="#7F8C8D" points="326.59,454.55,332.5725,446.7263,327.7522,449.687,324.7916,444.8667,326.59,454.55" style="stroke:#7F8C8D;stroke-width:1;"/><text fill="#2C3E50" font-family="sans-serif" font-size="13" lengthAdjust="spacing" textLength="53.8853" x="338.68" y="421.4284">contiene</text></g><!--link Pedido to Producto--><g class="link" data-entity-1="Pedido" data-entity-2="Producto" data-source-line="75" data-uid="lnk14" id="link_Pedido_Producto"><path codeLine="75" d="M184.87,378.21 C207.41,403.35 227.924,426.2333 249.314,450.0833" fill="none" id="Pedido-to-Producto" style="stroke:#7F8C8D;stroke-width:1;"/><polygon fill="#7F8C8D" points="253.32,454.55,250.2888,445.1792,249.9816,450.8277,244.3331,450.5206,253.32,454.55" style="stroke:#7F8C8D;stroke-width:1;"/><text fill="#2C3E50" font-family="sans-serif" font-size="13" lengthAdjust="spacing" textLength="44.3447" x="224.59" y="421.4284">incluye</text></g><!--link Pedido to Proveedor--><g class="link" data-entity-1="Pedido" data-entity-2="Proveedor" data-source-line="76" data-uid="lnk15" id="link_Pedido_Proveedor"><path codeLine="76" d="M112.18,378.21 C112.18,406.32 112.18,431.19 112.18,456.86" fill="none" id="Pedido-to-Proveedor" style="stroke:#7F8C8D;stroke-width:1;"/><polygon fill="#7F8C8D" points="112.18,462.86,116.18,453.86,112.18,457.86,108.18,453.86,112.18,462.86" style="stroke:#7F8C8D;stroke-width:1;"/><text fill="#2C3E50" font-family="sans-serif" font-size="13" lengthAdjust="spacing" textLength="32.8428" x="113.18" y="421.4284">hacia</text></g><!--link Chatbot to Inventario--><g class="link" data-entity-1="Chatbot" data-entity-2="Inventario" data-source-line="77" data-uid="lnk16" id="link_Chatbot_Inventario"><path codeLine="77" d="M601.43,121.38 C564.45,148.47 522.1303,179.4543 479.6203,210.5943" fill="none" id="Chatbot-to-Inventario" style="stroke:#7F8C8D;stroke-width:1;"/><polygon fill="#7F8C8D" points="474.78,214.14,484.4042,212.0484,478.8136,211.1853,479.6766,205.5947,474.78,214.14" style="stroke:#7F8C8D;stroke-width:1;"/><text fill="#2C3E50" font-family="sans-serif" font-size="13" lengthAdjust="spacing" textLength="56.0942" x="534.82" y="181.0084">actualiza</text></g><!--link Chatbot to ModeloIA--><g class="link" data-entity-1="Chatbot" data-entity-2="ModeloIA" data-source-line="78" data-uid="lnk17" id="link_Chatbot_ModeloIA"><path codeLine="78" d="M694.95,121.38 C718.04,161.41 747.5131,212.4921 769.1631,250.0421" fill="none" id="Chatbot-to-ModeloIA" style="stroke:#7F8C8D;stroke-width:1;"/><polygon fill="#7F8C8D" points="772.16,255.24,771.1299,245.4452,769.6626,250.9084,764.1993,249.4411,772.16,255.24" style="stroke:#7F8C8D;stroke-width:1;"/><text fill="#2C3E50" font-family="sans-serif" font-size="13" lengthAdjust="spacing" textLength="53.2061" x="732.18" y="181.0084">consulta</text></g><!--link ModeloIA to Reporte--><g class="link" data-entity-1="ModeloIA" data-entity-2="Reporte" data-source-line="79" data-uid="lnk18" id="link_ModeloIA_Reporte"><path codeLine="79" d="M764.23,337.08 C738.89,369.78 706.2254,411.9275 676.7754,449.9275" fill="none" id="ModeloIA-to-Reporte" style="stroke:#7F8C8D;stroke-width:1;"/><polygon fill="#7F8C8D" points="673.1,454.67,681.7748,450.0066,676.1629,450.7179,675.4515,445.106,673.1,454.67" style="stroke:#7F8C8D;stroke-width:1;"/><text fill="#2C3E50" font-family="sans-serif" font-size="13" lengthAdjust="spacing" textLength="43.1577" x="710.18" y="421.4284">genera</text></g><!--SRC=[ZLFRRjD047ttLwp4IofKgT1M5AkgbAP22YA0A7p0U7US3B5thDbr423-dVMrlgIGl3YQsvbppgpRaor085S9wFrMkBHcnHcBUf7MlyZr5Je3v-wdPPTNLs-lSLR6Ob3QajVw4gylfYNlsFf_GYsz5qfAZuDArEb5-khPoll_aW0H_j4ctwGt-iPCamEqTl4QGtrp9GYn-XqfzP9ChCZwwg_bF16CbGixs6qLmHme6mOqMrTc7cHj3sXzDMPnLYMsQ550lc31uZ74_aGjscTXKsf_2fn1fuKAJMo7uK8mX6ALPWnrfmQFMnQ2lgf7UzfhXbUqYwoVGXgi9mDcgNq9sIoy8KivzE4o8GtJvQ1kfLyWZvxrVj7rrbsrD0SKIaEdFA2319mFR78AM_989ZHavakNZLVh4Oq3ec5PpwcvM7qWvsyxpU-gP8fw5qWy1D5gJvq7mqCAhNTL9wmuBmJSnC06y0G7mttue0YFxMCTc4l3S3YvlPOJI7igHZCDr6JVFtxwE60mdBtQWK_ODxEx5JPe7Np7HTvykubdnmsTtdX__8tJ0x0D6ynulUpGq0IFZ_bzp1-m3TnNj0QjfahzkDEcmkZUw_dvtV2-OxKDNePpX555UqYnqeBZJ2TtOCiPQV8G3SRLlTrR3Tt1oR0qHksyIPgipigVqsnx9x7QXNS2KUV1RF5Uur59hsADNaiTzR4nWSRmlm00]--></g></svg>