<svg xmlns="http://www.w3.org/2000/svg" xmlns:xlink="http://www.w3.org/1999/xlink" contentStyleType="text/css" data-diagram-type="CLASS" height="575px" preserveAspectRatio="none" style="width:634px;height:575px;background:#FFFFFF;" version="1.1" viewBox="0 0 634 575" width="634px" zoomAndPan="magnify"><defs/><g><!--class USUARIO--><g class="entity" data-entity="USUARIO" data-source-line="7" data-uid="ent0002" id="entity_USUARIO"><rect fill="#F1F1F1" height="146.9297" rx="2.5" ry="2.5" style="stroke:#181818;stroke-width:0.5;" width="217.4746" x="251.92" y="7"/><ellipse cx="326.2266" cy="23" fill="#ADD1B2" rx="11" ry="11" style="stroke:#181818;stroke-width:1;"/><path d="M329.8409,29.5 L322.1212,29.5 L322.1212,17.1069 L329.8409,17.1069 L329.8409,19.2651 L324.5699,19.2651 L324.5699,21.938 L329.3429,21.938 L329.3429,24.0962 L324.5699,24.0962 L324.5699,27.3418 L329.8409,27.3418 Z " fill="#000000"/><text fill="#000000" font-family="sans-serif" font-size="14" lengthAdjust="spacing" textLength="60.3613" x="346.7266" y="28.291">USUARIO</text><line style="stroke:#181818;stroke-width:0.5;" x1="252.92" x2="468.3946" y1="39" y2="39"/><ellipse cx="262.92" cy="52.7441" fill="#000000" rx="3" ry="3" style="stroke:#000000;stroke-width:1;"/><text fill="#000000" font-family="sans-serif" font-size="14" lengthAdjust="spacing" textLength="44.1191" x="271.92" y="56.5352">id : int</text><line style="stroke:#181818;stroke-width:1;" x1="252.92" x2="468.3946" y1="63.4883" y2="63.4883"/><text fill="#000000" font-family="sans-serif" font-size="14" lengthAdjust="spacing" textLength="105.5537" x="257.92" y="81.0234">nombre : string</text><text fill="#000000" font-family="sans-serif" font-size="14" lengthAdjust="spacing" textLength="89.5508" x="257.92" y="97.5117">email : string</text><text fill="#000000" font-family="sans-serif" font-size="14" lengthAdjust="spacing" textLength="108.7734" x="257.92" y="114">telefono : string</text><text fill="#000000" font-family="sans-serif" font-size="14" lengthAdjust="spacing" textLength="173.4961" x="257.92" y="130.4883">fecha_creacion : datetime</text><text fill="#000000" font-family="sans-serif" font-size="14" lengthAdjust="spacing" textLength="205.4746" x="257.92" y="146.9766">fecha_actualizacion : datetime</text></g><!--class PRODUCTO--><g class="entity" data-entity="PRODUCTO" data-source-line="17" data-uid="ent0003" id="entity_PRODUCTO"><rect fill="#F1F1F1" height="130.4414" rx="2.5" ry="2.5" style="stroke:#181818;stroke-width:0.5;" width="142.8672" x="31.22" y="15.24"/><ellipse cx="61.4295" cy="31.24" fill="#ADD1B2" rx="11" ry="11" style="stroke:#181818;stroke-width:1;"/><path d="M65.0437,37.74 L57.324,37.74 L57.324,25.3469 L65.0437,25.3469 L65.0437,27.5051 L59.7727,27.5051 L59.7727,30.178 L64.5457,30.178 L64.5457,32.3362 L59.7727,32.3362 L59.7727,35.5818 L65.0437,35.5818 Z " fill="#000000"/><text fill="#000000" font-family="sans-serif" font-size="14" lengthAdjust="spacing" textLength="77.0684" x="78.8094" y="36.531">PRODUCTO</text><line style="stroke:#181818;stroke-width:0.5;" x1="32.22" x2="173.0872" y1="47.24" y2="47.24"/><ellipse cx="42.22" cy="60.9841" fill="#000000" rx="3" ry="3" style="stroke:#000000;stroke-width:1;"/><text fill="#000000" font-family="sans-serif" font-size="14" lengthAdjust="spacing" textLength="44.1191" x="51.22" y="64.7752">id : int</text><line style="stroke:#181818;stroke-width:1;" x1="32.22" x2="173.0872" y1="71.7283" y2="71.7283"/><text fill="#000000" font-family="sans-serif" font-size="14" lengthAdjust="spacing" textLength="105.5537" x="37.22" y="89.2634">nombre : string</text><text fill="#000000" font-family="sans-serif" font-size="14" lengthAdjust="spacing" textLength="130.8672" x="37.22" y="105.7517">descripcion : string</text><text fill="#000000" font-family="sans-serif" font-size="14" lengthAdjust="spacing" textLength="86.208" x="37.22" y="122.24">precio : float</text><text fill="#000000" font-family="sans-serif" font-size="14" lengthAdjust="spacing" textLength="115.6299" x="37.22" y="138.7283">categoria : string</text></g><!--class INVENTARIO--><g class="entity" data-entity="INVENTARIO" data-source-line="26" data-uid="ent0004" id="entity_INVENTARIO"><rect fill="#F1F1F1" height="146.9297" rx="2.5" ry="2.5" style="stroke:#181818;stroke-width:0.5;" width="159.1436" x="134.08" y="230.93"/><ellipse cx="168.6146" cy="246.93" fill="#ADD1B2" rx="11" ry="11" style="stroke:#181818;stroke-width:1;"/><path d="M172.2288,253.43 L164.5091,253.43 L164.5091,241.0369 L172.2288,241.0369 L172.2288,243.1951 L166.9578,243.1951 L166.9578,245.868 L171.7308,245.868 L171.7308,248.0262 L166.9578,248.0262 L166.9578,251.2718 L172.2288,251.2718 Z " fill="#000000"/><text fill="#000000" font-family="sans-serif" font-size="14" lengthAdjust="spacing" textLength="83.7334" x="186.9556" y="252.221">INVENTARIO</text><line style="stroke:#181818;stroke-width:0.5;" x1="135.08" x2="292.2236" y1="262.93" y2="262.93"/><ellipse cx="145.08" cy="276.6741" fill="#000000" rx="3" ry="3" style="stroke:#000000;stroke-width:1;"/><text fill="#000000" font-family="sans-serif" font-size="14" lengthAdjust="spacing" textLength="44.1191" x="154.08" y="280.4652">id : int</text><line style="stroke:#181818;stroke-width:1;" x1="135.08" x2="292.2236" y1="287.4183" y2="287.4183"/><text fill="#000000" font-family="sans-serif" font-size="14" lengthAdjust="spacing" textLength="101.7393" x="140.08" y="304.9534">usuario_id : int</text><text fill="#000000" font-family="sans-serif" font-size="14" lengthAdjust="spacing" textLength="112.7656" x="140.08" y="321.4417">producto_id : int</text><text fill="#000000" font-family="sans-serif" font-size="14" lengthAdjust="spacing" textLength="137.0947" x="140.08" y="337.93">cantidad_actual : int</text><text fill="#000000" font-family="sans-serif" font-size="14" lengthAdjust="spacing" textLength="147.1436" x="140.08" y="354.4183">cantidad_minima : int</text><text fill="#000000" font-family="sans-serif" font-size="14" lengthAdjust="spacing" textLength="117.8105" x="140.08" y="370.9066">ubicacion : string</text></g><!--class PEDIDO--><g class="entity" data-entity="PEDIDO" data-source-line="36" data-uid="ent0005" id="entity_PEDIDO"><rect fill="#F1F1F1" height="130.4414" rx="2.5" ry="2.5" style="stroke:#181818;stroke-width:0.5;" width="132.2441" x="476.53" y="239.17"/><ellipse cx="513.5963" cy="255.17" fill="#ADD1B2" rx="11" ry="11" style="stroke:#181818;stroke-width:1;"/><path d="M517.2105,261.67 L509.4908,261.67 L509.4908,249.2769 L517.2105,249.2769 L517.2105,251.4351 L511.9395,251.4351 L511.9395,254.108 L516.7125,254.108 L516.7125,256.2662 L511.9395,256.2662 L511.9395,259.5118 L517.2105,259.5118 Z " fill="#000000"/><text fill="#000000" font-family="sans-serif" font-size="14" lengthAdjust="spacing" textLength="51.208" x="532.4999" y="260.461">PEDIDO</text><line style="stroke:#181818;stroke-width:0.5;" x1="477.53" x2="607.7741" y1="271.17" y2="271.17"/><ellipse cx="487.53" cy="284.9141" fill="#000000" rx="3" ry="3" style="stroke:#000000;stroke-width:1;"/><text fill="#000000" font-family="sans-serif" font-size="14" lengthAdjust="spacing" textLength="44.1191" x="496.53" y="288.7052">id : int</text><line style="stroke:#181818;stroke-width:1;" x1="477.53" x2="607.7741" y1="295.6583" y2="295.6583"/><text fill="#000000" font-family="sans-serif" font-size="14" lengthAdjust="spacing" textLength="101.7393" x="482.53" y="313.1934">usuario_id : int</text><text fill="#000000" font-family="sans-serif" font-size="14" lengthAdjust="spacing" textLength="120.2441" x="482.53" y="329.6817">proveedor_id : int</text><text fill="#000000" font-family="sans-serif" font-size="14" lengthAdjust="spacing" textLength="79.4063" x="482.53" y="346.17">fecha : date</text><text fill="#000000" font-family="sans-serif" font-size="14" lengthAdjust="spacing" textLength="98.1709" x="482.53" y="362.6583">estado : string</text></g><!--class DETALLE_PEDIDO--><g class="entity" data-entity="DETALLE_PEDIDO" data-source-line="45" data-uid="ent0006" id="entity_DETALLE_PEDIDO"><rect fill="#F1F1F1" height="113.9531" rx="2.5" ry="2.5" style="stroke:#181818;stroke-width:0.5;" width="149.3115" x="7" y="454.86"/><ellipse cx="22" cy="470.86" fill="#ADD1B2" rx="11" ry="11" style="stroke:#181818;stroke-width:1;"/><path d="M25.6143,477.36 L17.8945,477.36 L17.8945,464.9669 L25.6143,464.9669 L25.6143,467.1251 L20.3433,467.1251 L20.3433,469.798 L25.1162,469.798 L25.1162,471.9562 L20.3433,471.9562 L20.3433,475.2018 L25.6143,475.2018 Z " fill="#000000"/><text fill="#000000" font-family="sans-serif" font-size="14" lengthAdjust="spacing" textLength="117.3115" x="36" y="476.151">DETALLE_PEDIDO</text><line style="stroke:#181818;stroke-width:0.5;" x1="8" x2="155.3115" y1="486.86" y2="486.86"/><ellipse cx="18" cy="500.6041" fill="#000000" rx="3" ry="3" style="stroke:#000000;stroke-width:1;"/><text fill="#000000" font-family="sans-serif" font-size="14" lengthAdjust="spacing" textLength="44.1191" x="27" y="504.3952">id : int</text><line style="stroke:#181818;stroke-width:1;" x1="8" x2="155.3115" y1="511.3483" y2="511.3483"/><text fill="#000000" font-family="sans-serif" font-size="14" lengthAdjust="spacing" textLength="98" x="13" y="528.8834">pedido_id : int</text><text fill="#000000" font-family="sans-serif" font-size="14" lengthAdjust="spacing" textLength="112.7656" x="13" y="545.3717">producto_id : int</text><text fill="#000000" font-family="sans-serif" font-size="14" lengthAdjust="spacing" textLength="89.4893" x="13" y="561.86">cantidad : int</text></g><!--class PROVEEDOR--><g class="entity" data-entity="PROVEEDOR" data-source-line="53" data-uid="ent0007" id="entity_PROVEEDOR"><rect fill="#F1F1F1" height="97.4648" rx="2.5" ry="2.5" style="stroke:#181818;stroke-width:0.5;" width="123.2891" x="504.01" y="31.73"/><ellipse cx="523.1852" cy="47.73" fill="#ADD1B2" rx="11" ry="11" style="stroke:#181818;stroke-width:1;"/><path d="M526.7995,54.23 L519.0798,54.23 L519.0798,41.8369 L526.7995,41.8369 L526.7995,43.9951 L521.5285,43.9951 L521.5285,46.668 L526.3015,46.668 L526.3015,48.8262 L521.5285,48.8262 L521.5285,52.0718 L526.7995,52.0718 Z " fill="#000000"/><text fill="#000000" font-family="sans-serif" font-size="14" lengthAdjust="spacing" textLength="82.0107" x="538.1131" y="53.021">PROVEEDOR</text><line style="stroke:#181818;stroke-width:0.5;" x1="505.01" x2="626.2991" y1="63.73" y2="63.73"/><ellipse cx="515.01" cy="77.4741" fill="#000000" rx="3" ry="3" style="stroke:#000000;stroke-width:1;"/><text fill="#000000" font-family="sans-serif" font-size="14" lengthAdjust="spacing" textLength="44.1191" x="524.01" y="81.2652">id : int</text><line style="stroke:#181818;stroke-width:1;" x1="505.01" x2="626.2991" y1="88.2183" y2="88.2183"/><text fill="#000000" font-family="sans-serif" font-size="14" lengthAdjust="spacing" textLength="105.5537" x="510.01" y="105.7534">nombre : string</text><text fill="#000000" font-family="sans-serif" font-size="14" lengthAdjust="spacing" textLength="111.2891" x="510.01" y="122.2417">contacto : string</text></g><!--class REPORTE--><g class="entity" data-entity="REPORTE" data-source-line="60" data-uid="ent0008" id="entity_REPORTE"><rect fill="#F1F1F1" height="130.4414" rx="2.5" ry="2.5" style="stroke:#181818;stroke-width:0.5;" width="113.7393" x="327.79" y="239.17"/><ellipse cx="352.4162" cy="255.17" fill="#ADD1B2" rx="11" ry="11" style="stroke:#181818;stroke-width:1;"/><path d="M356.0305,261.67 L348.3108,261.67 L348.3108,249.2769 L356.0305,249.2769 L356.0305,251.4351 L350.7595,251.4351 L350.7595,254.108 L355.5324,254.108 L355.5324,256.2662 L350.7595,256.2662 L350.7595,259.5118 L356.0305,259.5118 Z " fill="#000000"/><text fill="#000000" font-family="sans-serif" font-size="14" lengthAdjust="spacing" textLength="60.3477" x="368.5554" y="260.461">REPORTE</text><line style="stroke:#181818;stroke-width:0.5;" x1="328.79" x2="440.5293" y1="271.17" y2="271.17"/><ellipse cx="338.79" cy="284.9141" fill="#000000" rx="3" ry="3" style="stroke:#000000;stroke-width:1;"/><text fill="#000000" font-family="sans-serif" font-size="14" lengthAdjust="spacing" textLength="44.1191" x="347.79" y="288.7052">id : int</text><line style="stroke:#181818;stroke-width:1;" x1="328.79" x2="440.5293" y1="295.6583" y2="295.6583"/><text fill="#000000" font-family="sans-serif" font-size="14" lengthAdjust="spacing" textLength="101.7393" x="333.79" y="313.1934">usuario_id : int</text><text fill="#000000" font-family="sans-serif" font-size="14" lengthAdjust="spacing" textLength="79.5498" x="333.79" y="329.6817">tipo : string</text><text fill="#000000" font-family="sans-serif" font-size="14" lengthAdjust="spacing" textLength="79.4883" x="333.79" y="346.17">datos : json</text><text fill="#000000" font-family="sans-serif" font-size="14" lengthAdjust="spacing" textLength="79.4063" x="333.79" y="362.6583">fecha : date</text></g><!--link USUARIO to INVENTARIO--><g class="link" data-entity-1="USUARIO" data-entity-2="INVENTARIO" data-source-line="69" data-uid="lnk9" id="link_USUARIO_INVENTARIO"><path codeLine="69" d="M308.1025,160.7998 C291.8625,185.3198 288.088,191.0121 271.838,215.5521" fill="none" id="USUARIO-INVENTARIO" style="stroke:#7F8C8D;stroke-width:1;"/><line style="stroke:#7F8C8D;stroke-width:1;" x1="306.9764" x2="313.6461" y1="155.2561" y2="159.6736"/><line style="stroke:#7F8C8D;stroke-width:1;" x1="305.3198" x2="311.9896" y1="157.7573" y2="162.1748"/><line style="stroke:#7F8C8D;stroke-width:1;" x1="308.1025" x2="312.52" y1="160.7998" y2="154.13"/><line style="stroke:#7F8C8D;stroke-width:1;" x1="266.3169" x2="266.9026" y1="223.8898" y2="233.8727"/><line style="stroke:#7F8C8D;stroke-width:1;" x1="266.3169" x2="256.8974" y1="223.8898" y2="227.2473"/><line style="stroke:#7F8C8D;stroke-width:1;" x1="266.3169" x2="261.9" y1="223.8898" y2="230.56"/><ellipse cx="269.6295" cy="218.8872" fill="none" rx="4" ry="4" style="stroke:#7F8C8D;stroke-width:1;"/><text fill="#2C3E50" font-family="sans-serif" font-size="13" lengthAdjust="spacing" textLength="31.1733" x="292.56" y="197.4984">tiene</text></g><!--link USUARIO to PEDIDO--><g class="link" data-entity-1="USUARIO" data-entity-2="PEDIDO" data-source-line="70" data-uid="lnk10" id="link_USUARIO_PEDIDO"><path codeLine="70" d="M425.3221,160.3166 C447.7121,187.6266 456.5154,198.3521 478.2654,224.8721" fill="none" id="USUARIO-PEDIDO" style="stroke:#7F8C8D;stroke-width:1;"/><line style="stroke:#7F8C8D;stroke-width:1;" x1="419.6927" x2="425.8793" y1="159.7593" y2="154.6873"/><line style="stroke:#7F8C8D;stroke-width:1;" x1="421.5948" x2="427.7814" y1="162.0793" y2="157.0072"/><line style="stroke:#7F8C8D;stroke-width:1;" x1="425.3221" x2="420.25" y1="160.3166" y2="154.13"/><line style="stroke:#7F8C8D;stroke-width:1;" x1="484.6069" x2="494.3193" y1="232.6043" y2="234.9851"/><line style="stroke:#7F8C8D;stroke-width:1;" x1="484.6069" x2="485.0407" y1="232.6043" y2="242.5949"/><line style="stroke:#7F8C8D;stroke-width:1;" x1="484.6069" x2="489.68" y1="232.6043" y2="238.79"/><ellipse cx="480.802" cy="227.965" fill="none" rx="4" ry="4" style="stroke:#7F8C8D;stroke-width:1;"/><text fill="#2C3E50" font-family="sans-serif" font-size="13" lengthAdjust="spacing" textLength="26.3999" x="458.11" y="197.4984">crea</text></g><!--link USUARIO to REPORTE--><g class="link" data-entity-1="USUARIO" data-entity-2="REPORTE" data-source-line="71" data-uid="lnk11" id="link_USUARIO_REPORTE"><path codeLine="71" d="M369.372,162.0834 C372.332,189.3934 372.8633,194.3745 375.7333,220.8945" fill="none" id="USUARIO-REPORTE" style="stroke:#7F8C8D;stroke-width:1;"/><line style="stroke:#7F8C8D;stroke-width:1;" x1="364.9643" x2="372.9177" y1="158.5377" y2="157.6757"/><line style="stroke:#7F8C8D;stroke-width:1;" x1="365.2876" x2="373.241" y1="161.5203" y2="160.6582"/><line style="stroke:#7F8C8D;stroke-width:1;" x1="369.372" x2="368.51" y1="162.0834" y2="154.13"/><line style="stroke:#7F8C8D;stroke-width:1;" x1="376.8093" x2="383.6352" y1="230.8364" y2="238.1444"/><line style="stroke:#7F8C8D;stroke-width:1;" x1="376.8093" x2="371.7048" y1="230.8364" y2="239.4356"/><line style="stroke:#7F8C8D;stroke-width:1;" x1="376.8093" x2="377.67" y1="230.8364" y2="238.79"/><ellipse cx="376.1637" cy="224.8713" fill="none" rx="4" ry="4" style="stroke:#7F8C8D;stroke-width:1;"/><text fill="#2C3E50" font-family="sans-serif" font-size="13" lengthAdjust="spacing" textLength="44.5859" x="374.38" y="197.4984">solicita</text></g><!--link PRODUCTO to INVENTARIO--><g class="link" data-entity-1="PRODUCTO" data-entity-2="INVENTARIO" data-source-line="73" data-uid="lnk12" id="link_PRODUCTO_INVENTARIO"><path codeLine="73" d="M117.0428,153.8274 C121.8428,172.0974 126.23,183.89 134.66,200.93 C139.63,210.99 135.6063,206.1229 142.1163,215.7629" fill="none" id="PRODUCTO-INVENTARIO" style="stroke:#7F8C8D;stroke-width:1;"/><line style="stroke:#7F8C8D;stroke-width:1;" x1="112.1577" x2="119.8951" y1="150.9751" y2="148.9423"/><line style="stroke:#7F8C8D;stroke-width:1;" x1="112.92" x2="120.6574" y1="153.8767" y2="151.8438"/><line style="stroke:#7F8C8D;stroke-width:1;" x1="117.0428" x2="115.01" y1="153.8274" y2="146.09"/><line style="stroke:#7F8C8D;stroke-width:1;" x1="147.7128" x2="157.1624" y1="224.0502" y2="227.3221"/><line style="stroke:#7F8C8D;stroke-width:1;" x1="147.7128" x2="147.2176" y1="224.0502" y2="234.0379"/><line style="stroke:#7F8C8D;stroke-width:1;" x1="147.7128" x2="152.19" y1="224.0502" y2="230.68"/><ellipse cx="144.3549" cy="219.0778" fill="none" rx="4" ry="4" style="stroke:#7F8C8D;stroke-width:1;"/><text fill="#2C3E50" font-family="sans-serif" font-size="13" lengthAdjust="spacing" textLength="53.8853" x="135.66" y="197.4984">contiene</text></g><!--link PRODUCTO to DETALLE_PEDIDO--><g class="link" data-entity-1="PRODUCTO" data-entity-2="DETALLE_PEDIDO" data-source-line="74" data-uid="lnk13" id="link_PRODUCTO_DETALLE_PEDIDO"><path codeLine="74" d="M83.9089,153.8846 C77.8689,180.0246 73.63,202.82 70.66,230.93 C63.78,295.87 67.96,312.61 70.66,377.86 C71.7,403.09 72.2443,413.0118 74.3643,436.6818" fill="none" id="PRODUCTO-DETALLE_PEDIDO" style="stroke:#7F8C8D;stroke-width:1;"/><line style="stroke:#7F8C8D;stroke-width:1;" x1="80.9122" x2="88.7068" y1="149.0868" y2="150.8878"/><line style="stroke:#7F8C8D;stroke-width:1;" x1="80.2368" x2="88.0314" y1="152.0098" y2="153.8108"/><line style="stroke:#7F8C8D;stroke-width:1;" x1="83.9089" x2="85.71" y1="153.8846" y2="146.09"/><line style="stroke:#7F8C8D;stroke-width:1;" x1="75.2563" x2="81.9461" y1="446.6419" y2="454.0748"/><line style="stroke:#7F8C8D;stroke-width:1;" x1="75.2563" x2="69.9939" y1="446.6419" y2="455.1452"/><line style="stroke:#7F8C8D;stroke-width:1;" x1="75.2563" x2="75.97" y1="446.6419" y2="454.61"/><ellipse cx="74.7211" cy="440.6658" fill="none" rx="4" ry="4" style="stroke:#7F8C8D;stroke-width:1;"/><text fill="#2C3E50" font-family="sans-serif" font-size="13" lengthAdjust="spacing" textLength="44.3447" x="71.66" y="309.4584">incluye</text></g><!--link PROVEEDOR to PEDIDO--><g class="link" data-entity-1="PROVEEDOR" data-entity-2="PEDIDO" data-source-line="76" data-uid="lnk14" id="link_PROVEEDOR_PEDIDO"><path codeLine="76" d="M559.8444,137.5773 C556.5244,169.5773 554.8166,186.096 551.1966,221.006" fill="none" id="PROVEEDOR-PEDIDO" style="stroke:#7F8C8D;stroke-width:1;"/><line style="stroke:#7F8C8D;stroke-width:1;" x1="556.2786" x2="564.2359" y1="133.1859" y2="134.0114"/><line style="stroke:#7F8C8D;stroke-width:1;" x1="555.969" x2="563.9263" y1="136.1698" y2="136.9954"/><line style="stroke:#7F8C8D;stroke-width:1;" x1="559.8444" x2="560.67" y1="137.5773" y2="129.62"/><line style="stroke:#7F8C8D;stroke-width:1;" x1="550.1651" x2="555.308" y1="230.9527" y2="239.5289"/><line style="stroke:#7F8C8D;stroke-width:1;" x1="550.1651" x2="543.372" y1="230.9527" y2="238.2911"/><line style="stroke:#7F8C8D;stroke-width:1;" x1="550.1651" x2="549.34" y1="230.9527" y2="238.91"/><ellipse cx="550.784" cy="224.9847" fill="none" rx="4" ry="4" style="stroke:#7F8C8D;stroke-width:1;"/><text fill="#2C3E50" font-family="sans-serif" font-size="13" lengthAdjust="spacing" textLength="66.4028" x="555.85" y="197.4984">suministra</text></g><!--link PEDIDO to DETALLE_PEDIDO--><g class="link" data-entity-1="PEDIDO" data-entity-2="DETALLE_PEDIDO" data-source-line="78" data-uid="lnk15" id="link_PEDIDO_DETALLE_PEDIDO"><path codeLine="78" d="M469.9637,370.9289 C464.1337,375.1189 464.65,374.38 458.66,377.86 C361.09,434.43 252.9019,468.2347 174.1719,488.6847" fill="none" id="PEDIDO-DETALLE_PEDIDO" style="stroke:#7F8C8D;stroke-width:1;"/><line style="stroke:#7F8C8D;stroke-width:1;" x1="470.8774" x2="475.5463" y1="365.3463" y2="371.8426"/><line style="stroke:#7F8C8D;stroke-width:1;" x1="468.4413" x2="473.1102" y1="367.0971" y2="373.5934"/><line style="stroke:#7F8C8D;stroke-width:1;" x1="469.9637" x2="476.46" y1="370.9289" y2="366.26"/><line style="stroke:#7F8C8D;stroke-width:1;" x1="164.4931" x2="158.2584" y1="491.1988" y2="499.0173"/><line style="stroke:#7F8C8D;stroke-width:1;" x1="164.4931" x2="155.2416" y1="491.1988" y2="487.4027"/><line style="stroke:#7F8C8D;stroke-width:1;" x1="164.4931" x2="156.75" y1="491.1988" y2="493.21"/><ellipse cx="170.3003" cy="489.6903" fill="none" rx="4" ry="4" style="stroke:#7F8C8D;stroke-width:1;"/><text fill="#2C3E50" font-family="sans-serif" font-size="13" lengthAdjust="spacing" textLength="42.1611" x="401.82" y="421.4284">detalla</text></g><!--SRC=[bLDTJ-im37tlhuZ46z8an8U0lG4jqYJ4KE_6w-GbxZ2aSPMa82xS_txJaNLTDz3eGwGUd_ZOnuvx8LE1XLBCGRuiBDT6tR1cAmwAvPUube76at-_xlDEJaylpt2RnrQXZPnZUO9dHrkSMpR-EpMmbjzYyBoua1Ug7-pSZlc_iehfd-bLFXgBZqI8Gq5A30KP7tu6Wt0OBkSM0-Qy9RC829P0kWjur5YmuIvMe7o2cRG8ajY4Y0AFdafiOo1z3Ph-RX7-9QlA7l9nEhsPx5-QGYSjLJ5Z2rSM0nIGGZCqrsNGMh0bMBFMggFxn-n-yeCbjQl14iywU6LPrT9lO192FWKgThgDbsIeX1QlvoHXi_IE5LawIdzNq2kYOji5byP7gvj1EW-ATwcbsUJgxYwR_QXQeIArjmiHs1ZkOvQbutplwSgmmS7BdHNdsSCudsJx6-IfsbZOu0cx03mxDdshWipgaNn-3WRyqTsHOKY51lkCQDrGD6-W7rnL6_HPaoGFIT8k-ow9flMbIf_LcrJJdTJrEoxpHN_x5RcwsRpGUQFw1NwNJQ47hU4_]--></g></svg>