<svg xmlns="http://www.w3.org/2000/svg" xmlns:xlink="http://www.w3.org/1999/xlink" contentStyleType="text/css" data-diagram-type="ACTIVITY" height="806px" preserveAspectRatio="none" style="width:763px;height:806px;background:#FFFFFF;" version="1.1" viewBox="0 0 763 806" width="763px" zoomAndPan="magnify"><defs/><g><ellipse cx="437.6504" cy="20" fill="#222222" rx="10" ry="10" style="stroke:#222222;stroke-width:1;"/><rect fill="#34495E" height="34.1328" rx="12.5" ry="12.5" style="stroke:#2C3E50;stroke-width:0.5;" width="214.6719" x="330.3145" y="50"/><text fill="#FFFFFF" font-family="sans-serif" font-size="12" lengthAdjust="spacing" textLength="194.6719" x="340.3145" y="71.6016">Usuario env&#237;a mensaje al Chatbot</text><rect fill="#34495E" height="34.1328" rx="12.5" ry="12.5" style="stroke:#2C3E50;stroke-width:0.5;" width="208.9707" x="333.165" y="104.1328"/><text fill="#FFFFFF" font-family="sans-serif" font-size="12" lengthAdjust="spacing" textLength="188.9707" x="343.165" y="125.7344">Registrar interacci&#243;n del usuario</text><polygon fill="#34495E" points="347.3596,158.2656,527.9412,158.2656,539.9412,170.2656,527.9412,182.2656,347.3596,182.2656,335.3596,170.2656,347.3596,158.2656" style="stroke:#2C3E50;stroke-width:0.5;"/><text fill="#FFFFFF" font-family="sans-serif" font-size="11" lengthAdjust="spacing" textLength="180.5815" x="347.3596" y="174.4229">&#191;Es un comando de actualizaci&#243;n?</text><text fill="#2C3E50" font-family="sans-serif" font-size="11" lengthAdjust="spacing" textLength="9.104" x="326.2556" y="167.9453">S&#237;</text><text fill="#2C3E50" font-family="sans-serif" font-size="11" lengthAdjust="spacing" textLength="14.8833" x="539.9412" y="167.9453">No</text><rect fill="#34495E" height="34.1328" rx="12.5" ry="12.5" style="stroke:#2C3E50;stroke-width:0.5;" width="167.6973" x="132.2222" y="192.2656"/><text fill="#FFFFFF" font-family="sans-serif" font-size="12" lengthAdjust="spacing" textLength="147.6973" x="142.2222" y="213.8672">Chatbot procesa mensaje</text><rect fill="#34495E" height="34.1328" rx="12.5" ry="12.5" style="stroke:#2C3E50;stroke-width:0.5;" width="268.4551" x="81.8433" y="246.3984"/><text fill="#FFFFFF" font-family="sans-serif" font-size="12" lengthAdjust="spacing" textLength="248.4551" x="91.8433" y="268">Analizar detalles del producto del mensaje</text><rect fill="#34495E" height="34.1328" rx="12.5" ry="12.5" style="stroke:#2C3E50;stroke-width:0.5;" width="174.5938" x="128.7739" y="300.5313"/><text fill="#FFFFFF" font-family="sans-serif" font-size="12" lengthAdjust="spacing" textLength="154.5938" x="138.7739" y="322.1328">Validar datos del producto</text><polygon fill="#34495E" points="175.5862,354.6641,256.5554,354.6641,268.5554,366.6641,256.5554,378.6641,175.5862,378.6641,163.5862,366.6641,175.5862,354.6641" style="stroke:#2C3E50;stroke-width:0.5;"/><text fill="#FFFFFF" font-family="sans-serif" font-size="11" lengthAdjust="spacing" textLength="80.9692" x="175.5862" y="370.8213">&#191;Datos v&#225;lidos?</text><text fill="#2C3E50" font-family="sans-serif" font-size="11" lengthAdjust="spacing" textLength="9.104" x="154.4822" y="364.3438">S&#237;</text><text fill="#2C3E50" font-family="sans-serif" font-size="11" lengthAdjust="spacing" textLength="14.8833" x="268.5554" y="364.3438">No</text><rect fill="#34495E" height="34.1328" rx="12.5" ry="12.5" style="stroke:#2C3E50;stroke-width:0.5;" width="194.3867" x="13.0068" y="388.6641"/><text fill="#FFFFFF" font-family="sans-serif" font-size="12" lengthAdjust="spacing" textLength="174.3867" x="23.0068" y="410.2656">Verificar permisos del usuario</text><rect fill="#34495E" height="34.1328" rx="12.5" ry="12.5" style="stroke:#2C3E50;stroke-width:0.5;" width="177.8809" x="21.2598" y="442.7969"/><text fill="#FFFFFF" font-family="sans-serif" font-size="12" lengthAdjust="spacing" textLength="157.8809" x="31.2598" y="464.3984">Actualizar inventario en BD</text><rect fill="#34495E" height="34.1328" rx="12.5" ry="12.5" style="stroke:#2C3E50;stroke-width:0.5;" width="198.4004" x="11" y="496.9297"/><text fill="#FFFFFF" font-family="sans-serif" font-size="12" lengthAdjust="spacing" textLength="178.4004" x="21" y="518.5313">Registrar cambio de inventario</text><rect fill="#34495E" height="34.1328" rx="12.5" ry="12.5" style="stroke:#2C3E50;stroke-width:0.5;" width="145.7539" x="37.3232" y="551.0625"/><text fill="#FFFFFF" font-family="sans-serif" font-size="12" lengthAdjust="spacing" textLength="125.7539" x="47.3232" y="572.6641">Generar confirmaci&#243;n</text><rect fill="#34495E" height="34.1328" rx="12.5" ry="12.5" style="stroke:#2C3E50;stroke-width:0.5;" width="185.082" x="229.4004" y="388.6641"/><text fill="#FFFFFF" font-family="sans-serif" font-size="12" lengthAdjust="spacing" textLength="165.082" x="239.4004" y="410.2656">Registrar error de validaci&#243;n</text><path d="M421.8086,447.208 L421.8086,455.8633 L401.8086,459.8633 L421.8086,463.8633 L421.8086,472.5186 A0,0 0 0 0 421.8086,472.5186 L535.4907,472.5186 A0,0 0 0 0 535.4907,472.5186 L535.4907,457.208 L525.4907,447.208 L421.8086,447.208 A0,0 0 0 0 421.8086,447.208" fill="#FFDD57"/><path d="M525.4907,447.208 L525.4907,457.208 L535.4907,457.208 L525.4907,447.208" fill="#FFDD57"/><text fill="#363636" font-family="sans-serif" font-size="13" lengthAdjust="spacing" textLength="92.6821" x="427.8086" y="464.7764">Volver al inicio</text><rect fill="#34495E" height="34.1328" rx="12.5" ry="12.5" style="stroke:#2C3E50;stroke-width:0.5;" width="159.7344" x="242.0742" y="442.7969"/><text fill="#FFFFFF" font-family="sans-serif" font-size="12" lengthAdjust="spacing" textLength="139.7344" x="252.0742" y="464.3984">Chatbot pide correcci&#243;n</text><polygon fill="#34495E" points="216.0708,591.1953,228.0708,603.1953,216.0708,615.1953,204.0708,603.1953,216.0708,591.1953" style="stroke:#2C3E50;stroke-width:0.5;"/><rect fill="#34495E" height="34.1328" rx="12.5" ry="12.5" style="stroke:#2C3E50;stroke-width:0.5;" width="187.4785" x="564.8245" y="192.2656"/><text fill="#FFFFFF" font-family="sans-serif" font-size="12" lengthAdjust="spacing" textLength="167.4785" x="574.8245" y="213.8672">Chatbot responde con ayuda</text><rect fill="#34495E" height="34.1328" rx="12.5" ry="12.5" style="stroke:#2C3E50;stroke-width:0.5;" width="181.959" x="567.5842" y="246.3984"/><text fill="#FFFFFF" font-family="sans-serif" font-size="12" lengthAdjust="spacing" textLength="161.959" x="577.5842" y="268">Registrar solicitud de ayuda</text><polygon fill="#34495E" points="437.6504,621.1953,449.6504,633.1953,437.6504,645.1953,425.6504,633.1953,437.6504,621.1953" style="stroke:#2C3E50;stroke-width:0.5;"/><rect fill="#34495E" height="34.1328" rx="12.5" ry="12.5" style="stroke:#2C3E50;stroke-width:0.5;" width="176.6738" x="349.3135" y="665.1953"/><text fill="#FFFFFF" font-family="sans-serif" font-size="12" lengthAdjust="spacing" textLength="156.6738" x="359.3135" y="686.7969">Enviar respuesta al usuario</text><rect fill="#34495E" height="34.1328" rx="12.5" ry="12.5" style="stroke:#2C3E50;stroke-width:0.5;" width="181.1211" x="347.0898" y="719.3281"/><text fill="#FFFFFF" font-family="sans-serif" font-size="12" lengthAdjust="spacing" textLength="161.1211" x="357.0898" y="740.9297">Registrar respuesta enviada</text><ellipse cx="437.6504" cy="784.4609" fill="none" rx="11" ry="11" style="stroke:#222222;stroke-width:1;"/><ellipse cx="437.6504" cy="784.4609" fill="#222222" rx="6" ry="6" style="stroke:#222222;stroke-width:1;"/><line style="stroke:#7F8C8D;stroke-width:1;" x1="437.6504" x2="437.6504" y1="30" y2="50"/><polygon fill="#7F8C8D" points="433.6504,40,437.6504,50,441.6504,40,437.6504,44" style="stroke:#7F8C8D;stroke-width:1;"/><line style="stroke:#7F8C8D;stroke-width:1;" x1="437.6504" x2="437.6504" y1="84.1328" y2="104.1328"/><polygon fill="#7F8C8D" points="433.6504,94.1328,437.6504,104.1328,441.6504,94.1328,437.6504,98.1328" style="stroke:#7F8C8D;stroke-width:1;"/><line style="stroke:#7F8C8D;stroke-width:1;" x1="216.0708" x2="216.0708" y1="226.3984" y2="246.3984"/><polygon fill="#7F8C8D" points="212.0708,236.3984,216.0708,246.3984,220.0708,236.3984,216.0708,240.3984" style="stroke:#7F8C8D;stroke-width:1;"/><line style="stroke:#7F8C8D;stroke-width:1;" x1="216.0708" x2="216.0708" y1="280.5313" y2="300.5313"/><polygon fill="#7F8C8D" points="212.0708,290.5313,216.0708,300.5313,220.0708,290.5313,216.0708,294.5313" style="stroke:#7F8C8D;stroke-width:1;"/><line style="stroke:#7F8C8D;stroke-width:1;" x1="110.2002" x2="110.2002" y1="422.7969" y2="442.7969"/><polygon fill="#7F8C8D" points="106.2002,432.7969,110.2002,442.7969,114.2002,432.7969,110.2002,436.7969" style="stroke:#7F8C8D;stroke-width:1;"/><line style="stroke:#7F8C8D;stroke-width:1;" x1="110.2002" x2="110.2002" y1="476.9297" y2="496.9297"/><polygon fill="#7F8C8D" points="106.2002,486.9297,110.2002,496.9297,114.2002,486.9297,110.2002,490.9297" style="stroke:#7F8C8D;stroke-width:1;"/><line style="stroke:#7F8C8D;stroke-width:1;" x1="110.2002" x2="110.2002" y1="531.0625" y2="551.0625"/><polygon fill="#7F8C8D" points="106.2002,541.0625,110.2002,551.0625,114.2002,541.0625,110.2002,545.0625" style="stroke:#7F8C8D;stroke-width:1;"/><line style="stroke:#7F8C8D;stroke-width:1;" x1="321.9414" x2="321.9414" y1="422.7969" y2="442.7969"/><polygon fill="#7F8C8D" points="317.9414,432.7969,321.9414,442.7969,325.9414,432.7969,321.9414,436.7969" style="stroke:#7F8C8D;stroke-width:1;"/><line style="stroke:#7F8C8D;stroke-width:1;" x1="163.5862" x2="110.2002" y1="366.6641" y2="366.6641"/><line style="stroke:#7F8C8D;stroke-width:1;" x1="110.2002" x2="110.2002" y1="366.6641" y2="388.6641"/><polygon fill="#7F8C8D" points="106.2002,378.6641,110.2002,388.6641,114.2002,378.6641,110.2002,382.6641" style="stroke:#7F8C8D;stroke-width:1;"/><line style="stroke:#7F8C8D;stroke-width:1;" x1="268.5554" x2="321.9414" y1="366.6641" y2="366.6641"/><line style="stroke:#7F8C8D;stroke-width:1;" x1="321.9414" x2="321.9414" y1="366.6641" y2="388.6641"/><polygon fill="#7F8C8D" points="317.9414,378.6641,321.9414,388.6641,325.9414,378.6641,321.9414,382.6641" style="stroke:#7F8C8D;stroke-width:1;"/><line style="stroke:#7F8C8D;stroke-width:1;" x1="110.2002" x2="110.2002" y1="585.1953" y2="603.1953"/><line style="stroke:#7F8C8D;stroke-width:1;" x1="110.2002" x2="204.0708" y1="603.1953" y2="603.1953"/><polygon fill="#7F8C8D" points="194.0708,599.1953,204.0708,603.1953,194.0708,607.1953,198.0708,603.1953" style="stroke:#7F8C8D;stroke-width:1;"/><line style="stroke:#7F8C8D;stroke-width:1;" x1="321.9414" x2="321.9414" y1="476.9297" y2="603.1953"/><line style="stroke:#7F8C8D;stroke-width:1;" x1="321.9414" x2="228.0708" y1="603.1953" y2="603.1953"/><polygon fill="#7F8C8D" points="238.0708,599.1953,228.0708,603.1953,238.0708,607.1953,234.0708,603.1953" style="stroke:#7F8C8D;stroke-width:1;"/><line style="stroke:#7F8C8D;stroke-width:1;" x1="216.0708" x2="216.0708" y1="334.6641" y2="354.6641"/><polygon fill="#7F8C8D" points="212.0708,344.6641,216.0708,354.6641,220.0708,344.6641,216.0708,348.6641" style="stroke:#7F8C8D;stroke-width:1;"/><line style="stroke:#7F8C8D;stroke-width:1;" x1="658.5637" x2="658.5637" y1="226.3984" y2="246.3984"/><polygon fill="#7F8C8D" points="654.5637,236.3984,658.5637,246.3984,662.5637,236.3984,658.5637,240.3984" style="stroke:#7F8C8D;stroke-width:1;"/><line style="stroke:#7F8C8D;stroke-width:1;" x1="335.3596" x2="216.0708" y1="170.2656" y2="170.2656"/><line style="stroke:#7F8C8D;stroke-width:1;" x1="216.0708" x2="216.0708" y1="170.2656" y2="192.2656"/><polygon fill="#7F8C8D" points="212.0708,182.2656,216.0708,192.2656,220.0708,182.2656,216.0708,186.2656" style="stroke:#7F8C8D;stroke-width:1;"/><line style="stroke:#7F8C8D;stroke-width:1;" x1="539.9412" x2="658.5637" y1="170.2656" y2="170.2656"/><line style="stroke:#7F8C8D;stroke-width:1;" x1="658.5637" x2="658.5637" y1="170.2656" y2="192.2656"/><polygon fill="#7F8C8D" points="654.5637,182.2656,658.5637,192.2656,662.5637,182.2656,658.5637,186.2656" style="stroke:#7F8C8D;stroke-width:1;"/><line style="stroke:#7F8C8D;stroke-width:1;" x1="216.0708" x2="216.0708" y1="615.1953" y2="633.1953"/><line style="stroke:#7F8C8D;stroke-width:1;" x1="216.0708" x2="425.6504" y1="633.1953" y2="633.1953"/><polygon fill="#7F8C8D" points="415.6504,629.1953,425.6504,633.1953,415.6504,637.1953,419.6504,633.1953" style="stroke:#7F8C8D;stroke-width:1;"/><line style="stroke:#7F8C8D;stroke-width:1;" x1="658.5637" x2="658.5637" y1="280.5313" y2="633.1953"/><line style="stroke:#7F8C8D;stroke-width:1;" x1="658.5637" x2="449.6504" y1="633.1953" y2="633.1953"/><polygon fill="#7F8C8D" points="459.6504,629.1953,449.6504,633.1953,459.6504,637.1953,455.6504,633.1953" style="stroke:#7F8C8D;stroke-width:1;"/><line style="stroke:#7F8C8D;stroke-width:1;" x1="437.6504" x2="437.6504" y1="138.2656" y2="158.2656"/><polygon fill="#7F8C8D" points="433.6504,148.2656,437.6504,158.2656,441.6504,148.2656,437.6504,152.2656" style="stroke:#7F8C8D;stroke-width:1;"/><line style="stroke:#7F8C8D;stroke-width:1;" x1="437.6504" x2="437.6504" y1="645.1953" y2="665.1953"/><polygon fill="#7F8C8D" points="433.6504,655.1953,437.6504,665.1953,441.6504,655.1953,437.6504,659.1953" style="stroke:#7F8C8D;stroke-width:1;"/><line style="stroke:#7F8C8D;stroke-width:1;" x1="437.6504" x2="437.6504" y1="699.3281" y2="719.3281"/><polygon fill="#7F8C8D" points="433.6504,709.3281,437.6504,719.3281,441.6504,709.3281,437.6504,713.3281" style="stroke:#7F8C8D;stroke-width:1;"/><line style="stroke:#7F8C8D;stroke-width:1;" x1="437.6504" x2="437.6504" y1="753.4609" y2="773.4609"/><polygon fill="#7F8C8D" points="433.6504,763.4609,437.6504,773.4609,441.6504,763.4609,437.6504,767.4609" style="stroke:#7F8C8D;stroke-width:1;"/><!--SRC=[TPB1SjCm48RlVegTuPBS6DBGaXoOfYtSEC3G-qPQ9qjjhMSbcoblmmFqn0CmGruCINOTamRxOld_zj_LB_a7TWqgrh15yx1JQPszaKeKNfNvAVn8e0dSSNZSd9ABYujtIpf7YbhIWNfZ5hHyVORw82xyjwUgV1_4o_BANDbJSLBzeeEJG9kN-x9sUNbAJISzIqpwBDwcj_01DHIhhxv5PG5otU49eIRdyHi1Ld2pnx2Li2vMdsd7FYWgi0kaQ0mVVZcmL47RbwyBBc7sv_UTXzQ1aHgTbGYab5gi-0VcalTp27joCFjoU9eN0AkX1pGgXlpOVfsqQvSBDTe4h2hokM4aRMk2vCKKlu-qJJG6-HTDSZ_URTQwmy-8YZ-T9fcGSiacsZIaDVl1QTnbXgwVzvJowCY58K3Ot0x4CJ23zPPp4aTqW3wIeuo8ArdhFg6aKUK9PfzaVcf6ySQaEA3BUnqBfa5ob8seafd8wGQ0ycuVyXBWNggED9qoEpOi-JSvcyaYVt9PJ0SPEoZvHbpkuW0VMuiv_kEKNgfe6LgRpxy7Uh_LdUiu4icYfNW1qm1ZjXEB8q2f8Zdu8CrV]--></g></svg>