<svg xmlns="http://www.w3.org/2000/svg" xmlns:xlink="http://www.w3.org/1999/xlink" contentStyleType="text/css" data-diagram-type="SEQUENCE" height="510px" preserveAspectRatio="none" style="width:1266px;height:510px;background:#FFFFFF;" version="1.1" viewBox="0 0 1266 510" width="1266px" zoomAndPan="magnify"><defs/><g><g><title>Usuario</title><rect fill="#000000" fill-opacity="0.00000" height="348.416" width="8" x="29.8159" y="81.4883"/><line style="stroke:#181818;stroke-width:0.5;stroke-dasharray:5,5;" x1="33" x2="33" y1="81.4883" y2="429.9043"/></g><g><title>Frontend</title><rect fill="#000000" fill-opacity="0.00000" height="348.416" width="8" x="311.3784" y="81.4883"/><line style="stroke:#181818;stroke-width:0.5;stroke-dasharray:5,5;" x1="314.8491" x2="314.8491" y1="81.4883" y2="429.9043"/></g><g><title>Backend Kotlin</title><rect fill="#000000" fill-opacity="0.00000" height="348.416" width="8" x="592.4204" y="81.4883"/><line style="stroke:#181818;stroke-width:0.5;stroke-dasharray:5,5;" x1="596.1079" x2="596.1079" y1="81.4883" y2="429.9043"/></g><g><title>APIs de IA</title><rect fill="#000000" fill-opacity="0.00000" height="348.416" width="8" x="882.8823" y="81.4883"/><line style="stroke:#181818;stroke-width:0.5;stroke-dasharray:5,5;" x1="886.4888" x2="886.4888" y1="81.4883" y2="429.9043"/></g><g><title>Base de Datos</title><rect fill="#000000" fill-opacity="0.00000" height="348.416" width="8" x="1029.9668" y="81.4883"/><line style="stroke:#181818;stroke-width:0.5;stroke-dasharray:5,5;" x1="1033.2759" x2="1033.2759" y1="81.4883" y2="429.9043"/></g><g><title>Modelos ML</title><rect fill="#000000" fill-opacity="0.00000" height="348.416" width="8" x="1175.8003" y="81.4883"/><line style="stroke:#181818;stroke-width:0.5;stroke-dasharray:5,5;" x1="1179.6577" x2="1179.6577" y1="81.4883" y2="429.9043"/></g><g class="participant participant-head" data-participant="Usuario"><text fill="#000000" font-family="sans-serif" font-size="14" lengthAdjust="spacing" textLength="51.6318" x="5" y="78.5352">Usuario</text><ellipse cx="33.8159" cy="13.5" fill="#34495E" rx="8" ry="8" style="stroke:#2C3E50;stroke-width:0.5;"/><path d="M33.8159,21.5 L33.8159,48.5 M20.8159,29.5 L46.8159,29.5 M33.8159,48.5 L20.8159,63.5 M33.8159,48.5 L46.8159,63.5" fill="none" style="stroke:#2C3E50;stroke-width:0.5;"/></g><g class="participant participant-tail" data-participant="Usuario"><text fill="#000000" font-family="sans-serif" font-size="14" lengthAdjust="spacing" textLength="51.6318" x="5" y="442.4395">Usuario</text><ellipse cx="33.8159" cy="453.8926" fill="#34495E" rx="8" ry="8" style="stroke:#2C3E50;stroke-width:0.5;"/><path d="M33.8159,461.8926 L33.8159,488.8926 M20.8159,469.8926 L46.8159,469.8926 M33.8159,488.8926 L20.8159,503.8926 M33.8159,488.8926 L46.8159,503.8926" fill="none" style="stroke:#2C3E50;stroke-width:0.5;"/></g><g class="participant participant-head" data-participant="FE"><rect fill="#34495E" height="46.9766" rx="2.5" ry="2.5" style="stroke:#2C3E50;stroke-width:0.5;" width="75.0586" x="277.8491" y="33.5117"/><text fill="#FFFFFF" font-family="sans-serif" font-size="14" lengthAdjust="spacing" textLength="61.0586" x="284.8491" y="54.0469">Frontend</text><text fill="#FFFFFF" font-family="sans-serif" font-size="14" lengthAdjust="spacing" textLength="48.7744" x="290.9912" y="70.5352">(Svelte)</text></g><g class="participant participant-tail" data-participant="FE"><rect fill="#34495E" height="46.9766" rx="2.5" ry="2.5" style="stroke:#2C3E50;stroke-width:0.5;" width="75.0586" x="277.8491" y="428.9043"/><text fill="#FFFFFF" font-family="sans-serif" font-size="14" lengthAdjust="spacing" textLength="61.0586" x="284.8491" y="449.4395">Frontend</text><text fill="#FFFFFF" font-family="sans-serif" font-size="14" lengthAdjust="spacing" textLength="48.7744" x="290.9912" y="465.9277">(Svelte)</text></g><g class="participant participant-head" data-participant="BK"><rect fill="#34495E" height="46.9766" rx="2.5" ry="2.5" style="stroke:#2C3E50;stroke-width:0.5;" width="114.625" x="539.1079" y="33.5117"/><text fill="#FFFFFF" font-family="sans-serif" font-size="14" lengthAdjust="spacing" textLength="100.625" x="546.1079" y="54.0469">Backend Kotlin</text><text fill="#FFFFFF" font-family="sans-serif" font-size="14" lengthAdjust="spacing" textLength="37.8096" x="577.5156" y="70.5352">(Ktor)</text></g><g class="participant participant-tail" data-participant="BK"><rect fill="#34495E" height="46.9766" rx="2.5" ry="2.5" style="stroke:#2C3E50;stroke-width:0.5;" width="114.625" x="539.1079" y="428.9043"/><text fill="#FFFFFF" font-family="sans-serif" font-size="14" lengthAdjust="spacing" textLength="100.625" x="546.1079" y="449.4395">Backend Kotlin</text><text fill="#FFFFFF" font-family="sans-serif" font-size="14" lengthAdjust="spacing" textLength="37.8096" x="577.5156" y="465.9277">(Ktor)</text></g><g class="participant participant-head" data-participant="AI"><rect fill="#34495E" height="46.9766" rx="2.5" ry="2.5" style="stroke:#2C3E50;stroke-width:0.5;" width="164.7871" x="804.4888" y="33.5117"/><text fill="#FFFFFF" font-family="sans-serif" font-size="14" lengthAdjust="spacing" textLength="67.7305" x="853.0171" y="54.0469">APIs de IA</text><text fill="#FFFFFF" font-family="sans-serif" font-size="14" lengthAdjust="spacing" textLength="150.7871" x="811.4888" y="70.5352">(Python Flask/FastAPI)</text></g><g class="participant participant-tail" data-participant="AI"><rect fill="#34495E" height="46.9766" rx="2.5" ry="2.5" style="stroke:#2C3E50;stroke-width:0.5;" width="164.7871" x="804.4888" y="428.9043"/><text fill="#FFFFFF" font-family="sans-serif" font-size="14" lengthAdjust="spacing" textLength="67.7305" x="853.0171" y="449.4395">APIs de IA</text><text fill="#FFFFFF" font-family="sans-serif" font-size="14" lengthAdjust="spacing" textLength="150.7871" x="811.4888" y="465.9277">(Python Flask/FastAPI)</text></g><g class="participant participant-head" data-participant="DB"><rect fill="#34495E" height="46.9766" rx="2.5" ry="2.5" style="stroke:#2C3E50;stroke-width:0.5;" width="109.3818" x="979.2759" y="33.5117"/><text fill="#FFFFFF" font-family="sans-serif" font-size="14" lengthAdjust="spacing" textLength="95.3818" x="986.2759" y="54.0469">Base de Datos</text><text fill="#FFFFFF" font-family="sans-serif" font-size="14" lengthAdjust="spacing" textLength="85.9551" x="990.9893" y="70.5352">(PostgreSQL)</text></g><g class="participant participant-tail" data-participant="DB"><rect fill="#34495E" height="46.9766" rx="2.5" ry="2.5" style="stroke:#2C3E50;stroke-width:0.5;" width="109.3818" x="979.2759" y="428.9043"/><text fill="#FFFFFF" font-family="sans-serif" font-size="14" lengthAdjust="spacing" textLength="95.3818" x="986.2759" y="449.4395">Base de Datos</text><text fill="#FFFFFF" font-family="sans-serif" font-size="14" lengthAdjust="spacing" textLength="85.9551" x="990.9893" y="465.9277">(PostgreSQL)</text></g><g class="participant participant-head" data-participant="ML"><rect fill="#34495E" height="46.9766" rx="2.5" ry="2.5" style="stroke:#2C3E50;stroke-width:0.5;" width="162.2852" x="1098.6577" y="33.5117"/><text fill="#FFFFFF" font-family="sans-serif" font-size="14" lengthAdjust="spacing" textLength="81.0059" x="1139.2974" y="54.0469">Modelos ML</text><text fill="#FFFFFF" font-family="sans-serif" font-size="14" lengthAdjust="spacing" textLength="148.2852" x="1105.6577" y="70.5352">(TensorFlow/PyTorch)</text></g><g class="participant participant-tail" data-participant="ML"><rect fill="#34495E" height="46.9766" rx="2.5" ry="2.5" style="stroke:#2C3E50;stroke-width:0.5;" width="162.2852" x="1098.6577" y="428.9043"/><text fill="#FFFFFF" font-family="sans-serif" font-size="14" lengthAdjust="spacing" textLength="81.0059" x="1139.2974" y="449.4395">Modelos ML</text><text fill="#FFFFFF" font-family="sans-serif" font-size="14" lengthAdjust="spacing" textLength="148.2852" x="1105.6577" y="465.9277">(TensorFlow/PyTorch)</text></g><g class="message" data-participant-1="Usuario" data-participant-2="FE"><polygon fill="#7F8C8D" points="303.3784,108.7988,313.3784,112.7988,303.3784,116.7988,307.3784,112.7988" style="stroke:#7F8C8D;stroke-width:1;"/><line style="stroke:#7F8C8D;stroke-width:1;" x1="33.8159" x2="309.3784" y1="112.7988" y2="112.7988"/><text fill="#2C3E50" font-family="sans-serif" font-size="13" lengthAdjust="spacing" textLength="257.5625" x="40.8159" y="108.0566">Env&#237;a consulta (ej. "&#191;Cu&#225;nto stock de X?")</text></g><g class="message" data-participant-1="FE" data-participant-2="BK"><polygon fill="#7F8C8D" points="584.4204,138.1094,594.4204,142.1094,584.4204,146.1094,588.4204,142.1094" style="stroke:#7F8C8D;stroke-width:1;"/><line style="stroke:#7F8C8D;stroke-width:1;" x1="315.3784" x2="590.4204" y1="142.1094" y2="142.1094"/><text fill="#2C3E50" font-family="sans-serif" font-size="13" lengthAdjust="spacing" textLength="108.1323" x="322.3784" y="137.3672">Petici&#243;n API REST</text></g><g class="message" data-participant-1="BK" data-participant-2="AI"><polygon fill="#7F8C8D" points="874.8823,167.4199,884.8823,171.4199,874.8823,175.4199,878.8823,171.4199" style="stroke:#7F8C8D;stroke-width:1;"/><line style="stroke:#7F8C8D;stroke-width:1;" x1="596.4204" x2="880.8823" y1="171.4199" y2="171.4199"/><text fill="#2C3E50" font-family="sans-serif" font-size="13" lengthAdjust="spacing" textLength="266.4619" x="603.4204" y="166.6777">Consulta a LLM externo (ChatGPT/Gemini)</text></g><g class="message" data-participant-1="AI" data-participant-2="BK"><polygon fill="#7F8C8D" points="607.4204,196.7305,597.4204,200.7305,607.4204,204.7305,603.4204,200.7305" style="stroke:#7F8C8D;stroke-width:1;"/><line style="stroke:#7F8C8D;stroke-width:1;" x1="601.4204" x2="885.8823" y1="200.7305" y2="200.7305"/><text fill="#2C3E50" font-family="sans-serif" font-size="13" lengthAdjust="spacing" textLength="132.9199" x="613.4204" y="195.9883">Respuesta procesada</text></g><g class="message" data-participant-1="BK" data-participant-2="DB"><polygon fill="#7F8C8D" points="1021.9668,226.041,1031.9668,230.041,1021.9668,234.041,1025.9668,230.041" style="stroke:#7F8C8D;stroke-width:1;"/><line style="stroke:#7F8C8D;stroke-width:1;" x1="596.4204" x2="1027.9668" y1="230.041" y2="230.041"/><text fill="#2C3E50" font-family="sans-serif" font-size="13" lengthAdjust="spacing" textLength="135.2051" x="603.4204" y="225.2988">Consulta stock actual</text></g><g class="message" data-participant-1="DB" data-participant-2="BK"><polygon fill="#7F8C8D" points="607.4204,255.3516,597.4204,259.3516,607.4204,263.3516,603.4204,259.3516" style="stroke:#7F8C8D;stroke-width:1;"/><line style="stroke:#7F8C8D;stroke-width:1;" x1="601.4204" x2="1032.9668" y1="259.3516" y2="259.3516"/><text fill="#2C3E50" font-family="sans-serif" font-size="13" lengthAdjust="spacing" textLength="123.0112" x="613.4204" y="254.6094">Datos de inventario</text></g><g class="message" data-participant-1="BK" data-participant-2="ML"><polygon fill="#7F8C8D" points="1167.8003,284.6621,1177.8003,288.6621,1167.8003,292.6621,1171.8003,288.6621" style="stroke:#7F8C8D;stroke-width:1;"/><line style="stroke:#7F8C8D;stroke-width:1;" x1="596.4204" x2="1173.8003" y1="288.6621" y2="288.6621"/><text fill="#2C3E50" font-family="sans-serif" font-size="13" lengthAdjust="spacing" textLength="178.6675" x="603.4204" y="283.9199">Solicita predicci&#243;n (si aplica)</text></g><g class="message" data-participant-1="ML" data-participant-2="BK"><polygon fill="#7F8C8D" points="607.4204,313.9727,597.4204,317.9727,607.4204,321.9727,603.4204,317.9727" style="stroke:#7F8C8D;stroke-width:1;"/><line style="stroke:#7F8C8D;stroke-width:1;" x1="601.4204" x2="1178.8003" y1="317.9727" y2="317.9727"/><text fill="#2C3E50" font-family="sans-serif" font-size="13" lengthAdjust="spacing" textLength="146.6372" x="613.4204" y="313.2305">Predicci&#243;n de demanda</text></g><g class="message" data-participant-1="BK" data-participant-2="FE"><polygon fill="#7F8C8D" points="326.3784,343.2832,316.3784,347.2832,326.3784,351.2832,322.3784,347.2832" style="stroke:#7F8C8D;stroke-width:1;"/><line style="stroke:#7F8C8D;stroke-width:1;" x1="320.3784" x2="595.4204" y1="347.2832" y2="347.2832"/><text fill="#2C3E50" font-family="sans-serif" font-size="13" lengthAdjust="spacing" textLength="257.042" x="332.3784" y="342.541">Respuesta completa (stock + predicci&#243;n)</text></g><g class="message" data-participant-1="FE" data-participant-2="Usuario"><polygon fill="#7F8C8D" points="44.8159,372.5938,34.8159,376.5938,44.8159,380.5938,40.8159,376.5938" style="stroke:#7F8C8D;stroke-width:1;"/><line style="stroke:#7F8C8D;stroke-width:1;" x1="38.8159" x2="314.3784" y1="376.5938" y2="376.5938"/><text fill="#2C3E50" font-family="sans-serif" font-size="13" lengthAdjust="spacing" textLength="113.8325" x="50.8159" y="371.8516">Muestra resultado</text></g><path d="M601,389.5938 L601,414.5938 L966,414.5938 L966,399.5938 L956,389.5938 L601,389.5938" fill="#ECF0F1" style="stroke:#BDC3C7;stroke-width:0.5;"/><path d="M956,389.5938 L956,399.5938 L966,399.5938 L956,389.5938" fill="#ECF0F1" style="stroke:#BDC3C7;stroke-width:0.5;"/><text fill="#2C3E50" font-family="sans-serif" font-size="13" lengthAdjust="spacing" textLength="344.7349" x="607" y="407.1621">L&#243;gica de negocio: Valida permisos, Procesa respuesta</text><!--SRC=[XPBFRjf04CRl-nGZUW7r3xH9b9H3AmmuGjWI3RJgePVDUe0jPiVQNPFaSVe0FUK1AfKNwwvjg35IwuCly_k- -MPsp4QgZ6k-XNikDYjDkKg6b9A65ylYO-P8S6591qtiulBo_HMUOQGJr1NoJbpWLQ-9XAHi1VIAhmQulvL2PbpP_pUim_ziMmDhpS_dr9eUgkBryaRS9CrYJNtMH975iymebhtbsoPL3tkVY0jntI3E-x1YTV3Pv5nBOhM9e1LgXwDAlgdsV8UfnKuBk85mV8hvS8w2ATbKAWTFdME91jDJT32R64WG9WE7pPxicXI4AJURRiYDTTLIDfWqEnZqiX6tPBoIZ5rfd7-AIduKdF8n9PYIWJXoy0ALSSUHqaDtzhGWBTQbA8uOgyQ6rn_SL7qOgzt-9mT1okIfvT36xs-WzVlNCD__K9R0M18R7-JhnrQ7XMEl2wPzcA7llNzMu4Q0k_5ymOAfBmucVHWUt3X4KGpuQ54hWlPmpUtjRD6znQrKiiC6auFT7PeiH-CacIQ1XYUyyXi5DRyoZNk_dATi51pKnP9yIAbsg6pnhAKwZlemfzH5BQmnaQ9CtJOIUEOAlCFYw3XLZKZy_hTS7PFuTVtDAMYRfUWtLePwMRS_RAfQTXzYBz8SD1Q39CIOFqxGShMsG4j_DW3H_ddb4ldM2bSalF8BJsNYigFUIaFcbSjOBCXRbL6OlqJlzWS0]--></g></svg>