<?xml version="1.0" encoding="us-ascii" standalone="no"?><svg xmlns="http://www.w3.org/2000/svg" xmlns:xlink="http://www.w3.org/1999/xlink" contentStyleType="text/css" height="861px" preserveAspectRatio="none" style="width:1362px;height:861px;background:#FFFFFF;" version="1.1" viewBox="0 0 1362 861" width="1362px" zoomAndPan="magnify"><defs/><g><text fill="#000000" font-family="sans-serif" font-size="14" font-weight="bold" lengthAdjust="spacing" textLength="271" x="538.75" y="23.5352">SIGA &#8226; Roadmap Visual de Desarrollo</text><!--entity A--><g id="elem_A"><rect fill="#80FFDB" height="36.4883" rx="10" ry="10" style="stroke:#00B4D8;stroke-width:0.5;" width="180" x="7" y="44.4883"/><text fill="#03045E" font-family="sans-serif" font-size="14" lengthAdjust="spacing" textLength="160" x="17" y="68.0234">&#128640; Inicio del Desarrollo</text></g><!--entity B--><g id="elem_B"><rect fill="#80FFDB" height="36.4883" rx="10" ry="10" style="stroke:#00B4D8;stroke-width:0.5;" width="172" x="11" y="149.2283"/><text fill="#03045E" font-family="sans-serif" font-size="14" lengthAdjust="spacing" textLength="152" x="21" y="172.7634">API y Base de Datos v1</text></g><!--entity C--><g id="elem_C"><rect fill="#80FFDB" height="52.9766" rx="10" ry="10" style="stroke:#00B4D8;stroke-width:0.5;" width="202" x="26" y="253.9583"/><text fill="#03045E" font-family="sans-serif" font-size="14" lengthAdjust="spacing" textLength="142" x="36" y="277.4934">App Android M&#237;nima</text><text fill="#03045E" font-family="sans-serif" font-size="14" lengthAdjust="spacing" textLength="182" x="36" y="293.9817">(Asistente Conversacional)</text></g><!--entity D--><g id="elem_D"><rect fill="#80FFDB" height="52.9766" rx="10" ry="10" style="stroke:#00B4D8;stroke-width:0.5;" width="174" x="675" y="140.9783"/><text fill="#03045E" font-family="sans-serif" font-size="14" lengthAdjust="spacing" textLength="61" x="685" y="164.5134">Web App</text><text fill="#03045E" font-family="sans-serif" font-size="14" lengthAdjust="spacing" textLength="154" x="685" y="181.0017">(CRUD y Visualizaci&#243;n)</text></g><g id="elem_GMN9"><path d="M221.5,50.6683 L221.5,58.7383 L187.39,62.7383 L221.5,66.7383 L221.5,74.8011 A0,0 0 0 0 221.5,74.8011 L606.5,74.8011 A0,0 0 0 0 606.5,74.8011 L606.5,60.6683 L596.5,50.6683 L221.5,50.6683 A0,0 0 0 0 221.5,50.6683 " fill="#F0F8FF" style="stroke:#00B4D8;stroke-width:0.5;"/><path d="M596.5,50.6683 L596.5,60.6683 L606.5,60.6683 L596.5,50.6683 " fill="#F0F8FF" style="stroke:#00B4D8;stroke-width:0.5;"/><text fill="#03045E" font-family="sans-serif" font-size="12" lengthAdjust="spacing" textLength="364" x="227.5" y="67.2698">Primer commit, estructura base, definici&#243;n de reglas y alcance.</text></g><g id="elem_GMN12"><path d="M218,155.3983 L218,163.4683 L183.24,167.4683 L218,171.4683 L218,179.5311 A0,0 0 0 0 218,179.5311 L640,179.5311 A0,0 0 0 0 640,179.5311 L640,165.3983 L630,155.3983 L218,155.3983 A0,0 0 0 0 218,155.3983 " fill="#F0F8FF" style="stroke:#00B4D8;stroke-width:0.5;"/><path d="M630,155.3983 L630,165.3983 L640,165.3983 L630,155.3983 " fill="#F0F8FF" style="stroke:#00B4D8;stroke-width:0.5;"/><text fill="#03045E" font-family="sans-serif" font-size="12" lengthAdjust="spacing" textLength="401" x="224" y="171.9998">API REST, migraciones SQL, modelo de datos inicial, endpoints CRUD.</text></g><g id="elem_GMN15"><path d="M263,268.3783 L263,276.4483 L228.23,280.4483 L263,284.4483 L263,292.5111 A0,0 0 0 0 263,292.5111 L599,292.5111 A0,0 0 0 0 599,292.5111 L599,278.3783 L589,268.3783 L263,268.3783 A0,0 0 0 0 263,268.3783 " fill="#F0F8FF" style="stroke:#00B4D8;stroke-width:0.5;"/><path d="M589,268.3783 L589,278.3783 L599,278.3783 L589,268.3783 " fill="#F0F8FF" style="stroke:#00B4D8;stroke-width:0.5;"/><text fill="#03045E" font-family="sans-serif" font-size="12" lengthAdjust="spacing" textLength="315" x="269" y="284.9798">App Android con chat, registro de salidas, cola offline.</text></g><g id="elem_GMN18"><path d="M884.5,155.3983 L884.5,163.4683 L849.4,167.4683 L884.5,171.4683 L884.5,179.5311 A0,0 0 0 0 884.5,179.5311 L1355.5,179.5311 A0,0 0 0 0 1355.5,179.5311 L1355.5,165.3983 L1345.5,155.3983 L884.5,155.3983 A0,0 0 0 0 884.5,155.3983 " fill="#F0F8FF" style="stroke:#00B4D8;stroke-width:0.5;"/><path d="M1345.5,155.3983 L1345.5,165.3983 L1355.5,165.3983 L1345.5,155.3983 " fill="#F0F8FF" style="stroke:#00B4D8;stroke-width:0.5;"/><text fill="#03045E" font-family="sans-serif" font-size="12" lengthAdjust="spacing" textLength="450" x="890.5" y="171.9998">Web App para CRUD de productos, visualizaci&#243;n de stock y reportes simples.</text></g><!--entity E--><g id="elem_E"><rect fill="#80FFDB" height="52.9766" rx="10" ry="10" style="stroke:#00B4D8;stroke-width:0.5;" width="179" x="47.5" y="366.9383"/><text fill="#03045E" font-family="sans-serif" font-size="14" lengthAdjust="spacing" textLength="80" x="57.5" y="390.4734">IA Proactiva</text><text fill="#03045E" font-family="sans-serif" font-size="14" lengthAdjust="spacing" textLength="159" x="57.5" y="406.9617">(Alertas y Predicciones)</text></g><!--entity F--><g id="elem_F"><rect fill="#80FFDB" height="36.4883" rx="10" ry="10" style="stroke:#00B4D8;stroke-width:0.5;" width="194" x="649" y="262.1983"/><text fill="#03045E" font-family="sans-serif" font-size="14" lengthAdjust="spacing" textLength="174" x="659" y="285.7334">Dashboard con Anal&#237;ticas</text></g><!--entity G--><g id="elem_G"><rect fill="#80FFDB" height="52.9766" rx="10" ry="10" style="stroke:#00B4D8;stroke-width:0.5;" width="177" x="340.5" y="479.9083"/><text fill="#03045E" font-family="sans-serif" font-size="14" lengthAdjust="spacing" textLength="109" x="350.5" y="503.4434">App iOS M&#237;nima</text><text fill="#03045E" font-family="sans-serif" font-size="14" lengthAdjust="spacing" textLength="157" x="350.5" y="519.9317">(Paridad de Funciones)</text></g><g id="elem_GMN28"><path d="M262,381.3583 L262,389.4183 L226.69,393.4183 L262,397.4183 L262,405.4911 A0,0 0 0 0 262,405.4911 L668,405.4911 A0,0 0 0 0 668,405.4911 L668,391.3583 L658,381.3583 L262,381.3583 A0,0 0 0 0 262,381.3583 " fill="#F0F8FF" style="stroke:#00B4D8;stroke-width:0.5;"/><path d="M658,381.3583 L658,391.3583 L668,391.3583 L658,381.3583 " fill="#F0F8FF" style="stroke:#00B4D8;stroke-width:0.5;"/><text fill="#03045E" font-family="sans-serif" font-size="12" lengthAdjust="spacing" textLength="385" x="268" y="397.9598">Algoritmos de predicci&#243;n, alertas autom&#225;ticas, integraci&#243;n con API.</text></g><g id="elem_GMN31"><path d="M877.5,268.3783 L877.5,276.4483 L843.23,280.4483 L877.5,284.4483 L877.5,292.5111 A0,0 0 0 0 877.5,292.5111 L1280.5,292.5111 A0,0 0 0 0 1280.5,292.5111 L1280.5,278.3783 L1270.5,268.3783 L877.5,268.3783 A0,0 0 0 0 877.5,268.3783 " fill="#F0F8FF" style="stroke:#00B4D8;stroke-width:0.5;"/><path d="M1270.5,268.3783 L1270.5,278.3783 L1280.5,278.3783 L1270.5,268.3783 " fill="#F0F8FF" style="stroke:#00B4D8;stroke-width:0.5;"/><text fill="#03045E" font-family="sans-serif" font-size="12" lengthAdjust="spacing" textLength="382" x="883.5" y="284.9798">Dashboard con gr&#225;ficas, reportes y explicaciones en texto simple.</text></g><g id="elem_GMN34"><path d="M552.5,494.3283 L552.5,502.3983 L517.75,506.3983 L552.5,510.3983 L552.5,518.4611 A0,0 0 0 0 552.5,518.4611 L899.5,518.4611 A0,0 0 0 0 899.5,518.4611 L899.5,504.3283 L889.5,494.3283 L552.5,494.3283 A0,0 0 0 0 552.5,494.3283 " fill="#F0F8FF" style="stroke:#00B4D8;stroke-width:0.5;"/><path d="M889.5,494.3283 L889.5,504.3283 L899.5,504.3283 L889.5,494.3283 " fill="#F0F8FF" style="stroke:#00B4D8;stroke-width:0.5;"/><text fill="#03045E" font-family="sans-serif" font-size="12" lengthAdjust="spacing" textLength="326" x="558.5" y="510.9298">App iOS con funciones equivalentes a Android, UI nativa.</text></g><!--entity H--><g id="elem_H"><rect fill="#80FFDB" height="36.4883" rx="10" ry="10" style="stroke:#00B4D8;stroke-width:0.5;" width="242" x="308" y="592.8883"/><text fill="#03045E" font-family="sans-serif" font-size="14" lengthAdjust="spacing" textLength="222" x="318" y="616.4234">M&#243;dulo de Punto de Venta (POS)</text></g><!--entity I--><g id="elem_I"><rect fill="#80FFDB" height="52.9766" rx="10" ry="10" style="stroke:#00B4D8;stroke-width:0.5;" width="177" x="340.5" y="689.3783"/><text fill="#03045E" font-family="sans-serif" font-size="14" lengthAdjust="spacing" textLength="157" x="350.5" y="712.9134">Integraciones Externas</text><text fill="#03045E" font-family="sans-serif" font-size="14" lengthAdjust="spacing" textLength="90" x="350.5" y="729.4017">(Facturaci&#243;n)</text></g><!--entity J--><g id="elem_J"><rect fill="#80FFDB" height="52.9766" rx="10" ry="10" style="stroke:#00B4D8;stroke-width:0.5;" width="174" x="342" y="802.3483"/><text fill="#03045E" font-family="sans-serif" font-size="14" lengthAdjust="spacing" textLength="65" x="352" y="825.8834">SIGA v1.0</text><text fill="#03045E" font-family="sans-serif" font-size="14" lengthAdjust="spacing" textLength="154" x="352" y="842.3717">(Plataforma Completa)</text></g><g id="elem_GMN43"><path d="M584.5,599.0683 L584.5,607.1283 L550.37,611.1283 L584.5,615.1283 L584.5,623.2011 A0,0 0 0 0 584.5,623.2011 L943.5,623.2011 A0,0 0 0 0 943.5,623.2011 L943.5,609.0683 L933.5,599.0683 L584.5,599.0683 A0,0 0 0 0 584.5,599.0683 " fill="#F0F8FF" style="stroke:#00B4D8;stroke-width:0.5;"/><path d="M933.5,599.0683 L933.5,609.0683 L943.5,609.0683 L933.5,599.0683 " fill="#F0F8FF" style="stroke:#00B4D8;stroke-width:0.5;"/><text fill="#03045E" font-family="sans-serif" font-size="12" lengthAdjust="spacing" textLength="338" x="590.5" y="615.6698">M&#243;dulo POS para ventas, registro r&#225;pido y control de caja.</text></g><g id="elem_GMN46"><path d="M552,703.7983 L552,711.8683 L517.91,715.8683 L552,719.8683 L552,727.9311 A0,0 0 0 0 552,727.9311 L954,727.9311 A0,0 0 0 0 954,727.9311 L954,713.7983 L944,703.7983 L552,703.7983 A0,0 0 0 0 552,703.7983 " fill="#F0F8FF" style="stroke:#00B4D8;stroke-width:0.5;"/><path d="M944,703.7983 L944,713.7983 L954,713.7983 L944,703.7983 " fill="#F0F8FF" style="stroke:#00B4D8;stroke-width:0.5;"/><text fill="#03045E" font-family="sans-serif" font-size="12" lengthAdjust="spacing" textLength="381" x="558" y="720.3998">Integraci&#243;n con sistemas de facturaci&#243;n y otros servicios externos.</text></g><g id="elem_GMN49"><path d="M550.5,816.7783 L550.5,824.8383 L516.42,828.8383 L550.5,832.8383 L550.5,840.9111 A0,0 0 0 0 550.5,840.9111 L933.5,840.9111 A0,0 0 0 0 933.5,840.9111 L933.5,826.7783 L923.5,816.7783 L550.5,816.7783 A0,0 0 0 0 550.5,816.7783 " fill="#F0F8FF" style="stroke:#00B4D8;stroke-width:0.5;"/><path d="M923.5,816.7783 L923.5,826.7783 L933.5,826.7783 L923.5,816.7783 " fill="#F0F8FF" style="stroke:#00B4D8;stroke-width:0.5;"/><text fill="#03045E" font-family="sans-serif" font-size="12" lengthAdjust="spacing" textLength="362" x="556.5" y="833.3798">SIGA v1.0, plataforma estable y completa para operaci&#243;n real.</text></g><!--link A to B--><g id="link_A_B"><path d="M97,81.1683 C97,100.0583 97,124.0283 97,142.9583 " fill="none" id="A-to-B" style="stroke:#181818;stroke-width:1.0;"/><polygon fill="#181818" points="97,148.9583,101,139.9583,97,143.9583,93,139.9583,97,148.9583" style="stroke:#181818;stroke-width:1.0;"/></g><!--link B to C--><g id="link_B_C"><path d="M101.69,185.8083 C106.6,203.9783 112.8059,226.9257 118.4359,247.7757 " fill="none" id="B-to-C" style="stroke:#181818;stroke-width:1.0;"/><polygon fill="#181818" points="120,253.5683,121.5155,243.8367,118.6966,248.7412,113.7921,245.9222,120,253.5683" style="stroke:#181818;stroke-width:1.0;"/></g><!--link B to D--><g id="link_B_D"><path d="M127.14,148.9283 C150.96,135.4183 185.57,118.2583 218.5,110.9783 C309.85,90.7783 548.12,90.9283 639.5,110.9783 C666.04,116.8083 688.3412,126.1907 710.6412,137.7307 " fill="none" id="B-to-D" style="stroke:#181818;stroke-width:1.0;"/><polygon fill="#181818" points="715.97,140.4883,709.8152,132.7994,711.5294,138.1903,706.1385,139.9044,715.97,140.4883" style="stroke:#181818;stroke-width:1.0;"/></g><!--link C to E--><g id="link_C_E"><path d="M129.32,307.1883 C130.92,324.9883 132.511,342.6125 134.121,360.4625 " fill="none" id="C-to-E" style="stroke:#181818;stroke-width:1.0;"/><polygon fill="#181818" points="134.66,366.4383,137.8353,357.1153,134.2108,361.4585,129.8677,357.834,134.66,366.4383" style="stroke:#181818;stroke-width:1.0;"/></g><!--link D to F--><g id="link_D_F"><path d="M758.29,194.2083 C755.3,214.9583 752.0272,237.6398 749.3972,255.8598 " fill="none" id="D-to-F" style="stroke:#181818;stroke-width:1.0;"/><polygon fill="#181818" points="748.54,261.7983,753.7848,253.4621,749.2543,256.8496,745.8668,252.3191,748.54,261.7983" style="stroke:#181818;stroke-width:1.0;"/></g><!--link E to G--><g id="link_E_G"><path d="M205.09,420.2983 C251.94,438.1083 308.3213,459.537 355.1913,477.347 " fill="none" id="E-to-G" style="stroke:#181818;stroke-width:1.0;"/><polygon fill="#181818" points="360.8,479.4783,353.8077,472.5423,356.1261,477.7022,350.9661,480.0206,360.8,479.4783" style="stroke:#181818;stroke-width:1.0;"/></g><!--link F to G--><g id="link_F_G"><path d="M743.15,298.9883 C737.49,328.1883 722.13,386.8183 686,419.9083 C660.86,442.9383 587.5525,465.7714 523.6725,482.5814 " fill="none" id="F-to-G" style="stroke:#181818;stroke-width:1.0;"/><polygon fill="#181818" points="517.87,484.1083,527.5916,485.6862,522.7054,482.8359,525.5557,477.9496,517.87,484.1083" style="stroke:#181818;stroke-width:1.0;"/></g><!--link G to H--><g id="link_G_H"><path d="M429,533.3183 C429,551.8683 429,570.3283 429,586.6183 " fill="none" id="G-to-H" style="stroke:#181818;stroke-width:1.0;"/><polygon fill="#181818" points="429,592.6183,433,583.6183,429,587.6183,425,583.6183,429,592.6183" style="stroke:#181818;stroke-width:1.0;"/></g><!--link H to I--><g id="link_H_I"><path d="M429,629.5583 C429,645.9283 429,664.6283 429,683.2483 " fill="none" id="H-to-I" style="stroke:#181818;stroke-width:1.0;"/><polygon fill="#181818" points="429,689.2483,433,680.2483,429,684.2483,425,680.2483,429,689.2483" style="stroke:#181818;stroke-width:1.0;"/></g><!--link I to J--><g id="link_I_J"><path d="M429,742.5983 C429,760.3983 429,777.9983 429,795.8583 " fill="none" id="I-to-J" style="stroke:#181818;stroke-width:1.0;"/><polygon fill="#181818" points="429,801.8583,433,792.8583,429,796.8583,425,792.8583,429,801.8583" style="stroke:#181818;stroke-width:1.0;"/></g><!--SRC=[VPLBZXit48RtF4N1MSG1P4CpTe215m5QZzRq88RbKUniigdffZJCi5cT8gNCE0ZWStWJE7klV0JT92V84L9aI-sMO6N7fbYF__kBL331QbWKimp-UVytN1DMDJRmrlWrMgWqJBH7PhAMbF9tnZN8M0FhCg1RIUWV2c24vTsAQUsgCLbY-EPYcEUJaVoIamkxlU6puVFlf_4qSQLvlpiSFPzSoEvr6yvECvmFrP-zOex2YJhvCB_8yvCvlrOzxYtCEmrdvr94VGivUlbu0JCC6bbzKVRetxy-l8V2cTAGaB0z58y0FMJzizcyW0TfK795Q1Z8m-OidHiTd6iQo5p5P2fukVtaJ8s_kCUPDpve9pB7v3QQFKfDX_Qxb63SJ_2plW598a7ZwpSJgTbQPTv9oFQpQoCcIcNmfABVtPCVfFweMu_ZcitgDiY7d4feqpVGKXJDsTHYG4brRS80j0-yBiEQ4Mv4sa2qBKq48fMYJjOhA-KU06s9hjHFbNPLykiuzKX5GjVJnKy3gCsAaq3jOV7wHzaWmHiPGvN0fH9efRwh6Z8k20CHUphxMFMvbkIWl4NfN_eJi9nIUu5KeH_8pnObQ6cD-v-69sf76k8GflenIyDK2H6IF9i3yAb4eF9EQB1kY8EeywPkhFRzAhk1Ety1OwoDEvou8eCv4vR1RD9OMCqXyPsphapPCcijdlRZ9kXlRmYvrPx9v6m_1LEYJqVpum4qhnQzuPiZ2vWg2iZNhbzZfjIu6vsfcdJhN4sxzKpblVKHnQdAx8hOX5fiJVXQ7G9i84FJoiDre7hxCJKy4FE3JlCHeIOvy-AqJRawrBxYxSTbcwXpuG7qVMDbSpTpsa7Gzu5szfnEFbDxMZ7rSWy7z6zhCSZ62olTx-Tk06yAS1Yz-uhXpyHmOjO7Vh_SVgxMxUJFrowanLj9Y_1u_chHcd1vC21xEAcFwNtGxD2BYJccQzfx0uf-N7hWDsTFXz5lYm6NnBLCDKK00Tk8AwLcdPMNwh9R5wherbV7a2xLNeMqt5wMJPJWUzTFJ6bCHUA4W9IDzCzIugzuchtKF1w4z4ZMc0PfsTChQKcIodNJl8cljJYKo90_dVzATKm6q7n18ayUtWYos6eBfzL4ZTwNOussb_W_]--></g></svg>